<svg width="32" height="32" viewBox="0 0 32 32" fill="none" xmlns="http://www.w3.org/2000/svg">
<path d="M23.0645 17.664C23.0353 17.5821 23.0006 17.5022 22.9605 17.425L22.9655 17.436C22.8195 17.095 21.6455 14.827 21.4495 14.518L15.9985 4L10.4085 14.776C10.2185 15.086 9.17653 17.096 9.03253 17.436L8.97553 17.562C8.60375 18.4681 8.41414 19.4386 8.41753 20.418C8.41753 22.4289 9.21634 24.3574 10.6382 25.7793C12.0601 27.2012 13.9887 28 15.9995 28C18.0104 28 19.9389 27.2012 21.3608 25.7793C22.7827 24.3574 23.5815 22.4289 23.5815 20.418V20.412L23.5825 20.311C23.5825 19.356 23.3925 18.445 23.0475 17.615L23.0645 17.662V17.664ZM16.0025 26.019C15.0326 26.0192 14.0793 25.7668 13.2366 25.2867C12.3939 24.8065 11.6907 24.1152 11.1963 23.2808C10.7019 22.4463 10.4334 21.4975 10.4171 20.5277C10.4008 19.5579 10.6374 18.6006 11.1035 17.75L11.0885 17.779C11.0153 18.1684 10.9785 18.5638 10.9785 18.96V18.961C10.9796 20.7366 11.6854 22.4391 12.9409 23.6946C14.1964 24.9501 15.899 25.6559 17.6745 25.657C17.7875 25.657 17.9085 25.657 18.0205 25.651C17.3814 25.8966 16.7022 26.0214 16.0175 26.019H15.9945H16.0025Z" fill="#FF974A"/>
</svg>
