<svg width="275" height="104" viewBox="0 0 275 104" fill="none" xmlns="http://www.w3.org/2000/svg">
<path d="M35.6143 56.2717C55.2835 56.2717 71.2286 47.0669 71.2286 35.7123C71.2286 24.3577 55.2835 15.1529 35.6143 15.1529C15.9451 15.1529 0 24.3577 0 35.7123C0 47.0669 15.9451 56.2717 35.6143 56.2717Z" fill="#E0E0E0"/>
<path d="M188.46 38.9729C173.022 47.8831 147.988 47.8831 132.543 38.9729C117.099 30.0628 117.106 15.6019 132.543 6.68511C147.981 -2.23167 173.022 -2.22507 188.46 6.68511C203.897 15.5953 203.904 30.0562 188.46 38.9729Z" fill="#E0E0E0"/>
<path d="M263.273 80.138C247.637 89.167 222.279 89.167 206.644 80.138C191.008 71.109 191.001 56.4765 206.644 47.4475C222.286 38.4186 247.637 38.4186 263.273 47.4475C278.909 56.4765 278.909 71.109 263.273 80.138Z" fill="#E0E0E0"/>
<path d="M183.649 79.2338L142.312 103.1C141.581 103.432 140.782 103.588 139.979 103.555C139.177 103.522 138.393 103.3 137.692 102.908L109.602 86.6919C103.002 82.8837 102.289 77.1217 107.998 73.8217L132.933 59.4268C138.649 56.1267 148.628 56.5425 155.222 60.3508L183.319 76.5673C184.685 77.3594 184.83 78.554 183.649 79.2338Z" fill="#E0E0E0"/>
</svg>
