<svg width="18" height="18" viewBox="0 0 18 18" fill="none" xmlns="http://www.w3.org/2000/svg">
<path d="M6.98203 5.03233C6.9125 5.10172 6.85734 5.18414 6.8197 5.27487C6.78207 5.3656 6.7627 5.46286 6.7627 5.56108C6.7627 5.65931 6.78207 5.75657 6.8197 5.8473C6.85734 5.93803 6.9125 6.02045 6.98203 6.08983L9.89203 8.99983L6.98203 11.9098C6.8418 12.0501 6.76301 12.2403 6.76301 12.4386C6.76301 12.6369 6.8418 12.8271 6.98203 12.9673C7.12226 13.1076 7.31246 13.1863 7.51078 13.1863C7.7091 13.1863 7.8993 13.1076 8.03953 12.9673L11.482 9.52483C11.5516 9.45545 11.6067 9.37303 11.6444 9.2823C11.682 9.19157 11.7014 9.09431 11.7014 8.99608C11.7014 8.89786 11.682 8.8006 11.6444 8.70987C11.6067 8.61914 11.5516 8.53672 11.482 8.46733L8.03953 5.02483C7.75453 4.73983 7.27453 4.73983 6.98203 5.03233Z" fill="#6152AD"/>
</svg>
