<svg width="45" height="92" viewBox="0 0 45 92" fill="none" xmlns="http://www.w3.org/2000/svg">
<path d="M17.7713 40.202C14.5844 40.6408 11.438 41.3358 8.36274 42.2801C6.76331 44.0994 5.78469 46.3806 5.56869 48.7933C5.39129 50.3202 5.77144 60.5904 6.69012 67.2999C7.62781 74.1551 5.7144 79.5595 4.04177 86.1487C17.2137 94.7399 39.2874 92.4273 44.7488 87.2257C44.7107 81.5933 45.1796 66.4509 44.1152 55.5852C43.3993 48.2801 36.0625 42.825 31.7986 40.012C31.7922 40.012 28.0098 38.8969 17.7713 40.202Z" fill="#F0F0F0"/>
<path d="M20.6861 1.31991C22.967 2.35897 23.9553 3.18261 25.9701 1.07282C28.327 -0.827898 31.856 -0.0676127 33.6236 2.28927C34.2572 3.06223 34.8401 4.07595 35.8031 4.06961C36.3353 4.06961 37.0323 3.72115 38.0016 3.61978C38.7477 3.58078 39.4888 3.76251 40.1322 4.14225C40.7756 4.52198 41.2929 5.0829 41.6193 5.75491C41.9171 6.57222 41.6573 7.4909 41.556 8.36523C41.487 8.78434 41.535 9.21438 41.6949 9.6079C41.8548 10.0014 42.1202 10.3432 42.462 10.5954C42.6399 10.6979 42.8385 10.7595 43.0432 10.7756C43.2479 10.7917 43.4537 10.762 43.6455 10.6885C43.8372 10.6151 44.0102 10.4998 44.1518 10.3511C44.2935 10.2024 44.4001 10.0239 44.4641 9.82878C45.3004 10.5447 45.0976 12.0653 44.2677 12.8192C43.8383 13.1588 43.342 13.4037 42.8114 13.538C42.2807 13.6723 41.7277 13.693 41.1885 13.5985C43.1589 13.9407 44.8759 16.1898 43.8939 18.2426C43.4504 19.1423 42.5127 19.7632 42.2909 20.7769C42.0185 21.9997 42.9562 23.1084 43.2539 24.3186C43.435 25.0976 43.3551 25.9145 43.0265 26.6437C42.698 27.3728 42.139 27.9739 41.4356 28.3544C40.2888 28.9183 38.9013 28.7662 37.7989 29.3808C36.5824 30.0144 35.9298 31.4589 34.9668 32.4853C30.196 37.2118 27.2879 30.4009 22.5678 32.6437C21.94 33.0033 21.3517 33.428 20.8128 33.9108C20.5721 34.1009 20.3377 34.291 20.0906 34.462C19.8538 34.5777 19.6393 34.7343 19.457 34.9246C19.2983 35.1415 19.093 35.3201 18.8561 35.4473C18.6193 35.5745 18.357 35.647 18.0885 35.6595C17.5695 35.6817 17.0503 35.624 16.5489 35.4884C14.927 35.14 13.2036 34.6775 12.1139 33.3786C11.7681 32.9292 11.4528 32.4572 11.1699 31.9658C10.6514 31.0095 9.82867 30.2536 8.83197 29.818C7.68521 29.4188 6.29769 29.7546 5.29665 29.0767C4.56095 28.4705 4.06651 27.6209 3.90279 26.6818C3.73764 25.7451 3.40498 24.8458 2.92076 24.0271C2.5927 23.5785 2.1442 23.232 1.62724 23.0279C1.11028 22.8238 0.546057 22.7705 0 22.874C0.264174 21.7605 0.915342 20.777 1.83735 20.099C2.46807 19.7034 3.11945 19.3417 3.78875 19.0156C4.0151 18.8981 4.22761 18.7557 4.42232 18.5911C4.61886 18.4019 4.79123 18.1891 4.93551 17.9575C5.22534 17.4754 5.42701 16.9454 5.53107 16.3926C5.57542 16.1898 5.6071 15.9871 5.63244 15.759C5.76549 14.6186 5.6768 13.4655 5.84153 12.3377C5.93795 11.4227 6.25009 10.5435 6.75233 9.77253C7.25457 9.00155 7.93257 8.36073 8.73062 7.90272C9.45923 7.54158 10.2702 7.4022 11.0241 7.10442C11.5583 6.91342 12.0371 6.5935 12.418 6.17307C12.5827 5.98933 12.7158 5.78659 12.8805 5.59652C13.0314 5.42282 13.1494 5.22318 13.229 5.0073C13.519 4.13791 13.9469 3.32076 14.4961 2.58705C16.0484 0.737024 18.646 0.508939 20.6861 1.31991Z" fill="#263238"/>
<path d="M31.5773 13.1929C33.9468 13.459 36.2784 13.706 36.9943 18.0143C37.121 18.7429 36.9943 19.5412 37.0894 20.4663C37.1717 21.5877 37.7926 22.8675 37.799 24.312C37.8306 32.5485 34.8529 34.6329 33.535 35.2538C31.9749 36.057 30.2038 36.3559 28.4665 36.1091L28.4158 40.3604C28.4158 40.3604 32.1285 45.1502 30.5066 49.1671C19.5901 46.3033 15.89 40.6012 15.89 40.6012L15.9281 30.1409C15.3377 30.1994 14.7416 30.1344 14.1777 29.9501C13.6137 29.7657 13.0944 29.4661 12.6525 29.0702C10.1182 27.1124 10.1182 23.273 11.6895 21.6004C13.2607 19.9277 16.4032 20.7007 17.3916 22.6141C19.6154 21.8221 19.5141 19.9024 18.6588 17.3618C20.6989 16.8105 22.3018 12.8571 22.5869 9.68287C24.5446 11.9574 27.9786 12.7937 31.5773 13.1929Z" fill="#9E6767"/>
<path d="M30.209 28.8041C29.6261 28.7534 28.3082 28.4873 28.3779 27.9488C28.4793 27.3639 28.4335 26.763 28.2449 26.2001C28.1942 26.0797 28.1182 26.2445 28.1182 26.3268C28.1604 27.2601 27.8493 28.1749 27.2469 28.8889C26.6444 29.6029 25.795 30.0635 24.868 30.179C24.868 30.179 24.8299 30.2486 24.868 30.2486C25.2874 30.2953 25.712 30.2577 26.1167 30.1381C26.5215 30.0184 26.8982 29.819 27.2249 29.5517C27.5606 29.2539 27.7761 28.9181 28.2892 28.9878C29.341 29.0955 30.9503 29.444 31.6599 28.5063C31.2048 28.7136 30.7088 28.8154 30.209 28.8041Z" fill="#874C4C"/>
<path d="M29.2584 18.5403L30.722 26.4599L34.5614 24.2107L29.2584 18.5403Z" fill="#874C4C"/>
<path d="M28.46 36.1091C26.1792 35.7163 20.2236 34.8419 18.0568 30.9201C18.1462 32.3324 18.7663 33.6587 19.7928 34.6328C22.7135 37.0658 28.441 37.7183 28.441 37.7183L28.46 36.1091Z" fill="#874C4C"/>
<path d="M25.4757 17.2924L22.973 19.06C22.7472 18.7155 22.6633 18.2969 22.7389 17.8919C22.8144 17.4869 23.0436 17.1268 23.3785 16.8869C23.5416 16.7721 23.7262 16.6914 23.9211 16.6496C24.1161 16.6078 24.3175 16.6058 24.5133 16.6436C24.7091 16.6815 24.8953 16.7585 25.0606 16.8699C25.226 16.9814 25.3671 17.1251 25.4757 17.2924Z" fill="#263238"/>
<path d="M35.6887 17.6598L32.8187 16.5257C32.8833 16.3362 32.9859 16.162 33.1203 16.0136C33.2546 15.8652 33.4178 15.7459 33.6 15.6628C33.7821 15.5798 33.9792 15.5348 34.1793 15.5306C34.3795 15.5265 34.5783 15.5632 34.7637 15.6387C35.1483 15.7919 35.4589 16.0875 35.6312 16.4639C35.8035 16.8403 35.8241 17.2686 35.6887 17.6598Z" fill="#263238"/>
<path d="M27.0221 21.2585C27.0221 21.4929 26.9526 21.7219 26.8225 21.9168C26.6923 22.1116 26.5072 22.2635 26.2907 22.3531C26.0742 22.4428 25.836 22.4663 25.6062 22.4206C25.3764 22.3748 25.1653 22.262 24.9996 22.0963C24.8339 21.9306 24.721 21.7195 24.6753 21.4897C24.6296 21.2598 24.6531 21.0216 24.7428 20.8051C24.8324 20.5886 24.9843 20.4036 25.1791 20.2734C25.3739 20.1432 25.603 20.0738 25.8374 20.0738C25.9929 20.0738 26.147 20.1044 26.2907 20.1639C26.4345 20.2235 26.5651 20.3108 26.6751 20.4208C26.7851 20.5308 26.8724 20.6614 26.9319 20.8051C26.9915 20.9489 27.0221 21.1029 27.0221 21.2585Z" fill="#263238"/>
<path d="M35.4738 20.8466C35.4801 21.0821 35.416 21.3142 35.2897 21.5132C35.1634 21.7122 34.9806 21.8689 34.7648 21.9635C34.5489 22.058 34.3097 22.0861 34.0779 22.044C33.846 22.0019 33.6319 21.8916 33.4631 21.7273C33.2942 21.5629 33.1782 21.3519 33.1298 21.1213C33.0815 20.8906 33.103 20.6508 33.1917 20.4325C33.2803 20.2141 33.4321 20.0272 33.6276 19.8955C33.823 19.7639 34.0533 19.6935 34.289 19.6935C34.5978 19.6933 34.8944 19.8138 35.1157 20.0292C35.337 20.2446 35.4655 20.5379 35.4738 20.8466Z" fill="#263238"/>
</svg>
