<svg width="24" height="24" viewBox="0 0 24 24" fill="none" xmlns="http://www.w3.org/2000/svg">
<path d="M7.89716 5.58951C7.47665 5.58951 7.12793 5.24079 7.12793 4.82028V1.74335C7.12793 1.32284 7.47665 0.974121 7.89716 0.974121C8.31767 0.974121 8.66639 1.32284 8.66639 1.74335V4.82028C8.66639 5.24079 8.31767 5.58951 7.89716 5.58951Z" fill="#606873"/>
<path d="M16.1022 5.58951C15.6817 5.58951 15.333 5.24079 15.333 4.82028V1.74335C15.333 1.32284 15.6817 0.974121 16.1022 0.974121C16.5228 0.974121 16.8715 1.32284 16.8715 1.74335V4.82028C16.8715 5.24079 16.5228 5.58951 16.1022 5.58951Z" fill="#606873"/>
<path d="M8.41041 14.5641C8.27707 14.5641 8.14374 14.5334 8.02066 14.4821C7.88733 14.4308 7.78477 14.359 7.6822 14.2667C7.49759 14.0718 7.38477 13.8154 7.38477 13.5385C7.38477 13.4052 7.41553 13.2718 7.46682 13.1488C7.5181 13.0257 7.58989 12.9129 7.6822 12.8103C7.78477 12.718 7.88733 12.6462 8.02066 12.5949C8.38989 12.4411 8.85143 12.5231 9.13861 12.8103C9.32323 13.0052 9.43605 13.2718 9.43605 13.5385C9.43605 13.6 9.42579 13.6718 9.41553 13.7436C9.40528 13.8052 9.38477 13.8667 9.354 13.9282C9.33348 13.9898 9.30271 14.0513 9.26169 14.1129C9.23092 14.1641 9.17964 14.2154 9.13861 14.2667C8.94374 14.4513 8.67707 14.5641 8.41041 14.5641Z" fill="#606873"/>
<path d="M12.0003 14.5638C11.8669 14.5638 11.7336 14.533 11.6105 14.4818C11.4772 14.4305 11.3746 14.3587 11.272 14.2664C11.0874 14.0715 10.9746 13.8151 10.9746 13.5382C10.9746 13.4048 11.0054 13.2715 11.0567 13.1484C11.1079 13.0254 11.1797 12.9125 11.272 12.81C11.3746 12.7177 11.4772 12.6459 11.6105 12.5946C11.9797 12.4305 12.4413 12.5228 12.7285 12.81C12.9131 13.0048 13.0259 13.2715 13.0259 13.5382C13.0259 13.5997 13.0156 13.6715 13.0054 13.7433C12.9951 13.8048 12.9746 13.8664 12.9438 13.9279C12.9233 13.9895 12.8926 14.051 12.8515 14.1125C12.8208 14.1638 12.7695 14.2151 12.7285 14.2664C12.5336 14.451 12.2669 14.5638 12.0003 14.5638Z" fill="#606873"/>
<path d="M15.5891 14.5638C15.4558 14.5638 15.3225 14.533 15.1994 14.4818C15.066 14.4305 14.9635 14.3587 14.8609 14.2664C14.8199 14.2151 14.7789 14.1638 14.7378 14.1125C14.6968 14.051 14.666 13.9895 14.6455 13.9279C14.6148 13.8664 14.5942 13.8048 14.584 13.7433C14.5737 13.6715 14.5635 13.5997 14.5635 13.5382C14.5635 13.2715 14.6763 13.0048 14.8609 12.81C14.9635 12.7177 15.066 12.6459 15.1994 12.5946C15.5789 12.4305 16.0301 12.5228 16.3173 12.81C16.5019 13.0048 16.6148 13.2715 16.6148 13.5382C16.6148 13.5997 16.6045 13.6715 16.5942 13.7433C16.584 13.8048 16.5635 13.8664 16.5327 13.9279C16.5122 13.9895 16.4814 14.051 16.4404 14.1125C16.4096 14.1638 16.3583 14.2151 16.3173 14.2664C16.1225 14.451 15.8558 14.5638 15.5891 14.5638Z" fill="#606873"/>
<path d="M8.41041 18.1533C8.27707 18.1533 8.14374 18.1227 8.02066 18.0714C7.89759 18.0201 7.78477 17.9482 7.6822 17.8559C7.49759 17.661 7.38477 17.3944 7.38477 17.1277C7.38477 16.9944 7.41553 16.861 7.46682 16.738C7.5181 16.6046 7.58989 16.4919 7.6822 16.3996C8.06169 16.0201 8.75912 16.0201 9.13861 16.3996C9.32323 16.5945 9.43605 16.861 9.43605 17.1277C9.43605 17.3944 9.32323 17.661 9.13861 17.8559C8.94374 18.0405 8.67707 18.1533 8.41041 18.1533Z" fill="#606873"/>
<path d="M12.0003 18.1533C11.7336 18.1533 11.4669 18.0405 11.272 17.8559C11.0874 17.661 10.9746 17.3944 10.9746 17.1277C10.9746 16.9944 11.0054 16.861 11.0567 16.738C11.1079 16.6046 11.1797 16.4919 11.272 16.3996C11.6515 16.0201 12.349 16.0201 12.7285 16.3996C12.8208 16.4919 12.8926 16.6046 12.9438 16.738C12.9951 16.861 13.0259 16.9944 13.0259 17.1277C13.0259 17.3944 12.9131 17.661 12.7285 17.8559C12.5336 18.0405 12.2669 18.1533 12.0003 18.1533Z" fill="#606873"/>
<path d="M15.5891 18.1537C15.3225 18.1537 15.0558 18.0409 14.8609 17.8563C14.7686 17.764 14.6968 17.6512 14.6455 17.5179C14.5942 17.3948 14.5635 17.2614 14.5635 17.1281C14.5635 16.9948 14.5942 16.8614 14.6455 16.7384C14.6968 16.605 14.7686 16.4922 14.8609 16.3999C15.0968 16.164 15.4558 16.0512 15.784 16.123C15.8558 16.1332 15.9173 16.1537 15.9789 16.1845C16.0404 16.205 16.1019 16.2358 16.1635 16.2768C16.2148 16.3076 16.266 16.3589 16.3173 16.3999C16.5019 16.5948 16.6148 16.8614 16.6148 17.1281C16.6148 17.3948 16.5019 17.6614 16.3173 17.8563C16.1225 18.0409 15.8558 18.1537 15.5891 18.1537Z" fill="#606873"/>
<path d="M20.7178 9.78456H3.28193C2.86141 9.78456 2.5127 9.43584 2.5127 9.01532C2.5127 8.59481 2.86141 8.24609 3.28193 8.24609H20.7178C21.1383 8.24609 21.4871 8.59481 21.4871 9.01532C21.4871 9.43584 21.1383 9.78456 20.7178 9.78456Z" fill="#606873"/>
<path d="M16.1026 23.0258H7.89744C4.15385 23.0258 2 20.8719 2 17.1283V8.41038C2 4.66679 4.15385 2.51294 7.89744 2.51294H16.1026C19.8462 2.51294 22 4.66679 22 8.41038V17.1283C22 20.8719 19.8462 23.0258 16.1026 23.0258ZM7.89744 4.0514C4.9641 4.0514 3.53846 5.47704 3.53846 8.41038V17.1283C3.53846 20.0617 4.9641 21.4873 7.89744 21.4873H16.1026C19.0359 21.4873 20.4615 20.0617 20.4615 17.1283V8.41038C20.4615 5.47704 19.0359 4.0514 16.1026 4.0514H7.89744Z" fill="#606873"/>
</svg>
