<svg width="73" height="47" viewBox="0 0 73 47" fill="none" xmlns="http://www.w3.org/2000/svg">
<path d="M72.9931 18.9718C72.9541 18.6749 72.8389 18.3932 72.6587 18.1541C72.4784 17.9149 72.2394 17.7265 71.9647 17.6072L46.4395 2.86698C40.4406 -0.593953 31.3762 -0.969704 26.1815 2.02977L3.52398 15.1088C1.17055 16.4668 0.0169082 18.2928 0.0235004 20.198C0.0235004 20.91 0.0235004 23.7117 0.0235004 24.4104C0.0235004 26.7111 1.68475 29.1371 4.96769 31.0027L30.4929 45.743C31.1312 46.0964 31.8432 46.2959 32.5722 46.3257C33.3012 46.3554 34.0271 46.2146 34.6921 45.9143L72.2679 24.2258C72.4774 24.1338 72.6569 23.985 72.7862 23.7963C72.9155 23.6076 72.9895 23.3865 72.9997 23.1579C72.9799 22.7096 72.9931 19.3674 72.9931 18.9718Z" fill="#BA68C8"/>
<path opacity="0.2" d="M32.9579 42.137V46.3494C32.1039 46.373 31.2586 46.173 30.5056 45.7693L4.98045 31.0291C1.68433 29.1371 0.0230799 26.7046 0.0362644 24.4368C0.0362644 23.7315 0.0362644 20.9363 0.0362644 20.2244C0.0362644 22.5185 1.71729 24.9378 5.00023 26.8166L30.5254 41.5569C31.2738 41.9539 32.111 42.1535 32.9579 42.137Z" fill="black"/>
<path d="M72.2608 20.0266L34.685 41.7151C34.02 42.0154 33.2941 42.1562 32.5651 42.1265C31.8361 42.0967 31.1241 41.8972 30.4858 41.5437L4.9606 26.8035C-1.03835 23.3425 -1.68439 18.1083 3.50371 15.1088L26.1613 2.02981C31.3559 -0.96966 40.4203 -0.607094 46.4192 2.86702L71.9444 17.6073C73.2035 18.3258 73.342 19.407 72.2608 20.0266Z" fill="#BA68C8"/>
<g opacity="0.3">
<path d="M72.2608 20.0266L34.685 41.7151C34.02 42.0154 33.2941 42.1562 32.5651 42.1265C31.8361 42.0967 31.1241 41.8972 30.4858 41.5437L4.9606 26.8035C-1.03835 23.3425 -1.68439 18.1083 3.50371 15.1088L26.1613 2.02981C31.3559 -0.96966 40.4203 -0.607094 46.4192 2.86702L71.9444 17.6073C73.2035 18.3258 73.342 19.407 72.2608 20.0266Z" fill="white"/>
</g>
<path d="M43.2215 4.39658L67.1184 18.181C67.2704 18.2319 67.4026 18.3293 67.4963 18.4594C67.59 18.5895 67.6403 18.7458 67.6403 18.9061C67.6403 19.0664 67.59 19.2227 67.4963 19.3528C67.4026 19.483 67.2704 19.5804 67.1184 19.6313L34.0385 38.7488C33.6497 38.9473 33.2193 39.0508 32.7827 39.0508C32.3461 39.0508 31.9157 38.9473 31.5269 38.7488L7.65635 24.971C3.43072 22.5318 3.43072 18.5831 7.65635 16.1439C8.04521 15.9455 8.47558 15.842 8.91218 15.842C9.34877 15.842 9.77914 15.9455 10.168 16.1439L15.7187 19.3478C16.1075 19.5463 16.5379 19.6498 16.9745 19.6498C17.4111 19.6498 17.8415 19.5463 18.2303 19.3478L33.498 10.501C33.65 10.4501 33.7822 10.3527 33.8758 10.2226C33.9695 10.0924 34.0199 9.93619 34.0199 9.77586C34.0199 9.61553 33.9695 9.45924 33.8758 9.32912C33.7822 9.19899 33.65 9.1016 33.498 9.05071L27.9539 5.84686C27.8018 5.79597 27.6696 5.69858 27.576 5.56845C27.4823 5.43833 27.4319 5.28204 27.4319 5.12171C27.4319 4.96138 27.4823 4.80512 27.576 4.67499C27.6696 4.54487 27.8018 4.44748 27.9539 4.39658C32.1795 1.96404 39.0025 1.96404 43.2215 4.39658Z" fill="#37474F"/>
<path d="M31.8173 9.967L17.2748 18.3655C13.537 16.2099 13.7612 12.5841 17.7824 10.2637C21.8037 7.94319 28.0861 7.81133 31.8173 9.967Z" fill="#FAFAFA"/>
<path d="M20.8079 12.6896C20.498 12.5116 20.498 12.2281 20.8079 12.0303L20.8804 11.9908C21.0522 11.9044 21.2418 11.8594 21.4341 11.8594C21.6264 11.8594 21.816 11.9044 21.9879 11.9908L25.139 13.8102L23.9589 14.4695L20.8079 12.6896Z" fill="#BA68C8"/>
</svg>
