<svg width="47" height="42" viewBox="0 0 47 42" fill="none" xmlns="http://www.w3.org/2000/svg">
<path d="M23.5219 38.7471L18.6223 35.7683C15.1193 33.6049 11.8353 31.1055 8.81678 28.3055C3.84159 23.6453 0 18.6386 0 11.6544C0.00763049 8.77183 1.0745 5.99257 2.9977 3.84529L3.03548 3.80121C4.02662 2.63312 5.25689 1.69134 6.64319 1.03947C8.02949 0.387606 9.53955 0.0408363 11.0714 0.0225881C15.8324 -0.22932 20.5557 1.59701 23.4967 6.95005C26.4377 1.6222 31.161 -0.204129 35.9284 0.0225881C37.4591 0.0417337 38.9679 0.388934 40.3531 1.04077C41.7382 1.69261 42.9675 2.63392 43.9579 3.80121L43.9957 3.84529C45.9207 5.99195 46.9898 8.77111 46.9997 11.6544C46.9997 18.6386 43.177 23.6201 38.1829 28.3055C35.1622 31.1056 31.8761 33.6049 28.3711 35.7683L23.5219 38.7471Z" fill="#8873F4"/>
<path d="M2.12842 20.0995H13.1053L16.695 9.11007C16.7451 8.95716 16.842 8.82384 16.9719 8.72893C17.1019 8.63401 17.2583 8.58229 17.4192 8.58106C17.5786 8.5814 17.7339 8.63128 17.8637 8.72381C17.9934 8.81633 18.0912 8.94691 18.1435 9.09747L23.8114 25.2196L28.7803 13.1217C28.8366 12.9832 28.9322 12.8641 29.0552 12.779C29.1783 12.694 29.3235 12.6468 29.473 12.6431C29.6226 12.6465 29.7683 12.6905 29.8948 12.7703C30.0213 12.8502 30.1236 12.963 30.191 13.0965L33.1446 19.6461H45.1669C44.9087 20.1688 44.6253 20.6789 44.3167 21.1828H32.6345C32.4865 21.1832 32.3416 21.1406 32.2175 21.06C32.0934 20.9795 31.9953 20.8646 31.9354 20.7293L29.5045 15.3511L24.4663 27.6694C24.4092 27.8099 24.3117 27.9303 24.1861 28.0155C24.0606 28.1007 23.9127 28.1468 23.761 28.148C23.6051 28.143 23.4544 28.0909 23.3285 27.9988C23.2027 27.9067 23.1076 27.7787 23.0557 27.6316L17.4822 11.7425L14.4215 21.1009C14.3731 21.2548 14.2767 21.3892 14.1464 21.4844C14.016 21.5796 13.8587 21.6306 13.6973 21.6299H2.9975C2.70151 21.1324 2.40551 20.6223 2.12842 20.0995Z" fill="white"/>
<path d="M16.9849 33.8478C14.6737 34.7546 14.0943 39.1063 16.034 41.5624C11.9405 39.8117 10.0386 34.2823 11.9405 30.1006L16.9849 33.8478Z" fill="#8873F4"/>
</svg>
