<svg width="41" height="41" viewBox="0 0 41 41" fill="none" xmlns="http://www.w3.org/2000/svg">
<path d="M0 8.8694C5.66902 8.8694 8.80791 12.1288 13.0375 15.2803C19.886 20.3533 27.7681 25.8765 27.7681 25.8765C27.7681 25.8765 31.8899 16.9988 31.9659 14.3989C32.042 11.799 26.3286 9.81424 26.3286 9.81424C26.3286 9.81424 23.0692 8.60307 20.9576 7.91188C18.846 7.22069 21.0591 5.37541 23.6717 5.54028C26.2842 5.70515 28.5924 6.929 29.1314 6.32658C29.6704 5.72417 28.4973 1.97653 29.1314 0.885846C29.7656 -0.204839 32.1498 -0.382393 33.9127 0.885846C35.6755 2.15408 39.7149 6.07294 40.2983 10.1376C40.8817 14.2023 38.5417 30.4612 36.1511 36.815C34.6926 40.7149 32.1752 42.2938 26.4681 39.7954C21.1415 37.4555 7.03238 27.4998 7.03238 27.4998L0 8.8694Z" fill="#9E6767"/>
</svg>
