<svg width="21" height="36" viewBox="0 0 21 36" fill="none" xmlns="http://www.w3.org/2000/svg">
<path d="M1.56922 35.8212C1.35433 35.817 1.14249 35.7696 0.946331 35.6818C0.750172 35.5939 0.573712 35.4675 0.427487 35.3099C0.281262 35.1524 0.168255 34.9671 0.0952244 34.7649C0.0221936 34.5628 -0.0093748 34.348 0.00240594 34.1334V11.8889C0.0113935 11.414 0.145972 10.95 0.392436 10.544C0.618348 10.1323 0.950378 9.78867 1.35403 9.54875L17.4927 0.255533C17.7729 0.0927955 18.0901 0.00479923 18.414 0C18.7233 0.00340412 19.0243 0.100278 19.2775 0.277896C19.5308 0.455515 19.7244 0.705573 19.8329 0.995223C19.9096 1.22964 19.9481 1.47483 19.9472 1.72147V23.9593C19.9315 24.4287 19.8006 24.887 19.5661 25.2939C19.3315 25.7008 19.0006 26.0438 18.6023 26.2927L2.46356 35.5859C2.36992 35.6364 2.27337 35.6813 2.17442 35.7204C1.98003 35.7887 1.77527 35.8229 1.56922 35.8212Z" fill="#E0E0E0"/>
<path d="M20.9619 2.94571C20.946 2.67618 20.8671 2.41414 20.7317 2.18059C20.5962 1.94704 20.4079 1.74847 20.1819 1.60081L19.5431 1.23097C19.3002 1.10806 19.0318 1.04402 18.7597 1.04402C18.4875 1.04402 18.2191 1.10806 17.9762 1.23097L1.83753 10.5175C1.61222 10.6659 1.42448 10.8646 1.28911 11.098C1.15375 11.3314 1.07445 11.5931 1.05749 11.8623V34.1001C1.07445 34.3694 1.15375 34.6311 1.28911 34.8645C1.42448 35.0979 1.61222 35.2966 1.83753 35.445L2.47636 35.8082C2.71824 35.9343 2.98697 36.0001 3.25975 36.0001C3.53252 36.0001 3.80128 35.9343 4.04315 35.8082L20.1819 26.5217C20.4079 26.374 20.5962 26.1755 20.7317 25.9419C20.8671 25.7083 20.946 25.4463 20.9619 25.1768V2.94571Z" fill="#FAFAFA"/>
<path d="M18.7565 1.3452C18.9743 1.33889 19.19 1.38991 19.3819 1.49314L20.0543 1.85627C20.2249 1.98365 20.3648 2.14761 20.4637 2.33612C20.5626 2.52463 20.618 2.7329 20.6259 2.94563V25.2036C20.6108 25.4197 20.5466 25.6295 20.4382 25.8171C20.3299 26.0047 20.1802 26.1652 20.0005 26.2862L3.86182 35.5727C3.66522 35.6656 3.4505 35.7137 3.23308 35.7137C3.01567 35.7137 2.80095 35.6656 2.60435 35.5727L1.97225 35.2029C1.7926 35.0818 1.64289 34.9214 1.53452 34.7338C1.42616 34.5462 1.36198 34.3364 1.34686 34.1202V11.8623C1.36099 11.6459 1.42476 11.4357 1.53321 11.248C1.64166 11.0602 1.79189 10.9 1.97225 10.7796L18.111 1.49314C18.3035 1.39163 18.5187 1.34073 18.7363 1.3452M18.7363 1.02916C18.4647 1.02611 18.1966 1.09082 17.9563 1.21744L1.81758 10.5039C1.59227 10.6524 1.40453 10.8511 1.26916 11.0845C1.13379 11.3179 1.0545 11.5795 1.03754 11.8488V34.0866C1.0545 34.3559 1.13379 34.6176 1.26916 34.8509C1.40453 35.0843 1.59227 35.2831 1.81758 35.4315L2.45641 35.7946C2.69895 35.9186 2.96742 35.9832 3.23979 35.9832C3.51217 35.9832 3.78066 35.9186 4.0232 35.7946L20.1619 26.5082C20.388 26.3605 20.5762 26.1619 20.7117 25.9284C20.8472 25.6948 20.926 25.4328 20.942 25.1633V2.94563C20.926 2.67611 20.8472 2.41407 20.7117 2.18051C20.5762 1.94696 20.388 1.7484 20.1619 1.60074L19.5231 1.23089C19.2807 1.10345 19.0102 1.03872 18.7363 1.04261V1.02916Z" fill="#BA68C8"/>
<path d="M1.08442 34.1C1.10139 34.3693 1.18068 34.631 1.31605 34.8643C1.45142 35.0977 1.63916 35.2965 1.86447 35.4449L2.50328 35.808C2.72357 35.9203 2.96523 35.9843 3.21219 35.9959C3.45915 36.0075 3.70575 35.9664 3.93559 35.8753C3.56575 36.0165 3.26315 35.808 3.26315 35.3575V13.1331C3.2756 12.8597 3.35653 12.5938 3.49851 12.3598L1.31305 11.0822C1.1729 11.3166 1.09426 11.5826 1.08442 11.8555V34.1Z" fill="#BA68C8"/>
<path d="M20.9349 2.72352C20.8475 2.3873 20.5449 2.27971 20.1817 2.48816L4.06992 11.7545C3.83629 11.8957 3.64563 12.0979 3.51851 12.3395L1.31288 11.082C1.44386 10.845 1.63379 10.6458 1.86429 10.5037L18.003 1.21051C18.2459 1.08761 18.5142 1.02357 18.7864 1.02357C19.0586 1.02357 19.3269 1.08761 19.5698 1.21051L20.2086 1.58036C20.401 1.71162 20.5645 1.88066 20.6894 2.0772C20.8142 2.27374 20.8978 2.49365 20.9349 2.72352Z" fill="#BA68C8"/>
<path opacity="0.4" d="M20.9349 2.72352C20.8475 2.3873 20.5449 2.27971 20.1817 2.48816L4.06992 11.7545C3.83629 11.8957 3.64563 12.0979 3.51851 12.3395L1.31288 11.082C1.44386 10.845 1.63379 10.6458 1.86429 10.5037L18.003 1.21051C18.2459 1.08761 18.5142 1.02357 18.7864 1.02357C19.0586 1.02357 19.3269 1.08761 19.5698 1.21051L20.2086 1.58036C20.401 1.71162 20.5645 1.88066 20.6894 2.0772C20.8142 2.27374 20.8978 2.49365 20.9349 2.72352Z" fill="white"/>
<path d="M10.6067 26.0508C10.5409 26.0521 10.4759 26.0359 10.4184 26.0037C9.74596 25.5935 9.64509 21.8682 9.64509 20.2812C9.64509 19.2591 9.68542 14.1418 10.5731 13.6307L17.042 9.89189C17.0755 9.87173 17.1138 9.86108 17.1529 9.86108C17.192 9.86108 17.2304 9.87173 17.2639 9.89189C17.2981 9.91076 17.3271 9.93785 17.3482 9.97072C17.3694 10.0036 17.382 10.0412 17.3849 10.0802L17.4724 11.7613C17.4755 11.8102 17.4628 11.8589 17.4361 11.9C17.4095 11.9412 17.3703 11.9727 17.3244 11.9899C17.0627 12.0992 16.8306 12.2689 16.6471 12.4851C16.4636 12.7013 16.3339 12.9579 16.2687 13.2339C16.2313 13.3496 16.2259 13.4731 16.2532 13.5915C16.2804 13.7099 16.3392 13.8187 16.4233 13.9064C16.5621 13.9645 16.7143 13.9828 16.8628 13.959C17.0113 13.9352 17.1503 13.8704 17.2639 13.7719C17.2992 13.7536 17.3384 13.7441 17.3782 13.7441C17.418 13.7441 17.4572 13.7536 17.4925 13.7719C17.5268 13.7908 17.5557 13.8179 17.5769 13.8507C17.598 13.8836 17.6106 13.9212 17.6136 13.9602L17.7077 15.7153C17.7104 15.7573 17.7011 15.7992 17.6808 15.8361C17.6606 15.873 17.6303 15.9034 17.5934 15.9237C17.5143 15.986 17.4596 16.0741 17.4387 16.1725C17.3782 16.3676 17.3984 16.4819 17.4387 16.5155C17.475 16.5058 17.5128 16.5038 17.5499 16.5095C17.5869 16.5153 17.6224 16.5288 17.6539 16.5491C17.6842 16.5686 17.7101 16.5942 17.7298 16.6243C17.7495 16.6544 17.7626 16.6884 17.7682 16.7239L17.8758 18.6942C17.8784 18.7249 17.8743 18.7558 17.8638 18.7848C17.8534 18.8139 17.8369 18.8403 17.8153 18.8623C17.7952 18.8868 17.7692 18.9057 17.7399 18.9175C17.7105 18.9292 17.6786 18.9334 17.6472 18.9296C17.2908 18.9296 17.0084 19.2792 16.8604 19.602C16.7665 19.762 16.7136 19.9428 16.7066 20.1282C16.6995 20.3136 16.7385 20.4978 16.8201 20.6645C16.9344 20.7922 17.163 20.7519 17.3312 20.6645C17.4364 20.6081 17.5336 20.538 17.6203 20.456C17.6526 20.427 17.6926 20.4078 17.7355 20.4006C17.7783 20.3935 17.8224 20.3987 17.8624 20.4157C17.9019 20.4307 17.936 20.4574 17.96 20.4922C17.984 20.5271 17.9969 20.5684 17.9969 20.6107L18.0574 21.6463C18.0585 21.688 18.0486 21.7293 18.0285 21.766C18.0084 21.8026 17.9789 21.8332 17.9431 21.8547L10.8353 25.9566C10.7708 26.0112 10.6909 26.0441 10.6067 26.0508ZM16.9479 10.4702L10.8017 14.0207C10.6538 14.1081 10.3243 14.9756 10.1696 17.6317C9.94769 21.3974 10.2368 25.1161 10.6201 25.5801L17.5665 21.5454V21.0612L17.4925 21.0948C17.3312 21.1842 17.1455 21.2193 16.9626 21.1951C16.7798 21.1709 16.6096 21.0886 16.4771 20.9604C16.33 20.7283 16.2485 20.4606 16.2414 20.1859C16.2343 19.9112 16.3018 19.6397 16.4368 19.4003C16.5181 19.1828 16.6493 18.9874 16.8198 18.8297C16.9903 18.6721 17.1954 18.5566 17.4186 18.4925L17.3379 16.9459C17.2559 16.9235 17.1816 16.8793 17.1227 16.8181C17.0352 16.7076 16.9795 16.5753 16.9617 16.4354C16.9439 16.2955 16.9647 16.1535 17.0218 16.0246C17.0658 15.8673 17.1491 15.7238 17.2639 15.6077L17.1899 14.3166C17.0307 14.3854 16.8573 14.4153 16.6842 14.4036C16.5111 14.3919 16.3433 14.339 16.1947 14.2493C16.0242 14.1163 15.9 13.933 15.8397 13.7254C15.7793 13.5178 15.7859 13.2964 15.8585 13.0927C15.9416 12.7755 16.0897 12.479 16.2934 12.222C16.4972 11.965 16.7521 11.7532 17.042 11.5999L16.9479 10.4702Z" fill="#BA68C8"/>
<path d="M6.781 28.2628C6.72049 28.2622 6.66082 28.2485 6.60616 28.2225C6.51131 28.1667 6.43434 28.0851 6.38426 27.9871C5.55043 26.5481 5.57731 16.5152 6.74737 15.836L13.2298 12.1039C13.2552 12.0884 13.2836 12.0781 13.3131 12.0737C13.3426 12.0694 13.3727 12.071 13.4016 12.0785C13.4305 12.0861 13.4575 12.0993 13.4812 12.1176C13.5048 12.1358 13.5245 12.1586 13.5391 12.1846C13.5687 12.2365 13.5769 12.2979 13.5618 12.3557C13.5467 12.4136 13.5096 12.4632 13.4584 12.494L6.98946 16.2328C6.8348 16.3202 6.50529 17.1876 6.35063 19.8573C6.13544 23.6162 6.41788 27.3349 6.80118 27.7921L13.2298 24.0802C13.2824 24.0499 13.3449 24.0417 13.4035 24.0575C13.4622 24.0733 13.5121 24.1117 13.5424 24.1643C13.5728 24.2169 13.5809 24.2794 13.5652 24.338C13.5494 24.3967 13.511 24.4466 13.4584 24.477L6.98946 28.209C6.92685 28.2472 6.85429 28.266 6.781 28.2628Z" fill="#BA68C8"/>
<path d="M11.2459 20.6039C11.1253 20.6044 11.0076 20.5668 10.9097 20.4963C10.7967 20.408 10.7032 20.2973 10.6349 20.1712C10.5666 20.0451 10.5251 19.9062 10.513 19.7634C10.4921 19.5381 10.508 19.311 10.56 19.0909C10.6091 18.8575 10.6882 18.6315 10.7954 18.4185C10.9659 18.0627 11.2253 17.757 11.5485 17.5308C11.6762 17.4364 11.8236 17.3723 11.9797 17.3431C12.1358 17.314 12.2965 17.3207 12.4496 17.3627C12.5592 17.4 12.6583 17.4627 12.7389 17.5457C12.8196 17.6287 12.8794 17.7296 12.9136 17.8402C12.9802 18.1416 12.9859 18.4533 12.9305 18.757C12.8751 19.0606 12.7596 19.3502 12.5908 19.6087C12.3348 20.0795 11.9093 20.4352 11.4006 20.6039C11.3493 20.6105 11.2973 20.6105 11.2459 20.6039ZM12.1874 17.7191C12.0404 17.7282 11.8986 17.777 11.7772 17.8603C11.5208 18.0511 11.3133 18.3 11.172 18.5866C11.079 18.767 11.0111 18.9593 10.9702 19.1582C10.9248 19.3405 10.9111 19.5293 10.9299 19.7163C10.9356 19.7987 10.9575 19.8791 10.9944 19.953C11.0314 20.0269 11.0826 20.0927 11.1451 20.1466C11.1681 20.1579 11.1934 20.1638 11.219 20.1638C11.2447 20.1638 11.27 20.1579 11.293 20.1466C11.6942 20.0006 12.0288 19.7139 12.2344 19.3397C12.5053 18.9223 12.6063 18.4171 12.5169 17.9276C12.5037 17.877 12.4785 17.8304 12.4433 17.7918C12.4082 17.7531 12.3642 17.7236 12.3151 17.7057C12.2721 17.7031 12.2289 17.7076 12.1874 17.7191Z" fill="#BA68C8"/>
<path d="M13.2294 23.1118C13.1027 23.1114 12.9797 23.0688 12.8798 22.9908C12.5839 22.7621 12.4965 22.2376 12.6242 21.3836C12.8327 20.1329 14.1036 18.3912 14.9442 18.4988C15.2602 18.4988 15.6166 18.8149 15.5494 19.9446C15.452 20.5748 15.2218 21.177 14.874 21.7115C14.5262 22.2459 14.0688 22.7003 13.532 23.0446C13.4354 23.0829 13.3332 23.1056 13.2294 23.1118ZM13.0411 21.4441C12.8999 22.3923 13.0815 22.6142 13.1353 22.6613C13.1891 22.7083 13.2765 22.6613 13.3975 22.6613C13.8617 22.3483 14.2556 21.9421 14.5543 21.4686C14.853 20.9951 15.0499 20.4647 15.1324 19.911C15.1728 19.3259 15.0787 18.9426 14.8971 18.9225H14.8635C14.3659 18.909 13.2294 20.227 13.0344 21.4441H13.0411Z" fill="#BA68C8"/>
<path d="M14.9714 16.8448C14.9204 16.855 14.8678 16.855 14.8167 16.8448C14.7625 16.8188 14.7153 16.7803 14.679 16.7323C14.6428 16.6843 14.6185 16.6284 14.6083 16.5691C14.5682 16.3637 14.5859 16.1512 14.6596 15.9553C14.7332 15.7594 14.8598 15.5877 15.0252 15.4596C15.1079 15.3811 15.2108 15.327 15.3223 15.3032C15.4339 15.2795 15.5498 15.2871 15.6573 15.3251C15.7783 15.3856 15.9128 15.5268 15.9061 15.8698C15.8988 16.0304 15.8557 16.1874 15.7801 16.3293C15.7045 16.4712 15.5982 16.5944 15.469 16.6901C15.3192 16.7835 15.1478 16.8368 14.9714 16.8448ZM14.9109 16.4682C14.9109 16.4682 14.9109 16.522 14.9109 16.5288C14.9109 16.5355 15.0588 16.5288 15.274 16.3943C15.3586 16.3267 15.4281 16.2421 15.4779 16.1459C15.5277 16.0498 15.5567 15.9442 15.5632 15.8361C15.5632 15.7017 15.5632 15.6075 15.4892 15.5806C15.4152 15.5537 15.3278 15.5806 15.1933 15.6815C15.0741 15.7712 14.982 15.8922 14.9274 16.0311C14.8728 16.17 14.8578 16.3213 14.884 16.4682H14.9109Z" fill="#BA68C8"/>
<path d="M11.0915 16.885C11.0427 16.8952 10.9923 16.8952 10.9435 16.885C10.8878 16.862 10.8389 16.8253 10.8013 16.7783C10.7636 16.7312 10.7386 16.6754 10.7283 16.616C10.6905 16.41 10.7101 16.1976 10.7848 16.0019C10.8595 15.8063 10.9865 15.6349 11.152 15.5065C11.2339 15.4267 11.3367 15.3716 11.4486 15.3478C11.5605 15.324 11.6768 15.3324 11.7841 15.372C11.8749 15.4279 11.947 15.5096 11.9913 15.6065C12.0356 15.7035 12.0501 15.8115 12.0329 15.9167C12.0257 16.0781 11.982 16.2357 11.9052 16.3778C11.8283 16.5199 11.7202 16.6428 11.5891 16.7371C11.4395 16.8302 11.2676 16.8812 11.0915 16.885ZM11.0377 16.5085C11.0377 16.5085 11.0377 16.5555 11.0377 16.5622C11.0377 16.569 11.1856 16.5622 11.4008 16.4345C11.4859 16.3658 11.5556 16.2801 11.6054 16.1828C11.6552 16.0855 11.684 15.9788 11.6899 15.8696C11.6899 15.7419 11.6899 15.6477 11.616 15.6208C11.542 15.5939 11.4546 15.6208 11.3201 15.7217C11.2008 15.8114 11.1088 15.9324 11.0542 16.0713C10.9995 16.2102 10.9845 16.3615 11.0108 16.5085H11.0377Z" fill="#BA68C8"/>
<path d="M11.0908 23.8587C11.0421 23.8688 10.9917 23.8688 10.9429 23.8587C10.8877 23.8331 10.8394 23.7947 10.802 23.7468C10.7646 23.6988 10.7391 23.6427 10.7277 23.5829C10.6907 23.377 10.7105 23.1648 10.7852 22.9693C10.8599 22.7737 10.9865 22.6023 11.1514 22.4734C11.2341 22.3949 11.3369 22.3408 11.4485 22.3171C11.56 22.2933 11.6759 22.3009 11.7835 22.3389C11.8742 22.3948 11.9464 22.4765 11.9907 22.5734C12.035 22.6704 12.0494 22.7784 12.0323 22.8836C12.0251 23.045 11.9814 23.2027 11.9045 23.3447C11.8277 23.4868 11.7196 23.6097 11.5885 23.704C11.4395 23.7994 11.2676 23.8529 11.0908 23.8587ZM11.037 23.4821C11.037 23.4821 11.037 23.5359 11.037 23.5426C11.1694 23.5383 11.2969 23.4911 11.4002 23.4081C11.4848 23.3405 11.5542 23.2559 11.604 23.1598C11.6538 23.0636 11.6829 22.9581 11.6893 22.85C11.6893 22.7155 11.6893 22.6214 11.6154 22.5945C11.5414 22.5676 11.4472 22.5945 11.3195 22.6953C11.2002 22.785 11.1081 22.9061 11.0535 23.045C10.9989 23.1838 10.9839 23.3352 11.0102 23.4821H11.037Z" fill="#BA68C8"/>
<path d="M13.0007 15.5739C12.8231 15.5808 12.6482 15.5288 12.5031 15.426C12.384 15.314 12.2993 15.1705 12.2588 15.0121C12.2183 14.8537 12.2237 14.687 12.2745 14.5316C12.3975 14.032 12.6632 13.579 13.0394 13.2279C13.4156 12.8769 13.8858 12.6429 14.3927 12.5547C14.5774 12.5356 14.7626 12.5855 14.9128 12.6947C15.063 12.804 15.1675 12.9648 15.2064 13.1464C15.2102 13.6029 15.0862 14.0513 14.8486 14.4411C14.6109 14.8308 14.269 15.1464 13.8615 15.352C13.5918 15.4814 13.2994 15.5568 13.0007 15.5739ZM12.6847 14.6056C12.6847 14.7805 12.6443 15.0024 12.7586 15.0898C12.9148 15.14 13.0802 15.1552 13.2429 15.1343C13.4056 15.1134 13.5617 15.0569 13.7001 14.9687C14.022 14.8021 14.2931 14.5517 14.4847 14.2441C14.6764 13.9364 14.7817 13.5828 14.7895 13.2204C14.7661 13.1416 14.7152 13.0738 14.6461 13.0294C14.577 12.985 14.4942 12.9668 14.4129 12.9783C14.0016 13.0611 13.6217 13.2574 13.3162 13.545C13.0108 13.8326 12.792 14.2 12.6847 14.6056Z" fill="#BA68C8"/>
</svg>
