<svg width="20" height="20" viewBox="0 0 20 20" fill="none" xmlns="http://www.w3.org/2000/svg">
<path d="M9.39421 3.07254C9.31902 2.99299 9.26025 2.8994 9.22124 2.79712C9.18222 2.69485 9.16374 2.58589 9.16683 2.47647C9.16993 2.36706 9.19454 2.25932 9.23928 2.15941C9.28401 2.05951 9.34798 1.96939 9.42754 1.89421C9.5071 1.81903 9.60069 1.76025 9.70296 1.72124C9.80524 1.68223 9.91419 1.66374 10.0236 1.66684C10.133 1.66993 10.2408 1.69455 10.3407 1.73928C10.4406 1.78401 10.5307 1.84799 10.6059 1.92754L17.6892 9.42754C17.8355 9.58227 17.917 9.78712 17.917 10C17.917 10.213 17.8355 10.4178 17.6892 10.5725L10.6059 18.0734C10.5312 18.1547 10.4411 18.2203 10.3408 18.2665C10.2405 18.3127 10.1321 18.3385 10.0218 18.3424C9.91144 18.3463 9.80143 18.3283 9.69813 18.2894C9.59484 18.2504 9.50031 18.1913 9.42004 18.1155C9.33978 18.0397 9.27537 17.9487 9.23056 17.8478C9.18576 17.7469 9.16145 17.6381 9.15904 17.5278C9.15664 17.4174 9.17619 17.3076 9.21656 17.2049C9.25693 17.1021 9.31732 17.0084 9.39421 16.9292L15.9375 10L9.39421 3.07254Z" fill="#808B9A"/>
</svg>
