<svg width="78" height="27" viewBox="0 0 78 27" fill="none" xmlns="http://www.w3.org/2000/svg">
<path d="M49.7821 0.0169786C28.4848 0.415554 0 5.83618 0 5.83618V19.122C0 19.122 28.4848 13.7014 49.7821 13.3028C71.0793 12.9042 77.41 21.726 77.41 26.5887C77.41 26.5887 78.7385 17.634 77.41 11.9742C76.0814 6.31447 71.0726 -0.381597 49.7821 0.0169786Z" fill="#BA68C8"/>
<path opacity="0.1" d="M49.7821 0.0169786C28.4848 0.415554 0 5.83618 0 5.83618V19.122C0 19.122 28.4848 13.7014 49.7821 13.3028C71.0793 12.9042 77.41 21.726 77.41 26.5887C77.41 26.5887 78.7385 17.634 77.41 11.9742C76.0814 6.31447 71.0726 -0.381597 49.7821 0.0169786Z" fill="black"/>
<path opacity="0.5" d="M49.7821 0.0169786C28.4848 0.415554 0 5.83618 0 5.83618V19.122C0 19.122 28.4848 13.7014 49.7821 13.3028C71.0793 12.9042 77.41 21.726 77.41 26.5887C77.41 26.5887 78.7385 17.634 77.41 11.9742C76.0814 6.31447 71.0726 -0.381597 49.7821 0.0169786Z" fill="white"/>
</svg>
