<svg width="22" height="22" viewBox="0 0 22 22" fill="none" xmlns="http://www.w3.org/2000/svg">
<path d="M19.8662 1.189C19.8792 1.04227 19.7345 0.932258 19.5966 0.984043L13.9378 3.10897C13.7831 3.16709 13.7616 3.37722 13.9015 3.46539L15.8338 4.68358C11.842 9.71026 6.09786 12.8392 1.18946 14.0827C1.06172 14.1151 0.998964 14.259 1.06238 14.3746L2.26272 16.561C2.30897 16.6452 2.40821 16.6849 2.49947 16.6547C8.02952 14.8269 13.8585 11.5558 17.6256 5.81796L19.0804 6.73487C19.2069 6.81461 19.373 6.73236 19.3862 6.5834L19.8662 1.189ZM20.4084 5.88671C20.3048 5.88671 20.2183 5.96596 20.2092 6.06926L20.0476 7.91454C20.0345 8.06373 19.8682 8.14616 19.7415 8.06619L17.9796 6.9534C17.8879 6.89545 17.7665 6.92119 17.7039 7.00984C17.673 7.05353 17.6419 7.09717 17.6106 7.14125C17.5867 7.17486 17.574 7.21507 17.574 7.25627V20.7258C17.574 20.8362 17.6636 20.9258 17.774 20.9258H20.7256C20.836 20.9258 20.9256 20.8362 20.9256 20.7258V6.08671C20.9256 5.97625 20.836 5.88671 20.7256 5.88671H20.4084ZM13.8287 11.3867C13.7806 11.3867 13.7341 11.4041 13.6977 11.4354C13.1956 11.8678 12.6792 12.2784 12.1553 12.6672C12.1042 12.7051 12.074 12.7648 12.074 12.8284V20.7258C12.074 20.8362 12.1636 20.9258 12.274 20.9258H15.2256C15.336 20.9258 15.4256 20.8362 15.4256 20.7258V11.5867C15.4256 11.4763 15.336 11.3867 15.2256 11.3867H13.8287ZM8.48841 14.9961C8.45587 14.9961 8.42383 15.004 8.39503 15.0192C7.82956 15.3165 7.26392 15.5925 6.69155 15.8536C6.62006 15.8863 6.57402 15.9575 6.57402 16.0361V20.7258C6.57402 20.8362 6.66357 20.9258 6.77402 20.9258H9.72559C9.83604 20.9258 9.92559 20.8362 9.92559 20.7258V15.1961C9.92559 15.0856 9.83604 14.9961 9.72559 14.9961H8.48841ZM1.27402 16.8867C1.16357 16.8867 1.07402 16.9763 1.07402 17.0867V20.7258C1.07402 20.8362 1.16357 20.9258 1.27402 20.9258H4.22559C4.33604 20.9258 4.42559 20.8362 4.42559 20.7258V17.0867C4.42559 16.9763 4.33604 16.8867 4.22559 16.8867H4.21744C4.19369 16.8867 4.17012 16.8909 4.14784 16.8992C3.52229 17.1308 2.89721 17.3457 2.27586 17.5441L2.12867 17.59C2.03782 17.6183 1.9396 17.5787 1.89382 17.4952L1.61695 16.9905C1.58183 16.9265 1.51461 16.8867 1.4416 16.8867H1.27402Z" fill="#1268CC"/>
</svg>
