<svg width="13" height="20" viewBox="0 0 13 20" fill="none" xmlns="http://www.w3.org/2000/svg">
<path d="M3.71259 20.0001C3.20016 19.9668 2.70265 19.8139 2.25995 19.5536C1.81724 19.2934 1.44164 18.9332 1.1632 18.5017C-1.04717 15.6675 0.146155 9.49749 2.62095 7.44985C4.28212 6.0938 5.17034 6.27009 5.78735 6.67012C6.3124 6.37087 6.76227 5.95578 7.10272 5.45646C7.85544 4.40901 8.89674 3.60329 10.0996 3.1376C10.4074 3.00946 10.7476 2.9811 11.0724 3.05651C11.3972 3.13192 11.6901 3.30731 11.9099 3.55798C13.1372 4.83945 13.4287 8.54148 11.7947 12.5215C9.49615 18.1288 7.15017 18.4203 6.56029 18.4C6.26874 18.7593 5.17034 19.9798 3.74648 19.9934L3.71259 20.0001ZM4.83812 6.79895C4.09687 6.89689 3.41079 7.24351 2.89216 7.78209C0.593649 9.67378 -0.552215 15.6133 1.49543 18.244C1.73601 18.6311 2.06476 18.9557 2.45482 19.1914C2.84488 19.4271 3.28516 19.5671 3.73969 19.6001C5.16355 19.6001 6.28231 18.0949 6.29587 18.0813C6.31834 18.0478 6.35054 18.0221 6.38813 18.0075C6.42573 17.993 6.46691 17.9903 6.50606 18C6.50606 18 8.95374 18.3593 11.4014 12.3859C12.9677 8.5686 12.7575 5.0632 11.6048 3.87665C11.4404 3.68851 11.2208 3.55707 10.9773 3.50106C10.7338 3.44506 10.4788 3.46735 10.2488 3.56476C9.12707 3.99872 8.15629 4.75037 7.45529 5.72766C7.11211 6.21157 6.68222 6.62768 6.18738 6.95489L6.23485 6.99558C6.53318 7.24645 6.72301 7.39561 6.96032 7.36171C7.25673 7.24959 7.52666 7.07722 7.75306 6.85549C7.97947 6.63375 8.15743 6.36747 8.2757 6.07346C8.28855 6.04892 8.30614 6.02715 8.32743 6.00943C8.34872 5.9917 8.3733 5.97836 8.39976 5.97017C8.42623 5.96198 8.45404 5.9591 8.48162 5.9617C8.5092 5.9643 8.53601 5.97232 8.56048 5.98532C8.5856 5.99757 8.60802 6.01471 8.62644 6.03573C8.64486 6.05676 8.6589 6.08125 8.66774 6.10777C8.67658 6.13428 8.68004 6.1623 8.67792 6.19017C8.6758 6.21804 8.66814 6.24521 8.65539 6.27009C8.50624 6.62269 8.28413 6.93972 8.00366 7.20032C7.72319 7.46093 7.39072 7.6592 7.02813 7.78209C6.82764 7.78876 6.62816 7.75086 6.44408 7.67113C6.26001 7.59141 6.09591 7.47183 5.96362 7.32103C5.86881 7.23837 5.76919 7.16139 5.66529 7.0905C5.42947 6.90437 5.13853 6.80182 4.83812 6.79895Z" fill="#BA68C8"/>
<path d="M7.04206 7.74119C6.98797 7.73961 6.93641 7.71786 6.89752 7.68023C6.85864 7.6426 6.83521 7.5918 6.83185 7.53779C6.73014 4.97484 8.28283 1.04907 9.80161 0.0320267C9.84882 0.00306872 9.9053 -0.00674285 9.95951 0.00460238C10.0137 0.0159476 10.0615 0.0475909 10.0932 0.0930492C10.1245 0.138945 10.1364 0.195385 10.1262 0.250022C10.1161 0.304659 10.0847 0.353047 10.0389 0.384601C8.64219 1.32028 7.15732 5.13079 7.25224 7.51744C7.25408 7.5456 7.25022 7.57384 7.2409 7.60048C7.23159 7.62712 7.21699 7.65161 7.19801 7.67249C7.17903 7.69337 7.15604 7.71021 7.13041 7.72202C7.10478 7.73382 7.07703 7.74034 7.04882 7.74119H7.04206Z" fill="#BA68C8"/>
<path d="M6.4518 5.23908C6.28742 5.23153 6.12831 5.1788 5.99195 5.0867C5.85558 4.99459 5.74725 4.86667 5.67886 4.717C5.38258 3.94856 5.30512 3.11303 5.4551 2.30323C5.46018 2.26633 5.47387 2.23114 5.49508 2.20051C5.51628 2.16989 5.54441 2.14468 5.57716 2.12694C5.62462 2.12694 6.71623 1.49638 7.50952 2.05236C8.18755 2.5202 8.11298 3.70674 7.63158 4.47969C7.5142 4.69489 7.34466 4.87718 7.13854 5.00986C6.93242 5.14254 6.69629 5.22135 6.4518 5.23908ZM5.9026 2.52698C5.79759 3.1772 5.86541 3.84361 6.09923 4.45935C6.12694 4.53039 6.17404 4.59221 6.23518 4.63776C6.29632 4.68332 6.36904 4.71078 6.44503 4.717C6.59941 4.69072 6.74568 4.62938 6.87263 4.53769C6.99958 4.44601 7.10381 4.32642 7.17729 4.18814C7.52309 3.63894 7.59767 2.71682 7.17729 2.43205C6.97332 2.34594 6.75228 2.30788 6.53126 2.32082C6.31023 2.33375 6.09514 2.39733 5.9026 2.50663V2.52698Z" fill="#BA68C8"/>
</svg>
