<svg width="18" height="14" viewBox="0 0 18 14" fill="none" xmlns="http://www.w3.org/2000/svg">
<path d="M0.29847 6.05294C0.10736 6.24411 0 6.50336 0 6.77367C0 7.04398 0.10736 7.30322 0.29847 7.49439L6.06529 13.2612C6.15933 13.3586 6.27181 13.4362 6.39618 13.4897C6.52056 13.5431 6.65432 13.5712 6.78968 13.5724C6.92504 13.5736 7.05927 13.5478 7.18456 13.4965C7.30984 13.4453 7.42366 13.3696 7.51937 13.2738C7.61509 13.1781 7.69078 13.0643 7.74204 12.939C7.7933 12.8137 7.81909 12.6795 7.81791 12.5442C7.81674 12.4088 7.78862 12.275 7.73519 12.1507C7.68176 12.0263 7.6041 11.9138 7.50674 11.8198L3.48006 7.79308L16.9801 7.79308C17.2505 7.79308 17.5098 7.68568 17.701 7.4945C17.8921 7.30332 17.9996 7.04403 17.9996 6.77367C17.9996 6.5033 17.8921 6.24401 17.701 6.05283C17.5098 5.86166 17.2505 5.75425 16.9801 5.75425L3.48006 5.75425L7.50674 1.72757C7.69243 1.53531 7.79518 1.27781 7.79286 1.01052C7.79054 0.743233 7.68333 0.48755 7.49432 0.298543C7.30531 0.109536 7.04963 0.0023245 6.78234 1.94438e-06C6.51506 -0.00232061 6.25755 0.10043 6.06529 0.286125L0.29847 6.05294Z" fill="#222222"/>
</svg>
