<svg width="21" height="36" viewBox="0 0 21 36" fill="none" xmlns="http://www.w3.org/2000/svg">
<path d="M1.57011 35.8171C1.35431 35.8139 1.14143 35.7669 0.944344 35.679C0.747257 35.591 0.570072 35.464 0.423556 35.3055C0.27704 35.147 0.164246 34.9605 0.0919883 34.7571C0.0197309 34.5537 -0.0104769 34.3378 0.00320637 34.1224V11.8831C0.0178365 11.4125 0.148207 10.9528 0.382797 10.5446C0.617388 10.1364 0.948968 9.79236 1.34819 9.54282L17.488 0.255689C17.764 0.0890416 18.0802 0.000695441 18.4026 0.000138824C18.7133 -0.00402334 19.0181 0.0854921 19.2772 0.257023C19.5363 0.428555 19.7377 0.674154 19.8552 0.961809C19.9282 1.19711 19.9667 1.44175 19.9695 1.6881V23.9342C19.9521 24.4032 19.8204 24.8609 19.5861 25.2675C19.3517 25.6742 19.0216 26.0175 18.6245 26.2677L2.48471 35.5549C2.39109 35.6074 2.29452 35.6545 2.19552 35.6961C1.99601 35.7737 1.78416 35.8147 1.57011 35.8171Z" fill="#E0E0E0"/>
<path d="M20.9648 2.93244C20.9492 2.66204 20.8698 2.39919 20.733 2.16541C20.5963 1.93164 20.4061 1.73357 20.178 1.58745L19.5392 1.21759C19.2963 1.09467 19.0279 1.03062 18.7557 1.03062C18.4835 1.03062 18.2151 1.09467 17.9723 1.21759L1.83242 10.5047C1.60437 10.6508 1.41418 10.8489 1.27742 11.0827C1.14065 11.3165 1.06121 11.5793 1.04559 11.8497V34.089C1.06121 34.3594 1.14065 34.6223 1.27742 34.8561C1.41418 35.0898 1.60437 35.2879 1.83242 35.434L2.50491 35.8039C2.74778 35.9268 3.01615 35.9909 3.28835 35.9909C3.56055 35.9909 3.82894 35.9268 4.07181 35.8039L20.178 26.5571C20.4061 26.411 20.5963 26.2129 20.733 25.9792C20.8698 25.7454 20.9492 25.4825 20.9648 25.2121V2.93244Z" fill="#FAFAFA"/>
<path d="M18.786 1.33844C19.0028 1.33441 19.2174 1.38286 19.4114 1.47966L20.0503 1.84953C20.2289 1.97169 20.3778 2.1324 20.4861 2.31979C20.5943 2.50718 20.6591 2.71647 20.6757 2.93224V25.1716C20.6611 25.3878 20.5971 25.5979 20.4887 25.7856C20.3803 25.9732 20.2303 26.1336 20.0503 26.2543L3.91045 35.5482C3.71512 35.6413 3.50145 35.6897 3.28504 35.6897C3.06862 35.6897 2.85493 35.6413 2.6596 35.5482L2.02075 35.1783C1.84212 35.0561 1.69319 34.8954 1.58494 34.708C1.4767 34.5206 1.41191 34.3114 1.39533 34.0956V11.8562C1.40996 11.64 1.47392 11.4299 1.58234 11.2423C1.69075 11.0546 1.84073 10.8942 2.02075 10.7735L18.1606 1.47966C18.3546 1.38286 18.5692 1.33441 18.786 1.33844ZM18.786 1.02236C18.5119 1.01671 18.241 1.08155 17.9992 1.21066L1.85933 10.4978C1.63129 10.6439 1.44111 10.842 1.30435 11.0758C1.16759 11.3095 1.08815 11.5724 1.07253 11.8428V34.0821C1.08815 34.3525 1.16759 34.6154 1.30435 34.8491C1.44111 35.0829 1.63129 35.281 1.85933 35.4271L2.53183 35.797C2.77099 35.9267 3.03992 35.9916 3.31192 35.9853C3.58599 35.9909 3.85693 35.9261 4.09875 35.797L20.1781 26.5569C20.4061 26.4108 20.5963 26.2127 20.7331 25.979C20.8698 25.7452 20.9492 25.4823 20.9649 25.2119V2.93224C20.9492 2.66185 20.8698 2.399 20.7331 2.16522C20.5963 1.93144 20.4061 1.73338 20.1781 1.58726L19.5392 1.21739C19.3105 1.08277 19.0513 1.0087 18.786 1.00219V1.02236Z" fill="#8873F4"/>
<path d="M1.07926 34.0954C1.09488 34.3658 1.1743 34.6287 1.31106 34.8625C1.44783 35.0962 1.63802 35.2943 1.86606 35.4404L2.53856 35.8103C2.75886 35.9225 3.00054 35.9866 3.24752 35.9982C3.4945 36.0097 3.74112 35.9686 3.97097 35.8775C3.6011 36.012 3.29848 35.8036 3.29848 35.3597V13.1069C3.30831 12.834 3.38696 12.568 3.52712 12.3335L1.30117 11.0894C1.1602 11.3235 1.08148 11.5897 1.07253 11.8628L1.07926 34.0954Z" fill="#BA68C8"/>
<path d="M20.9378 2.71051C20.8437 2.38099 20.541 2.27339 20.1779 2.48187L4.03805 11.769C3.80745 11.9139 3.61764 12.1153 3.4866 12.3541L1.301 11.0898C1.43204 10.851 1.62185 10.6496 1.85245 10.5047L17.9923 1.21759C18.2352 1.09467 18.5035 1.03062 18.7757 1.03062C19.0479 1.03062 19.3163 1.09467 19.5592 1.21759L20.1981 1.58745C20.3899 1.716 20.5541 1.88155 20.6812 2.0744C20.8082 2.26724 20.8954 2.48351 20.9378 2.71051Z" fill="#8873F4"/>
<path opacity="0.4" d="M20.9378 2.71051C20.8437 2.38099 20.541 2.27339 20.1779 2.48187L4.03805 11.769C3.80745 11.9139 3.61764 12.1153 3.4866 12.3541L1.301 11.0898C1.43204 10.851 1.62185 10.6496 1.85245 10.5047L17.9923 1.21759C18.2352 1.09467 18.5035 1.03062 18.7757 1.03062C19.0479 1.03062 19.3163 1.09467 19.5592 1.21759L20.1981 1.58745C20.3899 1.716 20.5541 1.88155 20.6812 2.0744C20.8082 2.26724 20.8954 2.48351 20.9378 2.71051Z" fill="white"/>
<path d="M12.5445 25.6964C11.3993 25.7088 10.2826 25.3397 9.37035 24.6473C7.97157 23.5915 7.01663 21.8026 6.61986 19.4825C6.61507 19.4551 6.61581 19.427 6.62205 19.3999C6.6283 19.3728 6.63993 19.3472 6.65622 19.3246C6.67252 19.3021 6.69317 19.283 6.71695 19.2685C6.74074 19.2541 6.76718 19.2445 6.79471 19.2404C6.84911 19.2307 6.90516 19.2429 6.95056 19.2744C6.99596 19.3059 7.02698 19.3542 7.0368 19.4086C7.4134 21.6211 8.31454 23.3225 9.6259 24.3178C10.3037 24.8059 11.0899 25.1221 11.9169 25.2393C12.7439 25.3564 13.587 25.271 14.3737 24.9903C14.4006 24.979 14.4295 24.9735 14.4587 24.9741C14.4878 24.9747 14.5165 24.9814 14.5429 24.9938C14.5693 25.0062 14.5928 25.024 14.6119 25.046C14.6309 25.068 14.6452 25.0938 14.6537 25.1217C14.6622 25.1496 14.6648 25.1789 14.6612 25.2079C14.6577 25.2368 14.6481 25.2647 14.6332 25.2897C14.6182 25.3147 14.5981 25.3363 14.5743 25.353C14.5504 25.3698 14.5233 25.3814 14.4947 25.387C13.8632 25.5847 13.2062 25.6889 12.5445 25.6964Z" fill="#8873F4"/>
<path d="M12.0606 27.5392C10.7653 27.5545 9.5018 27.1381 8.46948 26.3556C7.05434 25.1886 6.06193 23.589 5.645 21.8028C5.58417 21.4217 5.6133 21.0317 5.73006 20.6639C5.84683 20.296 6.04799 19.9606 6.31749 19.6844L18.3148 7.22985C18.3503 7.20204 18.3941 7.18693 18.4392 7.18693C18.4843 7.18693 18.5281 7.20204 18.5636 7.22985C18.6049 7.25001 18.6381 7.28367 18.6576 7.32524C18.6772 7.36682 18.682 7.41384 18.6712 7.45851L14.5286 25.8445C14.4719 26.2133 14.3171 26.5602 14.0805 26.8488C13.8439 27.1374 13.5342 27.3573 13.1837 27.4854C12.8114 27.5339 12.4358 27.5519 12.0606 27.5392ZM18.0794 8.03685L6.59995 19.9467C6.38466 20.1736 6.22376 20.4465 6.1294 20.7448C6.03503 21.043 6.00967 21.3588 6.05523 21.6683C6.4497 23.3691 7.39544 24.8917 8.7452 25.9991C9.36267 26.4615 10.0695 26.7905 10.8208 26.9653C11.5721 27.1401 12.3515 27.1569 13.1097 27.0146C13.3788 26.8953 13.6128 26.7091 13.7894 26.4736C13.966 26.2381 14.0793 25.9613 14.1184 25.6696L18.0794 8.03685Z" fill="#BA68C8"/>
<path d="M14.4345 25.4072H14.3874C14.3603 25.4009 14.3347 25.3893 14.3121 25.3729C14.2896 25.3566 14.2706 25.3359 14.2562 25.3121C14.2417 25.2882 14.2322 25.2618 14.2282 25.2342C14.2242 25.2067 14.2257 25.1786 14.2327 25.1517L18.113 8.0636L7.01688 19.5901C6.9758 19.6284 6.92172 19.6497 6.86557 19.6497C6.80941 19.6497 6.75533 19.6284 6.71425 19.5901C6.69473 19.5708 6.67924 19.5477 6.66867 19.5223C6.6581 19.4969 6.65266 19.4697 6.65266 19.4422C6.65266 19.4147 6.6581 19.3874 6.66867 19.3621C6.67924 19.3367 6.69473 19.3136 6.71425 19.2942L18.3349 7.22971C18.3663 7.19674 18.4076 7.17495 18.4526 7.16767C18.4975 7.16038 18.5436 7.168 18.5838 7.18936C18.6243 7.21044 18.6567 7.24422 18.6761 7.28552C18.6956 7.32683 18.7009 7.37337 18.6914 7.41801L14.6564 25.2324C14.6481 25.284 14.6207 25.3307 14.5796 25.3631C14.5385 25.3955 14.4867 25.4112 14.4345 25.4072Z" fill="#8873F4"/>
<path d="M9.4246 21.7218C9.25979 21.7233 9.09748 21.6816 8.95386 21.6007C8.74508 21.4489 8.58028 21.2444 8.47632 21.0081C8.37235 20.7719 8.33293 20.5122 8.36207 20.2557C8.36787 19.6965 8.50695 19.1467 8.76776 18.652C9.02858 18.1573 9.4036 17.7318 9.86173 17.4111C10.0268 17.2972 10.2197 17.2302 10.4198 17.2172C10.6199 17.2041 10.8198 17.2456 10.9982 17.3371C11.2081 17.4879 11.3737 17.6923 11.4777 17.9288C11.5818 18.1654 11.6206 18.4255 11.59 18.6821C11.5831 19.242 11.4436 19.7924 11.1829 20.288C10.9223 20.7837 10.5478 21.2105 10.0904 21.5335C9.88784 21.6513 9.65883 21.716 9.4246 21.7218ZM10.5275 17.6868C10.3729 17.6945 10.2226 17.7407 10.0904 17.8213C9.70372 18.1053 9.38744 18.4744 9.16591 18.8999C8.94438 19.3255 8.82352 19.7962 8.81265 20.2759C8.78974 20.4493 8.81171 20.6257 8.87647 20.7882C8.94123 20.9507 9.04661 21.0938 9.18251 21.2039C9.29114 21.2521 9.4106 21.2707 9.52873 21.2577C9.64686 21.2447 9.75944 21.2006 9.855 21.13C10.2428 20.847 10.5599 20.4782 10.7815 20.0524C11.0032 19.6266 11.1234 19.1553 11.1327 18.6754C11.1543 18.502 11.1318 18.3261 11.0671 18.1638C11.0024 18.0015 10.8978 17.8583 10.7629 17.7473C10.6901 17.7095 10.6095 17.6888 10.5275 17.6868Z" fill="#BA68C8"/>
<path d="M13.0223 22.9526C12.8691 22.9531 12.7184 22.9137 12.5851 22.8383C12.3962 22.7016 12.246 22.5182 12.1493 22.306C12.0526 22.0938 12.0128 21.8601 12.0337 21.6278C12.0367 21.1187 12.1602 20.6175 12.3939 20.1652C12.6277 19.7128 12.9651 19.3222 13.3787 19.0252C13.5319 18.9221 13.7098 18.8615 13.8941 18.8497C14.0785 18.8379 14.2626 18.8752 14.4278 18.958C14.6178 19.0952 14.7686 19.2798 14.8653 19.4933C14.9621 19.7068 15.0013 19.9419 14.9792 20.1752C14.9756 20.6833 14.8519 21.1833 14.6182 21.6345C14.3844 22.0856 14.0473 22.4751 13.6342 22.771C13.4498 22.8843 13.2387 22.947 13.0223 22.9526ZM14.0175 19.301C13.8811 19.3052 13.7484 19.3471 13.6342 19.422C13.287 19.6771 13.0033 20.0089 12.805 20.3914C12.6067 20.7739 12.4993 21.197 12.491 21.6278C12.4735 21.7799 12.4932 21.934 12.5482 22.0769C12.6032 22.2197 12.692 22.3472 12.807 22.4482C12.9041 22.4896 13.0103 22.5051 13.1152 22.4933C13.22 22.4815 13.3201 22.4428 13.4056 22.381C13.7517 22.1248 14.0346 21.7928 14.2328 21.4105C14.4309 21.0282 14.539 20.6057 14.5488 20.1752C14.5679 20.0224 14.5483 19.8672 14.4919 19.7239C14.4355 19.5805 14.3441 19.4536 14.226 19.3548C14.163 19.3176 14.0907 19.299 14.0175 19.301Z" fill="#8873F4"/>
<path d="M13.8427 14.9231C13.6727 14.9253 13.5052 14.8812 13.3585 14.7953C13.15 14.6429 12.9851 14.4385 12.8801 14.2026C12.7751 13.9666 12.7337 13.7073 12.76 13.4503C12.7462 13.296 12.7462 13.1407 12.76 12.9863C12.7661 12.9404 12.7874 12.8978 12.8205 12.8653L15.107 10.4847C15.1411 10.4352 15.1929 10.4007 15.2516 10.3882C15.3104 10.3757 15.3717 10.3862 15.423 10.4174C15.6461 10.56 15.8265 10.7603 15.9449 10.9971C16.0633 11.2339 16.1153 11.4984 16.0955 11.7624C16.0881 12.3351 15.9446 12.8978 15.6769 13.4042C15.4091 13.9105 15.0247 14.3458 14.5555 14.6743C14.3465 14.8236 14.0992 14.9099 13.8427 14.9231ZM13.2307 13.1275C13.224 13.235 13.224 13.3428 13.2307 13.4503C13.2071 13.6284 13.2292 13.8096 13.2951 13.9767C13.361 14.1438 13.4685 14.2913 13.6073 14.4053C13.7226 14.4544 13.8486 14.4733 13.9733 14.4604C14.098 14.4474 14.2173 14.403 14.3201 14.3313C14.7158 14.0386 15.0392 13.659 15.2653 13.2219C15.4915 12.7847 15.6144 12.3016 15.6248 11.8095C15.6448 11.495 15.5491 11.184 15.3558 10.9352L13.2307 13.1275Z" fill="#BA68C8"/>
</svg>
