<svg width="21" height="36" viewBox="0 0 21 36" fill="none" xmlns="http://www.w3.org/2000/svg">
<path d="M1.57146 35.8776C1.35602 35.8743 1.14349 35.8275 0.946656 35.7399C0.749822 35.6522 0.572772 35.5256 0.426187 35.3677C0.279602 35.2098 0.16652 35.0239 0.0937539 34.8211C0.0209874 34.6183 -0.00995506 34.4028 0.00279711 34.1877V11.8965C0.0185354 11.4265 0.149572 10.9677 0.384376 10.5603C0.61918 10.1529 0.950547 9.80949 1.34929 9.5603L17.5073 0.255998C17.7849 0.0921877 18.1006 0.00398206 18.4229 0.000165015C18.7349 -0.00439967 19.041 0.0858336 19.3006 0.258936C19.5603 0.432038 19.7613 0.679861 19.8771 0.969645C19.9507 1.2051 19.9892 1.45009 19.9916 1.69675V23.9611C19.9741 24.4307 19.8423 24.8888 19.6077 25.296C19.373 25.7031 19.0426 26.0468 18.6451 26.2973L2.48709 35.6016C2.39334 35.6521 2.29665 35.6971 2.19757 35.7362C1.99913 35.8208 1.787 35.8687 1.57146 35.8776Z" fill="#E0E0E0"/>
<path d="M20.934 2.88829C20.918 2.61844 20.8391 2.35609 20.7035 2.12226C20.5678 1.88843 20.3793 1.68962 20.153 1.54179L19.5134 1.1715C19.2703 1.04845 19.0016 0.984338 18.7291 0.984338C18.4566 0.984338 18.1879 1.04845 17.9448 1.1715L1.78678 10.4691C1.56157 10.6181 1.37388 10.8171 1.23839 11.0507C1.10291 11.2843 1.02331 11.5461 1.00581 11.8156V34.0799C1.0228 34.3495 1.10219 34.6115 1.23771 34.8451C1.37324 35.0788 1.56121 35.2778 1.78678 35.4264L2.42638 35.79C2.66854 35.9162 2.9376 35.9821 3.2107 35.9821C3.4838 35.9821 3.75287 35.9162 3.99504 35.79L20.153 26.4924C20.3793 26.3446 20.5678 26.1458 20.7035 25.9119C20.8391 25.6781 20.918 25.4157 20.934 25.1459V2.88829Z" fill="#8873F4"/>
<path d="M18.7328 1.3061C18.9507 1.30162 19.1661 1.35259 19.3589 1.45422L19.9917 1.8245C20.1727 1.94461 20.3233 2.10496 20.432 2.29301C20.5406 2.48106 20.6042 2.6917 20.6179 2.90843V25.1728C20.6027 25.3892 20.5385 25.5992 20.43 25.787C20.3215 25.9749 20.1716 26.1355 19.9917 26.2567L3.86743 35.5543C3.67464 35.6559 3.4592 35.7069 3.24131 35.7024C3.02323 35.7087 2.80733 35.6576 2.61519 35.5543L1.9756 35.2042C1.79503 35.0837 1.64462 34.9233 1.53604 34.7353C1.42746 34.5473 1.36363 34.3369 1.34948 34.1203V11.8357C1.36462 11.6193 1.42888 11.4093 1.53737 11.2215C1.64587 11.0336 1.79573 10.873 1.9756 10.7518L18.1336 1.45422C18.3285 1.35175 18.5463 1.30077 18.7664 1.3061M18.7664 0.989677C18.4922 0.985785 18.2214 1.05059 17.9787 1.17819L1.82074 10.4758C1.59553 10.6247 1.40784 10.8238 1.27235 11.0574C1.13687 11.291 1.05727 11.5528 1.03977 11.8222V34.0866C1.05676 34.3562 1.13615 34.6182 1.27167 34.8518C1.4072 35.0855 1.59517 35.2845 1.82074 35.4331L2.46034 35.7966C2.70221 35.9265 2.97361 35.9914 3.24805 35.9852C3.52036 35.9915 3.78957 35.9265 4.029 35.7966L20.187 26.4991C20.4133 26.3512 20.6018 26.1524 20.7374 25.9186C20.8731 25.6848 20.952 25.4224 20.9679 25.1526V2.88824C20.9483 2.61538 20.8642 2.35107 20.7226 2.11701C20.581 1.88295 20.3859 1.6858 20.1533 1.54174L19.5137 1.17145C19.2731 1.04468 19.0047 0.97989 18.7328 0.982943L18.7664 0.989677Z" fill="#BA68C8"/>
<path d="M1.03275 34.1C1.04973 34.3696 1.12912 34.6316 1.26465 34.8652C1.40018 35.0989 1.58814 35.2979 1.81372 35.4465L2.45329 35.8101C2.67385 35.9224 2.9158 35.9865 3.16305 35.9982C3.41031 36.0098 3.6572 35.9686 3.88732 35.8774C3.51703 36.0188 3.21407 35.8101 3.21407 35.359V13.1081C3.22328 12.8369 3.30211 12.5726 3.44297 12.3406L1.23471 11.0614C1.0944 11.2961 1.01566 11.5624 1.00581 11.8357L1.03275 34.1Z" fill="#8873F4"/>
<path d="M20.9069 2.68607C20.8194 2.34945 20.5164 2.24173 20.1528 2.45044L3.99487 11.7547C3.76243 11.8979 3.57197 12.1 3.4428 12.3405L1.23454 11.068C1.36573 10.829 1.55575 10.6274 1.78661 10.4823L17.9446 1.178C18.1877 1.05495 18.4564 0.99083 18.7289 0.99083C19.0014 0.99083 19.2701 1.05495 19.5132 1.178L20.1528 1.54155C20.3504 1.67031 20.5193 1.83839 20.649 2.0353C20.7788 2.23222 20.8665 2.45374 20.9069 2.68607Z" fill="#BA68C8"/>
<path opacity="0.4" d="M20.9069 2.68607C20.8194 2.34945 20.5164 2.24173 20.1528 2.45044L3.99487 11.7547C3.76243 11.8979 3.57197 12.1 3.4428 12.3405L1.23454 11.068C1.36573 10.829 1.55575 10.6274 1.78661 10.4823L17.9446 1.178C18.1877 1.05495 18.4564 0.99083 18.7289 0.99083C19.0014 0.99083 19.2701 1.05495 19.5132 1.178L20.1528 1.54155C20.3504 1.67031 20.5193 1.83839 20.649 2.0353C20.7788 2.23222 20.8665 2.45374 20.9069 2.68607Z" fill="white"/>
<path d="M9.01731 24.668C8.98194 24.6769 8.94495 24.6769 8.90958 24.668C8.8792 24.6483 8.85413 24.6214 8.83652 24.5897C8.81892 24.558 8.80933 24.5225 8.8086 24.4862C8.94998 16.212 14.6995 8.57737 19.3584 7.76274C19.3877 7.75747 19.4178 7.75834 19.4468 7.76529C19.4758 7.77224 19.503 7.78513 19.5267 7.80314C19.5701 7.84161 19.5986 7.89398 19.6075 7.95125C19.6075 8.13302 19.9172 12.4822 15.3458 18.6694C12.0604 23.1263 9.23274 24.6142 9.11829 24.6747C9.08464 24.6818 9.04973 24.6794 9.01731 24.668ZM19.1901 8.19362C14.8005 9.17656 9.53572 16.2726 9.23949 24.0823C11.492 22.5491 13.4471 20.6192 15.0092 18.3866C18.8804 13.142 19.1834 9.17656 19.1901 8.19362Z" fill="#BA68C8"/>
<path d="M17.2109 15.5453C15.2585 15.4241 14.2284 13.741 14.3833 10.9133C14.3831 10.885 14.389 10.857 14.4004 10.8311C14.4118 10.8052 14.4285 10.7819 14.4494 10.7629C14.4704 10.7438 14.4951 10.7294 14.522 10.7205C14.5488 10.7117 14.5773 10.7085 14.6055 10.7114C14.6329 10.7131 14.6597 10.7202 14.6844 10.7323C14.7091 10.7444 14.7311 10.7613 14.7492 10.7819C14.7674 10.8025 14.7813 10.8266 14.7901 10.8526C14.7989 10.8786 14.8025 10.9061 14.8007 10.9335C14.666 13.4919 15.5548 15.0202 17.2379 15.1211C17.2653 15.1229 17.2921 15.13 17.3168 15.1421C17.3415 15.1542 17.3635 15.171 17.3816 15.1917C17.3998 15.2123 17.4137 15.2363 17.4225 15.2624C17.4313 15.2884 17.4349 15.3159 17.4331 15.3433C17.4296 15.3993 17.4045 15.4517 17.363 15.4894C17.3215 15.5271 17.267 15.5472 17.2109 15.5453Z" fill="#8873F4"/>
<path d="M5.49657 27.1254C5.0964 27.1372 4.70744 26.9922 4.41263 26.7214C4.37697 26.6904 4.35289 26.6482 4.34433 26.6017C4.33577 26.5553 4.34322 26.5073 4.36549 26.4656C5.77258 23.8197 7.8664 22.756 9.13211 23.0993C9.16279 23.1032 9.19226 23.1137 9.21854 23.13C9.24482 23.1463 9.2673 23.1681 9.28441 23.1939C9.30153 23.2196 9.31289 23.2488 9.31774 23.2793C9.32258 23.3099 9.32078 23.3411 9.31248 23.3709C9.30418 23.4007 9.28954 23.4283 9.2696 23.452C9.24965 23.4756 9.22486 23.4947 9.19689 23.5079C9.16891 23.5211 9.13842 23.5281 9.10749 23.5285C9.07656 23.5288 9.04592 23.5225 9.01764 23.51C7.92025 23.207 6.07556 24.2573 4.82332 26.5194C5.09409 26.6948 5.42257 26.7576 5.73893 26.6945C7.04494 26.3475 8.16069 25.498 8.84261 24.3314C8.87208 24.2841 8.91912 24.2504 8.97341 24.2377C9.0277 24.2251 9.08479 24.2346 9.13211 24.264C9.17942 24.2935 9.21309 24.3406 9.22571 24.3949C9.23834 24.4491 9.2289 24.5062 9.19943 24.5535C8.44796 25.8242 7.2226 26.7445 5.7928 27.1119L5.49657 27.1254Z" fill="#8873F4"/>
<path d="M9.7449 30.2424C9.70736 30.2521 9.66797 30.2521 9.63044 30.2424C8.14256 29.2797 8.10891 26.5261 8.82255 24.4256C8.8309 24.3987 8.84457 24.3738 8.86278 24.3524C8.88099 24.3309 8.90335 24.3134 8.92851 24.3008C8.95366 24.2883 8.98108 24.2809 9.00915 24.2792C9.03722 24.2775 9.06536 24.2815 9.09185 24.2909C9.144 24.3107 9.18679 24.3494 9.21173 24.3993C9.23668 24.4492 9.24194 24.5066 9.22648 24.5602C8.55324 26.4318 8.59363 28.8084 9.67083 29.7509C10.7144 27.5696 10.4653 24.8228 9.71122 24.1159C9.69168 24.0965 9.67618 24.0734 9.66559 24.048C9.65501 24.0225 9.64957 23.9953 9.64957 23.9677C9.64957 23.9402 9.65501 23.9129 9.66559 23.8875C9.67618 23.8621 9.69168 23.839 9.71122 23.8196C9.73062 23.8001 9.75371 23.7846 9.77913 23.774C9.80455 23.7634 9.8318 23.758 9.85934 23.758C9.88688 23.758 9.91415 23.7634 9.93957 23.774C9.96499 23.7846 9.98806 23.8001 10.0075 23.8196C10.9971 24.7554 11.1587 27.8591 9.93341 30.1818C9.90564 30.2309 9.85971 30.2672 9.80549 30.2828L9.7449 30.2424Z" fill="#BA68C8"/>
<path d="M15.144 17.1413C13.9591 17.0942 13.1243 15.5121 13.0637 14.0646C13.0628 14.0372 13.0673 14.0099 13.077 13.9842C13.0866 13.9585 13.1013 13.935 13.12 13.915C13.1388 13.895 13.1613 13.8789 13.1863 13.8676C13.2113 13.8563 13.2382 13.85 13.2657 13.8492C13.3205 13.849 13.3734 13.8699 13.4134 13.9074C13.4535 13.945 13.4777 13.9964 13.4811 14.0511C13.5215 15.2832 14.2486 16.6835 15.1642 16.7441C15.2196 16.7492 15.271 16.7748 15.3084 16.8159C15.3458 16.8571 15.3664 16.9107 15.3662 16.9663C15.3565 17.0174 15.3287 17.0632 15.2879 17.0954C15.247 17.1275 15.1959 17.1439 15.144 17.1413Z" fill="#BA68C8"/>
<path d="M13.6831 18.8243H13.6494C12.8886 18.7032 12.047 17.323 11.9191 16.3266C11.9133 16.2715 11.929 16.2162 11.9628 16.1723C11.9967 16.1285 12.0461 16.0993 12.1009 16.091C12.1285 16.0862 12.1567 16.0872 12.1839 16.0939C12.2111 16.1007 12.2365 16.113 12.2587 16.1301C12.2808 16.1472 12.2992 16.1687 12.3126 16.1932C12.326 16.2178 12.3342 16.2449 12.3366 16.2727C12.451 17.148 13.2118 18.3261 13.7167 18.4069C13.7716 18.4168 13.8205 18.4476 13.8531 18.4928C13.8858 18.538 13.8996 18.5941 13.8918 18.6493C13.8825 18.6981 13.8566 18.7421 13.8186 18.774C13.7805 18.8059 13.7327 18.8237 13.6831 18.8243Z" fill="#8873F4"/>
<path d="M12.3567 20.4802H12.3162C11.6834 20.3658 10.9698 19.1337 10.8284 18.4605C10.8205 18.4053 10.8344 18.3492 10.867 18.304C10.8997 18.2588 10.9486 18.228 11.0034 18.2181C11.0309 18.2133 11.059 18.2141 11.0862 18.2203C11.1133 18.2266 11.1389 18.2382 11.1615 18.2545C11.1841 18.2708 11.2032 18.2915 11.2177 18.3153C11.2321 18.3391 11.2417 18.3656 11.2458 18.3932C11.3468 19.026 12.0268 20.0224 12.3903 20.0897C12.4452 20.0996 12.4941 20.1304 12.5267 20.1756C12.5594 20.2208 12.5732 20.2769 12.5654 20.3321C12.551 20.3759 12.5229 20.4139 12.4854 20.4405C12.4478 20.4672 12.4027 20.4811 12.3567 20.4802Z" fill="#BA68C8"/>
<path d="M10.9098 22.0224H10.8694C10.6254 21.948 10.4053 21.8105 10.2315 21.6237C10.0577 21.4369 9.93634 21.2075 9.87977 20.9587C9.87377 20.9077 9.88675 20.8563 9.91624 20.8143C9.94573 20.7723 9.98965 20.7427 10.0396 20.731C10.0896 20.7193 10.1421 20.7265 10.1871 20.7511C10.2322 20.7757 10.2666 20.816 10.2837 20.8644C10.3256 21.0348 10.409 21.1923 10.5264 21.3227C10.6439 21.453 10.7918 21.5523 10.957 21.6117C11.0123 21.6171 11.0633 21.6442 11.0986 21.6871C11.134 21.73 11.1508 21.7853 11.1455 21.8406C11.1401 21.896 11.113 21.9469 11.0701 21.9823C11.0272 22.0176 10.9719 22.0345 10.9166 22.0291L10.9098 22.0224Z" fill="#8873F4"/>
<path d="M16.4505 12.1187C16.3637 12.1194 16.2782 12.0986 16.2014 12.0581C16.1012 11.9896 16.0213 11.8952 15.9704 11.785C15.9194 11.6747 15.8992 11.5528 15.9119 11.432C15.9191 11.189 15.9839 10.9513 16.1009 10.7382C16.218 10.5252 16.3839 10.343 16.5852 10.2067C16.6726 10.1577 16.7711 10.132 16.8713 10.132C16.9715 10.132 17.07 10.1577 17.1574 10.2067C17.2576 10.2752 17.3375 10.3696 17.3884 10.4799C17.4394 10.5901 17.4596 10.712 17.4469 10.8328C17.4397 11.0758 17.3749 11.3135 17.2579 11.5266C17.1409 11.7396 16.9749 11.9218 16.7737 12.0581C16.6726 12.1047 16.5616 12.1255 16.4505 12.1187ZM16.8814 10.5366C16.8457 10.5308 16.8093 10.5308 16.7737 10.5366C16.64 10.638 16.5307 10.768 16.4538 10.9171C16.3769 11.0662 16.3344 11.2306 16.3293 11.3983C16.3293 11.5464 16.3697 11.634 16.4168 11.6609C16.464 11.6878 16.5313 11.6609 16.5582 11.6609C16.6925 11.5616 16.8023 11.4329 16.8793 11.2848C16.9563 11.1366 16.9984 10.9728 17.0026 10.8059C17.0026 10.6578 16.9622 10.5702 16.915 10.5433L16.8814 10.5366Z" fill="#BA68C8"/>
<path d="M10.6801 17.0871C10.6394 17.0874 10.5995 17.0762 10.5649 17.0548C10.5304 17.0333 10.5026 17.0025 10.4848 16.966C10.2425 16.4139 9.08446 16.7101 9.07772 16.7101C9.04078 16.721 9.00151 16.721 8.96454 16.7103C8.92756 16.6996 8.89441 16.6785 8.86902 16.6495C8.84241 16.6227 8.82389 16.5888 8.81556 16.5519C8.80722 16.515 8.80943 16.4765 8.82191 16.4408C9.15853 15.4377 11.084 13.2092 12.7267 12.8928C12.7538 12.887 12.7818 12.8868 12.8089 12.8922C12.836 12.8976 12.8617 12.9086 12.8845 12.9244C12.9072 12.9401 12.9264 12.9604 12.941 12.984C12.9555 13.0075 12.9651 13.0337 12.9691 13.0611C12.979 13.1164 12.967 13.1734 12.9356 13.2199C12.9042 13.2664 12.8558 13.2988 12.8008 13.3102C11.5351 13.5459 9.93276 15.2222 9.38069 16.2254C9.85197 16.1715 10.606 16.2254 10.8686 16.7909C10.8915 16.8409 10.8938 16.898 10.8749 16.9497C10.856 17.0014 10.8174 17.0436 10.7676 17.067L10.6801 17.0871Z" fill="#8873F4"/>
</svg>
