<svg width="33" height="48" viewBox="0 0 33 48" fill="none" xmlns="http://www.w3.org/2000/svg">
<path d="M25.0989 0C28.3783 4.61226 30.1438 10.1295 30.1513 15.7888C30.1892 39.6993 15.3225 43.2991 15.3225 43.2991C15.216 41.7415 15.2753 40.177 15.4993 38.632C15.4993 38.632 25.0736 28.925 25.0799 16.7171C25.0799 9.64378 22.8379 3.65668 20.817 1.68624L19.4149 1.95781C19.4212 1.35152 21.5938 0.423139 25.0989 0Z" fill="#263238"/>
<path d="M6.2601 47.4864C8.84315 47.4106 12.323 45.5601 14.8303 43.2992C20.0595 38.5625 20.0279 38.4425 23.994 34.868C25.5666 33.447 26.6781 32.5881 27.2781 32.0765C28.459 31.2601 29.5216 30.2846 30.4359 29.1777C31.1621 28.1925 32.0968 26.942 32.3305 25.7105C32.5831 24.3463 33.1515 22.9759 32.9621 21.5486C32.9115 21.1381 32.7979 20.7402 32.7537 20.3297C32.7336 19.7579 32.761 19.1854 32.8357 18.6182C32.9462 17.6215 32.8713 16.613 32.6147 15.6436C32.3202 14.7553 31.9172 13.9068 31.4148 13.1174C30.979 12.4037 30.3095 11.5574 29.8359 11.488C29.918 12.1195 30.1138 13.4458 30.158 14.6899C29.8207 16.0158 29.1362 17.2279 28.1749 18.2013C26.5771 20.096 25.2445 21.0623 25.074 20.6518C24.9035 20.2413 25.535 19.0413 25.434 17.0267C25.3329 15.012 24.8024 14.2605 24.2151 14.0773C23.2488 13.7868 23.2109 14.8415 22.7246 16.4267C22.1436 18.3213 21.2721 19.3129 21.0384 22.1106C20.83 24.5737 21.2026 25.1674 19.7753 26.2094C18.9543 26.8031 16.1944 28.1672 16.1944 28.1672C16.1944 28.1672 17.0723 25.521 18.5375 20.9928C21.3668 12.2079 22.7499 6.24609 19.4532 1.92628C13.7693 2.36837 9.82205 4.45248 7.27059 11.9364C4.66228 19.616 4.21387 20.6012 0.78455 35.8974C-1.69744 46.9622 2.14239 47.6506 6.2601 47.4864Z" fill="#9E6767"/>
<path d="M16.1817 28.1988C13.3334 29.6766 5.86212 32.4302 4.81374 36.1311C4.81374 36.1311 4.56745 32.8281 9.28513 30.0429C14.3375 27.0494 17.009 25.7484 17.009 25.7484L16.1817 28.1988Z" fill="#874C4C"/>
</svg>
