<svg width="20" height="20" viewBox="0 0 20 20" fill="none" xmlns="http://www.w3.org/2000/svg">
<path d="M11.9997 18.3335C11.5136 18.3335 11.0483 18.2327 10.6038 18.031C10.1594 17.8293 9.77745 17.5413 9.45801 17.1668L4.62468 11.5418L5.70801 10.7293C5.98579 10.521 6.29829 10.4099 6.64551 10.396C6.99273 10.3821 7.31218 10.4724 7.60384 10.6668L8.74968 11.396V3.3335C8.74968 3.09739 8.82968 2.89933 8.98968 2.73933C9.14968 2.57933 9.34745 2.49961 9.58301 2.50016C9.81912 2.50016 10.0172 2.58016 10.1772 2.74016C10.3372 2.90016 10.4169 3.09794 10.4163 3.3335V10.8335H11.6663V6.66683C11.6663 6.43072 11.7463 6.23266 11.9063 6.07266C12.0663 5.91266 12.2641 5.83294 12.4997 5.8335C12.7358 5.8335 12.9338 5.9135 13.0938 6.0735C13.2538 6.2335 13.3336 6.43127 13.333 6.66683V10.8335H14.583V7.50016C14.583 7.26405 14.663 7.066 14.823 6.906C14.983 6.746 15.1808 6.66627 15.4163 6.66683C15.6525 6.66683 15.8505 6.74683 16.0105 6.90683C16.1705 7.06683 16.2502 7.26461 16.2497 7.50016V10.8335H17.4997V9.16683C17.4997 8.93072 17.5797 8.73266 17.7397 8.57266C17.8997 8.41266 18.0975 8.33294 18.333 8.3335C18.5691 8.3335 18.7672 8.4135 18.9272 8.5735C19.0872 8.7335 19.1669 8.93127 19.1663 9.16683V15.0002C19.1663 15.9168 18.84 16.7016 18.1872 17.3543C17.5344 18.0071 16.7497 18.3335 15.833 18.3335H11.9997ZM3.74968 8.3335C2.93023 8.3335 2.23912 8.05239 1.67634 7.49016C1.11356 6.92794 0.832453 6.25072 0.833009 5.4585C0.833009 4.98627 0.926898 4.57655 1.11468 4.22933C1.30245 3.88211 1.74329 3.31266 2.43718 2.521L3.74968 1.021L5.06217 2.54183C5.77051 3.36127 6.21495 3.93766 6.39551 4.271C6.57606 4.60433 6.66634 5.00016 6.66634 5.4585C6.66634 6.25016 6.38162 6.92739 5.81218 7.49016C5.24273 8.05294 4.55523 8.33405 3.74968 8.3335Z" fill="#31AA7A"/>
</svg>
