<svg width="22" height="22" viewBox="0 0 22 22" fill="none" xmlns="http://www.w3.org/2000/svg">
<path d="M19.8662 1.18906C19.8792 1.04233 19.7345 0.932319 19.5966 0.984104L13.9378 3.10903C13.7831 3.16715 13.7616 3.37728 13.9015 3.46545L15.8338 4.68364C11.842 9.71032 6.09786 12.8393 1.18946 14.0828C1.06172 14.1151 0.998964 14.2591 1.06238 14.3746L2.26272 16.561C2.30897 16.6453 2.40821 16.6849 2.49947 16.6548C8.02952 14.827 13.8585 11.5559 17.6256 5.81802L19.0804 6.73493C19.2069 6.81467 19.373 6.73242 19.3862 6.58346L19.8662 1.18906ZM20.4084 5.88677C20.3048 5.88677 20.2183 5.96602 20.2092 6.06932L20.0476 7.91461C20.0345 8.06379 19.8682 8.14622 19.7415 8.06625L17.9796 6.95346C17.8879 6.89551 17.7665 6.92125 17.7039 7.0099C17.673 7.05359 17.6419 7.09723 17.6106 7.14131C17.5867 7.17492 17.574 7.21513 17.574 7.25634V20.7258C17.574 20.8363 17.6636 20.9258 17.774 20.9258H20.7256C20.836 20.9258 20.9256 20.8363 20.9256 20.7258V6.08677C20.9256 5.97631 20.836 5.88677 20.7256 5.88677H20.4084ZM13.8287 11.3868C13.7806 11.3868 13.7341 11.4041 13.6977 11.4355C13.1956 11.8678 12.6792 12.2784 12.1553 12.6673C12.1042 12.7052 12.074 12.7649 12.074 12.8285V20.7258C12.074 20.8363 12.1636 20.9258 12.274 20.9258H15.2256C15.336 20.9258 15.4256 20.8363 15.4256 20.7258V11.5868C15.4256 11.4763 15.336 11.3868 15.2256 11.3868H13.8287ZM8.48841 14.9961C8.45587 14.9961 8.42383 15.0041 8.39503 15.0192C7.82956 15.3166 7.26392 15.5925 6.69155 15.8537C6.62006 15.8863 6.57402 15.9576 6.57402 16.0362V20.7258C6.57402 20.8363 6.66357 20.9258 6.77402 20.9258H9.72559C9.83604 20.9258 9.92559 20.8363 9.92559 20.7258V15.1961C9.92559 15.0857 9.83604 14.9961 9.72559 14.9961H8.48841ZM1.27402 16.8868C1.16357 16.8868 1.07402 16.9763 1.07402 17.0868V20.7258C1.07402 20.8363 1.16357 20.9258 1.27402 20.9258H4.22559C4.33604 20.9258 4.42559 20.8363 4.42559 20.7258V17.0868C4.42559 16.9763 4.33604 16.8868 4.22559 16.8868H4.21744C4.19369 16.8868 4.17012 16.891 4.14784 16.8993C3.52229 17.1308 2.89721 17.3458 2.27586 17.5442L2.12867 17.5901C2.03782 17.6184 1.9396 17.5787 1.89382 17.4953L1.61695 16.9906C1.58183 16.9266 1.51461 16.8868 1.4416 16.8868H1.27402Z" fill="#B3BECD"/>
</svg>
