<svg width="20" height="35" viewBox="0 0 20 35" fill="none" xmlns="http://www.w3.org/2000/svg">
<path d="M19.9319 1.91175C19.9144 1.64214 19.8348 1.38023 19.6992 1.14651C19.5637 0.912792 19.3759 0.713605 19.1505 0.564532L18.5106 0.200782C18.2683 0.0744583 17.9991 0.00849454 17.7258 0.00849454C17.4526 0.00849454 17.1834 0.0744583 16.9411 0.200782L0.801378 9.51682C0.574948 9.66473 0.386311 9.86364 0.250616 10.0976C0.114921 10.3316 0.0359416 10.594 0.0199872 10.864V33.0932C0.0359416 33.3632 0.114921 33.6257 0.250616 33.8596C0.386311 34.0936 0.574948 34.2925 0.801378 34.4404L1.4413 34.8109C1.68457 34.934 1.9534 34.9982 2.22606 34.9982C2.49871 34.9982 2.76755 34.934 3.01082 34.8109L19.1775 25.5083C19.4032 25.3596 19.5912 25.1605 19.7268 24.9268C19.8624 24.693 19.9419 24.4308 19.9589 24.1611L19.9319 1.91175Z" fill="#FAFAFA"/>
<path d="M17.7225 0.315657C17.94 0.307581 18.1559 0.356335 18.3489 0.457115L19.0225 0.8276C19.2025 0.948888 19.3524 1.1096 19.461 1.29752C19.5695 1.48544 19.6338 1.69562 19.649 1.91211V24.1884C19.6348 24.4051 19.571 24.6157 19.4623 24.8038C19.3537 24.9919 19.2032 25.1524 19.0225 25.2729L2.85588 34.5755C2.66019 34.6728 2.44461 34.7234 2.22606 34.7234C2.00751 34.7234 1.79193 34.6728 1.59623 34.5755L0.963038 34.2117C0.782215 34.0898 0.631732 33.928 0.523139 33.7388C0.414547 33.5497 0.350735 33.3381 0.336585 33.1205V10.8644C0.351736 10.6479 0.416028 10.4377 0.524578 10.2498C0.633128 10.0619 0.783076 9.90117 0.963038 9.77988L17.1297 0.477325C17.3232 0.377974 17.5387 0.329303 17.7561 0.335865M17.7561 0.0192695C17.4837 0.0129327 17.2143 0.0779531 16.9748 0.20788L0.801378 9.51718C0.574948 9.66509 0.386311 9.864 0.250616 10.098C0.114921 10.3319 0.0359416 10.5944 0.0199872 10.8644V33.0935C0.0359416 33.3635 0.114921 33.626 0.250616 33.86C0.386311 34.0939 0.574948 34.2929 0.801378 34.4408L1.4413 34.8113C1.68425 34.9354 1.95321 35.0002 2.22606 35.0002C2.4989 35.0002 2.76786 34.9354 3.01082 34.8113L19.1775 25.5087C19.4032 25.36 19.5912 25.1609 19.7268 24.9271C19.8624 24.6933 19.9419 24.4312 19.9589 24.1615V1.91211C19.9414 1.6425 19.8617 1.38059 19.7262 1.14687C19.5906 0.913153 19.4028 0.713965 19.1775 0.564892L18.5375 0.201142C18.2959 0.070365 18.0241 0.00532753 17.7494 0.012532L17.7561 0.0192695Z" fill="#BA68C8"/>
<path d="M0.0202075 33.0933C0.0361619 33.3633 0.115141 33.6258 0.250836 33.8597C0.386531 34.0937 0.575169 34.2926 0.801598 34.4405L1.44152 34.811C1.66319 34.9207 1.90539 34.9828 2.1525 34.9932C2.39961 35.0037 2.64617 34.9622 2.87631 34.8716C2.50582 35.0131 2.2027 34.8043 2.2027 34.3597V12.1238C2.2143 11.8498 2.29544 11.5832 2.43847 11.3491L0.229025 10.076C0.0880845 10.3081 0.00921734 10.5726 0 10.8439L0.0202075 33.0933Z" fill="#BA68C8"/>
<path d="M19.9058 1.68942C19.8182 1.35935 19.5151 1.25157 19.1513 1.46039L2.98466 10.763C2.75211 10.9062 2.56154 11.1084 2.4323 11.349L0.222857 10.0759C0.3521 9.83525 0.542663 9.63307 0.775222 9.48983L16.9419 0.187269C17.1852 0.0641519 17.454 0 17.7266 0C17.9993 0 18.2681 0.0641519 18.5114 0.187269L19.1513 0.557754C19.348 0.684485 19.5165 0.850365 19.6463 1.04506C19.7761 1.23976 19.8644 1.4591 19.9058 1.68942Z" fill="#BA68C8"/>
<path opacity="0.4" d="M19.9058 1.68942C19.8182 1.35935 19.5151 1.25157 19.1513 1.46039L2.98466 10.763C2.75211 10.9062 2.56154 11.1084 2.4323 11.349L0.222857 10.0759C0.3521 9.83525 0.542663 9.63307 0.775222 9.48983L16.9419 0.187269C17.1852 0.0641519 17.454 0 17.7266 0C17.9993 0 18.2681 0.0641519 18.5114 0.187269L19.1513 0.557754C19.348 0.684485 19.5165 0.850365 19.6463 1.04506C19.7761 1.23976 19.8644 1.4591 19.9058 1.68942Z" fill="white"/>
</svg>
