<svg width="24" height="24" viewBox="0 0 24 24" fill="none" xmlns="http://www.w3.org/2000/svg">
<path d="M1.81027 9.72766C2.09157 9.44645 2.47303 9.28848 2.87077 9.28848C3.26852 9.28848 3.64998 9.44645 3.93127 9.72766L9.23528 15.0317L19.8403 4.42516C19.9795 4.28579 20.1449 4.17522 20.3269 4.09976C20.5089 4.0243 20.704 3.98542 20.901 3.98535C21.098 3.98528 21.2931 4.02402 21.4752 4.09935C21.6572 4.17469 21.8227 4.28514 21.962 4.42441C22.1014 4.56367 22.212 4.72903 22.2874 4.91102C22.3629 5.09302 22.4018 5.2881 22.4018 5.48513C22.4019 5.68215 22.3632 5.87726 22.2878 6.05931C22.2125 6.24136 22.102 6.40679 21.9628 6.54616L9.23528 19.2737L1.81027 11.8487C1.52907 11.5674 1.37109 11.1859 1.37109 10.7882C1.37109 10.3904 1.52907 10.0089 1.81027 9.72766Z" fill="#6152AD"/>
</svg>
