<svg width="94" height="224" viewBox="0 0 94 224" fill="none" xmlns="http://www.w3.org/2000/svg">
<path d="M80.5106 195.5C79.8797 187.014 80.8576 180.503 80.1257 167.248C80.0563 163.854 79.9302 160.213 79.6967 156.977C78.9018 146.094 77.1731 142.378 77.0027 140.277C77.0027 140.277 76.6999 123.349 75.968 99.5388C75.621 88.3401 72.252 84.9458 69.5643 79.0026H36.1261C34.2333 93.4 32.9715 125.69 33.1103 140.794C33.1608 148.497 36.391 189.734 36.4541 190.68C36.6813 194.043 36.3784 195.374 35.0093 196.787C32.145 199.753 27.9999 202.573 24.41 205.153C24.9274 206.478 29.2428 206.415 31.3501 205.424C34.1566 204.029 36.8392 202.398 39.3689 200.547C42.3153 198.44 46.0818 196.762 46.1323 193.544C46.1536 193.351 46.1959 193.161 46.2585 192.977C46.3089 191.084 50.8326 163.526 51.2048 157.122C51.5329 151.62 50.8389 142.283 50.8389 142.283L54.5171 118.971C54.5171 118.971 56.7884 132.75 59.0786 142.157C60.9713 149.816 64.0312 162.882 66.1321 172.308C68.1511 183.166 71.1226 190.895 71.6337 196.327C71.7914 197.626 73.3119 210.358 73.9428 213.279C74.5737 216.2 81.1352 216.257 81.5894 211.273C81.8418 207.904 80.6305 197.122 80.5106 195.5Z" fill="#9E6767"/>
<path d="M54.4915 118.958L51.7975 102.126C51.7975 102.126 41.4001 100.933 37.6147 97.4254C37.6147 97.4254 42.3843 103.917 49.4442 104.996L52.4095 118.939L50.8449 142.069L54.4915 118.958Z" fill="#874C4C"/>
<path d="M18.3349 208.548C18.1519 208.548 17.8554 210.484 18.8333 211.317C19.9689 212.283 23.3064 213.879 27.7481 213.368C32.1897 212.857 34.6061 211.563 36.3978 210.15C38.1896 208.737 40.7006 206.737 42.7069 206.333C44.5997 205.955 46.606 205.16 47.2116 204.611C47.8173 204.062 47.7605 201.589 47.7605 201.589L18.3349 208.548Z" fill="#263238"/>
<path d="M46.3217 192.056C46.3217 192.056 46.6561 192.056 46.7633 192.642C46.8958 193.33 47.022 195.311 47.2996 196.428C47.7382 198.4 47.8638 200.429 47.6718 202.44C47.4132 203.702 44.3659 204.548 42.4164 205.242C40.1388 206.187 38.0129 207.462 36.1073 209.027C34 210.667 29.5963 212.283 26.7067 212.295C22.2903 212.295 19.4449 211.128 18.5806 209.589C17.508 207.696 18.3787 206.598 23.4764 204.384C24.4417 203.961 27.836 202.068 28.9906 201.387C30.2154 200.668 31.3801 199.852 32.4732 198.945C33.0218 198.487 33.5441 197.998 34.0379 197.481C34.5471 197.026 34.9852 196.496 35.3375 195.91C35.4006 195.784 35.4385 195.633 35.4953 195.5C35.6402 195.128 35.7542 194.744 35.836 194.352C35.9243 193.948 35.9811 193.355 36.3849 193.09C36.9642 192.872 37.59 192.807 38.2019 192.901C38.8575 192.953 39.5089 193.05 40.1514 193.191C40.8959 193.362 41.7602 193.431 42.1955 194.112C42.4839 194.659 42.6212 195.274 42.593 195.891C42.593 196.175 42.593 196.466 42.593 196.75C42.593 196.869 42.5362 197.09 42.7129 197.04C42.8895 196.989 43.0788 196.573 43.1419 196.409C43.287 196.087 43.3817 195.746 43.5394 195.437C43.7081 195.069 43.9198 194.721 44.1703 194.403C44.4168 194.122 44.694 193.87 44.9968 193.652C45.2988 193.489 45.5916 193.31 45.8737 193.115C46.1294 192.817 46.286 192.447 46.3217 192.056Z" fill="#37474F"/>
<path d="M22.631 204.724C29.0158 205.216 30.9842 209.046 31.2303 211.405C29.7716 211.918 28.2451 212.211 26.7003 212.276C22.284 212.276 19.2619 211.109 18.3912 209.569C17.3629 207.771 18.0821 206.339 22.631 204.724Z" fill="#FAFAFA"/>
<path d="M32.2082 204.888C32.2786 204.889 32.3474 204.867 32.4037 204.825C32.4361 204.801 32.4632 204.771 32.4834 204.737C32.5036 204.703 32.5165 204.664 32.5213 204.625C32.526 204.585 32.5225 204.545 32.511 204.506C32.4994 204.468 32.4801 204.433 32.4542 204.402C31.7054 203.646 30.8067 203.054 29.8159 202.665C28.825 202.276 27.7638 202.098 26.7003 202.144C26.6602 202.146 26.621 202.156 26.585 202.174C26.549 202.192 26.5171 202.217 26.4911 202.248C26.4652 202.279 26.4457 202.314 26.434 202.353C26.4222 202.391 26.4184 202.432 26.4227 202.472C26.4322 202.553 26.4734 202.627 26.5372 202.677C26.601 202.728 26.6823 202.752 26.7634 202.743C27.7234 202.711 28.68 202.874 29.5748 203.223C30.4697 203.573 31.2841 204.1 31.9684 204.774C31.9971 204.81 32.0337 204.839 32.0752 204.859C32.1167 204.879 32.1622 204.888 32.2082 204.888Z" fill="#F0F0F0"/>
<path d="M34.9778 203.368C35.0486 203.372 35.1184 203.349 35.1734 203.304C35.2057 203.281 35.2329 203.251 35.2531 203.217C35.2733 203.182 35.2862 203.144 35.2909 203.104C35.2957 203.064 35.2922 203.024 35.2806 202.986C35.2691 202.948 35.2498 202.912 35.2239 202.882C34.4746 202.126 33.5759 201.535 32.5851 201.146C31.5944 200.757 30.5334 200.579 29.47 200.623C29.4277 200.623 29.3859 200.632 29.3473 200.65C29.3087 200.667 29.2742 200.692 29.246 200.724C29.2178 200.755 29.1965 200.793 29.1834 200.833C29.1704 200.873 29.166 200.916 29.1704 200.958C29.1749 201 29.188 201.04 29.2092 201.077C29.2303 201.114 29.2588 201.146 29.293 201.171C29.3272 201.195 29.3662 201.213 29.4075 201.222C29.4489 201.231 29.4916 201.231 29.5331 201.222C30.4936 201.19 31.4507 201.354 32.3456 201.705C33.2406 202.055 34.0547 202.584 34.7381 203.26C34.768 203.294 34.8049 203.322 34.8463 203.34C34.8876 203.359 34.9325 203.368 34.9778 203.368Z" fill="#F0F0F0"/>
<path d="M37.5456 201.633C37.6184 201.631 37.6889 201.607 37.7474 201.564C37.7786 201.539 37.8044 201.508 37.8236 201.474C37.8427 201.439 37.8546 201.401 37.8588 201.361C37.8629 201.322 37.8591 201.282 37.8475 201.244C37.836 201.206 37.817 201.171 37.7916 201.141C37.0421 200.385 36.1433 199.794 35.1526 199.405C34.1619 199.016 33.1011 198.838 32.0377 198.882C31.9954 198.882 31.9536 198.891 31.915 198.909C31.8765 198.926 31.8419 198.951 31.8137 198.983C31.7855 199.014 31.7642 199.052 31.7512 199.092C31.7382 199.132 31.7337 199.175 31.7382 199.217C31.7426 199.259 31.7558 199.299 31.7769 199.336C31.798 199.373 31.8266 199.405 31.8607 199.43C31.8949 199.454 31.9339 199.472 31.9753 199.481C32.0166 199.49 32.0594 199.49 32.1008 199.482C33.0614 199.449 34.0184 199.613 34.9134 199.964C35.8083 200.314 36.6224 200.844 37.3058 201.519C37.3683 201.586 37.4541 201.627 37.5456 201.633Z" fill="#F0F0F0"/>
<path d="M40.0627 199.917C40.1332 199.918 40.202 199.896 40.2583 199.853C40.2911 199.83 40.3188 199.801 40.3396 199.767C40.3604 199.732 40.3739 199.694 40.3793 199.655C40.3846 199.615 40.3816 199.574 40.3706 199.536C40.3596 199.497 40.3407 199.462 40.3151 199.431C39.1038 197.923 36.353 196.907 34.006 197.134C33.9656 197.137 33.9262 197.147 33.8899 197.165C33.8536 197.183 33.8213 197.208 33.7948 197.238C33.7684 197.269 33.7483 197.304 33.7358 197.343C33.7233 197.381 33.7187 197.422 33.7221 197.462C33.7316 197.543 33.7727 197.617 33.8366 197.668C33.9004 197.719 33.9817 197.742 34.0628 197.734C36.1574 197.538 38.7252 198.465 39.7978 199.797C39.8297 199.836 39.8703 199.867 39.9162 199.888C39.9622 199.908 40.0123 199.918 40.0627 199.917Z" fill="#F0F0F0"/>
<path d="M71.8484 215.538C72.0188 218.446 72.4793 220.377 73.5582 222.08C74.6371 223.784 76.6433 224.32 78.6875 223.822C80.7316 223.323 83.3499 221.986 83.9367 219.481C84.5234 216.976 84.8641 215.254 84.3972 212.541L71.8484 215.538Z" fill="#263238"/>
<path d="M80.4345 194.484C81.2799 194.547 81.5259 198.453 82.0117 202.358C82.5291 206.554 83.8288 208.282 84.2956 211.721C84.8256 215.645 84.1505 217.399 82.7247 219.771C81.2988 222.143 76.2515 224.471 73.7657 221.071C71.7405 218.301 71.6522 215.229 71.873 211.311C71.9767 207.998 71.8861 204.682 71.6017 201.38C71.4377 198.44 70.7626 195.475 71.4945 195.147C71.5513 195.582 71.6017 196.131 71.6648 196.554C71.6916 197.084 71.7827 197.61 71.9361 198.118C72.0181 198.339 72.2074 198.566 72.2831 198.213C72.3273 197.971 72.3273 197.723 72.2831 197.481C72.1632 196.396 72.7247 196.308 73.0339 196.219C74.3258 195.975 75.6292 195.796 76.9392 195.683C77.5701 195.645 79.8036 195.551 80.0938 195.904C80.2844 196.252 80.3822 196.643 80.3777 197.04C80.4471 197.633 80.5922 198.062 80.6111 197.879C80.649 197.456 80.567 196.352 80.5543 196.087C80.5417 195.822 80.4976 195.487 80.4976 195.229C80.4976 194.97 80.4534 194.737 80.4345 194.484Z" fill="#37474F"/>
<path d="M84.5297 213.992C84.6805 216.099 84.1256 218.197 82.9525 219.954C81.5266 222.333 76.0755 224.667 73.5897 221.267C72.3279 219.576 72.0188 217.576 71.8484 215.538C73.3374 212.92 82.1764 211.765 84.5297 213.992Z" fill="#FAFAFA"/>
<path d="M73.6842 211.273C73.7175 211.28 73.7518 211.28 73.7852 211.273C73.823 211.273 77.7157 209.702 81.5075 210.548C81.5868 210.566 81.6699 210.553 81.7402 210.512C81.8104 210.471 81.8625 210.405 81.886 210.327C81.8943 210.287 81.8947 210.246 81.8872 210.206C81.8796 210.166 81.8643 210.128 81.842 210.094C81.8197 210.06 81.791 210.031 81.7574 210.008C81.7238 209.985 81.6861 209.969 81.6463 209.961C78.9182 209.469 76.1074 209.735 73.5202 210.731C73.4835 210.747 73.4505 210.77 73.423 210.8C73.3955 210.829 73.3741 210.863 73.36 210.901C73.3459 210.938 73.3394 210.978 73.3409 211.019C73.3424 211.059 73.3519 211.098 73.3687 211.134C73.4033 211.185 73.4511 211.224 73.5068 211.249C73.5625 211.273 73.6239 211.282 73.6842 211.273Z" fill="#F0F0F0"/>
<path d="M81.3186 207.595C81.3775 207.59 81.4337 207.568 81.4806 207.533C81.5276 207.497 81.5633 207.448 81.5836 207.393C81.5964 207.355 81.6014 207.314 81.5985 207.274C81.5955 207.234 81.5846 207.195 81.5664 207.159C81.5482 207.124 81.5231 207.092 81.4925 207.066C81.4618 207.04 81.4263 207.02 81.388 207.008C77.6026 205.778 73.4259 207.639 73.2682 207.708C73.2326 207.726 73.2009 207.75 73.1749 207.78C73.1489 207.81 73.1291 207.845 73.1167 207.882C73.1044 207.92 73.0997 207.96 73.103 207.999C73.1062 208.039 73.1174 208.077 73.1357 208.112C73.1768 208.183 73.2435 208.236 73.322 208.259C73.4006 208.282 73.4852 208.275 73.5584 208.238C73.5963 208.238 77.6783 206.428 81.1861 207.607C81.2307 207.609 81.2753 207.605 81.3186 207.595Z" fill="#F0F0F0"/>
<path d="M81.1859 204.838C81.2445 204.832 81.3003 204.81 81.3472 204.774C81.394 204.739 81.4299 204.691 81.4508 204.636C81.4646 204.598 81.4706 204.558 81.4685 204.518C81.4664 204.478 81.4562 204.439 81.4385 204.403C81.4208 204.367 81.396 204.335 81.3656 204.309C81.3352 204.283 81.2998 204.263 81.2616 204.251C77.1102 202.819 73.1354 204.838 72.984 204.926C72.95 204.947 72.9205 204.974 72.897 205.006C72.8735 205.038 72.8566 205.075 72.8473 205.113C72.8379 205.152 72.8362 205.192 72.8424 205.231C72.8485 205.271 72.8623 205.308 72.8831 205.342C72.9283 205.411 72.9979 205.459 73.0776 205.478C73.1573 205.497 73.2412 205.484 73.3121 205.443C73.3436 205.443 77.1859 203.487 81.0534 204.812C81.0952 204.83 81.1404 204.839 81.1859 204.838Z" fill="#F0F0F0"/>
<path d="M80.9585 202.119C81.0146 202.113 81.0682 202.093 81.1137 202.059C81.1592 202.026 81.1949 201.981 81.2172 201.929C81.2312 201.892 81.2376 201.852 81.2359 201.811C81.2343 201.771 81.2247 201.732 81.2077 201.695C81.1906 201.659 81.1665 201.626 81.1367 201.599C81.107 201.572 81.0721 201.552 81.0342 201.538C77.1415 200.131 72.8639 202.207 72.7062 202.295C72.6708 202.314 72.6396 202.339 72.6143 202.37C72.589 202.401 72.5702 202.436 72.559 202.475C72.5478 202.513 72.5445 202.553 72.5492 202.593C72.5539 202.632 72.5665 202.671 72.5863 202.705C72.6285 202.777 72.6971 202.829 72.7775 202.85C72.8578 202.872 72.9433 202.86 73.0153 202.819C73.0532 202.819 77.2046 200.794 80.8134 202.1C80.8593 202.118 80.9093 202.125 80.9585 202.119Z" fill="#EBEBEB"/>
<path d="M70.4222 79.1225C74.2076 85.7786 77.0152 91.2234 77.4 111.021C77.7849 130.819 77.7218 136.371 77.7975 138.781C77.8732 141.191 79.3243 145.438 80.5861 157.198C81.8479 168.958 80.3274 182.945 80.3274 182.945C80.3274 182.945 79.4568 184.838 74.7944 185.242C70.4916 185.614 68.3654 184.056 68.3654 184.056C68.3654 184.056 62.4664 161.153 60.8386 154.075C59.2109 146.996 54.4664 123.696 54.4664 123.696L51.6526 142.586C51.6526 142.586 52.9649 149.078 51.6526 159.393C50.3403 169.709 48.0311 180.27 48.0311 180.27C45.9026 180.983 43.67 181.334 41.4255 181.311C39.3975 181.343 37.3972 180.838 35.6275 179.847C35.6275 179.847 31.9997 149.16 31.9997 137.456C31.9997 125.753 33.8925 96.1003 35.3751 79.2235L70.4222 79.1225Z" fill="#37474F"/>
<path d="M54.4922 123.697L50.6752 101.217C50.6752 101.217 42.5743 100.656 38.057 96.1132C39.8866 100.94 46.5364 104.315 49.4575 104.996L52.8897 123.444L51.6909 142.586L54.4922 123.697Z" fill="#263238"/>
<path d="M76.7311 143.065C75.3557 137.804 73.7973 131.848 73.6775 117.198C73.5513 101.425 71.627 91.1605 67.0466 81.7915L66.4157 82.0691C69.2097 87.8758 71.0523 94.0938 71.873 100.485C70.4724 100.826 69.0024 100.977 67.6144 100.138C65.8731 99.0847 64.6239 96.6052 63.892 92.7693C62.1444 83.5706 60.1634 80.5864 60.1066 80.4666L59.5451 80.8199C59.5451 80.8514 61.545 83.8546 63.2611 92.8892C64.0371 96.9649 65.3557 99.5137 67.2863 100.687C68.0917 101.171 69.0159 101.42 69.9551 101.406C70.6451 101.396 71.3313 101.302 71.9992 101.129C72.6727 106.461 73.0098 111.83 73.0087 117.204C73.1286 131.911 74.6995 137.911 76.0812 143.204C76.3399 144.188 76.5923 145.154 76.832 146.151C78.3146 152.352 79.8982 170.125 79.0717 184.087C79.3206 183.949 79.5552 183.786 79.772 183.601C80.5354 169.646 78.9582 152.17 77.4881 146.006C77.2421 145.028 76.9834 144.05 76.7311 143.065Z" fill="#263238"/>
<path d="M45.9364 102.466C45.8039 103.728 42.8323 133.381 43.5263 139.69C43.6904 141.192 43.8922 142.592 44.0878 143.942C45.0364 149.852 45.301 155.852 44.8765 161.822C44.4348 169.671 44.2456 177.141 44.1572 181.172L44.8323 181.078C44.9143 177.027 45.1099 169.627 45.5515 161.86C45.9835 155.847 45.7146 149.805 44.7503 143.854C44.561 142.504 44.3591 141.11 44.1951 139.621C43.5137 133.362 46.5736 102.851 46.6052 102.542L45.9364 102.466Z" fill="#263238"/>
<path d="M47.1732 40.3401C38.8894 40.1697 36.0188 42.4031 30.9904 44.7123C28.8958 45.6839 24.6308 48.1066 20.3722 50.605C21.0977 44.7312 22.2965 39.8795 23.1797 37.9868L23.8106 31.154C23.6608 31.0161 23.5435 30.8467 23.4671 30.6579C23.3907 30.4692 23.3572 30.2658 23.369 30.0625C23.4258 29.4316 23.4005 28.8007 23.4069 28.1698C23.414 26.7891 23.4941 25.4097 23.6466 24.0373C23.8211 22.7924 24.0911 21.5627 24.4542 20.3591C24.7444 19.3307 24.8075 17.785 23.3311 17.8355C22.9702 17.8986 22.617 18.0002 22.2775 18.1383C21.5835 18.3024 20.9652 17.8797 20.3091 17.7913C19.6529 17.703 19.0851 18.3213 18.5615 18.662C18.0538 18.888 17.5196 19.0491 16.9716 19.1415C16.4712 19.4068 16.019 19.7544 15.634 20.1699C14.9197 20.7979 14.3622 21.5843 14.0063 22.4664C13.7549 23.0289 13.544 23.6087 13.3754 24.2014C13.0586 25.3318 12.8474 26.4893 12.7445 27.6588C12.5659 29.4173 12.5195 31.1867 12.6057 32.9521C12.6625 34.1445 12.9401 35.318 12.9401 36.5104C12.9401 37.7029 12.8076 38.4915 12.0883 40.5356C11.5521 42.0687 10.0694 46.504 8.30286 51.3747C7.11675 54.6491 4.3786 61.8793 6.25241 65.8099C8.12621 69.7405 12.5615 68.6932 17.8738 66.4408C25.3879 63.4629 43.6086 55.2358 43.6086 55.2358L47.1732 40.3401Z" fill="#9E6767"/>
<path d="M20.3911 50.6114C19.9369 54.0625 19.8738 57.7092 17.9937 61.053C17.9937 61.053 21.9936 57.4758 23.0094 49.0657L20.3911 50.6114Z" fill="#874C4C"/>
<path d="M58.8766 40.1951L66.1637 40.8765C69.8545 41.785 72.9333 45.8165 73.3119 49.0783C73.4885 50.5988 73.11 60.8259 72.1952 67.5072C71.2614 74.3337 73.1667 79.7153 74.8324 86.2768C61.7157 94.832 39.7411 92.5291 34.2964 87.3494C34.3342 81.7406 33.8674 66.6618 34.9273 55.8417C35.6402 48.5673 42.9462 43.1352 47.1922 40.3339L58.8766 40.1951Z" fill="#F0F0F0"/>
<path d="M59.0342 2.35944C56.6683 3.09761 55.602 3.7853 53.8796 1.46986C51.8039 -0.687855 48.2519 -0.359781 46.233 1.73484C45.539 2.42253 44.8198 3.33735 43.8797 3.21748C43.3561 3.14808 42.7188 2.71906 41.7725 2.50455C41.0521 2.37487 40.3094 2.45937 39.6366 2.74758C38.9637 3.03579 38.3902 3.51504 37.987 4.12599C37.5958 4.8957 37.7409 5.82314 37.7283 6.6938C37.7415 7.11152 37.6389 7.52475 37.4318 7.88775C37.2247 8.25075 36.9212 8.54937 36.5548 8.75056C36.3667 8.83408 36.1621 8.87388 35.9563 8.86698C35.7506 8.86008 35.5491 8.80667 35.3669 8.71074C35.1848 8.61482 35.0268 8.47887 34.9047 8.31312C34.7826 8.14737 34.6997 7.95612 34.6621 7.75372C33.7599 8.35309 33.7788 9.87358 34.4918 10.7127C34.8708 11.1023 35.3285 11.4068 35.8343 11.6059C36.3401 11.8049 36.8826 11.8941 37.4255 11.8673C35.4571 11.9682 33.4949 13.9619 34.2079 16.0944C34.5359 17.0281 35.375 17.7537 35.4697 18.7505C35.5959 20.0123 34.5422 20.9587 34.0943 22.1069C33.8257 22.8517 33.8086 23.6641 34.0456 24.4195C34.2826 25.175 34.7607 25.832 35.4066 26.2899C36.4602 26.9713 37.823 26.9965 38.845 27.7283C39.8671 28.4602 40.4223 29.9933 41.2425 31.1163C45.3497 36.334 49.0279 30.0122 53.3812 32.7882C53.9521 33.2159 54.4784 33.6999 54.9522 34.233C55.1604 34.4475 55.3686 34.6621 55.5831 34.8639C55.7957 35.0071 55.9815 35.1865 56.132 35.3939C56.2623 35.626 56.4436 35.8254 56.6621 35.9773C56.8807 36.1292 57.1309 36.2296 57.3938 36.2709C57.8997 36.3497 58.4147 36.3497 58.9206 36.2709C60.561 36.1258 62.3023 35.8797 63.5326 34.7441C63.9266 34.3487 64.2933 33.9272 64.6303 33.4822C65.2481 32.6134 66.1351 31.9725 67.154 31.6589C68.3338 31.4066 69.6335 31.8987 70.7186 31.3624C71.5077 30.853 72.0928 30.0826 72.3716 29.1857C72.6389 28.2878 73.0663 27.4457 73.6334 26.7C74.0089 26.2992 74.4906 26.0134 75.0223 25.876C75.5541 25.7386 76.1139 25.7552 76.6366 25.9239C76.5126 24.8014 75.9939 23.7594 75.1729 22.9839C74.603 22.5178 74.0091 22.0819 73.3937 21.6779C73.1921 21.5359 73.0079 21.3707 72.8448 21.1858C72.6722 20.9787 72.5279 20.7496 72.4158 20.5044C72.1922 19.997 72.0578 19.4549 72.0183 18.9019C72.0183 18.6937 72.0183 18.4855 72.0183 18.271C72.0183 17.1417 72.2517 16.0187 72.2265 14.8893C72.2398 13.9823 72.0388 13.085 71.6397 12.2704C71.2407 11.4558 70.6548 10.747 69.93 10.2017C69.2612 9.76002 68.4852 9.52027 67.7849 9.14173C67.2799 8.89167 66.8459 8.51848 66.5231 8.05656C66.3843 7.85467 66.277 7.64016 66.1382 7.42565C66.0116 7.23281 65.9198 7.01928 65.8669 6.79474C65.68 5.907 65.352 5.05497 64.8953 4.2711C63.6777 2.34682 61.1351 1.81055 59.0342 2.35944Z" fill="#263238"/>
<path d="M46.8889 12.6621C44.5356 12.6621 42.2202 12.5927 40.9899 16.7251C40.7817 17.4318 40.788 18.2267 40.605 19.1226C40.3842 20.2078 39.6208 21.3939 39.4378 22.8071C38.4284 30.8323 41.0845 33.2802 42.3022 34.0499C43.5198 34.8197 45.3936 35.3118 47.8983 35.3118L48.5293 41.1414C48.5293 41.1414 44.7059 45.6524 45.7974 49.7848C56.851 48.3274 61.1601 40.5168 61.1601 40.5168L60.0623 30.0689C60.5045 30.522 61.0849 30.815 61.712 30.9018C62.3392 30.9886 62.9773 30.8643 63.526 30.5484C66.2263 28.9333 66.7121 25.173 65.4187 23.3434C64.1254 21.5138 60.9014 21.886 59.7405 23.6462C57.6585 22.5926 57.9929 20.7251 59.1538 18.3403C57.2169 17.5516 56.1254 13.4823 56.239 10.334C53.9551 12.3088 50.4851 12.7063 46.8889 12.6621Z" fill="#9E6767"/>
<path d="M48.5362 18.1889L46.1324 25.7787L42.6435 23.1037L48.5362 18.1889Z" fill="#874C4C"/>
<path d="M47.8983 35.2868C50.1822 35.1796 55.4692 34.5676 58.1001 30.9903C57.6738 32.3821 56.8831 33.6346 55.8099 34.6181C53.3872 36.6054 48.1507 37.4446 48.1507 37.4446L47.8983 35.2868Z" fill="#874C4C"/>
<path d="M51.6589 17.167L54.2709 18.6623C54.4634 18.3038 54.5106 17.8848 54.4025 17.4925C54.2944 17.1001 54.0394 16.7644 53.6904 16.5551C53.5176 16.4586 53.3271 16.3978 53.1303 16.3764C52.9336 16.3551 52.7345 16.3735 52.545 16.4305C52.3554 16.4876 52.1793 16.5823 52.0271 16.7088C51.8749 16.8353 51.7497 16.9911 51.6589 17.167Z" fill="#263238"/>
<path d="M42.1259 16.7885L45.0533 16.0125C45.0129 15.8191 44.9334 15.636 44.8197 15.4745C44.706 15.3129 44.5606 15.1763 44.3922 15.0729C44.2239 14.9695 44.0362 14.9016 43.8407 14.8733C43.6452 14.845 43.4459 14.857 43.2552 14.9084C42.8624 15.0182 42.5265 15.2741 42.3165 15.6238C42.1065 15.9734 42.0383 16.3902 42.1259 16.7885Z" fill="#263238"/>
<path d="M53.0219 21.5203C52.9336 21.8357 52.492 20.8894 51.6907 20.6685C50.8895 20.4477 50.0125 21.1354 50.1198 20.7442C50.2666 20.4129 50.5268 20.145 50.8537 19.9886C51.1806 19.8322 51.5526 19.7977 51.9027 19.8913C52.2527 19.9849 52.5579 20.2005 52.7631 20.4991C52.9683 20.7978 53.0601 21.1599 53.0219 21.5203Z" fill="#263238"/>
<path d="M41.8419 19.4762C41.7662 19.7916 42.6116 19.1734 43.4191 19.3689C44.2267 19.5645 44.681 20.5866 44.763 20.1891C44.7955 19.8267 44.6969 19.4646 44.4852 19.1686C44.2734 18.8727 43.9626 18.6625 43.6091 18.5762C43.2556 18.4899 42.8828 18.5333 42.5585 18.6984C42.2343 18.8636 41.98 19.1395 41.8419 19.4762Z" fill="#263238"/>
<path d="M90.5982 64.4789C85.7339 57.0531 82.6992 51.621 78.2955 46.4349C74.4469 41.9112 72.5542 41.703 65.3303 40.8008C63.753 45.2172 64.1378 51.4001 68.7056 57.2045C68.7056 57.2045 77.0463 67.7723 79.9611 71.5956C79.9611 71.5956 78.2071 74.8132 76.4343 77.9867C75.1725 80.2327 73.551 83.1412 72.1567 85.3179C71.7082 86.0411 71.1882 86.7174 70.6047 87.3368C70.3234 87.6339 70.0079 87.8965 69.6646 88.1191C69.4726 88.244 69.2724 88.3558 69.0652 88.4535C68.8179 88.5681 68.5628 88.6651 68.3018 88.7437C67.7581 88.9408 67.2016 89.101 66.6362 89.2232C65.5154 89.3739 64.4034 89.5845 63.305 89.8541C63.2356 89.8541 63.1725 89.892 63.0968 89.9109L62.6552 90.0497C61.9664 90.3047 61.2572 90.5009 60.5353 90.6364C59.9801 90.7248 59.4312 90.7879 58.8697 90.8573C58.5984 90.8573 58.3271 90.9267 58.2388 91.2043C58.0117 91.9172 58.6363 92.4661 59.1284 92.8572C59.8088 93.2927 60.6048 93.5125 61.4123 93.4882C62.0432 93.5512 62.6741 93.5639 63.305 93.5702H64.1126C64.8508 96.9519 66.0495 99.1663 67.6646 100.144C69.0526 100.983 70.5226 100.832 71.9233 100.485C72.1441 100.334 72.346 100.176 72.5542 100.018C75.8412 97.4061 76.0431 94.7941 78.6488 91.3935C81.3428 87.892 89.0272 79.0403 91.595 75.0782C94.7244 70.195 93.5761 68.9899 90.5982 64.4789Z" fill="#9E6767"/>
<path d="M40.6937 30.2331C40.5232 29.6272 40.4984 28.9896 40.6212 28.3724C40.744 27.7551 41.011 27.1755 41.4003 26.681C41.5292 26.4975 41.7048 26.3516 41.9088 26.2585C42.1129 26.1653 42.338 26.1283 42.5612 26.1511L42.9713 26.2331C43.1875 26.2963 43.3828 26.4162 43.5371 26.5804C43.6913 26.7446 43.7987 26.9471 43.8482 27.1668C44.018 27.7724 44.0431 28.4093 43.9215 29.0263C43.7998 29.6433 43.5348 30.2231 43.1479 30.7189C43.0185 30.9034 42.8419 31.0499 42.6366 31.1431C42.4314 31.2363 42.2049 31.2728 41.9807 31.2488L41.577 31.1668C41.3596 31.1046 41.1629 30.9851 41.0075 30.8208C40.8521 30.6566 40.7437 30.4536 40.6937 30.2331Z" fill="#8873F4"/>
<path opacity="0.5" d="M40.6937 30.2331C40.5232 29.6272 40.4984 28.9896 40.6212 28.3724C40.744 27.7551 41.011 27.1755 41.4003 26.681C41.5292 26.4975 41.7048 26.3516 41.9088 26.2585C42.1129 26.1653 42.338 26.1283 42.5612 26.1511L42.9713 26.2331C43.1875 26.2963 43.3828 26.4162 43.5371 26.5804C43.6913 26.7446 43.7987 26.9471 43.8482 27.1668C44.018 27.7724 44.0431 28.4093 43.9215 29.0263C43.7998 29.6433 43.5348 30.2231 43.1479 30.7189C43.0185 30.9034 42.8419 31.0499 42.6366 31.1431C42.4314 31.2363 42.2049 31.2728 41.9807 31.2488L41.577 31.1668C41.3596 31.1046 41.1629 30.9851 41.0075 30.8208C40.8521 30.6566 40.7437 30.4536 40.6937 30.2331Z" fill="white"/>
<path d="M43.4508 27.085C43.0722 25.9935 42.1889 25.8232 41.4003 26.6812C41.011 27.1757 40.744 27.7552 40.6212 28.3725C40.4984 28.9898 40.5232 29.6274 40.6937 30.2332C41.0659 31.3247 41.9555 31.4951 42.7441 30.637C43.1335 30.1425 43.4004 29.563 43.5232 28.9457C43.646 28.3284 43.6212 27.6908 43.4508 27.085Z" fill="#8873F4"/>
<path opacity="0.5" d="M43.4508 27.085C43.0722 25.9935 42.1889 25.8232 41.4003 26.6812C41.011 27.1757 40.744 27.7552 40.6212 28.3725C40.4984 28.9898 40.5232 29.6274 40.6937 30.2332C41.0659 31.3247 41.9555 31.4951 42.7441 30.637C43.1335 30.1425 43.4004 29.563 43.5232 28.9457C43.646 28.3284 43.6212 27.6908 43.4508 27.085Z" fill="white"/>
<path opacity="0.1" d="M43.4508 27.085C43.0722 25.9935 42.1889 25.8232 41.4003 26.6812C41.011 27.1757 40.744 27.7552 40.6212 28.3725C40.4984 28.9898 40.5232 29.6274 40.6937 30.2332C41.0659 31.3247 41.9555 31.4951 42.7441 30.637C43.1335 30.1425 43.4004 29.563 43.5232 28.9457C43.646 28.3284 43.6212 27.6908 43.4508 27.085Z" fill="black"/>
<path d="M40.1581 30.126C39.9868 29.5207 39.961 28.8834 40.0827 28.2661C40.2044 27.6488 40.4702 27.0691 40.8584 26.574C40.9879 26.3895 41.1645 26.243 41.3697 26.1498C41.575 26.0566 41.8015 26.0201 42.0256 26.0441L42.4294 26.1261C42.6452 26.1872 42.8408 26.3048 42.9961 26.4667C43.1513 26.6286 43.2606 26.829 43.3127 27.0472C43.4831 27.6531 43.508 28.2906 43.3852 28.9079C43.2624 29.5252 42.9954 30.1047 42.6061 30.5992C42.4766 30.7838 42.3 30.9303 42.0948 31.0235C41.8895 31.1167 41.663 31.1532 41.4389 31.1292L41.0351 31.0472C40.8204 30.985 40.6262 30.867 40.4721 30.7052C40.318 30.5433 40.2097 30.3435 40.1581 30.126Z" fill="#8873F4"/>
<path opacity="0.5" d="M40.1581 30.126C39.9868 29.5207 39.961 28.8834 40.0827 28.2661C40.2044 27.6488 40.4702 27.0691 40.8584 26.574C40.9879 26.3895 41.1645 26.243 41.3697 26.1498C41.575 26.0566 41.8015 26.0201 42.0256 26.0441L42.4294 26.1261C42.6452 26.1872 42.8408 26.3048 42.9961 26.4667C43.1513 26.6286 43.2606 26.829 43.3127 27.0472C43.4831 27.6531 43.508 28.2906 43.3852 28.9079C43.2624 29.5252 42.9954 30.1047 42.6061 30.5992C42.4766 30.7838 42.3 30.9303 42.0948 31.0235C41.8895 31.1167 41.663 31.1532 41.4389 31.1292L41.0351 31.0472C40.8204 30.985 40.6262 30.867 40.4721 30.7052C40.318 30.5433 40.2097 30.3435 40.1581 30.126Z" fill="white"/>
<path d="M42.9089 26.9778C42.5367 25.8864 41.6471 25.716 40.8584 26.5741C40.4702 27.0691 40.2044 27.6489 40.0827 28.2661C39.961 28.8834 39.9868 29.5207 40.1581 30.1261C40.5304 31.2176 41.42 31.3879 42.2086 30.5299C42.5955 30.0341 42.8605 29.4543 42.9821 28.8373C43.1038 28.2203 43.0787 27.5834 42.9089 26.9778Z" fill="#8873F4"/>
<path opacity="0.5" d="M42.9089 26.9778C42.5367 25.8864 41.6471 25.716 40.8584 26.5741C40.4702 27.0691 40.2044 27.6489 40.0827 28.2661C39.961 28.8834 39.9868 29.5207 40.1581 30.1261C40.5304 31.2176 41.42 31.3879 42.2086 30.5299C42.5955 30.0341 42.8605 29.4543 42.9821 28.8373C43.1038 28.2203 43.0787 27.5834 42.9089 26.9778Z" fill="white"/>
<path opacity="0.1" d="M42.9089 26.9778C42.5367 25.8864 41.6471 25.716 40.8584 26.5741C40.4702 27.0691 40.2044 27.6489 40.0827 28.2661C39.961 28.8834 39.9868 29.5207 40.1581 30.1261C40.5304 31.2176 41.42 31.3879 42.2086 30.5299C42.5955 30.0341 42.8605 29.4543 42.9821 28.8373C43.1038 28.2203 43.0787 27.5834 42.9089 26.9778Z" fill="black"/>
<path d="M39.6151 30.0189C39.4453 29.4134 39.4202 28.7764 39.5419 28.1594C39.6635 27.5424 39.9285 26.9626 40.3154 26.4669C40.4449 26.2823 40.6214 26.1358 40.8267 26.0426C41.032 25.9494 41.2584 25.9129 41.4826 25.9369L41.8864 26.0189C42.1038 26.0811 42.3004 26.2006 42.4558 26.3649C42.6112 26.5292 42.7196 26.7322 42.7696 26.9527C42.9394 27.5582 42.9645 28.1952 42.8429 28.8122C42.7212 29.4292 42.4562 30.0089 42.0693 30.5047C41.9393 30.6903 41.7618 30.8374 41.5553 30.9306C41.3488 31.0239 41.121 31.0598 40.8958 31.0347L40.4984 30.9526C40.281 30.8904 40.0843 30.7709 39.9289 30.6067C39.7735 30.4424 39.6652 30.2394 39.6151 30.0189Z" fill="#8873F4"/>
<path opacity="0.5" d="M39.6151 30.0189C39.4453 29.4134 39.4202 28.7764 39.5419 28.1594C39.6635 27.5424 39.9285 26.9626 40.3154 26.4669C40.4449 26.2823 40.6214 26.1358 40.8267 26.0426C41.032 25.9494 41.2584 25.9129 41.4826 25.9369L41.8864 26.0189C42.1038 26.0811 42.3004 26.2006 42.4558 26.3649C42.6112 26.5292 42.7196 26.7322 42.7696 26.9527C42.9394 27.5582 42.9645 28.1952 42.8429 28.8122C42.7212 29.4292 42.4562 30.0089 42.0693 30.5047C41.9393 30.6903 41.7618 30.8374 41.5553 30.9306C41.3488 31.0239 41.121 31.0598 40.8958 31.0347L40.4984 30.9526C40.281 30.8904 40.0843 30.7709 39.9289 30.6067C39.7735 30.4424 39.6652 30.2394 39.6151 30.0189Z" fill="white"/>
<path d="M42.3659 26.8702C41.9936 25.7787 41.104 25.6084 40.3154 26.4664C39.9285 26.9622 39.6635 27.5419 39.5419 28.159C39.4202 28.776 39.4453 29.4129 39.6151 30.0184C39.9873 31.1099 40.8769 31.2803 41.6656 30.4222C42.0529 29.9267 42.3182 29.3469 42.4398 28.7298C42.5615 28.1127 42.5362 27.4757 42.3659 26.8702Z" fill="#8873F4"/>
<path opacity="0.1" d="M42.3659 26.8702C41.9936 25.7787 41.104 25.6084 40.3154 26.4664C39.9285 26.9622 39.6635 27.5419 39.5419 28.159C39.4202 28.776 39.4453 29.4129 39.6151 30.0184C39.9873 31.1099 40.8769 31.2803 41.6656 30.4222C42.0529 29.9267 42.3182 29.3469 42.4398 28.7298C42.5615 28.1127 42.5362 27.4757 42.3659 26.8702Z" fill="black"/>
<path opacity="0.7" d="M42.1261 27.1482C41.8169 26.2523 41.0598 26.1009 40.4352 26.8201C40.116 27.2273 39.8975 27.7041 39.7978 28.2118C39.698 28.7195 39.7197 29.2436 39.8611 29.7412C40.1639 30.6371 40.921 30.7886 41.5456 30.0756C41.8642 29.6669 42.0827 29.1892 42.1835 28.6808C42.2843 28.1725 42.2646 27.6476 42.1261 27.1482Z" fill="#8873F4"/>
<path opacity="0.3" d="M42.1261 27.1482C41.8169 26.2523 41.0598 26.1009 40.4352 26.8201C40.116 27.2273 39.8975 27.7041 39.7978 28.2118C39.698 28.7195 39.7197 29.2436 39.8611 29.7412C40.1639 30.6371 40.921 30.7886 41.5456 30.0756C41.8642 29.6669 42.0827 29.1892 42.1835 28.6808C42.2843 28.1725 42.2646 27.6476 42.1261 27.1482Z" fill="white"/>
<path opacity="0.1" d="M41.7162 27.0473C41.7943 26.959 41.8809 26.8787 41.9748 26.8075C42.0365 26.9069 42.0872 27.0127 42.1263 27.123C42.2648 27.6224 42.2845 28.1472 42.1837 28.6556C42.0829 29.164 41.8644 29.6416 41.5458 30.0504C41.4692 30.1401 41.3824 30.2206 41.2871 30.2901C41.2263 30.1889 41.1776 30.0809 41.142 29.9684C41.0006 29.4707 40.9789 28.9466 41.0787 28.4389C41.1785 27.9313 41.3969 27.4544 41.7162 27.0473Z" fill="black"/>
<path d="M39.0409 29.9049C38.8705 29.299 38.8456 28.6615 38.9684 28.0442C39.0912 27.4269 39.3582 26.8474 39.7475 26.3529C39.877 26.1683 40.0535 26.0218 40.2588 25.9286C40.4641 25.8354 40.6906 25.7989 40.9147 25.8229L41.3185 25.8986C41.5367 25.9614 41.7339 26.0818 41.8893 26.2472C42.0448 26.4127 42.1527 26.617 42.2018 26.8387C42.3716 27.4442 42.3966 28.0812 42.275 28.6982C42.1533 29.3152 41.8884 29.8949 41.5015 30.3907C41.3715 30.5762 41.1939 30.7234 40.9874 30.8166C40.7809 30.9099 40.5531 30.9458 40.328 30.9207L39.9494 30.8323C39.7282 30.7746 39.5268 30.6578 39.3667 30.4944C39.2067 30.3311 39.0941 30.1273 39.0409 29.9049Z" fill="#8873F4"/>
<path opacity="0.3" d="M39.0409 29.9049C38.8705 29.299 38.8456 28.6615 38.9684 28.0442C39.0912 27.4269 39.3582 26.8474 39.7475 26.3529C39.877 26.1683 40.0535 26.0218 40.2588 25.9286C40.4641 25.8354 40.6906 25.7989 40.9147 25.8229L41.3185 25.8986C41.5367 25.9614 41.7339 26.0818 41.8893 26.2472C42.0448 26.4127 42.1527 26.617 42.2018 26.8387C42.3716 27.4442 42.3966 28.0812 42.275 28.6982C42.1533 29.3152 41.8884 29.8949 41.5015 30.3907C41.3715 30.5762 41.1939 30.7234 40.9874 30.8166C40.7809 30.9099 40.5531 30.9458 40.328 30.9207L39.9494 30.8323C39.7282 30.7746 39.5268 30.6578 39.3667 30.4944C39.2067 30.3311 39.0941 30.1273 39.0409 29.9049Z" fill="black"/>
<path d="M41.798 26.7567C41.4258 25.6652 40.5046 25.4949 39.7475 26.3529C39.3582 26.8474 39.0912 27.4269 38.9684 28.0442C38.8456 28.6615 38.8705 29.2991 39.0409 29.9049C39.4195 31.0027 40.3027 31.1667 41.0977 30.315C41.4851 29.8183 41.7504 29.2374 41.872 28.6193C41.9937 28.0012 41.9683 27.3632 41.798 26.7567Z" fill="#8873F4"/>
<path opacity="0.5" d="M41.798 26.7567C41.4258 25.6652 40.5046 25.4949 39.7475 26.3529C39.3582 26.8474 39.0912 27.4269 38.9684 28.0442C38.8456 28.6615 38.8705 29.2991 39.0409 29.9049C39.4195 31.0027 40.3027 31.1667 41.0977 30.315C41.4851 29.8183 41.7504 29.2374 41.872 28.6193C41.9937 28.0012 41.9683 27.3632 41.798 26.7567Z" fill="black"/>
<path d="M38.4101 29.8359C38.2338 29.2124 38.207 28.5561 38.332 27.9202C38.457 27.2844 38.7301 26.687 39.1294 26.1766C39.2643 25.9877 39.4469 25.8379 39.6586 25.7426C39.8703 25.6473 40.1035 25.6098 40.3344 25.6341L40.7508 25.7161C40.9735 25.7813 41.1749 25.9044 41.3345 26.0729C41.4941 26.2414 41.6062 26.4492 41.6593 26.6751C41.8333 27.2992 41.8582 27.9555 41.7322 28.5911C41.6062 29.2267 41.3327 29.8238 40.9338 30.3343C40.8001 30.5249 40.6178 30.6763 40.406 30.7728C40.1941 30.8693 39.9603 30.9075 39.7287 30.8832L39.3186 30.8328C39.0908 30.765 38.8858 30.6364 38.7257 30.4607C38.5656 30.285 38.4565 30.069 38.4101 29.8359Z" fill="#8873F4"/>
<path opacity="0.5" d="M38.4101 29.8359C38.2338 29.2124 38.207 28.5561 38.332 27.9202C38.457 27.2844 38.7301 26.687 39.1294 26.1766C39.2643 25.9877 39.4469 25.8379 39.6586 25.7426C39.8703 25.6473 40.1035 25.6098 40.3344 25.6341L40.7508 25.7161C40.9735 25.7813 41.1749 25.9044 41.3345 26.0729C41.4941 26.2414 41.6062 26.4492 41.6593 26.6751C41.8333 27.2992 41.8582 27.9555 41.7322 28.5911C41.6062 29.2267 41.3327 29.8238 40.9338 30.3343C40.8001 30.5249 40.6178 30.6763 40.406 30.7728C40.1941 30.8693 39.9603 30.9075 39.7287 30.8832L39.3186 30.8328C39.0908 30.765 38.8858 30.6364 38.7257 30.4607C38.5656 30.285 38.4565 30.069 38.4101 29.8359Z" fill="white"/>
<path d="M41.2429 26.5928C40.8581 25.4698 39.9117 25.2868 39.1294 26.1764C38.7301 26.6868 38.457 27.2842 38.332 27.92C38.207 28.5558 38.2338 29.2121 38.4101 29.8357C38.795 30.9587 39.735 31.148 40.5174 30.2521C40.919 29.7429 41.1942 29.1458 41.3203 28.5097C41.4464 27.8736 41.4199 27.2167 41.2429 26.5928Z" fill="#8873F4"/>
<path opacity="0.5" d="M41.2429 26.5928C40.8581 25.4698 39.9117 25.2868 39.1294 26.1764C38.7301 26.6868 38.457 27.2842 38.332 27.92C38.207 28.5558 38.2338 29.2121 38.4101 29.8357C38.795 30.9587 39.735 31.148 40.5174 30.2521C40.919 29.7429 41.1942 29.1458 41.3203 28.5097C41.4464 27.8736 41.4199 27.2167 41.2429 26.5928Z" fill="white"/>
<path opacity="0.1" d="M41.2429 26.5928C40.8581 25.4698 39.9117 25.2868 39.1294 26.1764C38.7301 26.6868 38.457 27.2842 38.332 27.92C38.207 28.5558 38.2338 29.2121 38.4101 29.8357C38.795 30.9587 39.735 31.148 40.5174 30.2521C40.919 29.7429 41.1942 29.1458 41.3203 28.5097C41.4464 27.8736 41.4199 27.2167 41.2429 26.5928Z" fill="black"/>
<path d="M40.7821 26.8074C40.739 26.6103 40.6417 26.4292 40.5013 26.2843C40.3609 26.1394 40.1828 26.0366 39.9872 25.9873C39.6029 25.9528 39.2296 25.8412 38.8894 25.6592C38.5505 25.3083 38.2694 24.9058 38.0566 24.4668C37.3311 23.3122 35.4446 20.6119 33.0093 20.1261C32.7833 20.0943 32.554 20.0943 32.3279 20.1261C32.1297 20.0203 31.9172 19.9438 31.697 19.899L30.6434 19.6908C30.4361 19.6473 30.2235 19.6345 30.0125 19.6529C29.7963 19.5436 29.5642 19.4691 29.3248 19.4321L27.962 19.1356C27.5227 19.0479 27.0671 19.0963 26.6561 19.2744L26.1892 19.4763C25.8206 19.6318 25.4169 19.6851 25.0206 19.6307C24.6243 19.5763 24.2499 19.4162 23.9368 19.1671L22.9905 18.41C22.7124 18.1894 22.3859 18.038 22.0378 17.9684L5.24927 14.6372C4.29029 14.4479 3.20512 14.8959 2.22721 16.0189C1.2236 17.297 0.535936 18.7939 0.220194 20.388C-0.0955492 21.9821 -0.0304514 23.6282 0.410188 25.1923C0.895989 26.5992 1.72879 27.4257 2.68777 27.615L19.5268 30.9399C19.8745 31.0073 20.2332 30.9922 20.5741 30.8957L21.735 30.5487C22.0779 30.4523 22.4387 30.4371 22.7886 30.5046C23.2258 30.5954 23.6258 30.8151 23.9368 31.1355L24.2964 31.5014C24.6093 31.8087 25.0071 32.0153 25.4384 32.0945L26.757 32.3531C26.9922 32.4101 27.235 32.4292 27.4762 32.4099C27.6656 32.5063 27.8673 32.5763 28.0756 32.6181L29.1292 32.8263C29.355 32.8611 29.5848 32.8611 29.8106 32.8263C30.0093 32.9326 30.2215 33.0111 30.4415 33.0598C32.8831 33.5393 35.6528 31.7601 36.7506 30.9651C37.1169 30.6429 37.535 30.3848 37.9872 30.2017C38.3716 30.1611 38.7603 30.1998 39.1291 30.3153C39.3278 30.3454 39.531 30.3187 39.7152 30.2383C39.8994 30.158 40.0571 30.0272 40.1702 29.8611C40.5044 29.4356 40.7339 28.9376 40.8402 28.4072C40.9465 27.8768 40.9266 27.3288 40.7821 26.8074Z" fill="#8873F4"/>
<path opacity="0.5" d="M40.17 29.8861C40.0556 30.0505 39.8975 30.1796 39.7135 30.2588C39.5295 30.338 39.327 30.364 39.129 30.3341C38.7614 30.2121 38.3728 30.167 37.9871 30.2016C37.5253 30.3893 37.0987 30.6538 36.7252 30.9839C35.895 31.585 35.0024 32.0948 34.0628 32.5044C32.9266 33.0532 31.6526 33.2509 30.4035 33.0722C30.183 33.0286 29.9703 32.952 29.7726 32.8451C29.5468 32.8796 29.317 32.8796 29.0912 32.8451L28.0376 32.6369C27.8293 32.5951 27.6276 32.525 27.4382 32.4287C27.197 32.448 26.9542 32.4288 26.719 32.3719L25.4383 32.0943C25.0001 32.0061 24.5994 31.786 24.29 31.4634L23.9304 31.1038C23.6225 30.7792 23.2212 30.5587 22.7821 30.4729C22.4325 30.4023 22.071 30.4174 21.7285 30.517L20.5676 30.864C20.2268 30.9604 19.8681 30.9756 19.5203 30.9082L2.66239 27.6148C1.70341 27.4256 0.87061 26.5991 0.384809 25.1921C-0.054303 23.6278 -0.118621 21.9821 0.197069 20.3883C0.512759 18.7945 1.19957 17.2975 2.20183 16.0187C3.17974 14.8957 4.26491 14.4288 5.24913 14.637L22.0881 17.9682C22.4362 18.0379 22.7627 18.1892 23.0408 18.4099L23.9872 19.1669C24.2647 19.3896 24.5913 19.5432 24.9398 19.6149C25.3692 19.6909 25.8113 19.6427 26.2143 19.4761L26.6811 19.2742C27.0845 19.1005 27.5307 19.0522 27.9619 19.1354L29.2805 19.3941C29.5199 19.4311 29.752 19.5056 29.9682 19.6149C30.1792 19.5988 30.3915 19.6115 30.5991 19.6527L31.659 19.8609C31.8792 19.9058 32.0917 19.9823 32.2899 20.0881C32.5291 20.0555 32.772 20.0619 33.0092 20.107C35.4508 20.5928 37.3372 23.2616 38.0565 24.4477C38.2712 24.8871 38.5544 25.2896 38.8956 25.6401C39.2369 25.8192 39.6097 25.9306 39.9934 25.9682C40.189 26.0175 40.367 26.1203 40.5075 26.2652C40.6479 26.4101 40.7451 26.5912 40.7883 26.7883C40.9382 27.3167 40.9604 27.8732 40.8529 28.4118C40.7453 28.9504 40.5113 29.4558 40.17 29.8861Z" fill="white"/>
<path d="M21.7098 30.5483C22.4055 30.328 23.0202 29.9065 23.4764 29.3369C24.3883 28.1684 25.013 26.802 25.3001 25.3477C25.5872 23.8935 25.5287 22.3922 25.1294 20.9648C24.9266 20.2732 24.5278 19.6552 23.9811 19.1856L23.0347 18.4285C22.7567 18.2079 22.4301 18.0565 22.0821 17.9869L5.24938 14.6367H5.18629C6.12634 14.8386 6.94653 15.6525 7.41971 17.0468C7.85918 18.6107 7.92427 20.256 7.6097 21.8497C7.29512 23.4434 6.60973 24.9407 5.609 26.2202C4.66894 27.2928 3.64056 27.7471 2.71312 27.6209H2.66265L19.5016 30.9458C19.8494 31.0131 20.2081 30.998 20.549 30.9016L21.7098 30.5483ZM35.2681 22.5483C35.7096 24.112 35.7757 25.7578 35.4611 27.3519C35.1464 28.9459 34.4599 30.4432 33.4574 31.7218C32.5362 32.7817 31.5205 33.2297 30.6057 33.1224C31.2901 33.217 31.9863 33.1784 32.6561 33.0088L32.8769 32.9521C33.1041 32.8953 33.3249 32.8259 33.5078 32.7502L33.735 32.6618L34.1451 32.4978L34.347 32.4032L34.7444 32.2139L34.94 32.1129L35.123 32.012C35.6783 31.7126 36.2135 31.3775 36.7255 31.0089C37.0989 30.6787 37.5256 30.4142 37.9873 30.2265C38.3717 30.1859 38.7604 30.2245 39.1293 30.3401C39.3273 30.3701 39.5298 30.344 39.7138 30.2648C39.8977 30.1857 40.0559 30.0566 40.1703 29.8921C40.5107 29.465 40.7454 28.9635 40.855 28.4284C40.9647 27.8933 40.9462 27.3399 40.8012 26.8133C40.758 26.6162 40.6608 26.435 40.5203 26.2902C40.3799 26.1453 40.2019 26.0424 40.0062 25.9931C39.6226 25.9555 39.2498 25.8441 38.9084 25.665C38.5622 25.3136 38.2747 24.9089 38.0567 24.4663C38.0308 24.4302 38.0076 24.3923 37.9873 24.3528L37.8233 24.1067C37.7917 24.0625 37.7665 24.0121 37.7286 23.9679C37.6908 23.9237 37.6025 23.7786 37.5331 23.6777L37.4258 23.5263L37.1861 23.2108C37.1167 23.1162 37.0473 23.0215 36.9715 22.9332L36.6876 22.6304C36.6426 22.5728 36.5942 22.518 36.5425 22.4663C36.4984 22.4095 36.4479 22.3591 36.3974 22.3023L36.246 22.1383C36.1904 22.0888 36.1377 22.0362 36.0883 21.9805C35.9242 21.8228 35.7602 21.6651 35.5835 21.52L35.4069 21.3685L35.2302 21.2297C34.6304 20.754 33.942 20.4022 33.205 20.1951C34.0757 20.4411 34.8265 21.2424 35.2681 22.5483ZM32.1388 31.4631C33.1409 30.1842 33.8271 28.687 34.1417 27.093C34.4563 25.4991 34.3905 23.8534 33.9495 22.2897C33.4763 20.8891 32.6498 20.0689 31.7034 19.8733L30.6309 19.6588C31.5836 19.8481 32.4164 20.6745 32.8959 22.0815C33.3397 23.6429 33.4099 25.2869 33.1008 26.8805C32.7918 28.4741 32.1121 29.9726 31.1167 31.2549C30.1325 32.3779 29.0473 32.8196 28.0883 32.6303L29.1483 32.8385C30.0694 33.0278 31.1546 32.5861 32.1388 31.4631ZM29.8549 31.0089C30.8562 29.7296 31.5425 28.2326 31.8581 26.639C32.1738 25.0454 32.11 23.3998 31.6719 21.8354C31.1861 20.4222 30.3533 19.602 29.3943 19.4127L27.9621 19.1225C28.9337 19.3055 29.7792 20.132 30.265 21.5515C30.7051 23.1167 30.77 24.7637 30.4543 26.3587C30.1386 27.9537 29.4512 29.4517 28.448 30.7313C27.47 31.848 26.3849 32.2959 25.4259 32.1066L26.8517 32.3842C27.7792 32.5735 28.8643 32.1319 29.8549 31.0089Z" fill="#8873F4"/>
<path opacity="0.7" d="M21.7098 30.5483C22.4055 30.328 23.0202 29.9065 23.4764 29.3369C24.3883 28.1684 25.013 26.802 25.3001 25.3477C25.5872 23.8935 25.5287 22.3922 25.1294 20.9648C24.9266 20.2732 24.5278 19.6552 23.9811 19.1856L23.0347 18.4285C22.7567 18.2079 22.4301 18.0565 22.0821 17.9869L5.24938 14.6367H5.18629C6.12634 14.8386 6.94653 15.6525 7.41971 17.0468C7.85918 18.6107 7.92427 20.256 7.6097 21.8497C7.29512 23.4434 6.60973 24.9407 5.609 26.2202C4.66894 27.2928 3.64056 27.7471 2.71312 27.6209H2.66265L19.5016 30.9458C19.8494 31.0131 20.2081 30.998 20.549 30.9016L21.7098 30.5483ZM35.2681 22.5483C35.7096 24.112 35.7757 25.7578 35.4611 27.3519C35.1464 28.9459 34.4599 30.4432 33.4574 31.7218C32.5362 32.7817 31.5205 33.2297 30.6057 33.1224C31.2901 33.217 31.9863 33.1784 32.6561 33.0088L32.8769 32.9521C33.1041 32.8953 33.3249 32.8259 33.5078 32.7502L33.735 32.6618L34.1451 32.4978L34.347 32.4032L34.7444 32.2139L34.94 32.1129L35.123 32.012C35.6783 31.7126 36.2135 31.3775 36.7255 31.0089C37.0989 30.6787 37.5256 30.4142 37.9873 30.2265C38.3717 30.1859 38.7604 30.2245 39.1293 30.3401C39.3273 30.3701 39.5298 30.344 39.7138 30.2648C39.8977 30.1857 40.0559 30.0566 40.1703 29.8921C40.5107 29.465 40.7454 28.9635 40.855 28.4284C40.9647 27.8933 40.9462 27.3399 40.8012 26.8133C40.758 26.6162 40.6608 26.435 40.5203 26.2902C40.3799 26.1453 40.2019 26.0424 40.0062 25.9931C39.6226 25.9555 39.2498 25.8441 38.9084 25.665C38.5622 25.3136 38.2747 24.9089 38.0567 24.4663C38.0308 24.4302 38.0076 24.3923 37.9873 24.3528L37.8233 24.1067C37.7917 24.0625 37.7665 24.0121 37.7286 23.9679C37.6908 23.9237 37.6025 23.7786 37.5331 23.6777L37.4258 23.5263L37.1861 23.2108C37.1167 23.1162 37.0473 23.0215 36.9715 22.9332L36.6876 22.6304C36.6426 22.5728 36.5942 22.518 36.5425 22.4663C36.4984 22.4095 36.4479 22.3591 36.3974 22.3023L36.246 22.1383C36.1904 22.0888 36.1377 22.0362 36.0883 21.9805C35.9242 21.8228 35.7602 21.6651 35.5835 21.52L35.4069 21.3685L35.2302 21.2297C34.6304 20.754 33.942 20.4022 33.205 20.1951C34.0757 20.4411 34.8265 21.2424 35.2681 22.5483ZM32.1388 31.4631C33.1409 30.1842 33.8271 28.687 34.1417 27.093C34.4563 25.4991 34.3905 23.8534 33.9495 22.2897C33.4763 20.8891 32.6498 20.0689 31.7034 19.8733L30.6309 19.6588C31.5836 19.8481 32.4164 20.6745 32.8959 22.0815C33.3397 23.6429 33.4099 25.2869 33.1008 26.8805C32.7918 28.4741 32.1121 29.9726 31.1167 31.2549C30.1325 32.3779 29.0473 32.8196 28.0883 32.6303L29.1483 32.8385C30.0694 33.0278 31.1546 32.5861 32.1388 31.4631ZM29.8549 31.0089C30.8562 29.7296 31.5425 28.2326 31.8581 26.639C32.1738 25.0454 32.11 23.3998 31.6719 21.8354C31.1861 20.4222 30.3533 19.602 29.3943 19.4127L27.9621 19.1225C28.9337 19.3055 29.7792 20.132 30.265 21.5515C30.7051 23.1167 30.77 24.7637 30.4543 26.3587C30.1386 27.9537 29.4512 29.4517 28.448 30.7313C27.47 31.848 26.3849 32.2959 25.4259 32.1066L26.8517 32.3842C27.7792 32.5735 28.8643 32.1319 29.8549 31.0089Z" fill="white"/>
<path d="M30.5737 32.4035C30.4193 32.3737 30.2704 32.3205 30.1321 32.2457L29.9365 32.1385H29.7157C29.5608 32.1603 29.4037 32.1603 29.2488 32.1385L28.1952 31.9303C28.0502 31.9019 27.91 31.853 27.7788 31.7852L27.5958 31.6968H27.394C27.2535 31.7126 27.1117 31.7126 26.9712 31.6968H26.9018L26.1826 31.5202L25.5517 31.4003C25.2695 31.3375 25.0111 31.1952 24.8072 30.9902L24.4539 30.6306C24.0381 30.2032 23.5005 29.9145 22.9145 29.8041C22.4513 29.7146 21.9734 29.7362 21.5202 29.8672L20.353 30.2016C20.1166 30.2584 19.8701 30.2584 19.6338 30.2016L2.79476 26.9145C2.0566 26.7694 1.43831 26.0754 1.05976 24.965C0.878747 24.567 0.838219 24.1193 0.944811 23.6952C1.0514 23.2711 1.2988 22.8958 1.64651 22.6307C2.49193 21.9303 3.64018 22.0944 4.64964 22.2332C5.08659 22.2767 5.52754 22.212 5.93355 22.0447C6.33957 21.8775 6.69817 21.6128 6.9777 21.2742C7.41224 20.791 7.94631 20.4077 8.54316 20.1507C9.14 19.8936 9.78545 19.769 10.4351 19.7852C11.6969 19.861 12.8704 20.4162 14.0817 20.7442C14.6733 20.9569 15.3079 21.0218 15.9303 20.9335C16.5792 20.7275 17.183 20.3999 17.7095 19.9682C18.9232 19.1321 20.4105 18.7913 21.8672 19.0155C22.4829 19.0849 23.0655 19.3302 23.5454 19.7222C23.9114 20.0185 24.3448 20.22 24.8072 20.3089C25.3784 20.4103 25.9668 20.34 26.4981 20.107L26.9649 19.9051C27.2438 19.7877 27.5516 19.7569 27.8482 19.8168L28.4791 19.9367L29.2236 20.107H29.2867C29.4268 20.1352 29.5626 20.1819 29.6905 20.2458L29.8734 20.3405H30.0753C30.2219 20.3214 30.3704 20.3214 30.517 20.3405L31.5706 20.5486C31.7239 20.5822 31.8723 20.6352 32.0122 20.7064L32.2015 20.8136H32.4223C32.5771 20.7915 32.7343 20.7915 32.8892 20.8136C34.946 21.2174 36.6746 23.5076 37.4822 24.8325L37.7093 25.2048C37.8989 25.5926 38.1675 25.9365 38.498 26.2142C38.7042 26.3623 38.938 26.4675 39.1857 26.5234L39.9049 26.6748C39.9554 26.6748 40.0563 26.7884 40.1383 27.0218C40.2451 27.4282 40.2579 27.8535 40.1759 28.2656C40.0939 28.6777 39.9193 29.0657 39.6652 29.4003C39.5074 29.5896 39.3686 29.6401 39.3245 29.6338L38.5989 29.5013C38.3491 29.4503 38.0916 29.4503 37.8418 29.5013C37.4338 29.6365 37.0565 29.8509 36.7314 30.1322L36.3781 30.3909C35.5931 30.9645 34.7467 31.4491 33.8545 31.8356C32.8422 32.3485 31.6995 32.5463 30.5737 32.4035Z" fill="#8873F4"/>
<path opacity="0.85" d="M30.5737 32.4035C30.4193 32.3737 30.2704 32.3205 30.1321 32.2457L29.9365 32.1385H29.7157C29.5608 32.1603 29.4037 32.1603 29.2488 32.1385L28.1952 31.9303C28.0502 31.9019 27.91 31.853 27.7788 31.7852L27.5958 31.6968H27.394C27.2535 31.7126 27.1117 31.7126 26.9712 31.6968H26.9018L26.1826 31.5202L25.5517 31.4003C25.2695 31.3375 25.0111 31.1952 24.8072 30.9902L24.4539 30.6306C24.0381 30.2032 23.5005 29.9145 22.9145 29.8041C22.4513 29.7146 21.9734 29.7362 21.5202 29.8672L20.353 30.2016C20.1166 30.2584 19.8701 30.2584 19.6338 30.2016L2.79476 26.9145C2.0566 26.7694 1.43831 26.0754 1.05976 24.965C0.878747 24.567 0.838219 24.1193 0.944811 23.6952C1.0514 23.2711 1.2988 22.8958 1.64651 22.6307C2.49193 21.9303 3.64018 22.0944 4.64964 22.2332C5.08659 22.2767 5.52754 22.212 5.93355 22.0447C6.33957 21.8775 6.69817 21.6128 6.9777 21.2742C7.41224 20.791 7.94631 20.4077 8.54316 20.1507C9.14 19.8936 9.78545 19.769 10.4351 19.7852C11.6969 19.861 12.8704 20.4162 14.0817 20.7442C14.6733 20.9569 15.3079 21.0218 15.9303 20.9335C16.5792 20.7275 17.183 20.3999 17.7095 19.9682C18.9232 19.1321 20.4105 18.7913 21.8672 19.0155C22.4829 19.0849 23.0655 19.3302 23.5454 19.7222C23.9114 20.0185 24.3448 20.22 24.8072 20.3089C25.3784 20.4103 25.9668 20.34 26.4981 20.107L26.9649 19.9051C27.2438 19.7877 27.5516 19.7569 27.8482 19.8168L28.4791 19.9367L29.2236 20.107H29.2867C29.4268 20.1352 29.5626 20.1819 29.6905 20.2458L29.8734 20.3405H30.0753C30.2219 20.3214 30.3704 20.3214 30.517 20.3405L31.5706 20.5486C31.7239 20.5822 31.8723 20.6352 32.0122 20.7064L32.2015 20.8136H32.4223C32.5771 20.7915 32.7343 20.7915 32.8892 20.8136C34.946 21.2174 36.6746 23.5076 37.4822 24.8325L37.7093 25.2048C37.8989 25.5926 38.1675 25.9365 38.498 26.2142C38.7042 26.3623 38.938 26.4675 39.1857 26.5234L39.9049 26.6748C39.9554 26.6748 40.0563 26.7884 40.1383 27.0218C40.2451 27.4282 40.2579 27.8535 40.1759 28.2656C40.0939 28.6777 39.9193 29.0657 39.6652 29.4003C39.5074 29.5896 39.3686 29.6401 39.3245 29.6338L38.5989 29.5013C38.3491 29.4503 38.0916 29.4503 37.8418 29.5013C37.4338 29.6365 37.0565 29.8509 36.7314 30.1322L36.3781 30.3909C35.5931 30.9645 34.7467 31.4491 33.8545 31.8356C32.8422 32.3485 31.6995 32.5463 30.5737 32.4035Z" fill="white"/>
<path d="M35.2678 22.5487C35.2037 22.352 35.1257 22.1601 35.0344 21.9745C34.515 21.5195 33.9132 21.1682 33.2615 20.9398C33.5591 21.3517 33.791 21.8071 33.9492 22.29C34.3902 23.8537 34.4561 25.4994 34.1414 27.0934C33.8268 28.6873 33.1406 30.1846 32.1385 31.4634C31.809 31.8489 31.4216 32.1809 30.9902 32.4476C31.6748 32.4868 32.3605 32.3925 33.0092 32.17C33.1543 32.0312 33.2994 31.8861 33.4445 31.7221C34.4492 30.4446 35.138 28.9478 35.4548 27.3538C35.7717 25.7597 35.7076 24.1133 35.2678 22.5487ZM30.2205 21.5518C30.0627 21.0771 29.8352 20.6284 29.5455 20.2206C29.4255 20.1704 29.3008 20.1324 29.1732 20.107L28.4351 19.9935L27.8041 19.8736C27.5069 19.8161 27.1992 19.8491 26.9209 19.9682L26.454 20.1638C25.9423 20.3869 25.3769 20.4571 24.8262 20.3657C24.9271 20.5697 25.0136 20.7805 25.0849 20.9966C25.4843 22.4241 25.5428 23.9254 25.2557 25.3796C24.9686 26.8338 24.3439 28.2002 23.4319 29.3688C23.2812 29.5396 23.1189 29.6998 22.9461 29.8483C23.4936 29.9727 23.9933 30.2532 24.3846 30.6559L24.7379 31.0155C24.9481 31.2313 25.2186 31.3787 25.5139 31.4382L26.1448 31.5581L26.8704 31.7284C26.9962 31.7597 27.1258 31.7724 27.2552 31.7663C27.6789 31.5017 28.0597 31.174 28.3846 30.7947C29.4031 29.5107 30.1018 28.0031 30.4232 26.3961C30.7447 24.7891 30.6795 23.1287 30.2331 21.5518H30.2205ZM32.883 22.0818C32.7339 21.6333 32.5214 21.2084 32.2521 20.82H32.1511L31.9745 20.7379C31.8387 20.6624 31.6917 20.6092 31.5391 20.5802L30.9082 20.4603C31.2225 20.8781 31.4656 21.345 31.6275 21.842C32.0726 23.4019 32.1441 25.0447 31.8361 26.6374C31.5281 28.23 30.8493 29.7277 29.8546 31.0092C29.5189 31.41 29.1179 31.7513 28.6685 32.0186L29.2615 32.1322C29.4182 32.1576 29.578 32.1576 29.7347 32.1322H29.9492L30.0439 32.1764C30.4422 31.9204 30.8032 31.6104 31.1164 31.2552C32.1131 29.9736 32.7937 28.4751 33.1028 26.8812C33.4119 25.2874 33.3409 23.6431 32.8956 22.0818H32.883Z" fill="#8873F4"/>
<path opacity="0.7" d="M35.2678 22.5487C35.2037 22.352 35.1257 22.1601 35.0344 21.9745C34.515 21.5195 33.9132 21.1682 33.2615 20.9398C33.5591 21.3517 33.791 21.8071 33.9492 22.29C34.3902 23.8537 34.4561 25.4994 34.1414 27.0934C33.8268 28.6873 33.1406 30.1846 32.1385 31.4634C31.809 31.8489 31.4216 32.1809 30.9902 32.4476C31.6748 32.4868 32.3605 32.3925 33.0092 32.17C33.1543 32.0312 33.2994 31.8861 33.4445 31.7221C34.4492 30.4446 35.138 28.9478 35.4548 27.3538C35.7717 25.7597 35.7076 24.1133 35.2678 22.5487ZM30.2205 21.5518C30.0627 21.0771 29.8352 20.6284 29.5455 20.2206C29.4255 20.1704 29.3008 20.1324 29.1732 20.107L28.4351 19.9935L27.8041 19.8736C27.5069 19.8161 27.1992 19.8491 26.9209 19.9682L26.454 20.1638C25.9423 20.3869 25.3769 20.4571 24.8262 20.3657C24.9271 20.5697 25.0136 20.7805 25.0849 20.9966C25.4843 22.4241 25.5428 23.9254 25.2557 25.3796C24.9686 26.8338 24.3439 28.2002 23.4319 29.3688C23.2812 29.5396 23.1189 29.6998 22.9461 29.8483C23.4936 29.9727 23.9933 30.2532 24.3846 30.6559L24.7379 31.0155C24.9481 31.2313 25.2186 31.3787 25.5139 31.4382L26.1448 31.5581L26.8704 31.7284C26.9962 31.7597 27.1258 31.7724 27.2552 31.7663C27.6789 31.5017 28.0597 31.174 28.3846 30.7947C29.4031 29.5107 30.1018 28.0031 30.4232 26.3961C30.7447 24.7891 30.6795 23.1287 30.2331 21.5518H30.2205ZM32.883 22.0818C32.7339 21.6333 32.5214 21.2084 32.2521 20.82H32.1511L31.9745 20.7379C31.8387 20.6624 31.6917 20.6092 31.5391 20.5802L30.9082 20.4603C31.2225 20.8781 31.4656 21.345 31.6275 21.842C32.0726 23.4019 32.1441 25.0447 31.8361 26.6374C31.5281 28.23 30.8493 29.7277 29.8546 31.0092C29.5189 31.41 29.1179 31.7513 28.6685 32.0186L29.2615 32.1322C29.4182 32.1576 29.578 32.1576 29.7347 32.1322H29.9492L30.0439 32.1764C30.4422 31.9204 30.8032 31.6104 31.1164 31.2552C32.1131 29.9736 32.7937 28.4751 33.1028 26.8812C33.4119 25.2874 33.3409 23.6431 32.8956 22.0818H32.883Z" fill="white"/>
<g opacity="0.05">
<path d="M40.17 29.8862C40.0556 30.0506 39.8975 30.1797 39.7135 30.2589C39.5295 30.3381 39.3271 30.3642 39.129 30.3342C38.7615 30.2122 38.3728 30.1671 37.9871 30.2017C37.5253 30.3894 37.0987 30.6539 36.7253 30.984C35.895 31.5851 35.0024 32.0949 34.0628 32.5045C32.9266 33.0533 31.6526 33.251 30.4035 33.0723C30.285 33.0526 30.1687 33.0209 30.0565 32.9777C29.9554 32.9388 29.8564 32.8946 29.76 32.8452C29.6466 32.8546 29.5327 32.8546 29.4193 32.8452C29.3049 32.8419 29.191 32.8293 29.0786 32.8073L28.025 32.5991C27.8757 32.5673 27.7299 32.5208 27.5897 32.4603L27.4256 32.3909C27.1844 32.4102 26.9416 32.3911 26.7064 32.3342L25.4383 32.0944C25.1136 32.0307 24.8075 31.8949 24.5424 31.6969C24.4512 31.6318 24.3667 31.5578 24.29 31.4761L23.9304 31.1165C23.7733 30.9536 23.5925 30.8153 23.3941 30.7064C23.1967 30.6014 22.9837 30.529 22.7632 30.4919C22.4136 30.4213 22.0521 30.4365 21.7096 30.5361L20.5487 30.8831L20.3027 30.9335C20.2417 30.937 20.1806 30.937 20.1197 30.9335H19.9178H19.7159H19.533L2.66241 27.6149H2.62456L2.44791 27.5708C2.12138 27.4662 1.82046 27.2943 1.56463 27.0661H1.53309L1.29334 26.82L1.25549 26.7821C1.18609 26.6938 1.11038 26.6055 1.04098 26.5045L0.984194 26.4162C0.914794 26.3153 0.851703 26.2143 0.788612 26.1008L0.750758 26.0377C0.687667 25.9241 0.630884 25.8042 0.574102 25.6844C0.574102 25.6844 0.574102 25.6339 0.574102 25.615C0.52363 25.4888 0.473157 25.3689 0.428993 25.2364V25.1986C0.378521 25.0345 0.328047 24.8642 0.283883 24.6938C0.280931 24.6645 0.280931 24.6349 0.283883 24.6055C0.193698 24.2512 0.130427 23.8905 0.0946105 23.5266C0.0974846 23.4994 0.0974846 23.4719 0.0946105 23.4446C0.0946105 23.268 0.0946108 23.085 0.0567562 22.902C0.0567562 22.7128 0.0567562 22.5172 0.0567562 22.3216V22.2333C0.0567562 22.0566 0.0567557 21.8863 0.0883012 21.7096V21.6465C0.0883012 21.4573 0.126156 21.2617 0.151392 21.0724C0.151392 21.0346 0.151392 21.003 0.151392 20.9652C0.151392 20.8074 0.201865 20.6434 0.23341 20.4857V20.3784C0.271265 20.1954 0.315429 20.0125 0.359593 19.8295C0.359593 19.7917 0.359592 19.7538 0.391138 19.7159C0.428992 19.5645 0.473157 19.4131 0.51732 19.268L0.555175 19.1418C0.611957 18.9715 0.668739 18.8137 0.725521 18.6497L0.80123 18.4731L0.933721 18.1387L1.00943 17.9746C1.07883 17.8232 1.15454 17.6718 1.23025 17.533C1.24958 17.489 1.2728 17.4467 1.29965 17.4068C1.36783 17.2702 1.44366 17.1375 1.52678 17.0093V16.9526C1.62141 16.8011 1.72236 16.656 1.8233 16.5172L1.87378 16.4478C1.98103 16.309 2.08829 16.1702 2.20185 16.0441C3.16714 14.9336 4.23969 14.4857 5.18606 14.6624C6.13242 14.839 6.9463 15.6781 7.41948 17.0724C8.08687 19.4425 7.89468 21.9723 6.8769 24.2143C6.82642 24.3216 6.77595 24.4288 6.71917 24.5361C6.66239 24.6434 6.63715 24.7001 6.59929 24.7759C6.56144 24.8516 6.49835 24.9777 6.44157 25.0724L20.1828 27.7411C20.5339 27.8056 20.8955 27.7839 21.2364 27.678L22.3973 27.3373C22.7376 27.2378 23.0971 27.2226 23.4446 27.2932C23.8275 27.3687 24.1841 27.5426 24.4793 27.7979L24.5992 27.9115L24.9525 28.2774C25.2645 28.5998 25.6672 28.8198 26.107 28.9083L27.4193 29.167C27.6546 29.2237 27.8973 29.2429 28.1386 29.2238C28.3381 29.3223 28.5505 29.3924 28.7695 29.432L29.8231 29.6402C30.0489 29.675 30.2787 29.675 30.5045 29.6402C30.7025 29.7479 30.915 29.8265 31.1354 29.8736C33.5833 30.3531 36.2395 29.1417 37.3499 28.3531C37.713 28.028 38.1263 27.7638 38.5738 27.5708C39.3637 27.6346 40.148 27.7548 40.9208 27.9304C40.8843 28.6455 40.6214 29.3304 40.17 29.8862Z" fill="black"/>
<path d="M10.5107 17.6593C10.9517 19.223 11.0175 20.8687 10.7029 22.4626C10.3883 24.0566 9.70203 25.5539 8.69994 26.8327C7.71572 27.9557 7.63371 28.5993 6.67472 28.41L15.2677 30.1071C16.2267 30.2964 17.3119 29.8485 18.2961 28.7255C19.2973 27.4461 19.9829 25.9489 20.2975 24.3551C20.6121 22.7613 20.5468 21.1158 20.1068 19.552C19.6273 18.1451 18.7882 17.3186 17.8292 17.1293L8.23938 15.2366C9.19836 15.4259 10.0312 16.246 10.5107 17.6593Z" fill="black"/>
</g>
<path d="M11.3441 17.8231C11.7837 19.3874 11.8483 21.0333 11.5326 22.6271C11.2169 24.221 10.5298 25.718 9.52705 26.9966C8.54914 28.1196 7.46398 28.5612 6.5113 28.372L16.1074 30.2647C17.0664 30.454 18.1453 30.006 19.1295 28.883C20.132 27.6044 20.8186 26.1071 21.1332 24.5131C21.4479 22.919 21.3817 21.2732 20.9402 19.7096C20.4607 18.3026 19.6279 17.4761 18.6689 17.2869L9.0728 15.3941C10.0255 15.5897 10.8583 16.4099 11.3441 17.8231Z" fill="#8873F4"/>
<path d="M13.161 29.6908C13.3624 29.0661 13.6983 28.4933 14.1452 28.0126C14.5553 27.571 15.0222 27.1293 15.5206 26.6624C16.3888 25.9035 17.1774 25.0579 17.8739 24.1388C18.7322 22.8845 19.1188 21.367 18.9654 19.8549C18.913 18.893 18.5941 17.9646 18.0443 17.1736L17.6973 17.1042C18.3006 17.9052 18.654 18.8665 18.713 19.8675C18.8656 21.3237 18.4943 22.7866 17.6657 23.9937C16.9764 24.8975 16.1987 25.7302 15.344 26.4795C14.8456 26.9527 14.3724 27.3943 13.956 27.8423C13.4797 28.3568 13.1241 28.9711 12.915 29.6403L13.161 29.6908Z" fill="#FAFAFA"/>
<path d="M11.8172 17.9176C12.2582 19.4813 12.324 21.127 12.0094 22.721C11.6948 24.3149 11.0085 25.8122 10.0064 27.0911C9.02222 28.2141 7.93706 28.6557 6.97807 28.4664L11.508 29.3623C11.7087 28.7136 12.0563 28.1199 12.5238 27.6273C13.6468 26.416 15.2682 25.1542 16.2398 23.7662C17.0871 22.5359 17.4675 21.0437 17.3124 19.558C17.2571 18.578 16.9221 17.6343 16.3471 16.8388L9.54588 15.4949C10.5049 15.6905 11.3377 16.5044 11.8172 17.9176Z" fill="#FAFAFA"/>
<path opacity="0.1" d="M10.0949 26.2458C9.92296 26.5087 9.73324 26.7596 9.52706 26.9966C8.54914 28.1196 7.46398 28.5613 6.5113 28.372L16.1074 30.2647C17.0664 30.454 18.1453 30.006 19.1295 28.883C19.3357 28.6482 19.5254 28.3995 19.6973 28.1385L10.0949 26.2458Z" fill="black"/>
<path d="M29.6527 30.0499C28.6099 30.0255 27.583 30.3085 26.7 30.8638C26.1212 31.33 25.3991 31.5818 24.6559 31.5767C24.3401 31.5273 24.0472 31.3819 23.8168 31.1603L23.1859 37.9931C24.2206 36.6303 26.2963 35.8796 27.2489 34.6177C28.2016 33.3559 30.4035 31.7408 30.7442 31.3307C31.5139 30.4285 30.2647 30.0626 29.6527 30.0499Z" fill="#9E6767"/>
</svg>
