<svg width="32" height="32" viewBox="0 0 32 32" fill="none" xmlns="http://www.w3.org/2000/svg">
<path d="M19.2002 29.3333C18.4224 29.3333 17.6779 29.172 16.9668 28.8493C16.2557 28.5266 15.6446 28.0657 15.1335 27.4666L7.40016 18.4666L9.1335 17.1666C9.57794 16.8333 10.0779 16.6555 10.6335 16.6333C11.1891 16.6111 11.7002 16.7555 12.1668 17.0666L14.0002 18.2333V5.3333C14.0002 4.95552 14.1282 4.63863 14.3842 4.38263C14.6402 4.12663 14.9566 3.99908 15.3335 3.99997C15.7113 3.99997 16.0282 4.12797 16.2842 4.38397C16.5402 4.63997 16.6677 4.95641 16.6668 5.3333V17.3333H18.6668V10.6666C18.6668 10.2889 18.7948 9.97197 19.0508 9.71597C19.3068 9.45997 19.6233 9.33241 20.0002 9.3333C20.3779 9.3333 20.6948 9.4613 20.9508 9.7173C21.2068 9.9733 21.3344 10.2897 21.3335 10.6666V17.3333H23.3335V12C23.3335 11.6222 23.4615 11.3053 23.7175 11.0493C23.9735 10.7933 24.2899 10.6657 24.6668 10.6666C25.0446 10.6666 25.3615 10.7946 25.6175 11.0506C25.8735 11.3066 26.0011 11.6231 26.0002 12V17.3333H28.0002V14.6666C28.0002 14.2889 28.1282 13.972 28.3842 13.716C28.6402 13.46 28.9566 13.3324 29.3335 13.3333C29.7113 13.3333 30.0282 13.4613 30.2842 13.7173C30.5402 13.9733 30.6677 14.2897 30.6668 14.6666V24C30.6668 25.4666 30.1446 26.7222 29.1002 27.7666C28.0557 28.8111 26.8002 29.3333 25.3335 29.3333H19.2002ZM6.00016 13.3333C4.68905 13.3333 3.58328 12.8835 2.68283 11.984C1.78239 11.0844 1.33261 10.0009 1.3335 8.7333C1.3335 7.97775 1.48372 7.32219 1.78416 6.76663C2.08461 6.21108 2.78994 5.29997 3.90016 4.0333L6.00016 1.6333L8.10016 4.06663C9.2335 5.37774 9.94461 6.29997 10.2335 6.8333C10.5224 7.36663 10.6668 7.99997 10.6668 8.7333C10.6668 9.99997 10.2113 11.0835 9.30016 11.984C8.38905 12.8844 7.28905 13.3342 6.00016 13.3333Z" fill="#1B85F3" fill-opacity="0.8"/>
</svg>
