<svg width="21" height="36" viewBox="0 0 21 36" fill="none" xmlns="http://www.w3.org/2000/svg">
<path d="M1.57003 35.8332C1.35503 35.829 1.14308 35.7815 0.94682 35.6936C0.75056 35.6057 0.574009 35.4792 0.427708 35.3216C0.281407 35.164 0.168342 34.9785 0.0952736 34.7763C0.0222051 34.574 -0.00937965 34.3591 0.00240718 34.1444V11.8951C0.0113994 11.42 0.146047 10.9558 0.392639 10.5495C0.618668 10.1377 0.950869 9.79386 1.35473 9.55381L17.5018 0.262525C17.7803 0.0947365 18.0984 0.00416797 18.4235 0.000135505C18.7344 -0.00399604 19.0392 0.0864378 19.2975 0.259455C19.5558 0.432473 19.7555 0.679902 19.87 0.968956C19.9463 1.2036 19.9849 1.44885 19.9844 1.69557V23.9516C19.9693 24.4214 19.8386 24.8801 19.6039 25.2873C19.3692 25.6946 19.0377 26.0376 18.6388 26.2862L2.49175 35.5842C2.39947 35.6375 2.30266 35.6825 2.20246 35.7188C2.00119 35.798 1.7863 35.8369 1.57003 35.8332Z" fill="#E0E0E0"/>
<path d="M20.9728 2.90008C20.9553 2.63079 20.8757 2.36919 20.7404 2.13576C20.605 1.90232 20.4174 1.70338 20.1923 1.55449L19.5532 1.19118C19.3102 1.06821 19.0417 1.00414 18.7694 1.00414C18.4971 1.00414 18.2286 1.06821 17.9856 1.19118L1.86543 10.4959C1.63927 10.6437 1.45086 10.8423 1.31533 11.076C1.1798 11.3097 1.10092 11.5718 1.08499 11.8415V34.0437C1.10092 34.3134 1.1798 34.5756 1.31533 34.8092C1.45086 35.0429 1.63927 35.2416 1.86543 35.3893L2.50457 35.7593C2.74755 35.8823 3.01606 35.9464 3.28838 35.9464C3.5607 35.9464 3.82921 35.8823 4.07219 35.7593L20.2193 26.4681C20.4447 26.3195 20.6325 26.1207 20.768 25.8872C20.9034 25.6537 20.9827 25.3919 20.9997 25.1225L20.9728 2.90008Z" fill="#FAFAFA"/>
<path d="M18.766 1.30593C18.9833 1.29787 19.199 1.34657 19.3917 1.44722L20.0645 1.81726C20.2442 1.9384 20.394 2.09891 20.5024 2.2866C20.6108 2.4743 20.6751 2.68423 20.6902 2.90046V25.1498C20.6761 25.3662 20.6123 25.5765 20.5038 25.7644C20.3953 25.9522 20.245 26.1126 20.0645 26.233L3.91744 35.5242C3.72199 35.6214 3.50667 35.672 3.28838 35.672C3.07009 35.672 2.85478 35.6214 2.65932 35.5242L2.02689 35.1609C1.84629 35.0391 1.69599 34.8775 1.58753 34.6886C1.47907 34.4997 1.41533 34.2884 1.4012 34.071V11.8419C1.41533 11.6245 1.47907 11.4132 1.58753 11.2243C1.69599 11.0354 1.84629 10.8738 2.02689 10.752L18.174 1.46068C18.3681 1.36383 18.5827 1.31536 18.7996 1.31939M18.7996 1.00318C18.5275 0.996848 18.2585 1.06179 18.0192 1.19156L1.86543 10.4963C1.63927 10.644 1.45086 10.8427 1.31533 11.0764C1.1798 11.31 1.10092 11.5722 1.08499 11.8419V34.0441C1.10092 34.3138 1.1798 34.5759 1.31533 34.8096C1.45086 35.0433 1.63927 35.2419 1.86543 35.3897L2.50457 35.7597C2.74723 35.8837 3.01587 35.9484 3.28838 35.9484C3.5609 35.9484 3.82953 35.8837 4.07219 35.7597L20.2193 26.4684C20.4447 26.3199 20.6325 26.1211 20.768 25.8876C20.9034 25.654 20.9827 25.3923 20.9997 25.1228V2.90046C20.9822 2.63117 20.9027 2.36957 20.7673 2.13614C20.6319 1.90271 20.4443 1.70376 20.2193 1.55487L19.5801 1.19156C19.3387 1.06094 19.0673 0.995981 18.7929 1.00318H18.7996Z" fill="#BA68C8"/>
<path d="M1.08521 34.0438C1.10114 34.3135 1.18002 34.5757 1.31555 34.8094C1.45108 35.043 1.63949 35.2417 1.86565 35.3894L2.50479 35.7595C2.7262 35.869 2.9681 35.931 3.21491 35.9415C3.46173 35.9519 3.70799 35.9105 3.93785 35.82C3.56781 35.9613 3.26505 35.7527 3.26505 35.3087V13.0998C3.27664 12.8261 3.35768 12.5598 3.50053 12.3261L1.29377 11.0545C1.15189 11.2883 1.07308 11.5548 1.06502 11.8282L1.08521 34.0438Z" fill="#BA68C8"/>
<path d="M20.9467 2.67804C20.8592 2.34837 20.5564 2.24071 20.1931 2.44928L4.04607 11.7406C3.81379 11.8836 3.62346 12.0856 3.49437 12.3259L1.28761 11.0543C1.41871 10.8154 1.6086 10.614 1.8393 10.469L17.9864 1.1777C18.2293 1.05473 18.4979 0.99066 18.7702 0.99066C19.0425 0.99066 19.311 1.05473 19.554 1.1777L20.1931 1.54774C20.3896 1.67431 20.5579 1.84 20.6875 2.03446C20.8172 2.22892 20.9054 2.448 20.9467 2.67804Z" fill="#BA68C8"/>
<path opacity="0.4" d="M20.9467 2.67804C20.8592 2.34837 20.5564 2.24071 20.1931 2.44928L4.04607 11.7406C3.81379 11.8836 3.62346 12.0856 3.49437 12.3259L1.28761 11.0543C1.41871 10.8154 1.6086 10.614 1.8393 10.469L17.9864 1.1777C18.2293 1.05473 18.4979 0.99066 18.7702 0.99066C19.0425 0.99066 19.311 1.05473 19.554 1.1777L20.1931 1.54774C20.3896 1.67431 20.5579 1.84 20.6875 2.03446C20.8172 2.22892 20.9054 2.448 20.9467 2.67804Z" fill="white"/>
<path d="M10.3231 23.3662C10.1504 23.3662 9.98258 23.3095 9.84537 23.2048C9.64207 23.0294 9.50318 22.7912 9.45076 22.5279C9.39835 22.2646 9.43542 21.9913 9.55607 21.7515C9.46685 21.6976 9.38933 21.6264 9.32808 21.542C9.26684 21.4577 9.22311 21.3619 9.19949 21.2604C9.16843 20.9466 9.21334 20.63 9.33044 20.3372C9.44755 20.0444 9.63339 19.7842 9.87229 19.5784C10.101 19.3833 10.3971 18.1184 10.6796 16.8872C11.0148 15.1847 11.5104 13.5177 12.1598 11.9085C12.994 10.092 14.5549 8.07361 16.1629 7.66994C16.4495 7.58715 16.7516 7.57263 17.0448 7.62754C17.3381 7.68245 17.6144 7.80526 17.8516 7.98615C19.6009 9.33174 18.9617 13.0456 17.3605 15.7502C16.4628 17.1123 15.4231 18.3752 14.2589 19.5178C13.4314 20.3925 12.6442 21.22 12.5971 21.5362C12.5096 22.209 12.1396 22.9356 11.635 23.0567C11.5363 23.0773 11.4342 23.074 11.337 23.0471C11.2399 23.0202 11.1506 22.9704 11.0766 22.902C10.9128 23.122 10.6729 23.2731 10.4038 23.3259C10.3784 23.3422 10.3514 23.3557 10.3231 23.3662ZM10.0943 22.8684C10.175 22.9293 10.2766 22.9559 10.3769 22.9424C10.4916 22.9037 10.5976 22.8428 10.6888 22.7631C10.78 22.6835 10.8546 22.5866 10.9084 22.4781C10.9274 22.4491 10.9534 22.4253 10.9839 22.4089C11.0145 22.3924 11.0486 22.3839 11.0833 22.3839C11.117 22.3851 11.1501 22.3936 11.1803 22.4087C11.2105 22.4237 11.2371 22.4451 11.2582 22.4714C11.3659 22.6261 11.4735 22.6934 11.5677 22.6732C11.8234 22.6127 12.1329 22.0543 12.2405 21.5093C12.3482 20.9643 12.9133 20.3857 14.0167 19.2353C15.1563 18.1159 16.1756 16.8801 17.0577 15.5484C18.5715 12.985 19.177 9.49321 17.6632 8.32927C17.4742 8.18519 17.2536 8.0881 17.0196 8.04599C16.7857 8.00388 16.5451 8.01796 16.3176 8.08707C15.0595 8.40328 13.5256 10.0449 12.5836 12.1238C11.9549 13.7096 11.4708 15.3489 11.1371 17.0218C10.7335 18.7509 10.5114 19.6591 10.1952 19.9282C10.0094 20.0779 9.8596 20.2675 9.7571 20.483C9.6546 20.6985 9.60199 20.9343 9.60317 21.1729C9.61929 21.2453 9.6557 21.3116 9.70813 21.364C9.76056 21.4164 9.82683 21.4528 9.8992 21.4689C9.92838 21.4754 9.95568 21.4884 9.97901 21.5071C10.0023 21.5258 10.0211 21.5495 10.0337 21.5766C10.0456 21.6042 10.0517 21.634 10.0517 21.6641C10.0517 21.6941 10.0456 21.7239 10.0337 21.7515C9.71081 22.5185 10.0337 22.828 10.1145 22.902L10.0943 22.8684Z" fill="#BA68C8"/>
<path d="M7.00645 30.4169C6.93199 30.4182 6.85828 30.402 6.79117 30.3698C6.68819 30.3054 6.6009 30.2189 6.53571 30.1164C6.47052 30.014 6.42906 29.8982 6.41439 29.7777C6.325 29.8015 6.23167 29.8066 6.14022 29.7927C6.04877 29.7788 5.96118 29.7462 5.88289 29.697C5.77377 29.6021 5.69238 29.4794 5.64737 29.342C5.60236 29.2046 5.5954 29.0576 5.62723 28.9165C5.66615 28.5976 5.77574 28.2914 5.948 28.0202C6.12026 27.749 6.35085 27.5197 6.62297 27.3489C6.82409 27.2122 6.99756 27.0387 7.13428 26.8376L9.48235 22.3433C9.50822 22.2943 9.55253 22.2575 9.60552 22.2411C9.65851 22.2247 9.71584 22.23 9.76491 22.2559C9.81398 22.2817 9.85076 22.326 9.86716 22.379C9.88356 22.432 9.87825 22.4894 9.85238 22.5384L7.50433 27.0327C7.34613 27.2969 7.13547 27.5259 6.88535 27.7055C6.65925 27.8414 6.46639 28.0261 6.32088 28.2461C6.17537 28.4661 6.08089 28.7158 6.04436 28.9771C6.04436 29.1856 6.04435 29.3337 6.12509 29.3808C6.20582 29.4279 6.4144 29.3807 6.49514 29.3404C6.52558 29.322 6.56048 29.3123 6.59605 29.3123C6.63163 29.3123 6.66652 29.322 6.69697 29.3404C6.72591 29.3584 6.75016 29.3831 6.7677 29.4123C6.78525 29.4416 6.79559 29.4746 6.79788 29.5086C6.79788 29.7104 6.88535 29.9728 6.97282 30.0132C7.06028 30.0535 7.10737 30.0132 7.21501 29.919C7.40808 29.7278 7.55969 29.4989 7.66039 29.2466C7.7611 28.9942 7.80876 28.7239 7.80036 28.4523C7.81502 28.133 7.88562 27.8187 8.00893 27.5238L10.3637 23.0296C10.3896 22.9805 10.4334 22.9433 10.4861 22.9257C10.5387 22.9082 10.5961 22.9116 10.6463 22.9354C10.6706 22.9481 10.6922 22.9656 10.7098 22.9867C10.7274 23.0078 10.7406 23.0322 10.7488 23.0585C10.7569 23.0847 10.7597 23.1124 10.7572 23.1397C10.7546 23.1671 10.7466 23.1937 10.7337 23.218L8.38569 27.719C8.28511 27.9698 8.22823 28.2361 8.21749 28.5061C8.2219 28.8343 8.15706 29.1597 8.02722 29.4611C7.89738 29.7625 7.70546 30.0331 7.46396 30.2554C7.33249 30.3564 7.17223 30.413 7.00645 30.4169Z" fill="#BA68C8"/>
<path d="M15.8667 10.8923C15.7187 11.1681 15.4832 11.3027 15.3352 11.1951C15.1872 11.0874 15.1939 10.7712 15.3352 10.5223C15.4765 10.2733 15.7187 10.1119 15.8667 10.2195C16.0148 10.3271 16.008 10.6097 15.8667 10.8923Z" fill="#BA68C8"/>
<path d="M14.2118 11.8747C14.0638 12.1505 13.8283 12.2918 13.6803 12.1774C13.5323 12.063 13.539 11.7536 13.6803 11.5046C13.8216 11.2557 14.0638 11.0875 14.2118 11.2019C14.3598 11.3162 14.3531 11.5988 14.2118 11.8747Z" fill="#BA68C8"/>
<path d="M14.3341 13.7856C14.4578 13.4949 14.425 13.2027 14.2609 13.1329C14.0968 13.0631 13.8635 13.242 13.7398 13.5327C13.6161 13.8233 13.6489 14.1155 13.8131 14.1853C13.9772 14.2552 14.2105 14.0762 14.3341 13.7856Z" fill="#BA68C8"/>
</svg>
