<svg width="100" height="214" viewBox="0 0 100 214" fill="none" xmlns="http://www.w3.org/2000/svg">
<path d="M64.5032 83.4029L41.0198 85.2942C41.0198 85.2942 39.4185 92.8593 38.8763 98.5962C38.3341 104.333 41.7952 109.875 41.7952 109.875L43.5226 119.583C32.5027 122.905 28.3923 129.342 23.1661 135.432C19.3835 139.845 15.3677 144.302 11.4716 146.219C8.05473 147.896 6.88844 149.062 12.0642 153.216C14.857 155.461 17.4355 154.729 17.4355 154.729C17.4355 154.729 38.9646 141.881 49.3036 136.037C57.1461 132.135 58.3943 131.927 60.8152 124.425C65.7766 108.941 65.4425 89.1839 64.5032 83.4029Z" fill="#874C4C"/>
<path d="M12.3099 178.011C11.8903 178.703 11.2529 179.236 10.4976 179.527C9.74238 179.818 8.91195 179.85 8.13648 179.618C5.82912 178.944 3.17502 176.75 1.42874 173.497C-0.386891 170.118 -0.342763 166.43 0.836135 162.78C2.23568 158.449 3.57849 157.213 3.4461 154.666C3.32632 152.333 2.85351 150.253 3.39568 149.377C3.80175 148.85 4.33554 148.436 4.94652 148.173C5.38782 156.255 11.566 172.69 12.3099 178.011Z" fill="#263238"/>
<path d="M14.0747 144.598C13.4443 143.924 12.5617 144.951 11.6224 145.311C8.65937 146.445 7.56243 145.828 4.94616 148.16C3.47726 151.029 4.98399 152.605 4.62464 156.122C4.43551 157.919 2.65141 161.109 1.96424 163.688C1.71337 164.626 1.55293 165.587 1.48512 166.556C1.20143 171.057 5.77202 178.837 10.8659 178.566C12.9778 178.452 14.0747 175.577 13.5956 171.757C13.3733 169.989 13.5084 168.195 13.9928 166.48C14.6547 163.253 16.3191 158.833 18.368 156.11C19.0362 155.234 20.8266 154.092 20.0197 153.172C16.7478 153.563 16.1362 152.271 14.4089 151.281C13.4695 150.732 12.3789 151.653 11.4396 151.981C11.2063 152.056 11.0865 152.195 11.0235 151.981C11.4333 150.921 12.2402 150.02 12.6311 148.784C13.0219 147.549 11.5719 146.817 13.1354 145.267C13.1354 145.254 13.583 144.977 14.0747 144.598Z" fill="#37474F"/>
<path d="M13.4827 169.866C12.5749 166.972 3.72369 166.909 1.59284 169.418C1.80488 170.582 2.19395 171.707 2.74653 172.753C4.9278 176.832 7.64494 178.994 10.6962 178.78C14.2833 178.534 14.2077 173.403 13.4827 169.866Z" fill="#FAFAFA"/>
<path d="M7.7396 164.665C7.64503 164.589 7.61981 164.589 7.6135 164.45C7.6072 164.312 7.61351 164.085 7.88459 164.053C10.2476 163.82 12.6081 164.521 14.4599 166.008C14.4923 166.037 14.5182 166.072 14.5359 166.112C14.5536 166.151 14.5628 166.194 14.5628 166.238C14.5628 166.281 14.5536 166.324 14.5359 166.364C14.5182 166.403 14.4923 166.439 14.4599 166.468C14.3935 166.525 14.3084 166.557 14.2204 166.557C14.1324 166.557 14.0473 166.525 13.9808 166.468C12.2938 165.144 10.165 164.515 8.02959 164.709C7.85937 164.759 7.83416 164.74 7.7396 164.665Z" fill="#F0F0F0"/>
<path d="M8.74153 161.494C8.64696 161.418 8.61544 161.424 8.61544 161.279C8.61544 161.134 8.61544 160.914 8.90543 160.888C10.0987 160.79 11.2995 160.933 12.4359 161.31C13.5723 161.687 14.6209 162.29 15.5186 163.082C15.551 163.111 15.5768 163.147 15.5946 163.186C15.6123 163.226 15.6214 163.269 15.6214 163.312C15.6214 163.356 15.6123 163.399 15.5946 163.438C15.5768 163.478 15.551 163.514 15.5186 163.543C15.4552 163.604 15.3704 163.638 15.2822 163.638C15.194 163.638 15.1093 163.604 15.0458 163.543C13.3919 162.117 11.2406 161.405 9.06304 161.563C8.84869 161.588 8.8487 161.569 8.74153 161.494Z" fill="#F0F0F0"/>
<path d="M9.63699 158.575C9.53612 158.493 9.5046 158.505 9.5109 158.354C9.51721 158.203 9.5109 157.995 9.82612 157.97C11.0498 157.871 12.2806 158.028 13.4399 158.432C14.5993 158.836 15.6616 159.477 16.5591 160.315C16.5916 160.344 16.6176 160.38 16.6353 160.421C16.6531 160.461 16.6623 160.504 16.6623 160.548C16.6623 160.592 16.6531 160.635 16.6353 160.676C16.6176 160.716 16.5916 160.752 16.5591 160.781C16.4911 160.841 16.4037 160.874 16.3132 160.874C16.2227 160.874 16.1353 160.841 16.0673 160.781C15.2465 160.038 14.284 159.468 13.2376 159.105C12.1912 158.742 11.0824 158.594 9.97741 158.669C9.75046 158.669 9.73155 158.669 9.63699 158.575Z" fill="#F0F0F0"/>
<path d="M10.5319 155.612C10.4436 155.53 10.4184 155.549 10.4058 155.397C10.3996 155.35 10.4032 155.302 10.4163 155.257C10.4294 155.211 10.4517 155.169 10.4818 155.132C10.512 155.096 10.5493 155.065 10.5915 155.044C10.6337 155.022 10.68 155.009 10.7273 155.006C12.1058 154.899 13.4909 155.099 14.7828 155.592C16.0747 156.084 17.2411 156.858 18.1979 157.856C18.2285 157.889 18.2514 157.928 18.2647 157.971C18.278 158.013 18.2815 158.059 18.2748 158.103C18.2681 158.147 18.2515 158.189 18.2262 158.226C18.2008 158.263 18.1674 158.294 18.1285 158.316C18.0542 158.375 17.9604 158.404 17.8658 158.397C17.7712 158.39 17.6827 158.348 17.6179 158.278C16.7449 157.383 15.6878 156.689 14.5198 156.242C13.3518 155.796 12.1008 155.609 10.8534 155.694C10.7971 155.705 10.7389 155.704 10.6832 155.69C10.6275 155.676 10.5757 155.649 10.5319 155.612Z" fill="#F0F0F0"/>
<path d="M41.4106 110.196C41.4106 110.196 38.227 105.253 38.2585 100.683C38.29 96.112 40.3515 85.3001 40.3515 85.3001L65.1147 83.4845C65.7451 90.3688 65.3921 102.259 64.4842 108.947C63.1477 117.931 61.6978 125.83 59.6615 129.001C57.6252 132.172 57.2911 132.563 48.4084 137.096C39.5256 141.629 26.0408 149.881 26.0408 149.881C26.0408 149.881 23.4876 150.272 20.6317 146.307C18.627 143.514 18.3874 141.604 18.3622 140.582C19.0305 139.738 20.1841 138.275 21.6089 136.529C23.8784 133.755 29.5586 126.574 32.8305 124.254C35.9652 122.154 39.3686 120.485 42.9489 119.293L41.4106 110.196Z" fill="#263238"/>
<path d="M54.2398 94.7816C55.9924 101.054 53.9687 118.397 53.7292 120.358C53.4329 122.817 50.3942 123.472 46.8764 124.235C45.2629 124.546 43.6726 124.967 42.1167 125.496C37.5839 127.186 34.7722 130.193 30.5042 134.732L29.5145 135.791C27.1441 138.313 24.5593 139.296 22.5798 138.439C21.947 138.17 21.4323 137.682 21.1298 137.064L20.7578 137.525C21.1288 138.153 21.6894 138.647 22.3591 138.937C22.9366 139.182 23.5601 139.3 24.1874 139.283C26.003 139.239 28.0393 138.155 29.9116 136.163L30.9014 135.104C35.1126 130.615 37.8991 127.652 42.3058 126.007C43.8352 125.476 45.4005 125.054 46.9899 124.746C50.5581 123.97 53.9246 123.239 54.2713 120.396C54.5109 118.429 56.5409 100.985 54.763 94.6114C53.7039 90.8288 50.0979 86.9832 46.5675 84.783L45.6156 84.8587C49.2342 86.9391 53.1744 90.936 54.2398 94.7816Z" fill="black"/>
<path d="M57.2091 143.18C57.2091 143.18 47.0719 132.5 39.8283 124.721C36.6761 121.316 32.0866 115.895 29.5775 110.511C26.8036 104.579 27.0054 97.789 28.0141 93.1112C28.9219 88.881 30.4538 86.1765 32.1686 83.2513L64.5032 83.4026C63.6616 86.9686 62.525 90.4585 61.1052 93.8362C59.05 98.4194 54.5361 101.263 54.5361 101.263C61.6284 113.739 73.9848 130.584 74.7539 136.39C75.1196 139.095 75.1826 144.497 74.9304 150.751C74.3 165.125 74.4576 182.272 74.5522 185.513C74.6404 188.583 74.6341 192.088 76.8343 195.953C78.3473 198.601 78.5743 201.501 80.8438 203.398C83.1134 205.296 87.9425 206.355 86.0638 209.16C84.1851 211.966 79.9802 212.041 76.248 211.644C72.5159 211.247 69.3133 206.052 68.0525 202.919C66.7916 199.786 64.3267 197.756 62.1769 196.041C60.0271 194.326 61.225 191.407 61.7419 190.065C63.0028 186.522 63.3999 186.698 63.1288 183.628C62.4984 176.693 59.1824 163.832 58.0539 158.701C55.6268 147.618 57.2091 143.18 57.2091 143.18Z" fill="#9E6767"/>
<path d="M34.1231 118.915C31.7338 115.681 29.1301 112.554 27.5099 107.447C25.915 102.435 25.6817 97.2029 26.8228 92.8278C28.0836 87.8789 29.0545 85.6913 30.0569 83.6487L64.5034 83.4029C66.1929 94.7506 56.3646 101.975 56.3646 101.975L60.5443 108.866C65.1464 115.92 72.5666 129.039 74.1804 132.91C75.7943 136.781 75.7691 137.04 75.4098 146.704C75.0504 156.368 74.5083 179.19 74.5083 179.19C74.5083 179.19 73.197 180.955 68.0464 180.974C62.8958 180.993 62.2149 179.31 62.2149 179.31C62.2149 179.31 60.3993 169.507 59.6365 166.424C58.1928 160.567 55.0722 150.556 56.7933 143.344C56.7996 143.35 36.5187 122.143 34.1231 118.915Z" fill="#37474F"/>
<path d="M62.9965 155.473C62.6638 152.601 62.5815 149.704 62.7506 146.817C62.8704 143.615 62.9587 141.087 61.7041 139.366C60.8089 138.136 59.1194 136.151 56.9759 133.648C51.1192 126.782 42.2617 116.412 39.2231 109.061C38.014 106.056 37.0793 102.948 36.4303 99.775C35.8629 97.2533 35.409 95.299 34.4318 93.6031C32.9799 91.1872 30.8395 89.2598 28.2852 88.068C28.2158 88.2445 28.1339 88.4967 28.0708 88.6984C30.5076 89.7992 32.5554 91.6097 33.9464 93.8931C34.892 95.5196 35.3333 97.455 35.8881 99.9137C36.548 103.117 37.4932 106.254 38.7124 109.288C41.7826 116.696 50.6906 127.104 56.5535 133.995C58.6844 136.516 60.3739 138.471 61.2565 139.668C62.4039 141.244 62.3156 143.564 62.2021 146.786C62.0279 149.698 62.106 152.619 62.4354 155.517C62.9587 159.552 63.2613 163.946 61.4835 165.964C61.0049 166.446 60.4197 166.808 59.775 167.023C59.8128 167.18 59.8507 167.369 59.9011 167.552C60.6587 167.298 61.3442 166.866 61.8995 166.291C63.8349 164.167 63.5387 159.628 62.9965 155.473Z" fill="#263238"/>
<path d="M87.4312 208.202C87.9166 209.633 87.2609 211.31 85.7731 212.356C83.7873 213.743 80.446 214.424 76.8904 213.718C73.1898 212.98 70.4475 210.566 68.4553 207.319C66.0912 203.442 66.0219 201.595 64.0423 200.063C62.2141 198.663 60.6947 197.592 60.3984 196.621C60.2639 195.96 60.2942 195.275 60.4867 194.629C66.8477 199.464 82.9551 205.377 87.4312 208.202Z" fill="#263238"/>
<path d="M63.2235 185.235C62.2904 185.33 62.4039 186.698 62.0761 187.669C61.0359 190.726 60.2163 192 60.4685 194.604C61.6852 197.598 63.4693 197.516 65.8775 200.057C67.1384 201.349 68.3992 204.798 69.8744 206.991C70.4163 207.789 71.0373 208.531 71.7279 209.204C74.9242 212.312 83.706 213.693 86.7321 209.507C87.9929 207.773 85.944 205.491 82.773 203.43C81.234 202.513 80.0128 201.147 79.2741 199.515C77.4459 195.795 75.5924 192.838 75.4916 189.428C75.4916 188.917 75.687 186.074 74.5585 186.975C72.6294 188.526 69.9123 187.12 68.374 188.091C67.5293 188.785 67.4788 191.111 67.1132 192.063C67.0249 192.296 67.0564 192.485 66.8421 192.384C66.3125 191.388 65.6821 188.942 65.0013 187.845C64.3204 186.748 63.7404 187.057 63.11 186.402C63.1226 186.408 63.1919 185.935 63.2235 185.235Z" fill="#37474F"/>
<path d="M83.3277 203.53C80.5791 202.389 73.7263 204.501 71.7279 209.204C73.1937 210.732 75.0963 211.769 77.1748 212.174C81.6319 213.062 84.9858 212.312 86.7762 209.778C88.9133 206.828 85.3829 204.892 83.3277 203.53Z" fill="#FAFAFA"/>
<path d="M73.8524 202.944C73.7389 202.944 73.7137 202.944 73.6317 202.837C73.5498 202.73 73.4237 202.541 73.6317 202.351C75.4354 200.813 77.7738 200.05 80.1377 200.227C80.1807 200.231 80.2222 200.244 80.2595 200.266C80.2967 200.288 80.3288 200.317 80.3534 200.353C80.378 200.388 80.3946 200.429 80.402 200.471C80.4094 200.514 80.4074 200.557 80.3962 200.599C80.3794 200.687 80.3311 200.765 80.2602 200.82C80.1893 200.875 80.1009 200.901 80.0116 200.895C77.8755 200.763 75.77 201.456 74.1297 202.831C73.9974 202.957 73.9721 202.95 73.8524 202.944Z" fill="#F0F0F0"/>
<path d="M72.2569 200C72.1371 200 72.1119 200 72.0426 199.874C71.9732 199.748 71.8661 199.559 72.1119 199.389C73.0953 198.712 74.2057 198.242 75.376 198.007C76.5463 197.772 77.7521 197.776 78.9205 198.021C78.9626 198.032 79.0017 198.053 79.0352 198.081C79.0688 198.109 79.096 198.144 79.115 198.183C79.1341 198.223 79.1446 198.266 79.1459 198.309C79.1471 198.353 79.1391 198.396 79.1223 198.437C79.0935 198.52 79.0352 198.589 78.9585 198.632C78.8818 198.675 78.7921 198.689 78.7062 198.67C77.6493 198.461 76.5613 198.465 75.5058 198.681C74.4504 198.898 73.4488 199.323 72.5595 199.931C72.4019 200.025 72.3767 200.019 72.2569 200Z" fill="#F0F0F0"/>
<path d="M70.8069 197.39C70.6871 197.39 70.6619 197.39 70.5926 197.264C70.5618 197.227 70.5397 197.183 70.528 197.137C70.5163 197.09 70.5152 197.041 70.5249 196.994C70.5346 196.947 70.5548 196.902 70.5839 196.864C70.6131 196.826 70.6505 196.794 70.6934 196.772C71.7002 196.078 72.842 195.603 74.0445 195.379C75.247 195.156 76.4831 195.188 77.6723 195.474C77.7141 195.487 77.7526 195.508 77.7852 195.537C77.8178 195.567 77.8437 195.603 77.8611 195.643C77.8784 195.683 77.8869 195.726 77.8859 195.77C77.8848 195.814 77.8743 195.857 77.8551 195.896C77.8225 195.98 77.7604 196.05 77.6803 196.091C77.6003 196.133 77.5078 196.144 77.4201 196.123C76.3439 195.882 75.2298 195.862 74.1459 196.066C73.0619 196.27 72.0309 196.693 71.1158 197.308C70.9519 197.415 70.9267 197.409 70.8069 197.39Z" fill="#F0F0F0"/>
<path d="M68.9665 194.604C68.8531 194.604 68.8342 194.604 68.7522 194.478C68.7253 194.439 68.7065 194.395 68.697 194.348C68.6875 194.302 68.6875 194.254 68.6969 194.207C68.7063 194.161 68.725 194.117 68.7518 194.078C68.7786 194.038 68.8131 194.005 68.8531 193.98C69.9861 193.198 71.2805 192.682 72.6404 192.469C74.0003 192.256 75.3906 192.352 76.7082 192.75C76.752 192.763 76.7921 192.786 76.8253 192.818C76.8585 192.849 76.8838 192.888 76.8992 192.931C76.9145 192.974 76.9195 193.02 76.9137 193.065C76.9079 193.111 76.8915 193.154 76.8658 193.192C76.8293 193.278 76.762 193.348 76.677 193.387C76.592 193.427 76.4952 193.434 76.4056 193.406C75.209 193.061 73.9515 192.982 72.7211 193.174C71.4906 193.365 70.3169 193.823 69.2818 194.515C69.2394 194.553 69.189 194.581 69.1344 194.596C69.0797 194.611 69.0223 194.614 68.9665 194.604Z" fill="#F0F0F0"/>
<path d="M82.2877 68.4232C81.8401 68.0639 80.781 68.7132 79.3562 69.6463C79.0045 69.8758 78.7086 70.1813 78.4904 70.5402C78.2722 70.8992 78.1372 71.3024 78.0953 71.7204C78.9567 71.7093 79.7885 71.4047 80.4531 70.8567C81.2441 70.1978 81.872 69.365 82.2877 68.4232Z" fill="#263238"/>
<path d="M83.4348 78.277C82.9872 78.0438 82.8485 77.8105 83.5987 77.3125C84.3489 76.8144 86.8139 75.6166 86.8139 75.6166L87.1984 76.6253C87.1984 76.6253 84.2417 78.6048 83.4348 78.277Z" fill="black"/>
<path d="M56.6922 38.5915C60.3802 38.6924 63.1288 39.1463 68.3172 42.2921C71.7278 44.3599 93.32 59.0174 96.1254 61.2491C98.376 63.0521 86.669 69.1609 86.442 69.1168C86.215 69.0727 62.1327 56.6659 62.1327 56.6659L56.6922 38.5915Z" fill="#9E6767"/>
<path d="M83.4979 73.5616C82.8674 72.7798 81.3544 70.8129 80.1188 71.0966C78.1834 71.5505 77.2062 72.1116 74.2684 72.9122C72.1439 73.4922 69.5465 74.3055 68.9287 74.8035C67.3589 76.1274 67.1005 80.181 67.3337 81.9588C67.567 83.7367 69.2754 83.2827 69.2754 83.2827C69.3763 83.6547 69.6789 84.4805 71.1163 84.4427C71.1163 84.9723 71.8098 85.7036 73.0832 85.7036C73.14 86.3025 74.2054 86.687 74.9745 86.4853C76.0778 86.2016 77.4016 84.9282 78.1266 84.4806C78.8516 84.033 79.211 83.8817 79.2866 83.5349C79.3875 83.0684 78.9525 82.5073 78.0699 82.4317C79.1462 82.3309 80.1675 81.9092 81.0014 81.2212C81.6683 80.5832 82.2566 79.8679 82.754 79.0904C83.1372 78.4349 83.6498 77.8644 84.2607 77.4135C85.4018 76.5057 84.2607 74.6522 83.6303 73.7633C83.6113 73.7318 83.5546 73.6624 83.4979 73.5616Z" fill="#9E6767"/>
<path d="M78.1142 82.4759C77.7892 82.5758 77.478 82.7156 77.1874 82.892C77.0492 82.9822 76.9185 83.0834 76.7966 83.1946C76.6705 83.3081 76.5696 83.4405 76.4309 83.5665L76.3616 83.6359L76.2859 83.5729C75.8139 83.2862 75.2798 83.1175 74.7288 83.0811C75.3127 82.9598 75.921 83.0706 76.4246 83.39H76.3048C76.5396 83.1368 76.8143 82.9238 77.1181 82.7596C77.4274 82.5985 77.7663 82.502 78.1142 82.4759Z" fill="#874C4C"/>
<path d="M75.7379 84.9093C75.8513 84.6508 75.9837 84.4428 76.0783 84.2032C76.1729 83.9636 76.2611 83.743 76.3557 83.4845C76.4325 83.7565 76.4102 84.047 76.2926 84.3041C76.1765 84.5595 75.9822 84.7714 75.7379 84.9093Z" fill="#874C4C"/>
<path d="M73.0831 85.7474C72.8733 85.0405 72.8068 84.2989 72.8876 83.5661C72.9408 82.8337 73.1356 82.1186 73.4613 81.4605C73.2917 82.1606 73.1779 82.8731 73.1209 83.5913C73.0483 84.3077 73.0356 85.0289 73.0831 85.7474Z" fill="#874C4C"/>
<path d="M71.1169 84.4932C70.9615 83.6261 70.9128 82.7432 70.9719 81.8643C71.0218 80.9827 71.2112 80.1145 71.533 79.2922C71.3738 80.1488 71.2643 81.0139 71.2052 81.8832C71.1358 82.7469 71.1421 83.6106 71.1169 84.4932Z" fill="#874C4C"/>
<path d="M69.2755 83.3331C68.7821 81.5657 68.9479 79.6792 69.742 78.0249C69.5052 78.8876 69.3449 79.7694 69.2629 80.6601C69.1914 81.5499 69.1956 82.4441 69.2755 83.3331Z" fill="#874C4C"/>
<path d="M70.1018 76.7137C70.1192 76.4889 70.1929 76.2721 70.3161 76.0832C70.4415 75.8965 70.6102 75.743 70.8079 75.6356C71.1984 75.4415 71.6335 75.3545 72.0687 75.3835L71.4761 75.5852C71.2819 75.647 71.094 75.7272 70.915 75.8248C70.5582 76.0294 70.2739 76.3401 70.1018 76.7137Z" fill="#874C4C"/>
<path d="M71.987 77.8293C72.0054 77.6048 72.0791 77.3882 72.2013 77.1989C72.3285 77.0138 72.4968 76.8606 72.6931 76.7513C73.0836 76.5572 73.5187 76.4702 73.9539 76.4991L73.3613 76.7072C73.1672 76.7667 72.9793 76.8448 72.8003 76.9404C72.4434 77.145 72.1591 77.4557 71.987 77.8293Z" fill="#874C4C"/>
<path d="M74.2438 79.3679C74.2635 79.1436 74.337 78.9273 74.4581 78.7375C74.5853 78.5524 74.7536 78.3992 74.9498 78.2899C75.3404 78.0958 75.7755 78.0087 76.2107 78.0377L75.6181 78.2458C75.4239 78.3075 75.236 78.3878 75.057 78.4853C74.6993 78.6859 74.4145 78.995 74.2438 79.3679Z" fill="#874C4C"/>
<path d="M83.1453 78.5669C84.9798 76.5685 94.5939 73.6118 97.0777 70.9135C98.9375 68.8962 99.984 67.2255 99.9147 65.8701C99.839 64.3886 98.4016 63.0836 95.7223 60.9339C92.9186 61.683 90.2639 62.9069 87.8735 64.5525C84.362 66.904 80.4786 71.1342 77.5849 71.9033L83.1453 78.5669Z" fill="#9E6767"/>
<path d="M82.9809 65.9965C82.6846 66.2361 82.1992 66.5765 81.9029 66.8035C82.5712 67.1502 83.2205 67.478 83.7627 67.7491C84.1851 67.3457 84.7903 66.8035 85.3576 66.2613C87.9802 63.7711 90.6659 62.2518 93.8054 62.3779C89.4807 60.8964 85.074 64.3259 82.9809 65.9965Z" fill="#874C4C"/>
<path d="M86.4739 69.7348L83.8703 68.329C83.5729 68.1893 83.247 68.1211 82.9186 68.1298C82.5902 68.1386 82.2684 68.2241 81.979 68.3794L79.4573 69.9177C79.3496 69.9685 79.2576 70.0475 79.191 70.1462C79.1245 70.245 79.0858 70.3598 79.079 70.4787C79.079 70.6237 79.079 71.1659 79.079 71.3172C79.0902 71.4343 79.1338 71.546 79.2051 71.6396C79.2765 71.7332 79.3725 71.8049 79.4825 71.8468L82.0673 73.2526C82.3645 73.3928 82.6904 73.4613 83.0189 73.4525C83.3474 73.4438 83.6692 73.358 83.9585 73.2022L86.4802 71.6639C86.5826 71.6128 86.6707 71.5371 86.7367 71.4436C86.8027 71.3501 86.8445 71.2417 86.8585 71.1281C86.8585 70.9768 86.8585 70.4157 86.8585 70.2707C86.8462 70.1557 86.8043 70.0459 86.7369 69.952C86.6695 69.8581 86.5789 69.7833 86.4739 69.7348Z" fill="#37474F"/>
<path d="M79.4567 69.9176L81.9784 68.3794C82.2682 68.225 82.5899 68.14 82.9181 68.1313C83.2464 68.1225 83.5721 68.1902 83.8697 68.3289L86.4545 69.7348C86.5687 69.7741 86.6678 69.848 86.738 69.9464C86.8081 70.0447 86.8459 70.1625 86.8459 70.2833C86.8459 70.4041 86.8081 70.5218 86.738 70.6202C86.6678 70.7185 86.5687 70.7925 86.4545 70.8317L83.9328 72.37C83.6433 72.5258 83.3211 72.611 82.9924 72.6187C82.6637 72.6264 82.3379 72.5563 82.0415 72.4141L79.4567 71.0146C79.3425 70.9753 79.2434 70.9013 79.1732 70.803C79.1031 70.7047 79.0653 70.5869 79.0653 70.4661C79.0653 70.3453 79.1031 70.2275 79.1732 70.1292C79.2434 70.0309 79.3425 69.9569 79.4567 69.9176Z" fill="#455A64"/>
<path d="M83.0439 72.3446C82.7627 72.3596 82.4824 72.3009 82.2307 72.1744L79.6396 70.7749C79.4757 70.6803 79.3812 70.5731 79.3812 70.466C79.3812 70.3588 79.4631 70.2516 79.627 70.1507L82.1487 68.6125C82.3933 68.4756 82.6691 68.4039 82.9494 68.4045C83.2326 68.3902 83.5148 68.4488 83.7689 68.5747L86.3537 69.9742C86.5176 70.0688 86.6121 70.176 86.6184 70.2768C86.6248 70.3777 86.5302 70.4975 86.3726 70.5984L83.8509 72.1366C83.6037 72.2727 83.3261 72.3443 83.0439 72.3446Z" fill="#263238"/>
<path d="M81.7327 72.698C81.7163 72.7038 81.6985 72.7038 81.6822 72.698L79.854 71.7019C79.8366 71.6881 79.8246 71.6686 79.8202 71.6469C79.8157 71.6252 79.819 71.6026 79.8295 71.583C79.8401 71.5635 79.8571 71.5483 79.8777 71.54C79.8983 71.5318 79.9212 71.5311 79.9422 71.538L81.7768 72.5341C81.7982 72.5461 81.8142 72.5659 81.8213 72.5895C81.8283 72.613 81.8259 72.6384 81.8146 72.6602C81.8048 72.6724 81.7923 72.6822 81.7781 72.6888C81.7639 72.6953 81.7483 72.6985 81.7327 72.698Z" fill="#455A64"/>
<path d="M84.5577 69.0096L83.713 69.5265C83.7005 69.5336 83.69 69.5437 83.6823 69.5557C83.6747 69.5678 83.67 69.5816 83.6688 69.5959C83.6671 69.6111 83.669 69.6265 83.6745 69.6407C83.68 69.655 83.6889 69.6677 83.7004 69.6778L84.5388 70.4785L81.9415 69.7283C81.9213 69.7214 81.8993 69.7222 81.8796 69.7303C81.8599 69.7384 81.8438 69.7533 81.8343 69.7724C81.822 69.7888 81.8154 69.8087 81.8154 69.8291C81.8154 69.8496 81.822 69.8695 81.8343 69.8859L82.8178 70.9954L81.8595 70.7811C81.8486 70.7764 81.8368 70.774 81.8248 70.774C81.8129 70.774 81.8011 70.7764 81.7902 70.7811L80.7941 71.4115L80.9895 71.5187L81.8532 70.9891L83.0636 71.2665C83.0839 71.2711 83.105 71.2693 83.1242 71.2614C83.1434 71.2535 83.1596 71.2399 83.1708 71.2224C83.1831 71.206 83.1897 71.1861 83.1897 71.1656C83.1897 71.1452 83.1831 71.1253 83.1708 71.1089L82.2125 70.0183L84.873 70.7874C84.8932 70.793 84.9147 70.7917 84.9341 70.7837C84.9535 70.7757 84.9697 70.7615 84.9801 70.7433C84.9952 70.7269 85.0036 70.7056 85.0036 70.6834C85.0036 70.6612 84.9952 70.6398 84.9801 70.6235L83.9462 69.64L84.7784 69.1294L84.5577 69.0096Z" fill="#8873F4"/>
<path d="M84.116 72.7043C84.5006 72.906 85.3201 73.6247 85.4084 75.3331C85.4966 77.0416 84.406 78.252 83.4351 78.2772C83.7251 78.5546 84.5762 78.3592 85.6795 77.7981L86.5999 77.3316C86.9587 77.1468 87.268 76.8786 87.5017 76.5495C87.7353 76.2204 87.8866 75.84 87.9427 75.4403C87.9652 75.1887 87.9652 74.9355 87.9427 74.6838C87.9517 74.0428 87.8243 73.4071 87.5689 72.8191C87.3135 72.2311 86.9359 71.7041 86.4612 71.2732L84.116 72.7043Z" fill="#263238"/>
<path d="M32.8999 69.0981C33.3916 72.0485 33.4988 73.5804 32.8999 75.9193C32.2615 78.2408 31.448 80.5105 30.4665 82.709C34.8479 87.0211 45.7795 88.9124 52.7521 88.2693C62.3409 87.3867 65.0706 83.3898 65.0706 83.3898L65.4615 70.7813L32.8999 69.0981Z" fill="#9E6767"/>
<path d="M70.8707 54.1255C67.4727 45.93 56.6924 38.5855 56.6924 38.5855C55.192 38.472 54.6688 38.2261 48.188 38.6485C44.6702 38.8755 39.6961 39.3987 36.6512 39.9094C34.2302 41.5569 32.4199 43.9566 31.5006 46.7369C30.015 50.4645 29.5472 54.5201 30.1452 58.4881C30.9899 64.1934 32.4588 65.6938 33.2973 72.3575C42.4574 77.1676 60.9793 76.6128 65.3482 72.9438C65.3482 72.9438 65.6067 69.5899 65.821 66.8727C71.4003 63.7206 72.5225 58.1224 70.8707 54.1255Z" fill="#455A64"/>
<path d="M59.0246 67.1499C59.0246 67.1499 53.3949 69.4635 48.4776 67.484C43.1631 65.3405 42.3309 60.6312 42.7533 58.7715C42.7533 58.7715 40.5279 66.3366 47.2104 68.8961C53.7732 71.4052 59.0246 67.1499 59.0246 67.1499Z" fill="#37474F"/>
<path d="M29.5718 84.6696L31.463 80.0549C31.463 80.0549 38.6436 84.3166 50.5398 84.4679C61.7803 84.5876 65.1657 80.1305 65.1657 80.1305C65.1657 82.4946 65.2665 84.4616 65.3359 87.2354C65.3359 87.2354 61.3138 92.0708 50.338 91.3836C34.5143 90.356 29.5718 84.6696 29.5718 84.6696Z" fill="#263238"/>
<path d="M16.6288 103.393C15.8765 101.469 15.4504 99.4316 15.3679 97.3666C16.0706 97.9238 16.742 98.5194 17.379 99.1507C17.7017 99.463 18.0875 99.7028 18.5104 99.8539C18.9334 100.005 19.3837 100.064 19.8313 100.027C20.2789 99.945 20.7644 99.5352 20.6005 99.1129C20.5638 99.0232 20.5127 98.9402 20.4492 98.867C19.5098 97.6566 18.5579 96.4398 17.6564 95.2231C16.9126 94.1109 16.1065 93.0417 15.2418 92.0205C14.9087 91.7435 14.6353 91.4018 14.4381 91.016C14.2408 90.6303 14.124 90.2085 14.0945 89.7762C13.836 83.5791 14.2647 79.6516 14.8762 71.0084C14.8762 71.0084 27.0497 63.2731 32.4903 60.0831C34.0578 59.2829 35.4524 58.1818 36.5944 56.8427C38.1957 54.901 39.28 51.7047 39.28 47.7457C39.0948 44.9427 38.1846 42.2359 36.6385 39.8905C33.5161 40.3521 30.5547 41.573 28.0143 43.4461C26.4256 44.562 24.5596 45.8607 16.881 52.02C12.7478 55.1983 8.88864 58.718 5.34414 62.5418C3.16916 64.8113 2.86025 65.5615 2.94851 67.7806C3.02416 69.6404 3.19438 70.668 3.68611 75.4529C4.08958 79.4246 4.61284 82.6965 5.03522 86.6619C5.1424 87.6643 5.16761 88.6352 5.28109 89.6438C5.45131 91.0812 5.19284 93.8488 5.16762 95.3177C5.1333 96.7629 5.24737 98.2079 5.50804 99.6298C5.74761 100.935 6.13847 102.322 7.19128 103.135C7.58441 103.382 7.95563 103.663 8.30084 103.973C8.62866 104.333 8.79257 104.818 9.11409 105.178C9.66903 105.671 10.3671 105.973 11.1062 106.041C11.4401 106.09 11.7612 106.204 12.0519 106.375C12.3071 106.594 12.5337 106.844 12.7264 107.119C13.0317 107.474 13.4074 107.761 13.8295 107.963C14.2517 108.165 14.7111 108.277 15.1788 108.292C15.3918 108.278 15.6054 108.304 15.8092 108.368C15.9416 108.435 16.0628 108.522 16.1686 108.626L18.4822 110.725C18.6083 110.845 18.7722 110.971 18.9361 110.927C19.0279 110.896 19.1088 110.839 19.1694 110.763C19.3509 110.586 19.4852 110.366 19.5601 110.124C19.635 109.882 19.648 109.625 19.5981 109.376C19.2283 108.249 18.686 107.185 17.9905 106.224C17.4554 105.322 16.9998 104.375 16.6288 103.393Z" fill="#9E6767"/>
<path d="M51.7182 0.721927C53.8679 1.98278 54.7568 2.8969 56.9696 1.01823C59.4913 -0.63349 62.9145 0.494972 64.4212 3.01038C64.9445 3.83623 65.4425 4.90166 66.3945 4.98992C66.924 5.04666 67.6553 4.77557 68.6199 4.77557C69.3584 4.81123 70.0702 5.06251 70.6674 5.49836C71.2646 5.93421 71.7209 6.53551 71.9801 7.22793C72.1881 8.0664 71.8414 8.949 71.6522 9.80008C71.5401 10.2079 71.5432 10.6389 71.6611 11.0451C71.7791 11.4513 72.0073 11.8168 72.3205 12.1011C72.4849 12.2224 72.6745 12.3051 72.8752 12.3432C73.0759 12.3812 73.2826 12.3736 73.4799 12.321C73.6773 12.2683 73.8603 12.1719 74.0154 12.0389C74.1704 11.9059 74.2936 11.7397 74.3757 11.5527C75.1322 12.3407 74.7666 13.8285 73.8777 14.4905C73.4143 14.785 72.8937 14.9777 72.3503 15.056C71.8069 15.1342 71.2531 15.0962 70.7255 14.9444C72.6168 15.4865 74.1109 17.8885 72.9257 19.8176C72.3962 20.6623 71.4064 21.1856 71.0849 22.1375C70.6877 23.3164 71.501 24.5142 71.6775 25.7436C71.7694 26.5296 71.6025 27.3242 71.202 28.0069C70.8016 28.6895 70.1894 29.2229 69.4584 29.5261C68.2669 29.9611 66.9367 29.6711 65.7515 30.1566C64.4906 30.6924 63.6963 32.0478 62.6308 32.9431C57.4235 37.1291 55.2485 30.0935 50.3438 31.8272C49.6777 32.1149 49.0438 32.4721 48.4525 32.8926C48.2004 33.0565 47.9419 33.2141 47.6834 33.3654C47.4516 33.4569 47.238 33.5893 47.053 33.7563C46.8729 33.9541 46.651 34.1093 46.4035 34.2107C46.156 34.3121 45.889 34.3571 45.6219 34.3426C45.1065 34.3109 44.5987 34.2025 44.1152 34.0211C42.5454 33.5041 40.8937 32.8674 39.9418 31.4994C39.6425 31.0205 39.377 30.5212 39.1474 30.0053C38.7315 29.0068 37.9951 28.1751 37.0544 27.6412C35.9575 27.1242 34.5705 27.3133 33.6312 26.5379C32.9631 25.8604 32.5604 24.9656 32.4964 24.0162C32.4281 23.0718 32.1911 22.1473 31.7967 21.2865C31.5182 20.8096 31.1106 20.421 30.621 20.1656C30.1314 19.9102 29.5795 19.7983 29.0291 19.8428C29.4093 18.7808 30.1529 17.8875 31.1284 17.3211C31.7588 16.9491 32.4964 16.7474 33.171 16.4448C33.3938 16.3487 33.6052 16.2282 33.8014 16.0854C34.0169 15.9225 34.2098 15.7317 34.3751 15.518C34.709 15.069 34.9627 14.5657 35.1253 14.0302C35.1884 13.8348 35.2451 13.6331 35.2892 13.3998C35.5351 12.284 35.5729 11.1366 35.8503 10.0333C36.0417 9.14079 36.4412 8.30608 37.0164 7.59726C37.5915 6.88843 38.326 6.32555 39.16 5.95447C39.9229 5.67078 40.7361 5.61404 41.5115 5.39969C42.0608 5.26476 42.5691 4.99869 42.993 4.62427C43.1696 4.45406 43.3272 4.26493 43.5037 4.10102C43.6717 3.94149 43.8104 3.75372 43.9135 3.54624C44.2992 2.71595 44.8141 1.95205 45.4391 1.28301C47.1665 -0.343495 49.7764 -0.299365 51.7182 0.721927Z" fill="#263238"/>
<path d="M65.985 21.3433C65.985 20.4166 66.193 19.6412 66.1489 18.9036C65.8778 14.5663 63.5957 14.0871 61.282 13.5765C57.7642 12.8137 54.4418 11.6348 52.7019 9.1635C52.0714 12.2778 50.1045 16.0225 48.0304 16.3567C48.6293 18.9666 47.9548 20.6499 45.6726 21.211C45.3196 18.4686 42.2998 18.2416 40.459 19.5845C38.6181 20.9273 38.5677 25.5357 40.812 27.6728C43.0563 29.81 44.0524 28.7383 44.0524 28.7383L42.4385 39.569C42.4385 39.569 46.2211 46.5982 57.9533 49.0254C59.9644 45.2428 55.5766 39.9472 55.5766 39.9472L56.3142 35.9125C57.8571 36.2468 59.4621 36.1508 60.9542 35.6351C62.3222 35.156 65.4869 33.3782 66.2939 25.2457C66.4326 23.7894 65.9534 22.4592 65.985 21.3433Z" fill="#9E6767"/>
<path d="M58.4327 18.6326L59.0757 26.6201L63.1041 24.7918L58.4327 18.6326Z" fill="#874C4C"/>
<path d="M56.3146 35.8871C54.0955 35.2566 47.8165 33.8382 46.0765 29.7341C46.0215 31.1435 46.5011 32.5216 47.4193 33.5923C50.0608 36.2968 56.0057 37.5451 56.0057 37.5451L56.3146 35.8871Z" fill="#874C4C"/>
<path d="M54.82 17.0124L52.1659 18.4687C51.9774 18.1035 51.9377 17.6794 52.0553 17.2856C52.1729 16.8918 52.4385 16.5589 52.7963 16.3567C52.9716 16.2638 53.1638 16.207 53.3614 16.1898C53.5591 16.1725 53.7582 16.1951 53.9469 16.2563C54.1356 16.3174 54.3102 16.4159 54.4602 16.5457C54.6101 16.6756 54.7325 16.8343 54.82 17.0124Z" fill="#263238"/>
<path d="M64.9893 17.6048L62.2911 16.1926C62.3742 16.0121 62.4933 15.8505 62.6412 15.7178C62.789 15.585 62.9625 15.484 63.1509 15.4208C63.3392 15.3576 63.5386 15.3336 63.7366 15.3504C63.9346 15.3671 64.127 15.4241 64.3021 15.518C64.6623 15.7115 64.9344 16.0359 65.0623 16.4242C65.1902 16.8126 65.164 17.2351 64.9893 17.6048Z" fill="#263238"/>
<path d="M55.9423 21.0912C55.9186 21.3232 55.8267 21.543 55.6782 21.7227C55.5296 21.9024 55.3311 22.0341 55.1077 22.101C54.8843 22.1679 54.6461 22.167 54.4232 22.0985C54.2003 22.03 54.0027 21.897 53.8555 21.7162C53.7082 21.5354 53.6178 21.315 53.5958 21.0829C53.5738 20.8507 53.6212 20.6173 53.7318 20.412C53.8425 20.2068 54.0116 20.039 54.2176 19.9299C54.4237 19.8207 54.6575 19.7751 54.8895 19.7989C55.2004 19.8307 55.486 19.9847 55.6835 20.2271C55.8809 20.4694 55.974 20.7803 55.9423 21.0912Z" fill="#263238"/>
<path d="M64.4717 20.7378C64.448 20.9697 64.3561 21.1895 64.2076 21.3692C64.059 21.5489 63.8605 21.6806 63.6371 21.7475C63.4137 21.8144 63.1755 21.8135 62.9526 21.7451C62.7297 21.6766 62.5321 21.5435 62.3849 21.3627C62.2376 21.1819 62.1472 20.9615 62.1252 20.7294C62.1032 20.4973 62.1505 20.2638 62.2612 20.0586C62.3719 19.8533 62.541 19.6855 62.747 19.5764C62.9531 19.4672 63.1869 19.4216 63.4189 19.4454C63.7298 19.4772 64.0154 19.6312 64.2129 19.8736C64.4103 20.1159 64.5034 20.4268 64.4717 20.7378Z" fill="#263238"/>
<path d="M48.4775 25.0186C48.6414 26.0777 49.9969 26.7396 51.5036 26.5001C53.0103 26.2605 54.1009 25.2392 53.9307 24.1612C53.7605 23.0832 52.4114 22.4464 50.9047 22.686C49.3979 22.9256 48.3073 23.9658 48.4775 25.0186Z" fill="#874C4C"/>
<path d="M64.1626 23.928C64.1626 24.9934 65.4235 25.8571 66.9302 25.8193C68.4369 25.7814 69.6915 24.9493 69.6852 23.8839C69.6789 22.8184 68.4243 21.9547 66.9176 21.9611C65.4109 21.9674 64.1563 22.8626 64.1626 23.928Z" fill="#874C4C"/>
<path d="M55.3619 27.6474L59.2264 28.7318C59.1668 28.99 59.0559 29.2335 58.9002 29.4479C58.7445 29.6623 58.5472 29.8431 58.3201 29.9796C58.093 30.1161 57.8408 30.2055 57.5784 30.2424C57.316 30.2793 57.0488 30.2629 56.7929 30.1944C56.2712 30.0374 55.8307 29.6844 55.5638 29.2095C55.297 28.7345 55.2246 28.1746 55.3619 27.6474Z" fill="#874C4C"/>
<path d="M55.3878 28.7632C55.543 28.7507 55.699 28.7507 55.8543 28.7632C56.2865 28.8174 56.7003 28.9707 57.0634 29.2113C57.4265 29.4519 57.729 29.7733 57.9473 30.1502C57.5755 30.2798 57.1731 30.293 56.7936 30.188C56.457 30.0906 56.151 29.9084 55.9049 29.659C55.6587 29.4095 55.4807 29.1011 55.3878 28.7632Z" fill="#F28F8F"/>
</svg>
