<svg width="327" height="292" viewBox="0 0 327 292" fill="none" xmlns="http://www.w3.org/2000/svg">
<path d="M163.451 292C253.723 292 326.903 287.727 326.903 282.457C326.903 277.187 253.723 272.914 163.451 272.914C73.1796 272.914 0 277.187 0 282.457C0 287.727 73.1796 292 163.451 292Z" fill="#F5F5F5"/>
<path d="M45.4464 185.696C53.8967 185.696 60.7471 179.903 60.7471 172.756C60.7471 165.609 53.8967 159.816 45.4464 159.816C36.9961 159.816 30.1458 165.609 30.1458 172.756C30.1458 179.903 36.9961 185.696 45.4464 185.696Z" fill="#8873F4"/>
<path d="M44.2662 160.676C44.2662 160.676 46.6181 151.698 48.8268 152.583C51.0355 153.468 46.6182 155.668 46.5507 160.676C46.5507 160.676 51.4739 156.259 54.7111 158.906C54.7111 158.906 50.007 158.762 48.0934 161.848C48.0934 161.848 52.3591 164.495 56.1779 163.905C56.1779 163.905 53.8259 166.282 46.7699 163.997C46.7699 163.997 48.5318 170.531 44.2409 169.494C44.5807 169.203 44.8536 168.843 45.0407 168.437C45.2278 168.031 45.3247 167.589 45.3247 167.142C45.3247 166.695 45.2278 166.253 45.0407 165.847C44.8536 165.441 44.5807 165.08 44.2409 164.79C44.2409 164.79 35.2712 169.494 34.6811 163.905C35.9956 164.451 37.4374 164.617 38.8417 164.383C40.246 164.149 41.5561 163.525 42.6223 162.581C42.6223 162.581 39.8319 157.734 36.148 158.02C36.1732 158.02 39.8572 154.935 44.2662 160.676Z" fill="#263238"/>
<path opacity="0.2" d="M60.1735 168.869C60.7888 174.147 58.2092 182.206 46.2975 182.206C35.0349 182.206 31.8651 179.044 31.5364 178.682C33.9474 183.285 39.2584 185.696 45.4461 185.696C53.8762 185.696 60.7383 181.203 60.7383 172.756C60.7443 171.439 60.5539 170.129 60.1735 168.869Z" fill="black"/>
<path opacity="0.2" d="M38.7951 178.674C38.7951 178.674 30.9635 175.53 33.0626 170.438C35.1617 165.346 35.0942 175.277 38.7951 178.674Z" fill="white"/>
<path d="M45.7081 87.4684L44.3339 84.9393L39.7733 95.3168L35.5582 82.3766L33.8132 87.4346H26.2261C26.538 87.7971 26.8752 88.1512 27.2293 88.5053L39.984 101.201L52.7303 88.5053C53.0928 88.1512 53.43 87.7971 53.7335 87.4346L45.7081 87.4684Z" fill="#8873F4"/>
<path d="M32.4224 85.5546L35.5837 76.3827L40.0348 89.9805L44.1571 80.6483L46.8463 85.5884H55.15C56.3068 83.8126 56.9407 81.7472 56.9793 79.6283C56.9793 74.7641 53.7337 71.5185 48.8189 71.5185C44.233 71.5185 42.665 73.6429 39.9842 76.7115C37.295 73.6429 35.7691 71.5185 31.1494 71.5185C26.2263 71.5185 22.9807 74.7641 22.9807 79.6283C23.0182 81.7486 23.6553 83.8151 24.8184 85.5884L32.4224 85.5546Z" fill="#8873F4"/>
<g opacity="0.3">
<path d="M45.7081 87.4684L44.3339 84.9393L39.7733 95.3168L35.5582 82.3766L33.8132 87.4346H26.2261C26.538 87.7971 26.8752 88.1512 27.2293 88.5053L39.984 101.201L52.7303 88.5053C53.0928 88.1512 53.43 87.7971 53.7335 87.4346L45.7081 87.4684Z" fill="white"/>
<path d="M32.4224 85.5546L35.5837 76.3827L40.0348 89.9805L44.1571 80.6483L46.8463 85.5884H55.15C56.3068 83.8126 56.9407 81.7472 56.9793 79.6283C56.9793 74.7641 53.7337 71.5185 48.8189 71.5185C44.233 71.5185 42.665 73.6429 39.9842 76.7115C37.295 73.6429 35.7691 71.5185 31.1494 71.5185C26.2263 71.5185 22.9807 74.7641 22.9807 79.6283C23.0182 81.7486 23.6553 83.8151 24.8184 85.5884L32.4224 85.5546Z" fill="white"/>
</g>
<path d="M85.7426 21.1403L87.6393 21.8147C87.6393 21.8147 103.142 26.5187 111.96 18.0886C120.778 9.65853 123.366 -0.280565 126.586 0.00605817C129.807 0.292682 131.349 14.6744 116.681 26.6452C102.013 38.6159 88.8617 31.9815 85.5402 24.1162L84.2504 22.6999L85.7426 21.1403Z" fill="#8873F4"/>
<path opacity="0.6" d="M126.587 0.00621079C123.366 -0.246692 120.795 9.65869 111.986 18.0888C103.556 26.1395 89.0304 22.2111 87.7659 21.8486L85.5404 24.0742C88.8197 31.9816 102.013 38.6077 116.681 26.6032C131.35 14.5987 129.798 0.267544 126.587 0.00621079Z" fill="white"/>
<path d="M116.689 24.597C116.689 24.597 122.405 27.126 119.766 30.1187C117.127 33.1114 113.334 35.3959 114.042 36.6183C114.75 37.8407 128.449 30.5655 118.62 24.167L116.689 24.597Z" fill="#8873F4"/>
<path opacity="0.3" d="M116.689 24.597C116.689 24.597 122.405 27.126 119.766 30.1187C117.127 33.1114 113.334 35.3959 114.042 36.6183C114.75 37.8407 128.449 30.5655 118.62 24.167L116.689 24.597Z" fill="white"/>
<path d="M110.376 15.45C104.078 8.40244 93.4564 13.7134 93.6419 12.491C93.8273 11.2687 105.874 8.27598 111.657 14.8093C117.44 21.3426 110.502 25.4818 102.207 26.8391C93.9116 28.1963 86.6955 22.9106 86.6955 22.9106L87.6649 21.8147C87.6649 21.8147 101.153 25.9118 110.131 19.606C110.676 19.2296 111.055 18.6582 111.19 18.0101C111.324 17.3621 111.205 16.6869 110.856 16.1244C110.711 15.8889 110.551 15.6636 110.376 15.45Z" fill="#8873F4"/>
<path opacity="0.3" d="M110.376 15.45C104.078 8.40244 93.4564 13.7134 93.6419 12.491C93.8273 11.2687 105.874 8.27598 111.657 14.8093C117.44 21.3426 110.502 25.4818 102.207 26.8391C93.9116 28.1963 86.6955 22.9106 86.6955 22.9106L87.6649 21.8147C87.6649 21.8147 101.153 25.9118 110.131 19.606C110.676 19.2296 111.055 18.6582 111.19 18.0101C111.324 17.3621 111.205 16.6869 110.856 16.1244C110.711 15.8889 110.551 15.6636 110.376 15.45Z" fill="white"/>
<path d="M106.085 32.4031C96.0359 35.2187 88.002 30.0089 85.5404 24.0741L86.6953 22.9108C86.6953 22.9108 93.903 28.188 102.207 26.8392C106.683 26.1058 110.763 24.5715 112.668 22.2785C114.439 22.4134 117.769 23.1805 118.612 26.8982C119.564 31.1133 109.701 35.5728 105.562 35.3958C104.828 35.3958 101.895 34.6708 105.874 32.4621L106.085 32.4031Z" fill="#8873F4"/>
<path opacity="0.3" d="M106.084 32.4031L105.713 32.5464C101.979 34.6876 104.87 35.3621 105.562 35.3958C109.701 35.5728 119.564 31.1807 118.612 26.8982C117.769 23.1805 114.397 22.4134 112.668 22.2785C117.853 23.4335 106.084 32.4031 106.084 32.4031Z" fill="white"/>
<path d="M248.132 30.2537C251.282 30.2537 254.304 29.0022 256.531 26.7747C258.759 24.5471 260.01 21.5259 260.01 18.3757C260.01 15.2254 258.759 12.2042 256.531 9.97663C254.304 7.74907 251.282 6.49764 248.132 6.49764H244.558C241.408 6.49764 238.386 7.74907 236.159 9.97663C233.931 12.2042 232.68 15.2254 232.68 18.3757C232.68 21.5259 233.931 24.5471 236.159 26.7747C238.386 29.0022 241.408 30.2537 244.558 30.2537H248.132Z" fill="#8873F4"/>
<path opacity="0.5" d="M248.132 30.2537C251.282 30.2537 254.304 29.0022 256.531 26.7747C258.759 24.5471 260.01 21.5259 260.01 18.3757C260.01 15.2254 258.759 12.2042 256.531 9.97663C254.304 7.74907 251.282 6.49764 248.132 6.49764H244.558C241.408 6.49764 238.386 7.74907 236.159 9.97663C233.931 12.2042 232.68 15.2254 232.68 18.3757C232.68 21.5259 233.931 24.5471 236.159 26.7747C238.386 29.0022 241.408 30.2537 244.558 30.2537H248.132Z" fill="white"/>
<path d="M256.29 20.2813C257.341 13.806 252.944 7.70471 246.468 6.65362C239.993 5.60253 233.892 9.99972 232.841 16.475C231.79 22.9503 236.187 29.0517 242.662 30.1028C249.137 31.1539 255.239 26.7566 256.29 20.2813Z" fill="#8873F4"/>
<path d="M243.386 21.3766C244.182 21.3766 244.945 21.0604 245.508 20.4976C246.071 19.9348 246.387 19.1714 246.387 18.3755C246.387 17.5795 246.071 16.8162 245.508 16.2534C244.945 15.6906 244.182 15.3744 243.386 15.3744H228.026C227.23 15.3744 226.467 15.6906 225.904 16.2534C225.341 16.8162 225.025 17.5795 225.025 18.3755C225.025 19.1714 225.341 19.9348 225.904 20.4976C226.467 21.0604 227.23 21.3766 228.026 21.3766H243.386Z" fill="#263238"/>
<path d="M217.682 30.2537C220.832 30.2537 223.854 29.0022 226.081 26.7747C228.309 24.5471 229.56 21.5259 229.56 18.3757C229.56 15.2254 228.309 12.2042 226.081 9.97663C223.854 7.74907 220.832 6.49764 217.682 6.49764H214.099C210.949 6.49764 207.928 7.74907 205.7 9.97663C203.473 12.2042 202.221 15.2254 202.221 18.3757C202.221 21.5259 203.473 24.5471 205.7 26.7747C207.928 29.0022 210.949 30.2537 214.099 30.2537H217.682Z" fill="#8873F4"/>
<path opacity="0.5" d="M217.682 30.2537C220.832 30.2537 223.854 29.0022 226.081 26.7747C228.309 24.5471 229.56 21.5259 229.56 18.3757C229.56 15.2254 228.309 12.2042 226.081 9.97663C223.854 7.74907 220.832 6.49764 217.682 6.49764H214.099C210.949 6.49764 207.928 7.74907 205.7 9.97663C203.473 12.2042 202.221 15.2254 202.221 18.3757C202.221 21.5259 203.473 24.5471 205.7 26.7747C207.928 29.0022 210.949 30.2537 214.099 30.2537H217.682Z" fill="white"/>
<path d="M222.496 26.7774C227.135 22.1388 227.135 14.618 222.496 9.97936C217.857 5.3407 210.337 5.3407 205.698 9.97936C201.059 14.618 201.059 22.1388 205.698 26.7774C210.337 31.4161 217.857 31.4161 222.496 26.7774Z" fill="#8873F4"/>
<path opacity="0.3" d="M221.417 19.3872C221.507 18.7158 221.507 18.0354 221.417 17.364L220.153 16.9931C220.072 16.6296 219.959 16.2742 219.815 15.9309L220.625 14.894C220.301 14.2977 219.898 13.7477 219.428 13.2585L218.188 13.6969C217.895 13.4526 217.582 13.2327 217.253 13.0393L217.295 11.7242C216.684 11.4261 216.034 11.2161 215.364 11.1004L214.622 12.1795C214.437 12.1795 214.252 12.1795 214.066 12.1795C213.881 12.1795 213.695 12.1795 213.51 12.1795L212.768 11.1004C212.098 11.2149 211.448 11.4249 210.837 11.7242V13.0393C210.521 13.2336 210.22 13.4505 209.935 13.6885L208.696 13.2501C208.249 13.746 207.869 14.2987 207.566 14.894L208.367 15.9393C208.217 16.2809 208.101 16.6368 208.022 17.0015L206.766 17.3724C206.664 18.043 206.664 18.7251 206.766 19.3956L208.022 19.775C208.104 20.139 208.219 20.4946 208.367 20.8372L207.566 21.8741C207.886 22.4712 208.286 23.0215 208.755 23.5095L209.994 23.0712C210.275 23.3145 210.577 23.5318 210.896 23.7203V25.0438C211.507 25.3431 212.157 25.5532 212.827 25.6676L213.569 24.5802C213.746 24.5802 213.931 24.5802 214.125 24.5802C214.319 24.5802 214.496 24.5802 214.681 24.5802L215.423 25.6676C216.093 25.552 216.743 25.3419 217.354 25.0438L217.312 23.7203C217.633 23.5339 217.935 23.3165 218.214 23.0712L219.453 23.5095C219.925 23.0217 220.328 22.4714 220.65 21.8741L219.782 20.795C219.923 20.4509 220.036 20.0956 220.119 19.7328L221.417 19.3872Z" fill="white"/>
<path d="M213.771 21.3766C214.567 21.3766 215.33 21.0604 215.893 20.4976C216.456 19.9348 216.772 19.1714 216.772 18.3755C216.772 17.5795 216.456 16.8162 215.893 16.2534C215.33 15.6906 214.567 15.3744 213.771 15.3744H211.352C210.556 15.3744 209.792 15.6906 209.23 16.2534C208.667 16.8162 208.351 17.5795 208.351 18.3755C208.351 19.1714 208.667 19.9348 209.23 20.4976C209.792 21.0604 210.556 21.3766 211.352 21.3766H213.771Z" fill="#263238"/>
<path opacity="0.4" d="M214.336 18.3755C214.336 18.9698 214.16 19.5507 213.829 20.0446C213.499 20.5385 213.029 20.9231 212.48 21.1498C211.93 21.3764 211.326 21.4349 210.743 21.3177C210.161 21.2005 209.626 20.913 209.207 20.4916C208.788 20.0702 208.503 19.5339 208.39 18.9506C208.276 18.3673 208.338 17.7634 208.567 17.2153C208.797 16.6672 209.184 16.1997 209.68 15.872C210.176 15.5442 210.758 15.3711 211.352 15.3744C212.145 15.3789 212.904 15.697 213.463 16.2594C214.022 16.8217 214.336 17.5825 214.336 18.3755Z" fill="white"/>
<path d="M295.425 73.7779C299.725 74.9328 306.958 75.2447 307.91 69.5122C309.478 60.0705 293.925 64.6481 289.28 64.2772C289.046 64.257 288.814 64.3305 288.635 64.4815C288.455 64.6325 288.343 64.8486 288.323 65.0822C288.303 65.3159 288.376 65.5479 288.527 65.7274C288.678 65.9068 288.894 66.0189 289.128 66.039C293.006 66.3425 306.199 62.7344 306.233 68.6187C306.233 73.6261 299.295 73.0023 296.041 72.1256C294.953 71.8305 294.355 73.4828 295.425 73.8116V73.7779Z" fill="#263238"/>
<path d="M297.339 73.8119L297.549 71.4093L278.497 69.7233L278.295 72.1259C277.82 72.2851 277.401 72.5798 277.091 72.9737C276.781 73.3676 276.593 73.8436 276.55 74.343L273.178 113.122C273.148 113.46 273.185 113.802 273.287 114.126C273.389 114.451 273.554 114.752 273.772 115.013C273.99 115.273 274.258 115.488 274.56 115.646C274.861 115.803 275.191 115.899 275.53 115.929L292.491 117.412C293.174 117.469 293.851 117.253 294.375 116.812C294.899 116.372 295.228 115.742 295.29 115.06L298.662 76.282C298.71 75.7856 298.609 75.2864 298.374 74.8469C298.138 74.4074 297.778 74.0473 297.339 73.8119Z" fill="#8873F4"/>
<path opacity="0.2" d="M297.339 73.8119L297.549 71.4093L278.497 69.7233L278.295 72.1259C277.82 72.2851 277.401 72.5798 277.091 72.9737C276.781 73.3676 276.593 73.8436 276.55 74.343L273.178 113.122C273.148 113.46 273.185 113.802 273.287 114.126C273.389 114.451 273.554 114.752 273.772 115.013C273.99 115.273 274.258 115.488 274.56 115.646C274.861 115.803 275.191 115.899 275.53 115.929L292.491 117.412C293.174 117.469 293.851 117.253 294.375 116.812C294.899 116.372 295.228 115.742 295.29 115.06L298.662 76.282C298.71 75.7856 298.609 75.2864 298.374 74.8469C298.138 74.4074 297.778 74.0473 297.339 73.8119Z" fill="white"/>
<path d="M297.791 66.6416L279.156 65.0112C278.196 64.9272 277.35 65.6374 277.266 66.5975L277.091 68.5963C277.007 69.5563 277.717 70.4027 278.677 70.4867L297.312 72.1171C298.272 72.2011 299.119 71.4909 299.203 70.5308L299.378 68.5321C299.462 67.572 298.751 66.7256 297.791 66.6416Z" fill="#8873F4"/>
<path opacity="0.3" d="M297.791 66.6416L279.156 65.0112C278.196 64.9272 277.35 65.6374 277.266 66.5975L277.091 68.5963C277.007 69.5563 277.717 70.4027 278.677 70.4867L297.312 72.1171C298.272 72.2011 299.119 71.4909 299.203 70.5308L299.378 68.5321C299.462 67.572 298.751 66.7256 297.791 66.6416Z" fill="black"/>
<path opacity="0.9" d="M289.878 81.3904C286.093 80.3272 282.084 80.3652 278.32 81.5L275.538 113.349C275.534 113.379 275.537 113.41 275.546 113.44C275.555 113.469 275.57 113.497 275.589 113.52C275.609 113.544 275.633 113.563 275.661 113.577C275.688 113.591 275.718 113.6 275.749 113.602L292.71 115.086C292.771 115.09 292.832 115.071 292.879 115.031C292.927 114.992 292.957 114.936 292.963 114.875L295.846 81.9974C293.836 82.1865 291.808 81.9803 289.878 81.3904Z" fill="white"/>
<path d="M289.751 89.4415C289.659 90.4963 289.256 91.4999 288.593 92.3256C287.93 93.1512 287.037 93.7617 286.027 94.0799C285.017 94.3981 283.936 94.4096 282.919 94.1131C281.903 93.8166 280.997 93.2253 280.317 92.4141C279.636 91.6028 279.212 90.608 279.097 89.5555C278.982 88.5029 279.182 87.4399 279.671 86.5009C280.16 85.5619 280.917 84.7891 281.845 84.2801C282.774 83.7712 283.832 83.549 284.887 83.6416C286.3 83.768 287.606 84.4494 288.517 85.5366C289.429 86.6237 289.873 88.0279 289.751 89.4415Z" fill="#8873F4"/>
<path opacity="0.4" d="M289.751 89.4415C289.659 90.4963 289.256 91.4999 288.593 92.3256C287.93 93.1512 287.037 93.7617 286.027 94.0799C285.017 94.3981 283.936 94.4096 282.919 94.1131C281.903 93.8166 280.997 93.2253 280.317 92.4141C279.636 91.6028 279.212 90.608 279.097 89.5555C278.982 88.5029 279.182 87.4399 279.671 86.5009C280.16 85.5619 280.917 84.7891 281.845 84.2801C282.774 83.7712 283.832 83.549 284.887 83.6416C286.3 83.768 287.606 84.4494 288.517 85.5366C289.429 86.6237 289.873 88.0279 289.751 89.4415Z" fill="white"/>
<g opacity="0.9">
<path d="M283.851 84.906C283.394 84.9652 282.952 85.1051 282.544 85.3191C282.481 85.3535 282.425 85.4016 282.383 85.4599C282.34 85.5182 282.311 85.5852 282.297 85.6561C282.283 85.7271 282.286 85.8002 282.304 85.8702C282.321 85.9401 282.355 86.0053 282.401 86.0609L284.163 88.1516L284.399 85.4287C284.404 85.3564 284.394 85.2838 284.368 85.2161C284.342 85.1485 284.301 85.0874 284.249 85.0374C284.196 84.9874 284.133 84.9496 284.065 84.9269C283.996 84.9042 283.923 84.897 283.851 84.906Z" fill="white"/>
<path d="M283.64 88.5735L281.886 86.4829C281.841 86.4266 281.784 86.3812 281.719 86.35C281.654 86.3188 281.583 86.3026 281.511 86.3026C281.439 86.3026 281.368 86.3188 281.303 86.35C281.238 86.3812 281.181 86.4266 281.136 86.4829C280.856 86.8509 280.642 87.2644 280.504 87.7052C280.482 87.7743 280.476 87.8473 280.486 87.919C280.497 87.9906 280.523 88.059 280.564 88.119C280.604 88.1789 280.658 88.229 280.72 88.2654C280.783 88.3018 280.853 88.3235 280.925 88.3291L283.64 88.5735Z" fill="white"/>
<path d="M283.589 89.2394L280.866 88.9949C280.794 88.9893 280.721 88.9999 280.654 89.0259C280.586 89.0518 280.525 89.0925 280.475 89.1449C280.425 89.1974 280.387 89.2603 280.364 89.3291C280.342 89.3979 280.334 89.4709 280.343 89.5428C280.403 89.9994 280.542 90.4419 280.756 90.8495C280.79 90.9128 280.837 90.9678 280.895 91.0105C280.952 91.0532 281.019 91.0825 281.089 91.0962C281.159 91.11 281.232 91.1078 281.301 91.0899C281.37 91.072 281.435 91.0389 281.49 90.9928L283.589 89.2394Z" fill="white"/>
<path d="M285.047 85.488L284.811 88.2109L286.902 86.449C286.958 86.404 287.004 86.3469 287.035 86.282C287.066 86.2171 287.082 86.1459 287.082 86.0739C287.082 86.0018 287.066 85.9307 287.035 85.8658C287.004 85.8009 286.958 85.7438 286.902 85.6988C286.534 85.4192 286.121 85.2053 285.68 85.0665C285.61 85.0431 285.536 85.036 285.464 85.0457C285.391 85.0553 285.321 85.0815 285.26 85.1222C285.199 85.1629 285.148 85.217 285.111 85.2804C285.075 85.3438 285.053 85.4148 285.047 85.488Z" fill="white"/>
<path d="M285.182 89.3741L286.935 91.4647C286.98 91.521 287.037 91.5664 287.102 91.5976C287.167 91.6288 287.238 91.645 287.31 91.645C287.382 91.645 287.454 91.6288 287.519 91.5976C287.583 91.5664 287.641 91.521 287.686 91.4647C287.963 91.0988 288.177 90.6883 288.318 90.2508C288.339 90.1813 288.345 90.1078 288.335 90.0357C288.325 89.9636 288.298 89.8948 288.258 89.8342C288.217 89.7736 288.164 89.7228 288.101 89.6855C288.039 89.6482 287.969 89.6253 287.896 89.6185L285.182 89.3741Z" fill="white"/>
<path d="M285.233 88.7168L287.956 88.9528C288.027 88.9597 288.1 88.9504 288.168 88.9255C288.235 88.9005 288.297 88.8607 288.347 88.8089C288.397 88.757 288.435 88.6945 288.458 88.6261C288.48 88.5576 288.487 88.4849 288.478 88.4133C288.419 87.954 288.279 87.5088 288.065 87.0982C288.032 87.0349 287.984 86.9799 287.927 86.9372C287.869 86.8945 287.803 86.8652 287.733 86.8515C287.662 86.8377 287.59 86.8399 287.52 86.8578C287.451 86.8757 287.387 86.9088 287.332 86.9549L285.233 88.7168Z" fill="white"/>
<path d="M284.011 89.7449L281.92 91.4984C281.864 91.5434 281.819 91.6005 281.787 91.6654C281.756 91.7304 281.74 91.8015 281.74 91.8735C281.74 91.9456 281.756 92.0167 281.787 92.0816C281.819 92.1466 281.864 92.2037 281.92 92.2487C282.288 92.5282 282.702 92.7421 283.143 92.8809C283.212 92.9027 283.285 92.9087 283.356 92.8983C283.428 92.8879 283.496 92.8614 283.556 92.8209C283.616 92.7804 283.666 92.7268 283.703 92.6642C283.739 92.6016 283.761 92.5316 283.766 92.4594L284.011 89.7449Z" fill="white"/>
<path d="M284.693 89.8036L284.457 92.5181C284.45 92.5907 284.459 92.664 284.485 92.7324C284.51 92.8009 284.551 92.8626 284.604 92.913C284.656 92.9634 284.72 93.0011 284.79 93.0232C284.859 93.0453 284.933 93.0513 285.005 93.0407C285.462 92.9815 285.904 92.8417 286.312 92.6277C286.375 92.5941 286.43 92.5469 286.473 92.4893C286.515 92.4318 286.545 92.3655 286.558 92.2952C286.572 92.2248 286.57 92.1524 286.552 92.083C286.534 92.0136 286.501 91.9491 286.455 91.8942L284.693 89.8036Z" fill="white"/>
</g>
<path d="M292.676 107.079C293.409 104.215 291.682 101.299 288.819 100.565C285.955 99.8313 283.038 101.558 282.304 104.422C281.571 107.286 283.297 110.203 286.161 110.936C289.025 111.67 291.942 109.943 292.676 107.079Z" fill="#8873F4"/>
<path opacity="0.4" d="M292.676 107.079C293.409 104.215 291.682 101.299 288.819 100.565C285.955 99.8313 283.038 101.558 282.304 104.422C281.571 107.286 283.297 110.203 286.161 110.936C289.025 111.67 291.942 109.943 292.676 107.079Z" fill="white"/>
<g opacity="0.9">
<path d="M286.945 101.724C286.49 101.791 286.049 101.93 285.638 102.137C285.573 102.17 285.517 102.218 285.473 102.276C285.43 102.334 285.4 102.402 285.386 102.473C285.372 102.545 285.375 102.618 285.394 102.689C285.412 102.759 285.447 102.824 285.495 102.879L287.248 104.97L287.484 102.255C287.492 102.183 287.484 102.109 287.46 102.04C287.435 101.972 287.396 101.909 287.344 101.858C287.292 101.807 287.229 101.768 287.16 101.745C287.09 101.722 287.017 101.715 286.945 101.724Z" fill="white"/>
<path d="M286.742 105.375L284.989 103.284C284.943 103.228 284.885 103.182 284.819 103.151C284.754 103.12 284.682 103.104 284.609 103.104C284.537 103.104 284.465 103.12 284.399 103.151C284.334 103.182 284.276 103.228 284.23 103.284C283.954 103.651 283.74 104.061 283.598 104.498C283.578 104.568 283.573 104.641 283.584 104.712C283.595 104.784 283.622 104.852 283.662 104.912C283.702 104.972 283.755 105.023 283.816 105.061C283.878 105.098 283.947 105.122 284.019 105.13L286.742 105.375Z" fill="white"/>
<path d="M286.683 106.032L283.96 105.796C283.888 105.789 283.816 105.798 283.748 105.823C283.68 105.848 283.619 105.888 283.569 105.94C283.519 105.992 283.481 106.054 283.458 106.123C283.435 106.191 283.428 106.264 283.437 106.335C283.505 106.785 283.644 107.22 283.851 107.625C283.884 107.69 283.931 107.746 283.99 107.79C284.048 107.833 284.115 107.863 284.187 107.877C284.258 107.891 284.332 107.888 284.402 107.869C284.472 107.851 284.537 107.816 284.592 107.768L286.683 106.032Z" fill="white"/>
<path d="M288.15 102.281L287.905 105.004L290.004 103.25C290.061 103.205 290.106 103.148 290.137 103.083C290.169 103.018 290.185 102.947 290.185 102.875C290.185 102.803 290.169 102.732 290.137 102.667C290.106 102.602 290.061 102.545 290.004 102.5C289.64 102.218 289.229 102.001 288.791 101.859C288.721 101.834 288.646 101.826 288.572 101.835C288.498 101.844 288.427 101.87 288.365 101.91C288.303 101.951 288.251 102.006 288.214 102.07C288.177 102.135 288.155 102.207 288.15 102.281Z" fill="white"/>
<path d="M288.277 106.175L290.03 108.266C290.076 108.322 290.134 108.368 290.199 108.399C290.265 108.43 290.337 108.446 290.41 108.446C290.482 108.446 290.554 108.43 290.62 108.399C290.685 108.368 290.743 108.322 290.789 108.266C291.067 107.9 291.281 107.489 291.421 107.052C291.443 106.983 291.449 106.91 291.438 106.838C291.428 106.767 291.402 106.698 291.361 106.638C291.321 106.578 291.267 106.528 291.204 106.492C291.142 106.455 291.072 106.434 291 106.428L288.277 106.175Z" fill="white"/>
<path d="M288.335 105.51L291.058 105.754C291.131 105.76 291.203 105.749 291.271 105.723C291.338 105.697 291.4 105.657 291.45 105.604C291.5 105.552 291.537 105.489 291.56 105.42C291.583 105.351 291.59 105.278 291.581 105.206C291.514 104.751 291.375 104.31 291.168 103.9C291.133 103.836 291.085 103.781 291.027 103.738C290.969 103.696 290.902 103.666 290.831 103.653C290.76 103.639 290.687 103.641 290.617 103.659C290.547 103.677 290.482 103.71 290.426 103.756L288.335 105.51Z" fill="white"/>
<path d="M287.113 106.538L285.014 108.3C284.958 108.345 284.913 108.402 284.881 108.467C284.85 108.532 284.834 108.603 284.834 108.675C284.834 108.747 284.85 108.818 284.881 108.883C284.913 108.948 284.958 109.005 285.014 109.05C285.381 109.326 285.791 109.54 286.228 109.682C286.297 109.704 286.37 109.71 286.442 109.7C286.513 109.689 286.582 109.663 286.642 109.622C286.702 109.582 286.752 109.528 286.788 109.465C286.825 109.403 286.846 109.333 286.852 109.261L287.113 106.538Z" fill="white"/>
<path d="M287.77 106.597L287.534 109.32C287.527 109.392 287.537 109.464 287.562 109.532C287.587 109.6 287.626 109.661 287.678 109.711C287.73 109.761 287.793 109.799 287.861 109.822C287.93 109.845 288.002 109.852 288.074 109.842C288.53 109.779 288.971 109.64 289.38 109.429C289.445 109.396 289.501 109.349 289.545 109.29C289.589 109.232 289.619 109.165 289.632 109.093C289.646 109.022 289.644 108.948 289.625 108.878C289.606 108.808 289.571 108.743 289.524 108.688L287.77 106.597Z" fill="white"/>
</g>
<path d="M296.302 160.381L296.597 157.051C296.622 156.76 296.59 156.467 296.502 156.189C296.414 155.911 296.272 155.653 296.084 155.43C295.896 155.206 295.666 155.022 295.407 154.888C295.147 154.754 294.864 154.673 294.573 154.648L283.85 153.704C283.559 153.679 283.266 153.711 282.987 153.799C282.708 153.887 282.45 154.029 282.226 154.216C282.002 154.404 281.817 154.634 281.682 154.894C281.547 155.153 281.465 155.436 281.439 155.727L281.153 159.049C281.074 160.122 280.755 161.164 280.219 162.098C279.684 163.032 278.946 163.834 278.059 164.444C276.959 165.167 276.037 166.129 275.362 167.259C274.688 168.39 274.278 169.658 274.164 170.969L272.824 186.025C272.709 187.335 272.892 188.654 273.359 189.883C273.826 191.113 274.565 192.22 275.521 193.123C276.291 193.877 276.881 194.794 277.247 195.807C277.614 196.82 277.747 197.902 277.637 198.974L277.342 202.304C277.317 202.594 277.349 202.887 277.437 203.166C277.525 203.444 277.667 203.702 277.855 203.925C278.043 204.148 278.273 204.332 278.532 204.466C278.792 204.6 279.075 204.682 279.366 204.706L290.114 205.651C290.405 205.676 290.698 205.644 290.977 205.556C291.256 205.468 291.515 205.326 291.738 205.138C291.962 204.95 292.147 204.72 292.282 204.461C292.417 204.202 292.5 203.918 292.525 203.627L292.812 200.306C292.891 199.232 293.21 198.19 293.745 197.256C294.281 196.323 295.019 195.521 295.905 194.911C297.006 194.189 297.929 193.227 298.604 192.096C299.278 190.966 299.687 189.697 299.8 188.386L301.115 173.355C301.23 172.045 301.047 170.726 300.58 169.497C300.113 168.267 299.374 167.16 298.418 166.257C297.644 165.5 297.052 164.579 296.686 163.561C296.319 162.544 296.188 161.456 296.302 160.381Z" fill="#8873F4"/>
<path opacity="0.4" d="M296.302 160.381L296.597 157.051C296.622 156.76 296.59 156.467 296.502 156.189C296.414 155.911 296.272 155.653 296.084 155.43C295.896 155.206 295.666 155.022 295.407 154.888C295.147 154.754 294.864 154.673 294.573 154.648L283.85 153.704C283.559 153.679 283.266 153.711 282.987 153.799C282.708 153.887 282.45 154.029 282.226 154.216C282.002 154.404 281.817 154.634 281.682 154.894C281.547 155.153 281.465 155.436 281.439 155.727L281.153 159.049C281.074 160.122 280.755 161.164 280.219 162.098C279.684 163.032 278.946 163.834 278.059 164.444C276.959 165.167 276.037 166.129 275.362 167.259C274.688 168.39 274.278 169.658 274.164 170.969L272.824 186.025C272.709 187.335 272.892 188.654 273.359 189.883C273.826 191.113 274.565 192.22 275.521 193.123C276.291 193.877 276.881 194.794 277.247 195.807C277.614 196.82 277.747 197.902 277.637 198.974L277.342 202.304C277.317 202.594 277.349 202.887 277.437 203.166C277.525 203.444 277.667 203.702 277.855 203.925C278.043 204.148 278.273 204.332 278.532 204.466C278.792 204.6 279.075 204.682 279.366 204.706L290.114 205.651C290.405 205.676 290.698 205.644 290.977 205.556C291.256 205.468 291.515 205.326 291.738 205.138C291.962 204.95 292.147 204.72 292.282 204.461C292.417 204.202 292.5 203.918 292.525 203.627L292.812 200.306C292.891 199.232 293.21 198.19 293.745 197.256C294.281 196.323 295.019 195.521 295.905 194.911C297.006 194.189 297.929 193.227 298.604 192.096C299.278 190.966 299.687 189.697 299.8 188.386L301.115 173.355C301.23 172.045 301.047 170.726 300.58 169.497C300.113 168.267 299.374 167.16 298.418 166.257C297.644 165.5 297.052 164.579 296.686 163.561C296.319 162.544 296.188 161.456 296.302 160.381Z" fill="white"/>
<path d="M292.461 167.729L283.643 166.958C280.776 166.707 278.249 168.827 277.999 171.694L276.75 185.962C276.499 188.828 278.62 191.355 281.486 191.606L290.304 192.378C293.17 192.628 295.697 190.508 295.948 187.642L297.196 173.373C297.447 170.507 295.327 167.98 292.461 167.729Z" fill="#263238"/>
<path d="M303.624 175.656L302.351 175.541C302.002 175.51 301.693 175.767 301.662 176.116L301.31 180.028C301.278 180.377 301.536 180.686 301.885 180.717L303.158 180.832C303.507 180.863 303.816 180.606 303.847 180.256L304.199 176.345C304.231 175.996 303.973 175.687 303.624 175.656Z" fill="#8873F4"/>
<path d="M280.563 175.909C280.563 175.909 279.358 172.748 280.858 172.453C282.359 172.158 282.232 175.462 282.232 175.462L280.563 175.909Z" fill="white"/>
<path d="M280.883 176.356L282.359 176.145C282.359 176.145 282.697 177.267 281.802 177.376C280.908 177.486 280.883 176.356 280.883 176.356Z" fill="white"/>
<path d="M285.301 175.437C285.301 175.437 287.037 172.529 285.604 171.981C284.171 171.433 283.733 174.704 283.733 174.704L285.301 175.437Z" fill="white"/>
<path d="M285.006 175.85L283.589 175.378C283.589 175.378 282.957 176.415 283.825 176.676C284.694 176.937 285.006 175.85 285.006 175.85Z" fill="white"/>
<path d="M281.65 186.531C280.614 186.438 278.447 186.143 279.771 182.897C279.771 182.897 280.023 184.153 280.614 184.221C280.614 184.221 279.543 181.481 282.561 179.677C282.561 179.677 282.005 181.599 283.058 182.552C283.623 183.057 283.202 184.052 283.202 184.052C283.603 183.413 283.792 182.664 283.741 181.911C283.741 181.911 285.95 186.91 281.65 186.531Z" fill="white"/>
<path d="M293.705 176.752L287.644 176.221C287.523 176.215 287.404 176.184 287.295 176.131C287.186 176.077 287.089 176.002 287.011 175.91C286.932 175.817 286.872 175.71 286.836 175.594C286.8 175.478 286.788 175.356 286.801 175.235C286.81 175.115 286.842 174.997 286.896 174.889C286.951 174.781 287.026 174.685 287.118 174.607C287.21 174.529 287.316 174.469 287.431 174.432C287.546 174.395 287.667 174.382 287.788 174.392L293.849 174.923C293.97 174.929 294.089 174.96 294.198 175.014C294.307 175.067 294.404 175.143 294.482 175.235C294.561 175.327 294.621 175.435 294.657 175.551C294.693 175.667 294.704 175.789 294.692 175.909C294.683 176.03 294.651 176.147 294.597 176.255C294.542 176.363 294.467 176.459 294.375 176.537C294.283 176.616 294.177 176.675 294.062 176.712C293.947 176.749 293.826 176.763 293.705 176.752Z" fill="white"/>
<path d="M290.594 185.671L286.868 185.342C286.747 185.336 286.628 185.305 286.519 185.252C286.41 185.198 286.313 185.123 286.235 185.031C286.156 184.938 286.096 184.831 286.06 184.715C286.024 184.599 286.012 184.477 286.025 184.356C286.034 184.236 286.066 184.118 286.12 184.01C286.175 183.902 286.25 183.807 286.342 183.728C286.434 183.65 286.54 183.59 286.655 183.553C286.77 183.516 286.891 183.503 287.012 183.513L290.738 183.842C290.858 183.85 290.976 183.883 291.084 183.937C291.191 183.991 291.287 184.067 291.366 184.159C291.444 184.25 291.504 184.357 291.54 184.472C291.577 184.587 291.591 184.708 291.581 184.828C291.561 185.071 291.447 185.295 291.262 185.454C291.077 185.612 290.837 185.69 290.594 185.671Z" fill="white"/>
<path d="M223.997 125.539C223.997 125.539 231.07 136.717 236.777 138.985C242.484 141.252 255.804 131.743 255.804 131.743L261.081 130.276C261.415 130.149 261.712 129.941 261.944 129.67C262.177 129.399 262.338 129.074 262.413 128.725L263.172 125.26C263.227 125.008 263.228 124.748 263.176 124.495C263.123 124.242 263.019 124.003 262.868 123.794L262.261 122.951C262.105 122.729 261.901 122.545 261.665 122.411C261.429 122.277 261.167 122.197 260.897 122.176C260.626 122.155 260.354 122.194 260.101 122.29C259.847 122.386 259.618 122.537 259.429 122.731L254.582 127.722C254.582 127.722 242.105 133.623 239.593 131.043C237.081 128.464 237.106 128.472 231.829 121.374L223.997 125.539Z" fill="#FFB573"/>
<path d="M219.563 108.308C217.177 109.732 214.108 116.611 224.224 128.177L233.042 121.433C233.042 121.433 227.015 103.831 219.563 108.308Z" fill="#8873F4"/>
<path opacity="0.1" d="M230.455 123.423C228.508 115.701 225.768 112.759 225.768 112.759L223.998 115.212L220.803 119.714L221.646 124.907C222.396 125.952 223.256 127.039 224.242 128.169L230.455 123.423Z" fill="black"/>
<path d="M193.488 201.62C193.079 205.196 192.328 208.725 191.246 212.158C181.206 216.28 156.733 251.636 156.733 251.636L160.704 255.404C160.704 255.404 193.901 229.718 202.618 218.902C205.147 215.741 206.926 208.946 208.772 204.647C203.495 205.078 198.202 204.03 193.488 201.62Z" fill="#FFB573"/>
<path d="M161.614 254.351L157.045 250.136C156.95 250.045 156.827 249.991 156.696 249.982C156.565 249.973 156.435 250.009 156.329 250.085L151.431 253.457C151.326 253.527 151.236 253.618 151.167 253.723C151.097 253.828 151.05 253.946 151.026 254.07C151.003 254.194 151.004 254.321 151.03 254.445C151.056 254.568 151.106 254.685 151.178 254.789C151.216 254.845 151.261 254.896 151.313 254.941C153.235 256.627 155.022 258.111 157.382 260.294C160.173 262.865 159.153 262.545 162.39 265.613C164.346 267.459 166.774 265.546 166.04 264.661C162.668 260.648 162.668 258.456 162.407 255.725C162.313 255.188 162.032 254.701 161.614 254.351Z" fill="#263238"/>
<path opacity="0.1" d="M193.488 201.62C193.367 203.014 193.164 204.399 192.881 205.768C197.451 207.721 202.411 208.586 207.372 208.297C207.844 206.982 208.3 205.768 208.772 204.647C203.495 205.078 198.202 204.03 193.488 201.62Z" fill="black"/>
<path d="M194.306 175.133C194.441 183.488 192.949 194.952 192.384 202.042C195.233 203.442 202.213 206.401 209.421 205.81C212.969 197.646 215.924 189.236 218.264 180.647C221.392 169.317 220.793 153.156 220.793 153.156L192.299 151.377C191.161 168.76 194.306 175.133 194.306 175.133Z" fill="#263238"/>
<path opacity="0.5" d="M220.769 153.147L192.275 151.368C191.162 168.751 194.307 175.124 194.307 175.124C194.349 177.982 194.205 181.203 193.969 184.482C195.706 189.051 199.205 198.139 202.45 205.397C204.747 205.831 207.09 205.967 209.422 205.802C212.97 197.637 215.925 189.227 218.265 180.638C221.393 169.316 220.769 153.147 220.769 153.147Z" fill="black"/>
<path d="M224.882 214.063C224.393 210.59 220.903 197.979 220.903 197.979C213.923 201.705 209.101 202.902 206.454 203.239C207.718 206.206 210.205 212.251 211.369 214.856C211.369 214.856 210.281 227.24 225.118 275.73L231.078 274.785C231.078 274.785 227.006 229.145 224.882 214.063Z" fill="#FFB573"/>
<path d="M230.522 273.546L224.469 274.87C224.34 274.895 224.225 274.965 224.142 275.066C224.058 275.168 224.013 275.295 224.014 275.426V281.395C224.012 281.52 224.034 281.645 224.081 281.762C224.127 281.879 224.196 281.986 224.284 282.076C224.372 282.166 224.476 282.238 224.592 282.287C224.708 282.337 224.832 282.363 224.958 282.364H225.16C227.689 281.774 229.89 281.15 233.034 280.484C236.743 279.683 235.9 280.332 240.267 279.456C242.906 278.924 242.737 275.831 241.599 275.923C236.364 276.379 234.552 275.139 232.2 273.74C231.684 273.468 231.086 273.399 230.522 273.546Z" fill="#263238"/>
<path opacity="0.1" d="M220.903 197.979C213.923 201.705 209.101 202.902 206.454 203.239C206.799 204.082 207.246 205.111 207.727 206.265C212.699 205.369 217.43 203.449 221.62 200.626C221.198 199.032 220.903 197.979 220.903 197.979Z" fill="black"/>
<path d="M221.772 198.897C221.772 198.897 216.006 176.861 216.149 169.392C216.233 164.983 219.614 152.085 219.614 152.085L193.067 148.932C193.067 148.932 185.185 163.575 193.067 175.352C193.067 175.352 199.609 190.889 205.713 204.461C211.353 203.571 216.79 201.687 221.772 198.897Z" fill="#263238"/>
<path d="M207.322 88.101C207.415 91.0768 206.757 94.8451 204.186 96.6323C202.955 97.4753 201.455 97.9389 200.443 99.0938C199.431 100.249 198.993 101.732 198.395 103.039C198.192 103.477 198.85 103.882 199.061 103.427C199.904 101.614 200.46 99.7935 202.18 98.647C203.706 97.6354 205.223 97.1718 206.294 95.5785C207.63 93.3231 208.256 90.7173 208.089 88.101C208.089 87.612 207.305 87.612 207.322 88.101Z" fill="#1A2E35"/>
<path d="M207.718 84.2816C207.718 84.2816 208.393 78.0939 199.457 81.4913C190.9 84.7453 194.154 89.4999 186.095 93.8582C178.036 98.2166 190.69 101.504 187.781 105.34C184.873 109.176 194.643 109.555 197.324 102.659C200.005 95.7634 203.731 97.8541 206.235 94.423C207.71 92.3914 208.351 88.1005 208.351 88.1005L207.718 84.2816Z" fill="#1A2E35"/>
<path d="M212.692 93.8586C212.692 93.8586 212.051 96.4719 209.581 95.5446C207.111 94.6173 211.511 95.2749 212.692 93.8586Z" fill="#1A2E35"/>
<path d="M210.332 88.8512C209.862 88.7444 209.378 88.7131 208.898 88.7585C208.746 88.8405 208.609 88.949 208.494 89.0788C208.423 89.1541 208.333 89.2098 208.235 89.2408C208.136 89.2718 208.031 89.2769 207.929 89.2558C207.828 89.2347 207.734 89.188 207.655 89.1201C207.577 89.0522 207.517 88.9655 207.482 88.8681C207.15 87.9813 207.011 87.034 207.073 86.0892C207.136 85.1444 207.399 84.2238 207.845 83.3885C207.845 83.3885 208.308 84.2315 208.595 84.2905C209.025 84.3917 210.188 83.574 210.188 83.574L210.332 88.8512Z" fill="#8873F4"/>
<path d="M190.825 149.843C190.825 149.843 212.043 153.215 222.724 153.468C222.503 148.442 223.008 143.411 224.225 138.529C226.206 131.49 231.812 125.547 224.992 110.997C221.283 103.039 199.82 101.943 196.557 109.37C193.177 117.058 202.222 121.399 190.825 149.843Z" fill="#8873F4"/>
<path d="M219.984 102.154L214.244 95.5365C214.32 97.2444 213.976 98.945 213.241 100.489C212.506 102.032 211.403 103.371 210.028 104.388C210.028 104.388 210.61 108.544 219.487 116.072C225.009 112.051 221.089 107.153 221.089 107.153C221.089 107.153 217.86 105.096 219.984 102.154Z" fill="#FFB573"/>
<path opacity="0.1" d="M219.529 105.341C219.298 104.82 219.218 104.246 219.299 103.682C219.379 103.119 219.617 102.589 219.984 102.154L214.243 95.5365C214.28 96.3468 214.223 97.1586 214.074 97.956C214.44 99.4903 215.112 100.935 216.049 102.204C216.986 103.473 218.17 104.54 219.529 105.341Z" fill="black"/>
<path d="M212.499 85.9933C212.077 92.4929 211.765 95.2665 214.606 98.9504C218.872 104.548 226.948 103.638 229.308 97.3993C231.424 91.7848 231.761 82.0649 225.759 78.735C224.442 77.9895 222.956 77.5927 221.442 77.582C219.928 77.5713 218.437 77.9472 217.109 78.674C215.781 79.4008 214.661 80.4545 213.854 81.7354C213.047 83.0162 212.581 84.4818 212.499 85.9933Z" fill="#FFB573"/>
<path d="M222.564 88.9775C222.505 89.5086 222.733 89.9723 223.07 90.0144C223.407 90.0566 223.744 89.6604 223.82 89.1714C223.896 88.6825 223.652 88.1851 223.314 88.143C222.977 88.1008 222.657 88.4886 222.564 88.9775Z" fill="#263238"/>
<path d="M228.498 89.7444C228.431 90.2755 228.659 90.7308 228.996 90.7813C229.333 90.8319 229.67 90.4273 229.746 89.9383C229.822 89.4494 229.577 88.952 229.24 88.9099C228.903 88.8677 228.566 89.2218 228.498 89.7444Z" fill="#263238"/>
<path d="M229.055 88.8847L230.363 88.6822C230.363 88.6822 229.62 89.5848 229.055 88.8847Z" fill="#263238"/>
<path d="M226.526 90.4612C226.845 91.7195 227.336 92.9279 227.984 94.0525C227.69 94.2061 227.367 94.2961 227.036 94.3164C226.704 94.3367 226.373 94.287 226.062 94.1705L226.526 90.4612Z" fill="#ED893E"/>
<path d="M222.96 95.823C223.211 95.8974 223.468 95.951 223.727 95.9832C223.767 95.9864 223.806 95.9755 223.839 95.9524C223.871 95.9292 223.894 95.8953 223.904 95.8568C223.907 95.8156 223.893 95.7751 223.866 95.7437C223.84 95.7123 223.802 95.6924 223.761 95.6882C223.108 95.6169 222.48 95.3937 221.928 95.0366C221.376 94.6794 220.915 94.1981 220.583 93.6312C220.561 93.5993 220.529 93.5762 220.492 93.5659C220.456 93.5556 220.416 93.559 220.381 93.5753C220.347 93.5916 220.319 93.6199 220.303 93.6549C220.288 93.6899 220.285 93.7294 220.296 93.7661C220.581 94.269 220.963 94.71 221.421 95.0632C221.878 95.4164 222.401 95.6748 222.96 95.823Z" fill="#263238"/>
<path d="M220.33 87.4856C220.392 87.5061 220.46 87.5057 220.522 87.4844C220.585 87.4631 220.638 87.4221 220.675 87.3676C221.011 86.9872 221.422 86.68 221.882 86.4654C222.341 86.2507 222.841 86.1331 223.348 86.1199C223.393 86.1274 223.438 86.125 223.482 86.1129C223.526 86.1009 223.566 86.0795 223.601 86.0502C223.635 86.0209 223.663 85.9844 223.682 85.9433C223.701 85.9023 223.711 85.8575 223.711 85.8122C223.711 85.7669 223.701 85.7222 223.682 85.6811C223.663 85.64 223.635 85.6036 223.601 85.5743C223.566 85.545 223.526 85.5236 223.482 85.5115C223.438 85.4995 223.393 85.4971 223.348 85.5045C222.74 85.5133 222.141 85.6535 221.593 85.9154C221.044 86.1773 220.559 86.5548 220.17 87.0219C220.147 87.0551 220.132 87.0924 220.124 87.1316C220.116 87.1707 220.117 87.211 220.124 87.2502C220.132 87.2894 220.148 87.3266 220.17 87.3598C220.192 87.3929 220.221 87.4214 220.254 87.4435C220.273 87.4666 220.3 87.4817 220.33 87.4856Z" fill="#263238"/>
<path d="M230.623 87.2321C230.689 87.2539 230.761 87.2527 230.827 87.2289C230.892 87.205 230.948 87.1599 230.985 87.1006C231.022 87.0414 231.038 86.9715 231.03 86.9021C231.023 86.8327 230.992 86.7678 230.943 86.7179C230.612 86.343 230.193 86.0554 229.724 85.8804C229.255 85.7055 228.75 85.6486 228.254 85.7147C228.176 85.7272 228.107 85.7694 228.06 85.8323C228.012 85.8952 227.991 85.9739 228.001 86.0519C228.007 86.092 228.021 86.1305 228.043 86.1651C228.064 86.1996 228.092 86.2296 228.125 86.2531C228.158 86.2767 228.195 86.2934 228.235 86.3023C228.274 86.3112 228.315 86.312 228.355 86.3048C228.747 86.2728 229.14 86.3322 229.504 86.4786C229.869 86.6249 230.194 86.854 230.454 87.1478C230.501 87.1914 230.56 87.2206 230.623 87.2321Z" fill="#263238"/>
<path d="M223.154 88.1683L224.453 87.9659C224.453 87.9659 223.694 88.8347 223.154 88.1683Z" fill="#263238"/>
<path d="M214.074 90.7646C215.407 89.3239 216.174 87.4494 216.232 85.4874C216.317 82.2165 221.451 78.6927 228.035 80.5642C228.035 80.5642 229.923 74.6631 225.253 77.1332C225.253 77.1332 217.8 72.0751 211.402 79.5695C206.951 84.8045 209.362 90.4696 211.242 93.437C211.368 93.6388 211.551 93.7992 211.768 93.8985C211.985 93.9977 212.225 94.0315 212.461 93.9957C212.697 93.9599 212.917 93.856 213.094 93.6968C213.271 93.5376 213.398 93.3301 213.459 93.0998L214.074 90.7646Z" fill="#263238"/>
<path d="M210.121 90.765C210.247 91.3626 210.49 91.9294 210.835 92.4328C211.181 92.9363 211.623 93.3664 212.135 93.6986C213.518 94.5417 214.665 93.4542 214.707 91.8946C214.707 90.4868 213.999 88.3371 212.422 88.0673C212.071 88.0151 211.713 88.053 211.381 88.1773C211.049 88.3017 210.754 88.5085 210.524 88.7783C210.294 89.0481 210.136 89.372 210.065 89.7195C209.995 90.0671 210.014 90.4268 210.121 90.765Z" fill="#FFB573"/>
<path d="M227.445 80.4293C227.445 80.4293 229.923 79.3671 230.648 81.913C231.373 84.4589 229.291 80.5305 227.445 80.4293Z" fill="#1A2E35"/>
<path d="M224.275 79.9657C224.275 79.9657 221.594 80.2439 222.201 82.8151C222.808 85.3863 222.707 80.9436 224.275 79.9657Z" fill="#1A2E35"/>
<path d="M212.111 90.6547C212.285 90.688 212.451 90.7555 212.599 90.8535C212.747 90.9514 212.874 91.0777 212.973 91.2252C213.072 91.3726 213.141 91.5382 213.175 91.7123C213.209 91.8865 213.209 92.0657 213.173 92.2396C213.106 92.6741 213.156 93.1185 213.317 93.5274C213.479 93.9363 213.746 94.2948 214.092 94.5663C214.017 94.6873 213.914 94.7892 213.793 94.8638C213.671 94.9384 213.534 94.9838 213.392 94.9963C213.392 94.9963 209.717 91.3629 212.111 90.6547Z" fill="#8873F4"/>
<path opacity="0.5" d="M212.111 90.6547C212.285 90.688 212.451 90.7555 212.599 90.8535C212.747 90.9514 212.874 91.0777 212.973 91.2252C213.072 91.3726 213.141 91.5382 213.175 91.7123C213.209 91.8865 213.209 92.0657 213.173 92.2396C213.106 92.6741 213.156 93.1185 213.317 93.5274C213.479 93.9363 213.746 94.2948 214.092 94.5663C214.017 94.6873 213.914 94.7892 213.793 94.8638C213.671 94.9384 213.534 94.9838 213.392 94.9963C213.392 94.9963 209.717 91.3629 212.111 90.6547Z" fill="white"/>
<path opacity="0.1" d="M205.847 115.288L203.225 113.897L195.866 116.552L195.63 117.168C195.798 121.56 196.355 127.183 195.309 134.938C205.105 122.748 205.847 115.288 205.847 115.288Z" fill="black"/>
<path d="M200.123 121.501C200.123 121.501 194.989 133.683 189.737 136.869C184.485 140.056 169.783 132.916 169.783 132.916L164.337 132.343C163.986 132.274 163.658 132.118 163.382 131.89C163.107 131.662 162.893 131.368 162.761 131.036L161.445 127.731C161.349 127.493 161.304 127.237 161.312 126.98C161.321 126.723 161.384 126.47 161.496 126.239L161.96 125.303C162.078 125.059 162.248 124.844 162.459 124.674C162.669 124.503 162.915 124.38 163.178 124.315C163.441 124.25 163.715 124.244 163.981 124.296C164.247 124.349 164.498 124.46 164.716 124.621L170.322 128.734C170.322 128.734 183.608 132.52 185.657 129.535C187.705 126.551 187.68 126.593 191.71 118.719L200.123 121.501Z" fill="#FFB573"/>
<path d="M204.018 106.235C206.404 107.668 209.464 114.547 199.348 126.104L190.53 119.36C190.53 119.36 196.566 101.724 204.018 106.235Z" fill="#8873F4"/>
<path d="M165.121 128.025L164.101 127.941C168.105 79.3416 161.243 77.605 152.56 75.4047C148.101 74.2751 143.051 73.0022 138.937 65.2886C135.11 58.1399 137.993 50.3757 146.634 44.5252C156.699 37.7221 172.514 34.6957 187.941 36.6431C206.756 38.9727 223.958 48.4396 235.993 63.0883C247.593 76.8969 251.218 88.6737 254.135 98.1323L254.927 100.661C259.985 116.805 259.471 125.547 259.446 125.91L258.425 125.842C258.425 125.758 258.965 116.906 253.949 100.965L253.157 98.4358C250.265 89.0615 246.674 77.3605 235.209 63.7459C208.351 31.7621 166.133 32.5545 147.216 45.3767C138.929 50.9827 136.256 58.064 139.848 64.8081C143.751 72.1086 148.362 73.2804 152.822 74.41C157.281 75.5396 161.462 76.6018 163.949 83.6831C166.605 91.3882 166.984 105.458 165.121 128.025Z" fill="#8873F4"/>
<g opacity="0.3">
<path d="M165.121 128.025L164.101 127.941C168.105 79.3416 161.243 77.605 152.56 75.4047C148.101 74.2751 143.051 73.0022 138.937 65.2886C135.11 58.1399 137.993 50.3757 146.634 44.5252C156.699 37.7221 172.514 34.6957 187.941 36.6431C206.756 38.9727 223.958 48.4396 235.993 63.0883C247.593 76.8969 251.218 88.6737 254.135 98.1323L254.927 100.661C259.985 116.805 259.471 125.547 259.446 125.91L258.425 125.842C258.425 125.758 258.965 116.906 253.949 100.965L253.157 98.4358C250.265 89.0615 246.674 77.3605 235.209 63.7459C208.351 31.7621 166.133 32.5545 147.216 45.3767C138.929 50.9827 136.256 58.064 139.848 64.8081C143.751 72.1086 148.362 73.2804 152.822 74.41C157.281 75.5396 161.462 76.6018 163.949 83.6831C166.605 91.3882 166.984 105.458 165.121 128.025Z" fill="white"/>
</g>
<path d="M166.318 122.007H162.912V133.952H166.318V122.007Z" fill="#8873F4"/>
<path opacity="0.1" d="M166.318 122.007H162.912V124.047H166.318V122.007Z" fill="black"/>
<path opacity="0.1" d="M166.318 132.586H162.912V133.952H166.318V132.586Z" fill="black"/>
<path d="M166.327 122.951H162.896C162.645 122.951 162.405 122.851 162.228 122.674C162.051 122.497 161.951 122.257 161.951 122.006C161.954 121.758 162.054 121.52 162.231 121.344C162.408 121.169 162.647 121.071 162.896 121.071H166.327C166.576 121.071 166.814 121.169 166.991 121.344C167.168 121.52 167.269 121.758 167.271 122.006C167.271 122.257 167.171 122.497 166.994 122.674C166.817 122.851 166.577 122.951 166.327 122.951Z" fill="#8873F4"/>
<path d="M166.327 135.284H162.896C162.647 135.284 162.408 135.186 162.231 135.011C162.054 134.836 161.954 134.598 161.951 134.349C161.951 134.098 162.051 133.858 162.228 133.681C162.405 133.504 162.645 133.404 162.896 133.404H166.327C166.577 133.404 166.817 133.504 166.994 133.681C167.171 133.858 167.271 134.098 167.271 134.349C167.269 134.598 167.168 134.836 166.991 135.011C166.814 135.186 166.576 135.284 166.327 135.284Z" fill="#8873F4"/>
<path d="M260.626 119.941H257.22V131.886H260.626V119.941Z" fill="#8873F4"/>
<path opacity="0.1" d="M260.626 119.941H257.22V121.981H260.626V119.941Z" fill="black"/>
<path opacity="0.1" d="M260.626 130.512H257.22V131.878H260.626V130.512Z" fill="black"/>
<path d="M260.643 120.886H257.212C256.961 120.886 256.721 120.786 256.544 120.609C256.367 120.432 256.267 120.192 256.267 119.942C256.267 119.691 256.367 119.451 256.544 119.274C256.721 119.097 256.961 118.998 257.212 118.998H260.643C260.893 118.998 261.133 119.097 261.31 119.274C261.487 119.451 261.587 119.691 261.587 119.942C261.587 120.192 261.487 120.432 261.31 120.609C261.133 120.786 260.893 120.886 260.643 120.886Z" fill="#8873F4"/>
<path d="M260.643 133.219H257.212C256.961 133.219 256.721 133.119 256.544 132.942C256.367 132.765 256.267 132.525 256.267 132.274C256.267 132.024 256.367 131.784 256.544 131.607C256.721 131.43 256.961 131.33 257.212 131.33H260.643C260.893 131.33 261.133 131.43 261.31 131.607C261.487 131.784 261.587 132.024 261.587 132.274C261.587 132.525 261.487 132.765 261.31 132.942C261.133 133.119 260.893 133.219 260.643 133.219Z" fill="#8873F4"/>
<path d="M106.666 113.526C106.666 113.526 95.2769 118.626 89.7046 116.527C84.1323 114.428 78.2734 97.4663 78.2734 97.4663L74.6569 92.6864C74.4128 92.3652 74.2807 91.9729 74.2807 91.5694C74.2807 91.166 74.4128 90.7737 74.6569 90.4524L77.6496 86.5577C77.8629 86.2861 78.1322 86.0634 78.4391 85.9049C78.746 85.7464 79.0833 85.6556 79.4283 85.6388H79.6222C79.9438 85.6249 80.2648 85.6771 80.5654 85.7923C80.866 85.9074 81.1397 86.0831 81.3697 86.3083C81.5997 86.5335 81.7809 86.8035 81.9023 87.1017C82.0237 87.3998 82.0826 87.7196 82.0754 88.0414L81.9489 93.9425C81.9489 93.9425 90.927 108.333 94.4339 108.105C97.9409 107.877 103.656 105.483 103.656 105.483L106.666 113.526Z" fill="#FFC3BD"/>
<path d="M117.828 104.717C118.233 107.246 116.985 113.838 102.257 116.207L99.9898 106.209C99.9898 106.209 116.386 95.6881 117.828 104.717Z" fill="#263238"/>
<path d="M82.5559 87.0303C84.0396 88.9187 86.3579 89.5594 87.7236 88.4972C89.0893 87.435 88.9881 85.0155 87.496 83.1272C86.0039 81.2388 83.7024 80.5982 82.3368 81.6603C80.9711 82.7225 81.0638 85.142 82.5559 87.0303Z" fill="#8873F4"/>
<path opacity="0.2" d="M82.5557 87.03C82.0111 86.4215 81.6444 85.6749 81.4957 84.872C81.3471 84.0691 81.4221 83.2408 81.7127 82.4777C82.876 81.8623 84.8065 82.6884 86.1975 84.4503C87.3693 85.934 87.7908 87.6369 87.3777 88.7244C85.9699 89.4494 83.9213 88.7581 82.5557 87.03Z" fill="black"/>
<path d="M72.9546 94.6007C73.5953 95.4437 76.6723 94.0528 79.8251 91.5575C82.978 89.0621 85.0265 86.3898 84.3858 85.5805C83.7451 84.7712 80.6682 86.1369 77.5153 88.6238C74.3624 91.1107 72.3139 93.7914 72.9546 94.6007Z" fill="#8873F4"/>
<path opacity="0.2" d="M76.8741 93.5808C74.9352 94.702 73.3841 95.1488 72.9542 94.6008C72.5242 94.0529 73.3504 92.5945 74.9437 90.9337C75.3291 91.2247 75.6748 91.5648 75.9721 91.9454C76.3557 92.4405 76.66 92.9922 76.8741 93.5808Z" fill="black"/>
<path d="M69.7255 97.1382C71.2092 99.0266 73.519 99.6673 74.8847 98.6051C76.2504 97.5429 76.1576 95.1319 74.6655 93.2435C73.1734 91.3552 70.8635 90.7145 69.4979 91.7767C68.1322 92.8389 68.2418 95.2583 69.7255 97.1382Z" fill="#8873F4"/>
<path opacity="0.6" d="M114.944 111.258C112.867 112.969 110.451 114.219 107.855 114.925C107.989 104.809 112.913 104.7 112.913 104.7L113.848 105.231L114.944 111.258Z" fill="black"/>
<path d="M128.779 189.616L123.055 207.471C123.843 212.484 123.843 217.59 123.055 222.603C121.756 231.092 114.405 275.78 114.405 275.78L108.884 276.438C108.884 276.438 109.727 219.164 110.856 206.772C111.986 194.379 113.385 185.528 113.385 185.528L128.779 189.616Z" fill="#FFC3BD"/>
<path opacity="0.1" d="M113.377 185.528L128.778 189.616L125.094 201.123L111.674 198.797C112.576 190.754 113.377 185.528 113.377 185.528Z" fill="black"/>
<path d="M139.822 190.299C139.822 190.299 146.136 217.048 169.327 275.064L174.613 273.741C174.613 273.741 164.244 213.465 157.905 206.789L154.701 186.481L139.822 190.299Z" fill="#FFC3BD"/>
<path opacity="0.1" d="M154.675 186.481L156.555 198.148L142.705 200.677C140.622 193.663 139.855 190.325 139.855 190.325L154.675 186.481Z" fill="black"/>
<path d="M138.852 170.564C138.852 170.564 134.384 174.687 133.229 178.025C132.074 181.363 126.485 199.362 126.485 199.362L111.311 196.639C111.311 196.639 112.879 179.779 114.59 167.74C116.302 155.702 117.625 148.638 117.414 147.609L146.077 145.19C146.077 145.19 151.818 166.172 138.852 170.564Z" fill="#8873F4"/>
<path opacity="0.1" d="M134.03 158.703L138.777 170.615C138.271 171.095 134.292 174.906 133.213 178.025C132.909 178.868 132.328 180.697 131.619 182.923C129.478 170.851 130.65 157.582 130.65 157.582L134.03 158.703Z" fill="black"/>
<path d="M130.296 147.701C130.296 147.701 127.522 157.312 135.202 177.755C137.318 183.394 140.724 198.476 140.724 198.476L157.129 195.205L153.58 175.209C153.58 175.209 154.305 155.381 148.716 145.838L130.296 147.701Z" fill="#8873F4"/>
<path d="M108.95 275.165L114.691 275.064C114.813 275.061 114.932 275.101 115.027 275.176C115.122 275.252 115.189 275.358 115.214 275.477L117.288 280.973C117.338 281.202 117.297 281.442 117.172 281.641C117.048 281.839 116.85 281.981 116.622 282.035H116.436C114.042 281.993 111.926 281.867 108.95 281.867C105.443 281.867 106.337 282.288 102.206 282.347C99.7194 282.347 99.2642 279.557 100.318 279.422C105.14 278.815 105.637 277.357 107.5 275.628C107.912 275.304 108.427 275.14 108.95 275.165Z" fill="#263238"/>
<path d="M168.915 273.842L174.512 272.543C174.629 272.516 174.753 272.53 174.861 272.584C174.969 272.638 175.054 272.728 175.102 272.838L178.28 277.779C178.378 277.991 178.388 278.234 178.307 278.453C178.227 278.673 178.062 278.851 177.85 278.95C177.794 278.98 177.735 279.003 177.673 279.018C175.33 279.473 173.222 279.785 170.322 280.417C166.891 281.151 167.852 281.37 163.831 282.289C161.412 282.845 160.375 280.173 161.378 279.819C165.964 278.217 166.149 276.691 167.608 274.617C167.933 274.206 168.398 273.93 168.915 273.842Z" fill="#263238"/>
<path d="M114.497 72.0329C114.497 72.0329 110.603 71.7126 112.685 77.4451L115.214 75.0593L116.9 71.8728L114.497 72.0329Z" fill="#263238"/>
<path opacity="0.6" d="M114.497 72.0329C114.497 72.0329 110.603 71.7126 112.685 77.4451L115.214 75.0593L116.9 71.8728L114.497 72.0329Z" fill="black"/>
<path d="M149.735 146.909C149.735 146.909 143.219 147.491 116.79 149.034C116.79 149.034 115.315 142.222 113.418 130.555C111.285 117.26 108.849 105.02 111.994 101.715C115.568 97.964 132.571 98.4866 140.386 98.5119C141.599 98.5125 142.767 98.9643 143.665 99.7793C144.563 100.594 145.125 101.714 145.242 102.921L149.735 146.909Z" fill="#263238"/>
<path d="M134.494 98.4701C134.452 100.266 132.867 104.042 124.024 110.921C124.024 110.921 117.28 104.405 117.946 99.4227C122.675 98.5797 129.141 98.4617 134.494 98.4701Z" fill="#8873F4"/>
<path d="M123.99 108.712C123.99 108.712 118.822 101.833 120.23 99.0852C124.1 98.6733 127.989 98.4707 131.88 98.4782C131.872 99.7764 131.029 103.182 123.99 108.712Z" fill="#FFC3BD"/>
<path d="M123.838 106.732L120.466 100.83C122.995 98.9927 122.413 97.3236 121.056 94.8114L127.016 86.3813C127.26 90.5542 127.985 96.5901 131.459 98.5375C131.52 99.2158 131.395 99.8979 131.096 100.51L123.838 106.732Z" fill="#FFC3BD"/>
<path opacity="0.2" d="M121.992 96.8935C121.731 96.1858 121.412 95.5007 121.039 94.8449L124.782 89.5255C125.558 89.7869 126.856 89.4834 127.311 89.9218C127.311 90.1915 127.387 90.4613 127.438 90.7648C127.118 92.788 124.521 95.8228 121.992 96.8935Z" fill="black"/>
<path d="M129.671 79.325C129.916 85.6981 130.152 88.3874 127.277 91.9701C122.953 97.3401 115.071 96.2358 112.946 90.0734C111.024 84.5095 110.948 74.9919 116.908 71.8896C117.918 71.3471 119.025 71.0093 120.165 70.8958C121.306 70.7823 122.457 70.8952 123.554 71.2281C124.651 71.5611 125.671 72.1074 126.556 72.8358C127.441 73.5642 128.173 74.4602 128.71 75.4724C129.327 76.6639 129.656 77.9834 129.671 79.325Z" fill="#FFC3BD"/>
<path d="M119.742 81.9889C119.792 82.5031 119.556 82.9499 119.227 82.9836C118.898 83.0174 118.57 82.6212 118.519 82.1406C118.469 81.6601 118.705 81.1796 119.033 81.1459C119.362 81.1122 119.666 81.4915 119.742 81.9889Z" fill="#1A2E35"/>
<path d="M113.916 82.5792C113.967 83.1019 113.731 83.5402 113.402 83.574C113.073 83.6077 112.744 83.2115 112.694 82.731C112.643 82.2504 112.879 81.7699 113.208 81.7446C113.537 81.7193 113.866 82.065 113.916 82.5792Z" fill="#1A2E35"/>
<path d="M115.813 83.3294C115.465 84.5542 114.952 85.7257 114.287 86.811C114.571 86.9695 114.885 87.0658 115.209 87.0934C115.534 87.121 115.86 87.0794 116.167 86.9712L115.813 83.3294Z" fill="#FF8935"/>
<path d="M119.177 88.7079C118.928 88.7747 118.674 88.8198 118.418 88.8428C118.378 88.8454 118.339 88.833 118.308 88.8081C118.276 88.7831 118.256 88.7474 118.249 88.7079C118.249 88.6673 118.263 88.6278 118.29 88.5968C118.316 88.5658 118.353 88.5454 118.393 88.5393C119.036 88.4904 119.658 88.29 120.209 87.9544C120.76 87.6189 121.224 87.1578 121.562 86.6088C121.584 86.5741 121.617 86.5487 121.656 86.5377C121.695 86.5268 121.737 86.5311 121.773 86.5498C121.809 86.5679 121.836 86.5993 121.848 86.6371C121.861 86.675 121.858 86.7163 121.841 86.7521C121.549 87.2386 121.163 87.6621 120.705 87.9979C120.248 88.3337 119.728 88.5751 119.177 88.7079Z" fill="#1A2E35"/>
<path d="M121.992 80.5817C121.93 80.5981 121.864 80.5947 121.803 80.5721C121.743 80.5494 121.691 80.5086 121.655 80.4553C121.344 80.0786 120.959 79.7697 120.524 79.5479C120.089 79.326 119.613 79.1958 119.126 79.1655C119.085 79.1655 119.045 79.1574 119.008 79.1416C118.97 79.1258 118.936 79.1027 118.908 79.0736C118.88 79.0445 118.858 79.0101 118.843 78.9723C118.828 78.9345 118.821 78.8941 118.822 78.8536C118.827 78.7738 118.861 78.6987 118.919 78.6438C118.977 78.5889 119.054 78.5584 119.134 78.5585C119.73 78.5834 120.314 78.7372 120.845 79.0093C121.377 79.2815 121.843 79.6655 122.211 80.1349C122.25 80.2028 122.263 80.2831 122.246 80.3596C122.228 80.4362 122.183 80.5035 122.118 80.548C122.082 80.575 122.037 80.5871 121.992 80.5817Z" fill="#1A2E35"/>
<path d="M111.876 80.067C111.824 80.0795 111.769 80.0784 111.718 80.0636C111.666 80.0488 111.619 80.021 111.581 79.9827C111.553 79.9545 111.53 79.921 111.515 79.8841C111.5 79.8472 111.492 79.8076 111.492 79.7677C111.492 79.7278 111.5 79.6882 111.515 79.6513C111.53 79.6144 111.553 79.5809 111.581 79.5527C111.914 79.1933 112.331 78.9214 112.794 78.7612C113.257 78.6009 113.753 78.5572 114.237 78.6339C114.312 78.6482 114.379 78.6915 114.423 78.7545C114.467 78.8175 114.485 78.8952 114.473 78.9711C114.456 79.049 114.41 79.1174 114.344 79.1615C114.278 79.2057 114.197 79.222 114.119 79.2071C113.738 79.1609 113.352 79.2048 112.992 79.3351C112.632 79.4654 112.307 79.6786 112.045 79.9574C111.999 80.0084 111.941 80.0463 111.876 80.067Z" fill="#1A2E35"/>
<path d="M127.792 84.9311L125.727 84.5433C125.727 84.5433 127.084 79.814 126.114 78.6001C125.145 77.3862 122.919 76.4167 122.194 74.1574C121.469 71.8982 110.392 76.3408 112.188 67.034C112.188 67.034 113.031 69.563 114.287 70.4819C114.287 70.4819 112.441 64.1003 119.471 64.8085C126.502 65.5166 130.928 72.8676 130.928 72.8676C130.928 72.8676 140.016 78.8277 130.608 87.5529C130.445 87.7067 130.247 87.819 130.032 87.88C129.816 87.9411 129.589 87.9493 129.37 87.9037C129.15 87.8582 128.945 87.7604 128.772 87.6186C128.598 87.4767 128.462 87.2952 128.374 87.0892L127.792 84.9311Z" fill="#263238"/>
<path d="M131.881 84.0209C131.741 84.6019 131.489 85.1496 131.137 85.6327C130.786 86.1159 130.342 86.525 129.832 86.8365C128.45 87.6796 127.303 86.5331 127.362 84.9988C127.362 83.6247 128.146 81.534 129.698 81.3148C130.241 81.2531 130.786 81.4092 131.214 81.749C131.643 82.0887 131.919 82.5844 131.982 83.1273C132.015 83.429 131.981 83.7343 131.881 84.0209Z" fill="#FFC3BD"/>
<path d="M130.6 73.3484C130.6 73.3484 133.087 69.6308 135.278 72.6235C137.47 75.6161 132.336 72.2778 130.6 73.3484Z" fill="#263238"/>
<path d="M129.436 83.5825C129.229 83.6208 129.032 83.6999 128.856 83.8151C128.68 83.9303 128.529 84.0793 128.412 84.2535C128.294 84.4276 128.212 84.6235 128.171 84.8296C128.129 85.0357 128.13 85.2479 128.171 85.454C128.171 85.454 128.567 86.7438 127.084 88.219C127.175 88.3632 127.299 88.484 127.445 88.5718C127.592 88.6596 127.756 88.712 127.927 88.7249C127.927 88.7249 132.277 84.4171 129.436 83.5825Z" fill="#8873F4"/>
<path opacity="0.8" d="M129.436 83.5825C129.229 83.6208 129.032 83.6999 128.856 83.8151C128.68 83.9303 128.529 84.0793 128.412 84.2535C128.294 84.4276 128.212 84.6235 128.171 84.8296C128.129 85.0357 128.13 85.2479 128.171 85.454C128.171 85.454 128.567 86.7438 127.084 88.219C127.175 88.3632 127.299 88.484 127.445 88.5718C127.592 88.6596 127.756 88.712 127.927 88.7249C127.927 88.7249 132.277 84.4171 129.436 83.5825Z" fill="white"/>
<path opacity="0.6" d="M145.689 107.44L146.675 118.003C143.238 115.364 140.848 111.591 139.931 107.356L142.385 106.732L145.689 107.44Z" fill="black"/>
<path d="M147.459 109.968C147.459 109.968 160.61 111.317 165.921 108.232C171.232 105.146 173.719 87.7298 173.719 87.7298L176.366 81.0953C176.585 80.5431 176.603 79.9313 176.417 79.3671C176.23 78.8029 175.851 78.3224 175.346 78.0099L172.926 76.5262C172.422 76.2174 171.825 76.0951 171.24 76.1806L170.338 76.3155C169.704 76.4116 169.129 76.7456 168.731 77.2497C168.334 77.7538 168.143 78.3902 168.197 79.03L168.846 86.617C168.846 86.617 165.027 100.729 161.428 101.092C157.828 101.454 157.87 101.454 149.027 101.218L147.459 109.968Z" fill="#FFC3BD"/>
<path d="M137.166 103.865C137.065 106.731 139.164 111.924 154.507 111.115L154.676 100.029C154.676 100.029 137.461 94.221 137.166 103.865Z" fill="#263238"/>
<path d="M168.56 78.1197C167.524 80.2862 165.416 81.4412 163.848 80.6909C162.28 79.9406 161.85 77.5717 162.887 75.4052C163.924 73.2387 166.031 72.0922 167.599 72.8762C169.167 73.6602 169.597 75.9532 168.56 78.1197Z" fill="#8873F4"/>
<path opacity="0.2" d="M168.559 78.1199C168.96 77.4081 169.157 76.5997 169.129 75.7834C169.1 74.9671 168.848 74.1743 168.399 73.4918C167.126 73.1462 165.423 74.377 164.454 76.4002C163.611 78.0862 163.611 79.865 164.243 80.8344C165.761 81.2391 167.607 80.1094 168.559 78.1199Z" fill="black"/>
<path d="M179.587 83.4053C179.149 84.3326 175.844 83.6835 172.219 81.9469C168.594 80.2103 166.006 78.0437 166.453 77.1164C166.9 76.1891 170.204 76.8382 173.829 78.5748C177.454 80.3114 180.034 82.4696 179.587 83.4053Z" fill="#8873F4"/>
<path opacity="0.2" d="M175.54 83.2699C177.681 83.9359 179.291 84.0371 179.586 83.4048C179.881 82.7726 178.743 81.5333 176.847 80.2604C176.533 80.6292 176.27 81.0373 176.063 81.4743C175.794 82.0413 175.618 82.6474 175.54 83.2699Z" fill="black"/>
<path d="M183.296 85.1755C182.259 87.342 180.143 88.4885 178.575 87.7045C177.007 86.9205 176.577 84.5938 177.614 82.4273C178.651 80.2607 180.767 79.1058 182.335 79.8561C183.903 80.6063 184.375 83.0089 183.296 85.1755Z" fill="#8873F4"/>
</svg>
