<svg width="26" height="29" viewBox="0 0 26 29" fill="none" xmlns="http://www.w3.org/2000/svg">
<path d="M13.0137 15.6667V1L23.6803 6.33333L13.0137 11.6667" stroke="#6152AD" stroke-width="2" stroke-linecap="round" stroke-linejoin="round"/>
<path d="M24.4142 11.9733C25.1238 14.1601 25.1902 16.5048 24.6055 18.7282C24.0208 20.9517 22.8098 22.9605 21.1163 24.5155C19.4229 26.0705 17.3184 27.1063 15.0532 27.4997C12.788 27.8931 10.4575 27.6274 8.33898 26.7344C6.22042 25.8414 4.40298 24.3586 3.10289 22.4625C1.8028 20.5663 1.07478 18.3365 1.00546 16.0385C0.936134 13.7405 1.52842 11.4709 2.71185 9.49977C3.89527 7.52866 5.62003 5.93901 7.68091 4.91992" stroke="#6152AD" stroke-width="2" stroke-linecap="round" stroke-linejoin="round"/>
<path d="M7.68124 11.666C7.01311 12.5554 6.57814 13.5978 6.41596 14.6983C6.25378 15.7988 6.36955 16.9223 6.75271 17.9666C7.13587 19.0109 7.77425 19.9427 8.60968 20.6772C9.44511 21.4116 10.451 21.9254 11.5358 22.1716C12.6206 22.4178 13.7497 22.3886 14.8204 22.0868C15.891 21.785 16.8691 21.22 17.6655 20.4435C18.462 19.6669 19.0514 18.7034 19.3802 17.6407C19.709 16.578 19.7666 15.45 19.5479 14.3593" stroke="#6152AD" stroke-width="2" stroke-linecap="round" stroke-linejoin="round"/>
</svg>
