<svg width="279" height="86" viewBox="0 0 279 86" fill="none" xmlns="http://www.w3.org/2000/svg">
<path d="M236.792 49.6094C260.103 49.6094 279 38.6973 279 25.2366C279 11.7759 260.103 0.863906 236.792 0.863906C213.482 0.863906 194.585 11.7759 194.585 25.2366C194.585 38.6973 213.482 49.6094 236.792 49.6094Z" fill="#E0E0E0"/>
<path d="M42.2078 48.7455C65.5185 48.7455 84.4156 37.8334 84.4156 24.3727C84.4156 10.912 65.5185 0 42.2078 0C18.8971 0 0 10.912 0 24.3727C0 37.8334 18.8971 48.7455 42.2078 48.7455Z" fill="#E0E0E0"/>
<path d="M113.144 59.7338C119.241 61.8878 125.058 64.7664 130.469 68.3078C136.54 72.2858 142.1 77.0898 148.568 80.387C156.972 84.6739 166.612 86.2122 176.03 85.752C181.37 85.4872 187.17 84.3335 190.568 80.2104C191.5 79.1899 192.056 77.8824 192.144 76.5035C192.144 74.4987 190.751 72.7776 189.295 71.3969C181.503 64.0523 170.659 61.0199 160.2 58.6684C149.741 56.3168 143.487 53.3664 133.192 48.0392C128.779 45.7633 124.454 43.3172 120.022 41.1674L119.915 41.117C117.728 39.9481 115.48 38.8959 113.182 37.9648C109.427 36.5331 105.52 35.5368 101.538 34.9954C97.539 34.4583 93.4693 34.9465 89.7108 36.4139C88.7246 36.7466 87.8599 37.3656 87.2269 38.1918C86.7695 38.9495 86.5601 39.8311 86.628 40.7135C86.7413 42.5047 87.3867 44.2213 88.4815 45.6435C89.5617 47.0582 90.835 48.3145 92.2641 49.3757C98.3983 54.1734 105.869 57.1679 113.144 59.7338Z" fill="#E0E0E0"/>
</svg>
