<svg width="20" height="36" viewBox="0 0 20 36" fill="none" xmlns="http://www.w3.org/2000/svg">
<path d="M1.57122 35.8603C1.35605 35.8561 1.14394 35.8086 0.947536 35.7206C0.751127 35.6327 0.574443 35.506 0.428031 35.3483C0.28162 35.1906 0.168469 35.005 0.0953457 34.8026C0.0222219 34.6002 -0.00938674 34.3851 0.002409 34.1703V11.9041C0.011408 11.4287 0.146157 10.964 0.392936 10.5575C0.619136 10.1453 0.951588 9.80126 1.35575 9.56104L17.515 0.262723C17.7937 0.0948082 18.1121 0.00417112 18.4374 0.000135607C18.7486 -0.00399906 19.0536 0.0865031 19.3121 0.259651C19.5706 0.4328 19.7704 0.680419 19.885 0.969691C19.9614 1.20451 20 1.44994 19.9995 1.69686V23.9697C19.9838 24.4397 19.8527 24.8986 19.6179 25.306C19.3831 25.7134 19.0517 26.0569 18.6529 26.3061L2.47344 35.6044C2.38109 35.6577 2.28421 35.7028 2.18392 35.7391C1.98927 35.8181 1.78131 35.8592 1.57122 35.8603Z" fill="#E0E0E0"/>
</svg>
