<svg width="21" height="36" viewBox="0 0 21 36" fill="none" xmlns="http://www.w3.org/2000/svg">
<path d="M1.57098 35.8463C1.35561 35.843 1.14314 35.7962 0.946367 35.7086C0.749593 35.621 0.572597 35.4944 0.426057 35.3366C0.279517 35.1787 0.16647 34.9928 0.0937253 34.7901C0.020981 34.5873 -0.00995203 34.372 0.00279626 34.157V11.8994C0.0174384 11.4285 0.147915 10.9684 0.382698 10.5598C0.61748 10.1513 0.949331 9.80696 1.34888 9.55722L17.5019 0.255757C17.7795 0.0919972 18.095 0.00381588 18.4173 0C18.7297 0.00214713 19.0341 0.0992038 19.2901 0.278299C19.5461 0.457395 19.7417 0.710072 19.8508 1.00284C19.9244 1.23822 19.9629 1.48313 19.9653 1.72972V23.9536C19.9478 24.423 19.8161 24.8811 19.5815 25.2881C19.3469 25.6951 19.0166 26.0387 18.6192 26.2891L2.46614 35.5905C2.37242 35.6411 2.27576 35.686 2.17671 35.7251C1.98338 35.8005 1.7784 35.8415 1.57098 35.8463Z" fill="#E0E0E0"/>
<path d="M20.9276 2.91463C20.9101 2.64524 20.8305 2.38355 20.6951 2.15003C20.5596 1.9165 20.372 1.71749 20.1469 1.56854L19.5075 1.2051C19.2644 1.08208 18.9958 1.01799 18.7234 1.01799C18.451 1.01799 18.1824 1.08208 17.9393 1.2051L1.78624 10.4998C1.56 10.6476 1.37154 10.8464 1.23596 11.0801C1.10038 11.3139 1.02145 11.5762 1.00551 11.8459V34.0967C1.02145 34.3665 1.10038 34.6288 1.23596 34.8625C1.37154 35.0963 1.56 35.295 1.78624 35.4428L2.42564 35.813C2.66871 35.936 2.93729 36.0001 3.20972 36.0001C3.48214 36.0001 3.75075 35.936 3.99382 35.813L20.1469 26.5183C20.3724 26.3697 20.5603 26.1708 20.6958 25.9372C20.8313 25.7036 20.9106 25.4417 20.9276 25.1722V2.91463Z" fill="#FAFAFA"/>
<path d="M18.7271 1.31938C18.944 1.31535 19.1588 1.36384 19.353 1.46072L19.9856 1.83089C20.1655 1.95208 20.3153 2.11265 20.4237 2.30041C20.5322 2.48818 20.5964 2.69819 20.6116 2.91449V25.172C20.5974 25.3886 20.5336 25.599 20.4251 25.7869C20.3165 25.9748 20.1662 26.1352 19.9856 26.2556L3.86625 35.5504C3.67352 35.652 3.45814 35.7029 3.24032 35.6984C3.02231 35.7048 2.80647 35.6537 2.61439 35.5504L1.975 35.1869C1.79432 35.0651 1.64397 34.9034 1.53547 34.7144C1.42697 34.5254 1.36321 34.3141 1.34907 34.0966V11.8458C1.36321 11.6283 1.42697 11.417 1.53547 11.228C1.64397 11.039 1.79432 10.8773 1.975 10.7554L18.128 1.46072C18.3243 1.36277 18.5414 1.31425 18.7607 1.31938M18.7607 1.00305C18.4862 0.995851 18.2147 1.06083 17.9732 1.1915L1.82019 10.4862C1.59395 10.634 1.40549 10.8328 1.26991 11.0665C1.13433 11.3003 1.0554 11.5626 1.03946 11.8323V34.0831C1.0554 34.3529 1.13433 34.6152 1.26991 34.8489C1.40549 35.0827 1.59395 35.2814 1.82019 35.4292L2.45959 35.7994C2.70253 35.9261 2.97305 35.9909 3.24706 35.9879C3.51892 35.9909 3.78724 35.9261 4.02777 35.7994L20.1808 26.5047C20.4063 26.3561 20.5942 26.1572 20.7297 25.9236C20.8652 25.69 20.9446 25.4281 20.9615 25.1586V2.91449C20.9441 2.6451 20.8645 2.38341 20.729 2.14989C20.5936 1.91637 20.406 1.71735 20.1808 1.56841L19.5414 1.20496C19.3021 1.07514 19.0329 1.01018 18.7607 1.01651V1.00305Z" fill="#BA68C8"/>
<path d="M1.03247 34.0964C1.04841 34.3662 1.12732 34.6284 1.2629 34.8622C1.39848 35.096 1.58696 35.2947 1.8132 35.4425L2.45258 35.8127C2.67407 35.9223 2.91606 35.9843 3.16296 35.9947C3.40987 36.0052 3.65622 35.9638 3.88616 35.8732C3.51599 36.0146 3.21312 35.8059 3.21312 35.3617V13.1176C3.22208 12.8443 3.30086 12.5779 3.44195 12.3436L1.2613 11.0985C1.11937 11.3324 1.04052 11.5991 1.03247 11.8725V34.0964Z" fill="#BA68C8"/>
<path d="M20.9005 2.69254C20.813 2.36275 20.5102 2.25506 20.1467 2.46371L3.99368 11.7719C3.76289 11.9169 3.57293 12.1185 3.44178 12.3574L1.26113 11.0989C1.39414 10.8613 1.58371 10.6601 1.81303 10.5133L17.9661 1.21858C18.2091 1.09557 18.4777 1.03147 18.7501 1.03147C19.0226 1.03147 19.2912 1.09557 19.5343 1.21858L20.1737 1.58875C20.3623 1.71501 20.5237 1.87769 20.6485 2.06725C20.7734 2.2568 20.859 2.4694 20.9005 2.69254Z" fill="#BA68C8"/>
<path opacity="0.4" d="M20.9005 2.69254C20.813 2.36275 20.5102 2.25506 20.1467 2.46371L3.99368 11.7719C3.76289 11.9169 3.57293 12.1185 3.44178 12.3574L1.26113 11.0989C1.39414 10.8613 1.58371 10.6601 1.81303 10.5133L17.9661 1.21858C18.2091 1.09557 18.4777 1.03147 18.7501 1.03147C19.0226 1.03147 19.2912 1.09557 19.5343 1.21858L20.1737 1.58875C20.3623 1.71501 20.5237 1.87769 20.6485 2.06725C20.7734 2.2568 20.859 2.4694 20.9005 2.69254Z" fill="white"/>
<path d="M12.0705 21.2344C11.782 21.2356 11.5018 21.1383 11.2763 20.9584C9.56002 19.6595 11.4715 15.7558 11.8686 14.9885C14.7155 9.53016 18.848 5.11499 19.4672 5.30344C19.5379 5.33727 19.5949 5.39427 19.6288 5.46498C19.8778 6.07744 18.5519 12.0339 15.5905 17.7076C15.2069 18.448 13.8338 20.8777 12.3935 21.2007C12.2877 21.2258 12.1792 21.2371 12.0705 21.2344ZM19.2518 5.8015C18.3904 6.42743 14.9713 9.95417 12.2387 15.1837C11.209 17.1625 10.4081 19.7739 11.532 20.6219C11.6385 20.7069 11.763 20.7663 11.8961 20.7954C12.0291 20.8246 12.1671 20.8228 12.2993 20.7902C13.3021 20.5681 14.4598 18.9528 15.2136 17.5125C17.9058 12.3637 19.2047 6.95913 19.2518 5.8015Z" fill="#BA68C8"/>
<path d="M14.1365 17.156C14.1076 17.1624 14.0778 17.1624 14.049 17.156C13.5723 16.9072 13.1511 16.5641 12.8109 16.1476C12.4708 15.7311 12.2188 15.2499 12.0702 14.7331C12.0631 14.7066 12.0613 14.6789 12.0649 14.6517C12.0685 14.6245 12.0774 14.5982 12.0912 14.5745C12.1049 14.5507 12.1232 14.5299 12.145 14.5132C12.1668 14.4966 12.1917 14.4843 12.2183 14.4773C12.2727 14.465 12.3297 14.4742 12.3774 14.5031C12.4251 14.532 12.4597 14.5782 12.474 14.6321C12.6097 15.0816 12.8338 15.4995 13.1332 15.8612C13.4325 16.223 13.8011 16.5213 14.2172 16.7387C14.2425 16.7497 14.2653 16.7656 14.2844 16.7854C14.3035 16.8052 14.3185 16.8286 14.3285 16.8543C14.3385 16.8799 14.3434 16.9073 14.3428 16.9349C14.3421 16.9624 14.3361 16.9895 14.3249 17.0147C14.3122 17.055 14.2872 17.0903 14.2534 17.1157C14.2196 17.141 14.1787 17.1552 14.1365 17.156Z" fill="#BA68C8"/>
<path d="M15.3547 14.8203C15.3259 14.8271 15.2959 14.8271 15.2672 14.8203C14.3681 14.3593 13.6795 13.5718 13.3423 12.6194C13.3329 12.5929 13.3289 12.5648 13.3306 12.5367C13.3323 12.5087 13.3396 12.4813 13.3522 12.4561C13.3648 12.431 13.3823 12.4086 13.4037 12.3904C13.4252 12.3722 13.45 12.3585 13.4769 12.3502C13.5295 12.3332 13.5868 12.3379 13.636 12.3631C13.6852 12.3884 13.7224 12.4321 13.7394 12.4848C14.0396 13.3253 14.645 14.0221 15.4354 14.4366C15.4607 14.4476 15.4835 14.4634 15.5026 14.4833C15.5217 14.5031 15.5367 14.5265 15.5467 14.5522C15.5568 14.5778 15.5616 14.6052 15.561 14.6327C15.5604 14.6603 15.5543 14.6874 15.5431 14.7126C15.5252 14.7466 15.498 14.7748 15.4646 14.7939C15.4312 14.813 15.3931 14.8221 15.3547 14.8203Z" fill="#BA68C8"/>
<path d="M16.5662 12.4916H16.4854C15.712 12.0912 15.0887 11.4514 14.7086 10.6677C14.687 10.6165 14.6854 10.5591 14.7041 10.5067C14.7228 10.4544 14.7604 10.411 14.8096 10.385C14.8606 10.3618 14.9186 10.3593 14.9714 10.3781C15.0242 10.397 15.0675 10.4357 15.0922 10.486C15.4267 11.1774 15.974 11.7435 16.6537 12.1013C16.7009 12.1187 16.7402 12.1526 16.7644 12.1966C16.7886 12.2407 16.796 12.2921 16.7854 12.3412C16.7747 12.3903 16.7467 12.434 16.7064 12.4641C16.6662 12.4942 16.6164 12.5088 16.5662 12.5051V12.4916Z" fill="#BA68C8"/>
<path d="M9.80841 29.9437H9.70744C9.31707 29.8562 9.14882 29.3379 9.1892 28.3418C9.29016 26.1342 10.4478 22.9575 11.417 20.871C11.4417 20.8207 11.485 20.7821 11.5378 20.7632C11.5906 20.7444 11.6487 20.7468 11.6997 20.7701C11.7495 20.7935 11.788 20.8356 11.8069 20.8873C11.8258 20.939 11.8236 20.996 11.8006 21.046L11.5381 21.6249C11.765 21.7871 11.9253 22.0263 11.9891 22.2979C12.071 22.7573 11.9976 23.2309 11.7804 23.644C11.8288 23.6726 11.874 23.7065 11.915 23.7449C12.0334 23.9092 12.1151 24.097 12.1545 24.2955C12.194 24.4941 12.1904 24.6988 12.1439 24.8958C12.0686 25.532 11.7901 26.1268 11.3497 26.5919C11.4526 27.2185 11.3804 27.8614 11.141 28.4495C10.8314 29.136 10.2997 29.9437 9.80841 29.9437ZM11.3968 21.9883C10.4878 23.9933 9.89743 26.1278 9.64687 28.3149C9.60648 29.237 9.76803 29.4793 9.8286 29.4927C9.88918 29.5062 10.4276 29.0956 10.7843 28.2139C11.0102 27.6714 11.0688 27.0738 10.9526 26.4977C10.942 26.4591 10.9427 26.4183 10.9546 26.3801C10.9665 26.3419 10.9892 26.308 11.0199 26.2823C11.4303 25.8727 11.6911 25.337 11.7602 24.7612C11.8208 24.2295 11.7131 24.0276 11.6458 23.9603C11.6136 23.9255 11.5712 23.9019 11.5247 23.893C11.4863 23.8961 11.4479 23.8886 11.4136 23.8712C11.3792 23.8539 11.3504 23.8273 11.3302 23.7946C11.31 23.7619 11.2993 23.7242 11.2991 23.6857C11.299 23.6473 11.3095 23.6095 11.3295 23.5767C11.5616 23.2105 11.6614 22.7758 11.6122 22.345C11.5799 22.2063 11.5045 22.0814 11.3968 21.9883Z" fill="#BA68C8"/>
<path d="M4.80106 28.3754C4.72632 28.3772 4.65198 28.3638 4.58256 28.3361C4.51314 28.3083 4.45009 28.2667 4.39723 28.2138C3.95302 27.7629 4.39723 26.6389 4.86163 25.9928C5.16379 25.5036 5.62471 25.133 6.16734 24.9429C6.30408 24.3265 6.63422 23.7699 7.1096 23.3545C7.22724 23.233 7.37264 23.142 7.53327 23.0893C7.69389 23.0365 7.86493 23.0236 8.03166 23.0516C8.10394 23.0742 8.17211 23.1083 8.23357 23.1526C8.325 22.9736 8.4513 22.8147 8.60503 22.6853C8.75875 22.5558 8.93681 22.4584 9.12873 22.3987C9.26979 22.3748 9.41449 22.3842 9.55125 22.4263C9.688 22.4684 9.81299 22.5419 9.91617 22.641C10.32 21.968 10.7238 21.295 11.1142 20.6219C11.1389 20.5716 11.1823 20.5329 11.235 20.5141C11.2878 20.4952 11.3459 20.4977 11.3969 20.521C11.4449 20.5479 11.4804 20.5927 11.4955 20.6457C11.5106 20.6986 11.5042 20.7554 11.4776 20.8036C9.58639 24.2631 7.57399 26.8004 5.80389 27.9648C5.50934 28.1836 5.16448 28.3248 4.80106 28.3754ZM7.84995 23.4487C7.67018 23.4761 7.50326 23.5583 7.37207 23.6843C6.94463 24.0661 6.65784 24.5804 6.55769 25.1448C6.55096 25.1906 6.52965 25.233 6.49692 25.2657C6.46419 25.2984 6.42178 25.3197 6.37598 25.3265C6.1316 25.3917 5.90271 25.505 5.70275 25.6599C5.5028 25.8148 5.33581 26.008 5.21161 26.2284C4.6799 27.0226 4.53856 27.7696 4.70009 27.9177C4.86162 28.0658 5.00969 27.985 5.58177 27.6081C7.23236 26.3478 8.62604 24.7828 9.68734 22.9978C9.62858 22.9304 9.55452 22.8781 9.47137 22.8453C9.38822 22.8126 9.29841 22.8002 9.20949 22.8093C8.85277 22.8833 8.53645 23.4218 8.45568 23.6237C8.43772 23.662 8.40915 23.6944 8.37338 23.7171C8.33761 23.7398 8.2961 23.7517 8.25376 23.7516C8.21094 23.7492 8.16989 23.7338 8.13617 23.7073C8.10245 23.6808 8.07769 23.6446 8.06531 23.6035C8.05136 23.5693 8.03038 23.5385 8.00371 23.513C7.97703 23.4874 7.94528 23.4678 7.91052 23.4554L7.84995 23.4487Z" fill="#BA68C8"/>
</svg>
