<svg width="59" height="199" viewBox="0 0 59 199" fill="none" xmlns="http://www.w3.org/2000/svg">
<path d="M58.2618 57.667C58.2618 46.7045 48.1964 36.2566 43.8101 32.1275C41.4817 29.931 40.0504 28.8295 39.3974 27.5103C38.8302 26.3033 38.9093 25.6371 38.9093 23.3153H19.3721C19.3721 25.6371 19.4513 26.3033 18.884 27.5103C18.2244 28.8757 16.7997 29.9442 14.4713 32.1275C10.085 36.2566 0.0261673 46.7045 0.0195713 57.667C0.0216708 58.6715 0.175101 59.6699 0.474694 60.6286C0.175132 61.5896 0.0217102 62.5902 0.0195713 63.5968V68.3261C0.0204607 69.2683 0.155947 70.2056 0.421925 71.1096C0.122213 72.1324 -0.00703594 73.1976 0.0393609 74.2624V80.1988C0.0315591 82.1461 0.608292 84.0509 1.69494 85.6669L3.01414 87.5203C4.01192 88.976 4.59437 90.6759 4.69896 92.4377C4.80355 94.1994 4.42632 95.9563 3.60777 97.5198L1.14748 102.242C0.420723 103.633 0.0405731 105.179 0.0393609 106.748V182.205C0.0393609 186.512 2.88222 190.813 8.56793 194.078C19.9394 200.641 38.3816 200.641 49.7531 194.078C55.4388 190.78 58.2816 186.493 58.2816 182.205V106.748C58.2804 105.179 57.9003 103.633 57.1735 102.242L54.7132 97.5198C53.8942 95.9561 53.5173 94.1986 53.6231 92.4366C53.7288 90.6746 54.3133 88.9748 55.3135 87.5203L56.5799 85.6669C57.6892 84.0469 58.2824 82.1292 58.2816 80.1658V74.2624C58.3214 73.1979 58.1923 72.1337 57.8991 71.1096C58.1601 70.2047 58.2933 69.2678 58.2948 68.3261V63.5968C58.2927 62.5902 58.1393 61.5896 57.8397 60.6286C58.1393 59.6699 58.2927 58.6715 58.2948 57.667H58.2618Z" fill="#BA68C8"/>
<path opacity="0.5" d="M58.2618 57.667C58.2618 46.7045 48.1964 36.2566 43.8101 32.1275C41.4817 29.931 40.0504 28.8295 39.3974 27.5103C38.8302 26.3033 38.9093 25.6371 38.9093 23.3153H19.3721C19.3721 25.6371 19.4513 26.3033 18.884 27.5103C18.2244 28.8757 16.7997 29.9442 14.4713 32.1275C10.085 36.2566 0.0261673 46.7045 0.0195713 57.667C0.0216708 58.6715 0.175101 59.6699 0.474694 60.6286C0.175132 61.5896 0.0217102 62.5902 0.0195713 63.5968V68.3261C0.0204607 69.2683 0.155947 70.2056 0.421925 71.1096C0.122213 72.1324 -0.00703594 73.1976 0.0393609 74.2624V80.1988C0.0315591 82.1461 0.608292 84.0509 1.69494 85.6669L3.01414 87.5203C4.01192 88.976 4.59437 90.6759 4.69896 92.4377C4.80355 94.1994 4.42632 95.9563 3.60777 97.5198L1.14748 102.242C0.420723 103.633 0.0405731 105.179 0.0393609 106.748V182.205C0.0393609 186.512 2.88222 190.813 8.56793 194.078C19.9394 200.641 38.3816 200.641 49.7531 194.078C55.4388 190.78 58.2816 186.493 58.2816 182.205V106.748C58.2804 105.179 57.9003 103.633 57.1735 102.242L54.7132 97.5198C53.8942 95.9561 53.5173 94.1986 53.6231 92.4366C53.7288 90.6746 54.3133 88.9748 55.3135 87.5203L56.5799 85.6669C57.6892 84.0469 58.2824 82.1292 58.2816 80.1658V74.2624C58.3214 73.1979 58.1923 72.1337 57.8991 71.1096C58.1601 70.2047 58.2933 69.2678 58.2948 68.3261V63.5968C58.2927 62.5902 58.1393 61.5896 57.8397 60.6286C58.1393 59.6699 58.2927 58.6715 58.2948 57.667H58.2618Z" fill="white"/>
<path d="M0.0195713 68.326C0.0195713 72.6331 2.86243 76.9337 8.54814 80.1987C19.9196 86.7617 38.3619 86.7617 49.7333 80.1987C55.419 76.9007 58.2619 72.6134 58.2619 68.326V63.5901C58.2619 67.8972 55.419 72.1978 49.7333 75.4628C38.3619 82.0588 19.9196 82.0588 8.54814 75.4628C2.86243 72.1648 0.0195713 67.8775 0.0195713 63.5901V68.326Z" fill="#BA68C8"/>
<path d="M0.0195713 80.2841C0.0195713 84.5847 2.86243 88.8589 8.54814 92.1569C19.9196 98.7198 38.3619 98.7198 49.7333 92.1569C55.419 88.8589 58.2619 84.5715 58.2619 80.2841V73.8861C58.2619 78.1866 55.419 82.4608 49.7333 85.7588C38.3619 92.3547 19.9196 92.3547 8.54814 85.7588C2.86243 82.4608 0.0195713 78.1734 0.0195713 73.8861V80.2841Z" fill="#8873F4"/>
<path d="M58.2619 57.6602C58.2614 58.1616 58.2217 58.6622 58.1431 59.1575C58.1298 59.2728 58.1099 59.3873 58.0838 59.5004C58.0155 59.8813 57.9252 60.2579 57.8133 60.6284C56.8042 63.9263 54.113 67.0264 49.7333 69.5527C38.3553 76.1486 19.9262 76.1157 8.55474 69.5527C4.17502 67.0198 1.48387 63.8999 0.474694 60.6284C0.462359 60.5769 0.446941 60.5262 0.428522 60.4766C0.386385 60.3445 0.351156 60.2102 0.322985 60.0743C0.124408 59.2849 0.0225235 58.4742 0.0195713 57.6602C0.0195713 46.6977 10.085 36.2497 14.4713 32.1206C16.7997 29.9308 18.231 28.8227 18.884 27.5035C19.4578 26.2964 19.3721 25.6302 19.3721 23.3084H38.9093C38.9093 25.6302 38.8236 26.2964 39.3974 27.5035C40.057 28.8688 41.4817 29.944 43.8167 32.1206C48.1964 36.2497 58.2553 46.6977 58.2619 57.6602Z" fill="#BA68C8"/>
<path d="M47.9328 112.591C37.5508 118.58 20.7311 118.58 10.3359 112.591C3.24525 108.502 0.996026 102.697 3.59483 97.4734C3.59483 97.4734 3.59483 97.5064 3.59483 97.5196L1.13454 102.242C0.407785 103.633 0.0276335 105.178 0.0264213 106.747V182.205C0.0264213 186.512 2.86928 190.813 8.55499 194.078C19.9264 200.641 38.3687 200.641 49.7401 194.078C55.4258 190.78 58.2687 186.492 58.2687 182.205V106.747C58.2675 105.178 57.8873 103.633 57.1606 102.242L54.7003 97.5196V97.4734C57.2661 102.671 55.0169 108.502 47.9328 112.591Z" fill="#8873F4"/>
<g opacity="0.7">
<path d="M0.0195713 68.326C0.0195713 72.6331 2.86243 76.9337 8.54814 80.1987C19.9196 86.7617 38.3619 86.7617 49.7333 80.1987C55.419 76.9007 58.2619 72.6134 58.2619 68.326V63.5901C58.2619 67.8972 55.419 72.1978 49.7333 75.4628C38.3619 82.0588 19.9196 82.0588 8.54814 75.4628C2.86243 72.1648 0.0195713 67.8775 0.0195713 63.5901V68.326Z" fill="white"/>
<path d="M0.0195713 80.2841C0.0195713 84.5847 2.86243 88.8589 8.54814 92.1569C19.9196 98.7198 38.3619 98.7198 49.7333 92.1569C55.419 88.8589 58.2619 84.5715 58.2619 80.2841V73.8861C58.2619 78.1866 55.419 82.4608 49.7333 85.7588C38.3619 92.3547 19.9196 92.3547 8.54814 85.7588C2.86243 82.4608 0.0195713 78.1734 0.0195713 73.8861V80.2841Z" fill="white"/>
<path d="M58.2619 57.6602C58.2614 58.1616 58.2217 58.6622 58.1431 59.1575C58.1298 59.2728 58.1099 59.3873 58.0838 59.5004C58.0155 59.8813 57.9252 60.2579 57.8133 60.6284C56.8042 63.9263 54.113 67.0264 49.7333 69.5527C38.3553 76.1486 19.9262 76.1157 8.55474 69.5527C4.17502 67.0198 1.48387 63.8999 0.474694 60.6284C0.462359 60.5769 0.446941 60.5262 0.428522 60.4766C0.386385 60.3445 0.351156 60.2102 0.322985 60.0743C0.124408 59.2849 0.0225235 58.4742 0.0195713 57.6602C0.0195713 46.6977 10.085 36.2497 14.4713 32.1206C16.7997 29.9308 18.231 28.8227 18.884 27.5035C19.4578 26.2964 19.3721 25.6302 19.3721 23.3084H38.9093C38.9093 25.6302 38.8236 26.2964 39.3974 27.5035C40.057 28.8688 41.4817 29.944 43.8167 32.1206C48.1964 36.2497 58.2553 46.6977 58.2619 57.6602Z" fill="#8873F4"/>
<path d="M47.9328 112.591C37.5508 118.58 20.7311 118.58 10.3359 112.591C3.24525 108.502 0.996026 102.697 3.59483 97.4734C3.59483 97.4734 3.59483 97.5064 3.59483 97.5196L1.13454 102.242C0.407785 103.633 0.0276335 105.178 0.0264213 106.747V182.205C0.0264213 186.512 2.86928 190.813 8.55499 194.078C19.9264 200.641 38.3687 200.641 49.7401 194.078C55.4258 190.78 58.2687 186.492 58.2687 182.205V106.747C58.2675 105.178 57.8873 103.633 57.1606 102.242L54.7003 97.5196V97.4734C57.2661 102.671 55.0169 108.502 47.9328 112.591Z" fill="white"/>
</g>
<path d="M54.7791 61.5581C54.9845 62.218 55.089 62.9051 55.0891 63.5963V68.3256C55.0903 68.9685 54.9993 69.6082 54.8186 70.2252L54.568 71.1091L54.8186 71.9863C55.0221 72.6864 55.1112 73.4147 55.0825 74.1432L54.9505 77.4412H55.122V80.1983C55.1231 81.5226 54.7255 82.8166 53.9809 83.9118L52.7079 85.7587C51.3864 87.6904 50.6148 89.945 50.4753 92.2813C50.3359 94.6176 50.834 96.9479 51.9164 99.0231L54.3833 103.746C54.8684 104.686 55.1217 105.729 55.122 106.787V182.244C55.122 185.542 52.6618 188.801 48.1831 191.386C43.157 194.289 36.4093 195.885 29.1736 195.885C21.9378 195.885 15.1901 194.289 10.1706 191.386C5.68536 188.801 3.22507 185.549 3.22507 182.244V106.754C3.22385 105.695 3.47723 104.653 3.96382 103.713L6.43071 98.9902C7.51308 96.915 8.01118 94.5847 7.87177 92.2483C7.73236 89.912 6.96067 87.6574 5.63919 85.7257L4.33319 83.8788C3.59051 82.7951 3.19275 81.5121 3.19209 80.1983V77.4676H3.31082L3.20529 74.1696C3.17198 73.4435 3.2589 72.717 3.46253 72.0193L3.71977 71.142L3.46253 70.2582C3.28235 69.6411 3.19129 69.0014 3.19209 68.3585V63.6358C3.19068 62.9424 3.29523 62.2529 3.5021 61.5911L3.79232 60.6611L3.5021 59.731C3.29669 59.0711 3.19217 58.384 3.19209 57.6929C3.19209 53.8474 4.66299 49.9822 6.74731 46.4468C6.75587 46.4278 6.76697 46.41 6.78029 46.394C6.85285 46.2621 6.932 46.1368 7.00455 46.0114C7.07711 45.8861 7.08371 45.8861 7.11669 45.8268C8.51431 43.8306 10.3569 42.1867 12.499 41.0249C21.6937 35.7152 36.5874 35.7152 45.7822 41.0249C47.9242 42.1867 49.7669 43.8306 51.1645 45.8268L51.2766 46.0114L51.5075 46.394C51.5095 46.4115 51.5095 46.4293 51.5075 46.4468C53.5852 49.9822 55.0561 53.8474 55.0561 57.6929C55.0537 58.3838 54.9493 59.0706 54.7461 59.731L54.4559 60.6611L54.7791 61.5581Z" fill="#BA68C8"/>
<path opacity="0.85" d="M54.7791 61.5581C54.9845 62.218 55.089 62.9051 55.0891 63.5963V68.3256C55.0903 68.9685 54.9993 69.6082 54.8186 70.2252L54.568 71.1091L54.8186 71.9863C55.0221 72.6864 55.1112 73.4147 55.0825 74.1432L54.9505 77.4412H55.122V80.1983C55.1231 81.5226 54.7255 82.8166 53.9809 83.9118L52.7079 85.7587C51.3864 87.6904 50.6148 89.945 50.4753 92.2813C50.3359 94.6176 50.834 96.9479 51.9164 99.0231L54.3833 103.746C54.8684 104.686 55.1217 105.729 55.122 106.787V182.244C55.122 185.542 52.6618 188.801 48.1831 191.386C43.157 194.289 36.4093 195.885 29.1736 195.885C21.9378 195.885 15.1901 194.289 10.1706 191.386C5.68536 188.801 3.22507 185.549 3.22507 182.244V106.754C3.22385 105.695 3.47723 104.653 3.96382 103.713L6.43071 98.9902C7.51308 96.915 8.01118 94.5847 7.87177 92.2483C7.73236 89.912 6.96067 87.6574 5.63919 85.7257L4.33319 83.8788C3.59051 82.7951 3.19275 81.5121 3.19209 80.1983V77.4676H3.31082L3.20529 74.1696C3.17198 73.4435 3.2589 72.717 3.46253 72.0193L3.71977 71.142L3.46253 70.2582C3.28235 69.6411 3.19129 69.0014 3.19209 68.3585V63.6358C3.19068 62.9424 3.29523 62.2529 3.5021 61.5911L3.79232 60.6611L3.5021 59.731C3.29669 59.0711 3.19217 58.384 3.19209 57.6929C3.19209 53.8474 4.66299 49.9822 6.74731 46.4468C6.75587 46.4278 6.76697 46.41 6.78029 46.394C6.85285 46.2621 6.932 46.1368 7.00455 46.0114C7.07711 45.8861 7.08371 45.8861 7.11669 45.8268C8.51431 43.8306 10.3569 42.1867 12.499 41.0249C21.6937 35.7152 36.5874 35.7152 45.7822 41.0249C47.9242 42.1867 49.7669 43.8306 51.1645 45.8268L51.2766 46.0114L51.5075 46.394C51.5095 46.4115 51.5095 46.4293 51.5075 46.4468C53.5852 49.9822 55.0561 53.8474 55.0561 57.6929C55.0537 58.3838 54.9493 59.0706 54.7461 59.731L54.4559 60.6611L54.7791 61.5581Z" fill="white"/>
<path opacity="0.7" d="M45.7826 60.2127C36.5879 65.4895 21.6942 65.4895 12.4994 60.2127C6.03539 56.4794 4.11597 51.1103 6.74775 46.414C6.75631 46.395 6.76741 46.3773 6.78073 46.3612C6.85329 46.2293 6.93244 46.104 7.00499 45.9787C7.07755 45.8533 7.08415 45.8533 7.11713 45.794C8.51475 43.7978 10.3574 42.1539 12.4994 40.9921C21.6942 35.6824 36.5879 35.6824 45.7826 40.9921C47.9247 42.1539 49.7673 43.7978 51.1649 45.794L51.277 45.9787L51.5079 46.3612C51.5099 46.3788 51.5099 46.3965 51.5079 46.414C54.1595 51.1103 52.2466 56.453 45.7826 60.2127Z" fill="white"/>
<path d="M55.0033 76.0562C53.4763 77.7128 51.6951 79.1156 49.7265 80.2116C38.3485 86.8076 19.9194 86.8076 8.548 80.2116C6.57998 79.1094 4.79899 77.7025 3.27124 76.043L3.31741 77.4347H3.19868V80.1984C3.20034 80.7249 3.26231 81.2494 3.38337 81.7617C4.8944 83.3641 6.64029 84.7275 8.56119 85.805C19.9326 92.4009 38.3617 92.4009 49.7397 85.805C51.6575 84.7257 53.401 83.3625 54.911 81.7617C55.0409 81.2504 55.1117 80.7259 55.122 80.1984V77.4677H54.9835L55.0033 76.0562ZM51.8834 98.9903C50.9208 97.1478 50.4184 95.0998 50.4191 93.021C50.4196 92.5803 50.4438 92.1399 50.4917 91.7018C50.241 91.8601 49.9904 92.0118 49.7331 92.1569C38.3551 98.7199 19.926 98.7199 8.5546 92.1569L7.78947 91.7018C7.82904 92.1305 7.86202 92.5659 7.86202 93.021C7.86115 95.0996 7.35884 97.1473 6.39772 98.9903L3.93083 103.713C3.657 104.251 3.45731 104.823 3.3372 105.415C4.45191 108.053 6.78688 110.54 10.3487 112.591C20.7307 118.58 37.5504 118.58 47.9456 112.591C51.5075 110.54 53.8424 108.047 54.9571 105.415C54.837 104.823 54.6373 104.251 54.3635 103.713L51.8834 98.9903ZM49.7331 69.5526C38.3551 76.1485 19.926 76.1155 8.5546 69.5526C6.5503 68.4315 4.73962 66.995 3.19208 65.2982V68.3257C3.19128 68.9686 3.28234 69.6083 3.46252 70.2254L3.71976 71.1092L3.56805 71.6303C5.03116 73.1532 6.71154 74.4513 8.5546 75.4823C19.926 82.0783 38.3551 82.0783 49.7331 75.4823C51.5725 74.4457 53.2521 73.1482 54.7197 71.6303L54.568 71.1092L54.8186 70.2254C55.0104 69.61 55.1126 68.9702 55.122 68.3257V65.3048C53.5684 67.004 51.7483 68.4388 49.7331 69.5526Z" fill="#BA68C8"/>
<path opacity="0.7" d="M55.0033 76.0562C53.4763 77.7128 51.6951 79.1156 49.7265 80.2116C38.3485 86.8076 19.9194 86.8076 8.548 80.2116C6.57998 79.1094 4.79899 77.7025 3.27124 76.043L3.31741 77.4347H3.19868V80.1984C3.20034 80.7249 3.26231 81.2494 3.38337 81.7617C4.8944 83.3641 6.64029 84.7275 8.56119 85.805C19.9326 92.4009 38.3617 92.4009 49.7397 85.805C51.6575 84.7257 53.401 83.3625 54.911 81.7617C55.0409 81.2504 55.1117 80.7259 55.122 80.1984V77.4677H54.9835L55.0033 76.0562ZM51.8834 98.9903C50.9208 97.1478 50.4184 95.0998 50.4191 93.021C50.4196 92.5803 50.4438 92.1399 50.4917 91.7018C50.241 91.8601 49.9904 92.0118 49.7331 92.1569C38.3551 98.7199 19.926 98.7199 8.5546 92.1569L7.78947 91.7018C7.82904 92.1305 7.86202 92.5659 7.86202 93.021C7.86115 95.0996 7.35884 97.1473 6.39772 98.9903L3.93083 103.713C3.657 104.251 3.45731 104.823 3.3372 105.415C4.45191 108.053 6.78688 110.54 10.3487 112.591C20.7307 118.58 37.5504 118.58 47.9456 112.591C51.5075 110.54 53.8424 108.047 54.9571 105.415C54.837 104.823 54.6373 104.251 54.3635 103.713L51.8834 98.9903ZM49.7331 69.5526C38.3551 76.1485 19.926 76.1155 8.5546 69.5526C6.5503 68.4315 4.73962 66.995 3.19208 65.2982V68.3257C3.19128 68.9686 3.28234 69.6083 3.46252 70.2254L3.71976 71.1092L3.56805 71.6303C5.03116 73.1532 6.71154 74.4513 8.5546 75.4823C19.926 82.0783 38.3551 82.0783 49.7331 75.4823C51.5725 74.4457 53.2521 73.1482 54.7197 71.6303L54.568 71.1092L54.8186 70.2254C55.0104 69.61 55.1126 68.9702 55.122 68.3257V65.3048C53.5684 67.004 51.7483 68.4388 49.7331 69.5526Z" fill="white"/>
<path d="M46.0525 170.933C36.7127 165.768 21.5684 165.768 12.2285 170.933C7.56515 173.512 5.23018 176.869 5.22358 180.272V181.473C5.22358 184.388 7.49919 187.258 11.6283 189.54C16.2454 192.106 22.4786 193.497 29.1405 193.497C35.8024 193.497 42.029 192.092 46.6594 189.54C50.7884 187.258 53.0575 184.388 53.0575 181.473V180.286C53.0575 176.902 50.7225 173.518 46.0525 170.933Z" fill="#BA68C8"/>
<path opacity="0.75" d="M46.0525 170.933C36.7127 165.768 21.5684 165.768 12.2285 170.933C7.56515 173.512 5.23018 176.869 5.22358 180.272V181.473C5.22358 184.388 7.49919 187.258 11.6283 189.54C16.2454 192.106 22.4786 193.497 29.1405 193.497C35.8024 193.497 42.029 192.092 46.6594 189.54C50.7884 187.258 53.0575 184.388 53.0575 181.473V180.286C53.0575 176.902 50.7225 173.518 46.0525 170.933Z" fill="white"/>
<g opacity="0.2">
<path d="M14.4251 181.981V106.523C14.4304 104.953 14.8151 103.408 15.5465 102.018L18.0067 97.2955C18.8252 95.7308 19.2023 93.9729 19.0977 92.2102C18.9931 90.4475 18.4108 88.7464 17.4131 87.2895L16.1269 85.4756C15.0187 83.8551 14.4256 81.9378 14.4251 79.9746V74.0382C14.3846 72.971 14.516 71.9042 14.8143 70.8787C14.5475 69.9772 14.412 69.042 14.4119 68.1018V63.3725C14.4206 62.3671 14.5807 61.3687 14.8869 60.411C14.5868 59.4501 14.4334 58.4494 14.4317 57.4428C14.4317 46.4803 21.9181 36.0323 26.3045 31.9032C28.6394 29.7068 30.0707 28.6053 30.7171 27.2861C31.2712 26.1186 31.2118 25.4524 31.2118 23.3285H19.3721C19.3721 25.6503 19.4513 26.3165 18.884 27.5235C18.2244 28.8889 16.7997 29.9574 14.4713 32.1407C10.085 36.2698 0.0261673 46.7178 0.0195713 57.6802C0.0216708 58.6847 0.175101 59.6831 0.474694 60.6418C0.175132 61.6028 0.0217102 62.6034 0.0195713 63.61V68.3261C0.0204607 69.2684 0.155947 70.2057 0.421925 71.1096C0.122213 72.1324 -0.00703594 73.1976 0.0393609 74.2625V80.1988C0.0315591 82.1461 0.608292 84.0509 1.69494 85.6669L3.01414 87.5203C4.01192 88.976 4.59437 90.676 4.69896 92.4377C4.80355 94.1994 4.42632 95.9563 3.60777 97.5198L1.14748 102.242C0.420723 103.633 0.0405731 105.179 0.0393609 106.748V182.205C0.0393609 186.512 2.88222 190.813 8.56793 194.078C16.305 198.543 27.307 199.968 37.135 198.359C32.1677 197.787 27.3584 196.257 22.9735 193.854C17.268 190.589 14.4251 186.288 14.4251 181.981Z" fill="#BA68C8"/>
<path d="M49.7333 125.289C38.3619 131.852 19.9196 131.852 8.54814 125.289C2.86243 121.991 0.0195713 117.704 0.0195713 113.416V151.871C0.0195713 156.178 2.86243 160.478 8.54814 163.743C19.9196 170.306 38.3619 170.306 49.7333 163.743C55.419 160.445 58.2619 156.158 58.2619 151.871V113.416C58.2619 117.697 55.419 122.004 49.7333 125.289Z" fill="#BA68C8"/>
</g>
<path d="M38.4339 15.8286C33.3022 12.867 24.9781 12.867 19.8531 15.8286C17.2938 17.3061 16.0208 19.2387 16.0142 21.1713V23.2952C16.0142 25.2345 17.2872 27.1803 19.8531 28.6578C24.9781 31.6193 33.3022 31.6193 38.4339 28.6578C40.9997 27.1803 42.2661 25.2345 42.2661 23.2952V21.1911C42.2727 19.2519 40.9997 17.3061 38.4339 15.8286Z" fill="#8873F4"/>
<path opacity="0.5" d="M38.4339 15.8286C33.3022 12.867 24.9781 12.867 19.8531 15.8286C17.2938 17.3061 16.0208 19.2387 16.0142 21.1713V23.2952C16.0142 25.2345 17.2872 27.1803 19.8531 28.6578C24.9781 31.6193 33.3022 31.6193 38.4339 28.6578C40.9997 27.1803 42.2661 25.2345 42.2661 23.2952V21.1911C42.2727 19.2519 40.9997 17.3061 38.4339 15.8286Z" fill="white"/>
<path d="M19.8532 26.5536C14.7215 23.5921 14.7215 18.7902 19.8532 15.8286C24.9848 12.867 33.3023 12.867 38.434 15.8286C43.5656 18.7902 43.5656 23.5921 38.434 26.5536C33.3023 29.5152 24.9782 29.5152 19.8532 26.5536Z" fill="#BA68C8"/>
<path opacity="0.5" d="M19.8532 26.5536C14.7215 23.5921 14.7215 18.7902 19.8532 15.8286C24.9848 12.867 33.3023 12.867 38.434 15.8286C43.5656 18.7902 43.5656 23.5921 38.434 26.5536C33.3023 29.5152 24.9782 29.5152 19.8532 26.5536Z" fill="white"/>
<path opacity="0.1" d="M19.8532 26.5536C14.7215 23.5921 14.7215 18.7902 19.8532 15.8286C24.9848 12.867 33.3023 12.867 38.434 15.8286C43.5656 18.7902 43.5656 23.5921 38.434 26.5536C33.3023 29.5152 24.9782 29.5152 19.8532 26.5536Z" fill="black"/>
<path d="M38.1706 13.0782C33.184 10.2023 25.0974 10.2023 20.1108 13.0782C17.6242 14.5161 16.3907 16.3761 16.3841 18.2758V20.3403C16.3841 22.2267 17.6176 24.1132 20.1108 25.5511C25.0974 28.4335 33.184 28.4335 38.1706 25.5511C40.6638 24.1132 41.9039 22.2531 41.8973 20.3403V18.2956C41.9302 16.4091 40.6638 14.5227 38.1706 13.0782Z" fill="#BA68C8"/>
<path opacity="0.3" d="M38.1706 13.0782C33.184 10.2023 25.0974 10.2023 20.1108 13.0782C17.6242 14.5161 16.3907 16.3761 16.3841 18.2758V20.3403C16.3841 22.2267 17.6176 24.1132 20.1108 25.5511C25.0974 28.4335 33.184 28.4335 38.1706 25.5511C40.6638 24.1132 41.9039 22.2531 41.8973 20.3403V18.2956C41.9302 16.4091 40.6638 14.5227 38.1706 13.0782Z" fill="black"/>
<path d="M20.1103 23.5064C15.1238 20.6306 15.1238 15.9606 20.1103 13.0782C25.0969 10.1957 33.1835 10.2023 38.17 13.0782C43.1566 15.954 43.1566 20.6306 38.17 23.5064C33.1835 26.3822 25.0969 26.3888 20.1103 23.5064Z" fill="#BA68C8"/>
<path opacity="0.5" d="M20.1103 23.5064C15.1238 20.6306 15.1238 15.9606 20.1103 13.0782C25.0969 10.1957 33.1835 10.2023 38.17 13.0782C43.1566 15.954 43.1566 20.6306 38.17 23.5064C33.1835 26.3822 25.0969 26.3888 20.1103 23.5064Z" fill="black"/>
<path d="M38.4339 2.22119C33.3022 -0.740396 24.9781 -0.740396 19.8531 2.22119C17.2938 3.68549 16.0208 5.66427 16.0142 7.56391V17.6689C16.0142 19.6081 17.2872 21.5473 19.8531 23.0314C24.9781 25.993 33.3022 25.993 38.4339 23.0314C40.9997 21.5473 42.2661 19.6081 42.2661 17.6689V7.5837C42.2727 5.66428 40.9997 3.68549 38.4339 2.22119Z" fill="#BA68C8"/>
<path opacity="0.2" d="M38.4339 2.22119C33.3022 -0.740396 24.9781 -0.740396 19.8531 2.22119C17.2938 3.68549 16.0208 5.66427 16.0142 7.56391V17.6689C16.0142 19.6081 17.2872 21.5473 19.8531 23.0314C24.9781 25.993 33.3022 25.993 38.4339 23.0314C40.9997 21.5473 42.2661 19.6081 42.2661 17.6689V7.5837C42.2727 5.66428 40.9997 3.68549 38.4339 2.22119Z" fill="#8873F4"/>
<path opacity="0.5" d="M20.8226 12.3855C16.2055 9.74709 16.2055 5.43333 20.8226 2.78176C25.4398 0.130182 32.8668 0.143374 37.4576 2.78176C42.0484 5.42014 42.0748 9.7339 37.4576 12.3855C32.8405 15.037 25.4398 15.037 20.8226 12.3855Z" fill="#BA68C8"/>
<g opacity="0.15">
<path d="M29.5627 17.0093V23.3942C29.5636 23.4363 29.5561 23.4782 29.5406 23.5174C29.525 23.5565 29.5019 23.5922 29.4724 23.6223C29.4429 23.6524 29.4077 23.6763 29.3688 23.6927C29.33 23.709 29.2883 23.7174 29.2461 23.7174H29.0483C28.9637 23.7157 28.8832 23.6808 28.824 23.6204C28.7648 23.56 28.7316 23.4788 28.7316 23.3942V17.0093C28.7316 16.968 28.7399 16.9272 28.7559 16.8891C28.7719 16.8511 28.7953 16.8166 28.8248 16.7877C28.8543 16.7588 28.8892 16.7361 28.9276 16.721C28.966 16.7058 29.007 16.6984 29.0483 16.6993H29.2461C29.2874 16.6984 29.3284 16.7058 29.3668 16.721C29.4052 16.7361 29.4401 16.7588 29.4696 16.7877C29.4991 16.8166 29.5225 16.8511 29.5385 16.8891C29.5545 16.9272 29.5627 16.968 29.5627 17.0093Z" fill="black"/>
<path d="M27.4183 16.9497V23.3412C27.4195 23.381 27.4121 23.4207 27.3966 23.4575C27.3811 23.4942 27.3578 23.5272 27.3284 23.5541C27.2989 23.5811 27.264 23.6013 27.226 23.6135C27.188 23.6257 27.1479 23.6296 27.1083 23.6248H26.9434C26.8576 23.6138 26.7785 23.5726 26.7205 23.5085C26.6624 23.4444 26.6292 23.3616 26.6268 23.2752V16.8771C26.6266 16.8367 26.6349 16.7967 26.6511 16.7596C26.6673 16.7226 26.6911 16.6893 26.7209 16.662C26.7507 16.6347 26.7859 16.6139 26.8242 16.6009C26.8625 16.588 26.9031 16.5832 26.9434 16.5869H27.1083C27.1963 16.5968 27.2772 16.6398 27.3348 16.7072C27.3923 16.7745 27.4222 16.8612 27.4183 16.9497Z" fill="#8873F4"/>
<path d="M25.2352 16.6729V23.0578C25.237 23.097 25.2299 23.1362 25.2142 23.1723C25.1986 23.2083 25.1749 23.2403 25.1449 23.2658C25.115 23.2913 25.0796 23.3095 25.0415 23.3192C25.0034 23.3289 24.9636 23.3297 24.9252 23.3216H24.7866C24.7011 23.2977 24.6255 23.247 24.5709 23.1769C24.5163 23.1069 24.4856 23.0212 24.4832 22.9324V16.5212C24.4807 16.4822 24.4876 16.4432 24.5032 16.4074C24.5189 16.3716 24.5429 16.3401 24.5733 16.3156C24.6037 16.291 24.6395 16.2741 24.6778 16.2663C24.7161 16.2584 24.7557 16.2599 24.7932 16.2705H24.9252C25.0152 16.2917 25.0952 16.3433 25.1517 16.4166C25.2081 16.4899 25.2376 16.5804 25.2352 16.6729Z" fill="black"/>
<path d="M23.0917 16.1651V22.5566C23.0948 22.594 23.0882 22.6317 23.0724 22.6658C23.0566 22.6999 23.0322 22.7294 23.0017 22.7513C22.9711 22.7733 22.9354 22.7869 22.898 22.7909C22.8606 22.7949 22.8228 22.7892 22.7883 22.7742H22.6762C22.5918 22.7393 22.519 22.681 22.4664 22.6063C22.4139 22.5315 22.3837 22.4434 22.3794 22.3521V15.9342C22.3748 15.897 22.3803 15.8593 22.3952 15.8249C22.4101 15.7905 22.4339 15.7607 22.4641 15.7385C22.4943 15.7164 22.5299 15.7026 22.5672 15.6988C22.6044 15.6949 22.6421 15.701 22.6762 15.7165L22.7883 15.7561C22.8734 15.787 22.9476 15.8423 23.0015 15.915C23.0554 15.9877 23.0868 16.0747 23.0917 16.1651Z" fill="black"/>
<path d="M21.0335 15.4V21.7849C21.0407 21.8213 21.0367 21.8591 21.0221 21.8932C21.0074 21.9274 20.9828 21.9563 20.9515 21.9763C20.9201 21.9962 20.8835 22.0063 20.8464 22.0051C20.8092 22.0039 20.7733 21.9915 20.7433 21.9696L20.6378 21.9168C20.5553 21.8701 20.4861 21.8032 20.4365 21.7225C20.3869 21.6417 20.3586 21.5497 20.3542 21.4551V15.0702C20.3542 14.8921 20.4795 14.8195 20.6378 14.8987L20.7433 14.9515C20.8268 14.9942 20.8976 15.0581 20.9485 15.1368C20.9995 15.2156 21.0288 15.3063 21.0335 15.4Z" fill="black"/>
<path d="M19.1141 14.3312V20.7161C19.1141 20.8876 18.9954 20.9535 18.8503 20.848L18.725 20.7557C18.6513 20.6921 18.5911 20.6144 18.548 20.5272C18.505 20.4399 18.4799 20.3449 18.4743 20.2478V13.8563C18.4743 13.6782 18.5799 13.6254 18.725 13.731L18.8569 13.8299C18.9319 13.8913 18.9934 13.9675 19.0377 14.0538C19.082 14.14 19.108 14.2345 19.1141 14.3312Z" fill="black"/>
<path d="M17.3863 12.8141V19.1989C17.3863 19.377 17.2873 19.41 17.1818 19.2715L16.9575 18.9747C16.8492 18.7974 16.7879 18.5953 16.7795 18.3876V12.0028C16.7795 11.8313 16.8586 11.8049 16.9575 11.95C17.0565 12.0951 17.1027 12.1545 17.1818 12.2534C17.3015 12.4173 17.3724 12.6116 17.3863 12.8141Z" fill="black"/>
<path d="M30.8877 16.9497V23.3412C30.8864 23.3817 30.8939 23.422 30.9098 23.4593C30.9257 23.4966 30.9496 23.5299 30.9798 23.557C31.0099 23.584 31.0457 23.6041 31.0845 23.6158C31.1233 23.6275 31.1642 23.6306 31.2043 23.6248H31.3626C31.4484 23.6138 31.5275 23.5726 31.5855 23.5085C31.6436 23.4444 31.6768 23.3616 31.6792 23.2752V16.8771C31.6794 16.8367 31.6711 16.7967 31.6549 16.7596C31.6387 16.7226 31.6149 16.6893 31.5851 16.662C31.5553 16.6347 31.5201 16.6139 31.4818 16.6009C31.4435 16.588 31.4029 16.5832 31.3626 16.5869H31.2043C31.1151 16.5953 31.0325 16.6376 30.9736 16.7051C30.9147 16.7726 30.884 16.8602 30.8877 16.9497Z" fill="black"/>
<path d="M33.0582 16.6729V23.0578C33.0563 23.097 33.0635 23.1362 33.0791 23.1723C33.0948 23.2083 33.1185 23.2403 33.1484 23.2658C33.1783 23.2913 33.2137 23.3095 33.2518 23.3192C33.2899 23.3289 33.3297 23.3297 33.3682 23.3216H33.5067C33.5934 23.2989 33.6705 23.2487 33.7264 23.1786C33.7822 23.1084 33.8139 23.0221 33.8167 22.9324V16.5212C33.8192 16.4822 33.8124 16.4432 33.7967 16.4074C33.781 16.3716 33.757 16.3401 33.7266 16.3156C33.6962 16.291 33.6604 16.2741 33.6221 16.2663C33.5839 16.2584 33.5443 16.2599 33.5067 16.2705H33.3682C33.2781 16.2917 33.1981 16.3433 33.1417 16.4166C33.0852 16.4899 33.0557 16.5804 33.0582 16.6729Z" fill="black"/>
<path d="M35.2017 16.1651V22.5566C35.1986 22.594 35.2052 22.6317 35.221 22.6658C35.2368 22.6999 35.2612 22.7294 35.2917 22.7513C35.3223 22.7733 35.358 22.7869 35.3954 22.7909C35.4328 22.7949 35.4706 22.7892 35.5051 22.7742H35.6172C35.7024 22.7396 35.7761 22.6816 35.8298 22.6069C35.8835 22.5322 35.915 22.4439 35.9206 22.3521V15.9342C35.9237 15.8967 35.9171 15.8591 35.9013 15.825C35.8855 15.7908 35.8611 15.7614 35.8306 15.7394C35.8 15.7175 35.7643 15.7039 35.7269 15.6999C35.6895 15.6959 35.6517 15.7016 35.6172 15.7165L35.5051 15.7561C35.42 15.787 35.3459 15.8423 35.2919 15.915C35.238 15.9877 35.2066 16.0747 35.2017 16.1651Z" fill="black"/>
<path d="M37.2594 15.4V21.7849C37.2522 21.8213 37.2562 21.8591 37.2709 21.8932C37.2855 21.9274 37.3101 21.9563 37.3415 21.9763C37.3728 21.9962 37.4094 22.0063 37.4466 22.0051C37.4837 22.0039 37.5196 21.9915 37.5496 21.9696L37.6551 21.9168C37.7376 21.8701 37.8068 21.8032 37.8564 21.7225C37.906 21.6417 37.9344 21.5497 37.9388 21.4551V15.0702C37.9388 14.8921 37.8134 14.8195 37.6551 14.8987L37.5496 14.9515C37.4661 14.9942 37.3954 15.0581 37.3444 15.1368C37.2935 15.2156 37.2641 15.3063 37.2594 15.4Z" fill="#8873F4"/>
<path d="M39.1788 14.3312V20.7161C39.1788 20.8876 39.2975 20.9535 39.4426 20.848L39.568 20.7557C39.6417 20.6921 39.7018 20.6144 39.7449 20.5272C39.788 20.4399 39.813 20.3449 39.8186 20.2478V13.8563C39.8186 13.6782 39.7131 13.6254 39.5746 13.731L39.4426 13.8299C39.3642 13.8886 39.2998 13.9641 39.2542 14.0508C39.2085 14.1375 39.1828 14.2333 39.1788 14.3312Z" fill="black"/>
<path d="M40.9138 12.8141V19.1989C40.9138 19.377 41.0061 19.41 41.1117 19.2715C41.2172 19.133 41.27 19.0736 41.3359 18.9747C41.4443 18.7974 41.5056 18.5953 41.514 18.3876V12.0028C41.514 11.8313 41.4349 11.8049 41.3359 11.95C41.267 12.0553 41.1922 12.1566 41.1117 12.2534C40.994 12.4178 40.9254 12.6122 40.9138 12.8141Z" fill="black"/>
</g>
<path opacity="0.15" d="M16.0147 7.64308V17.6689C16.0225 18.2694 16.1456 18.8629 16.3775 19.4169C16.1167 20.0291 15.9928 20.691 16.0147 21.3561V23.2953C16.0147 25.2345 17.2877 27.1803 19.8536 28.6578C21.9095 29.7902 24.1734 30.4947 26.5089 30.7289V28.6314L28.0787 27.6882V25.6434L28.6064 25.2477H28.0787V15.1361C25.2016 15.0498 22.3846 14.2908 19.8536 12.9198C17.3273 11.4819 16.0477 9.5757 16.0147 7.64308Z" fill="black"/>
<path d="M49.7333 127.399C38.3619 133.995 19.9196 133.995 8.54814 127.399C2.86243 124.101 0.0195713 119.814 0.0195713 115.526V153.981C0.0195713 158.281 2.86243 162.589 8.54814 165.854C19.9196 172.45 38.3619 172.45 49.7333 165.854C55.419 162.556 58.2619 158.268 58.2619 153.981V115.526C58.2619 119.814 55.419 124.114 49.7333 127.399Z" fill="#BA68C8"/>
<path d="M58.2619 142.365V140.604C56.9756 141.825 55.762 143.124 54.5615 144.417C53.0519 146.103 51.4581 147.713 49.7861 149.238C43.3088 154.957 36.0533 156.817 27.6039 154.918C21.5026 153.552 16.0873 148.322 11.5955 143.342C10.6523 142.299 9.73541 141.231 8.85815 140.202C6.08125 136.957 3.44287 133.89 0.0195713 131.766V133.256C2.97456 135.235 5.36889 138.071 7.89514 141.026C8.779 142.062 9.70244 143.137 10.6523 144.193C15.2694 149.298 20.8826 154.706 27.3268 156.158C29.4494 156.646 31.6194 156.898 33.7975 156.91C39.9845 156.91 45.5317 154.687 50.6237 150.188C52.3585 148.658 53.9217 146.943 55.4916 145.281C56.4414 144.285 57.3318 143.302 58.2619 142.365Z" fill="#FAFAFA"/>
<path d="M50.2082 154.489C42.8273 160.616 34.9583 161.118 27.716 159.489C21.2915 158.031 15.4211 153.282 11.1272 148.546C7.37406 144.41 4.28715 140.05 0.0195713 137.28V151.85C0.0195713 156.158 2.86243 160.458 8.54814 163.723C19.9196 170.286 38.3619 170.286 49.7333 163.723C55.419 160.425 58.2619 156.138 58.2619 151.85V146.257C55.5641 148.895 53.1434 152.029 50.2082 154.489Z" fill="#FAFAFA"/>
<path opacity="0.1" d="M12.2487 129.213C10.9695 128.692 9.72662 128.086 8.52857 127.399C2.84286 124.101 0 119.814 0 115.526V153.981C0 158.281 2.84286 162.589 8.52857 165.854C9.72523 166.543 10.9682 167.149 12.2487 167.667V129.213Z" fill="black"/>
</svg>
