<svg width="289" height="287" viewBox="0 0 289 287" fill="none" xmlns="http://www.w3.org/2000/svg">
<path d="M246.321 146.801C302.932 178.88 303.235 230.883 246.978 262.956C190.722 295.028 99.2639 295.002 42.6525 262.956C-13.959 230.91 -14.2548 178.88 41.9951 146.807C98.245 114.735 189.716 114.729 246.321 146.801Z" fill="#F5F5F5"/>
<path d="M51.3758 184.566C49.5155 185.644 49.5023 187.386 51.3758 188.458L58.0348 192.329C59.0764 192.859 60.2285 193.135 61.3972 193.135C62.5658 193.135 63.7179 192.859 64.7595 192.329L145.042 145.69C146.903 144.618 146.922 142.87 145.042 141.792L138.377 137.92C137.335 137.39 136.183 137.114 135.014 137.114C133.846 137.114 132.694 137.39 131.652 137.92L51.3758 184.566Z" fill="#E6E6E6"/>
<path d="M62.6428 232.553L121.982 267.031C122.81 267.512 123.75 267.765 124.707 267.765C125.664 267.765 126.604 267.512 127.432 267.031L235.205 204.832C235.411 204.712 235.582 204.541 235.701 204.334C235.82 204.128 235.883 203.894 235.883 203.655C235.883 203.417 235.82 203.183 235.701 202.977C235.582 202.77 235.411 202.598 235.205 202.479L176.701 168.48C175.877 168.007 174.943 167.758 173.992 167.758C173.042 167.758 172.108 168.007 171.284 168.48L62.656 230.206C62.4508 230.325 62.2803 230.495 62.1613 230.701C62.0423 230.906 61.979 231.138 61.9777 231.376C61.9763 231.613 62.037 231.846 62.1537 232.053C62.2704 232.259 62.439 232.432 62.6428 232.553Z" fill="#E6E6E6"/>
<path d="M241.193 153.249L241.187 155.491L204.283 134.18L204.289 131.938L241.193 153.249Z" fill="#BA68C8"/>
<path d="M228.046 149.226L228.04 151.468L204.27 137.742L204.276 135.501L228.046 149.226Z" fill="#BA68C8"/>
<path d="M217.266 118.127C217.653 118.35 217.994 118.645 218.272 118.994C219.442 120.395 219.732 122.281 219.889 123.918C220.113 126.186 220.343 128.454 220.547 130.722C220.63 131.913 220.851 133.091 221.204 134.232C221.583 135.469 222.3 136.576 223.275 137.427C223.387 137.515 223.505 137.594 223.63 137.663C223.969 137.89 224.368 138.011 224.777 138.011C225.185 138.011 225.584 137.89 225.924 137.663C226.575 137.073 227.091 136.349 227.436 135.54C227.864 134.591 228.567 133.792 229.454 133.246C229.907 133.049 230.402 132.968 230.894 133.01C231.386 133.051 231.86 133.213 232.274 133.483C232.448 133.585 232.615 133.699 232.773 133.824C234.686 135.29 235.817 138.17 236.718 140.667C237.618 143.165 238.769 146.064 240.695 147.465C240.821 147.559 240.953 147.647 241.089 147.727C241.672 148.079 242.35 148.239 243.029 148.184C243.707 148.128 244.351 147.86 244.869 147.419C245.927 146.61 246.782 145.446 248.103 145.091C248.804 144.955 249.531 145.057 250.167 145.381V156.293L204.31 129.834L204.363 111.698C205.224 113.185 205.832 114.804 206.164 116.49C206.558 118.672 206.466 121.045 207.939 122.971C208.296 123.44 208.743 123.833 209.253 124.128C209.806 124.478 210.469 124.609 211.114 124.497C212.021 124.26 212.593 123.412 212.967 122.413C213.473 121.098 213.704 119.455 214.506 118.469C214.848 118.089 215.315 117.845 215.822 117.782C216.329 117.72 216.842 117.842 217.266 118.127Z" fill="#BA68C8"/>
<path opacity="0.4" d="M217.266 118.127C217.653 118.35 217.994 118.645 218.272 118.994C219.442 120.395 219.732 122.281 219.889 123.918C220.113 126.186 220.343 128.454 220.547 130.722C220.63 131.913 220.851 133.091 221.204 134.232C221.583 135.469 222.3 136.576 223.275 137.427C223.387 137.515 223.505 137.594 223.63 137.663C223.969 137.89 224.368 138.011 224.777 138.011C225.185 138.011 225.584 137.89 225.924 137.663C226.575 137.073 227.091 136.349 227.436 135.54C227.864 134.591 228.567 133.792 229.454 133.246C229.907 133.049 230.402 132.968 230.894 133.01C231.386 133.051 231.86 133.213 232.274 133.483C232.448 133.585 232.615 133.699 232.773 133.824C234.686 135.29 235.817 138.17 236.718 140.667C237.618 143.165 238.769 146.064 240.695 147.465C240.821 147.559 240.953 147.647 241.089 147.727C241.672 148.079 242.35 148.239 243.029 148.184C243.707 148.128 244.351 147.86 244.869 147.419C245.927 146.61 246.782 145.446 248.103 145.091C248.804 144.955 249.531 145.057 250.167 145.381V156.293L204.31 129.834L204.363 111.698C205.224 113.185 205.832 114.804 206.164 116.49C206.558 118.672 206.466 121.045 207.939 122.971C208.296 123.44 208.743 123.833 209.253 124.128C209.806 124.478 210.469 124.609 211.114 124.497C212.021 124.26 212.593 123.412 212.967 122.413C213.473 121.098 213.704 119.455 214.506 118.469C214.848 118.089 215.315 117.845 215.822 117.782C216.329 117.72 216.842 117.842 217.266 118.127Z" fill="white"/>
<path d="M257.424 60.8316L205.723 30.981C205.527 30.8464 205.302 30.7606 205.066 30.7309C204.831 30.7011 204.591 30.7283 204.369 30.8101H204.329L204.25 30.8561L202.16 32.0591H202.114H202.081C201.893 32.2095 201.745 32.4039 201.649 32.6252C201.554 32.8464 201.515 33.0878 201.535 33.3278L201.496 47.2637C201.532 47.9672 201.734 48.6521 202.086 49.2623C202.438 49.8725 202.93 50.3905 203.521 50.774L255.222 80.7034C255.429 80.8545 255.674 80.9469 255.929 80.9712C256.185 80.9955 256.442 80.9507 256.674 80.8415L258.804 79.6122C259.004 79.4604 259.162 79.2598 259.262 79.0295C259.362 78.7993 259.401 78.5473 259.376 78.2975L259.416 64.3616C259.384 63.6582 259.187 62.9722 258.841 62.359C258.495 61.7458 258.009 61.2226 257.424 60.8316Z" fill="#BA68C8"/>
<path opacity="0.3" d="M257.423 60.8316L205.722 30.981C205.527 30.8464 205.302 30.7606 205.066 30.7309C204.83 30.7011 204.591 30.7283 204.368 30.8101H204.329L204.25 30.8561L202.16 32.0591C202.388 31.9605 202.638 31.9226 202.886 31.9491C203.134 31.9756 203.37 32.0655 203.573 32.2103L255.274 62.0608C256.114 62.6067 256.746 63.4194 257.068 64.3681L259.225 63.1389C258.902 62.1887 258.267 61.3756 257.423 60.8316Z" fill="white"/>
<path opacity="0.2" d="M257.068 64.381C257.215 64.7653 257.293 65.1726 257.298 65.584L257.259 79.5265C257.287 79.7779 257.247 80.032 257.144 80.2631C257.041 80.4941 256.879 80.6936 256.674 80.8412L258.804 79.612C259.004 79.4601 259.161 79.2595 259.261 79.0293C259.361 78.7991 259.401 78.547 259.376 78.2973L259.415 64.3613C259.407 63.9523 259.33 63.5476 259.185 63.1649L257.068 64.381Z" fill="black"/>
<path d="M215.984 44.8186C217.108 46.7906 217.2 48.8613 216.267 49.7553L212.573 47.6255L212.316 45.3904C212.307 45.3262 212.285 45.2645 212.251 45.2092C212.217 45.1538 212.172 45.1059 212.119 45.0683C212.014 45.0092 211.928 45.0683 211.915 45.1538L211.376 48.4406L210.679 43.1817C210.668 43.1181 210.645 43.0574 210.61 43.0032C210.575 42.949 210.529 42.9024 210.476 42.8662C210.459 42.8511 210.438 42.8412 210.416 42.8376C210.393 42.8339 210.37 42.8368 210.35 42.8458C210.329 42.8548 210.311 42.8695 210.299 42.8883C210.286 42.9071 210.279 42.929 210.278 42.9517L209.772 46.5605L209.266 43.8522C209.241 43.732 209.17 43.6261 209.069 43.5564C208.97 43.5038 208.891 43.5564 208.872 43.6156L208.412 45.213L205.394 43.471C204.467 41.4989 204.573 39.5268 205.71 38.8695C206.073 38.706 206.472 38.6413 206.868 38.6816C207.264 38.722 207.642 38.8662 207.965 39.0996C208.902 39.6839 209.673 40.4986 210.206 41.466L210.863 42.5704L211.521 42.2023C211.883 42.0407 212.281 41.977 212.676 42.0173C213.07 42.0577 213.447 42.2008 213.769 42.4323C214.699 43.0261 215.461 43.8474 215.984 44.8186ZM212.099 46.7906L211.573 50.0248C211.573 50.1234 211.475 50.1563 211.376 50.0971C211.322 50.0638 211.275 50.0189 211.24 49.9655C211.205 49.912 211.182 49.8515 211.172 49.7882L210.515 44.6082L210.048 47.9476C210.048 48.0527 209.95 48.0856 209.845 48.0396C209.793 48.0057 209.748 47.9613 209.714 47.9092C209.68 47.8571 209.657 47.7986 209.647 47.7372L209.075 44.6937L208.793 45.6994C208.793 45.7849 208.688 45.8112 208.596 45.7586L205.782 44.1349L206.361 45.1407L210.844 52.904L215.353 50.3272L215.932 49.9985L212.428 47.9739C212.373 47.9389 212.327 47.8926 212.292 47.8382C212.257 47.7838 212.234 47.7224 212.224 47.6583L212.099 46.7906Z" fill="#BA68C8"/>
<path d="M210.476 42.8727C210.529 42.9089 210.575 42.9555 210.61 43.0097C210.645 43.064 210.669 43.1247 210.68 43.1883L211.376 48.4471L211.915 45.1603C211.915 45.0552 212.014 45.0157 212.119 45.0749C212.172 45.1125 212.217 45.1604 212.251 45.2157C212.285 45.2711 212.307 45.3328 212.316 45.397L212.573 47.632L216.267 49.7618L218.364 50.9714C218.423 51.0104 218.473 51.0629 218.508 51.1246C218.544 51.1862 218.564 51.2553 218.568 51.3263C218.568 51.4512 218.476 51.5038 218.357 51.4381L215.906 50.0248L212.402 48.0001C212.347 47.9651 212.301 47.9189 212.266 47.8644C212.231 47.81 212.208 47.7487 212.198 47.6846L212.099 46.8169L211.574 50.0511C211.574 50.1497 211.475 50.1825 211.376 50.1234C211.322 50.0901 211.275 50.0451 211.24 49.9917C211.205 49.9383 211.182 49.8778 211.173 49.8144L210.515 44.6345L210.049 47.9738C210.048 47.9958 210.042 48.0173 210.03 48.0358C210.018 48.0543 210.001 48.0692 209.982 48.0788C209.962 48.0883 209.94 48.0922 209.918 48.0899C209.896 48.0876 209.875 48.0793 209.858 48.0659C209.802 48.0347 209.754 47.9913 209.718 47.9389C209.681 47.8865 209.657 47.8265 209.648 47.7635L209.076 44.7199L208.793 45.7257C208.793 45.8111 208.688 45.8374 208.596 45.7848L205.782 44.1612L203.33 42.7413C203.272 42.7047 203.222 42.6546 203.187 42.5951C203.152 42.5356 203.131 42.4686 203.127 42.3995C203.127 42.268 203.219 42.2154 203.33 42.2746L205.421 43.4841L208.438 45.2261L208.898 43.6287C208.898 43.5433 208.997 43.517 209.082 43.563C209.135 43.597 209.181 43.6413 209.218 43.6932C209.254 43.7451 209.279 43.8036 209.293 43.8654L209.799 46.5737L210.305 42.9648C210.307 42.9458 210.314 42.9277 210.325 42.9119C210.335 42.8962 210.35 42.8832 210.366 42.8742C210.383 42.8651 210.402 42.8603 210.421 42.86C210.44 42.8598 210.459 42.8642 210.476 42.8727Z" fill="white"/>
<path opacity="0.4" d="M215.984 44.8186C217.108 46.7906 217.2 48.8613 216.267 49.7553L212.573 47.6255L212.316 45.3904C212.307 45.3262 212.285 45.2645 212.251 45.2092C212.217 45.1538 212.172 45.1059 212.119 45.0683C212.014 45.0092 211.928 45.0683 211.915 45.1538L211.376 48.4406L210.679 43.1817C210.668 43.1181 210.645 43.0574 210.61 43.0032C210.575 42.949 210.529 42.9024 210.476 42.8662C210.459 42.8511 210.438 42.8412 210.416 42.8376C210.393 42.8339 210.37 42.8368 210.35 42.8458C210.329 42.8548 210.311 42.8695 210.299 42.8883C210.286 42.9071 210.279 42.929 210.278 42.9517L209.772 46.5605L209.266 43.8522C209.241 43.732 209.17 43.6261 209.069 43.5564C208.97 43.5038 208.891 43.5564 208.872 43.6156L208.412 45.213L205.394 43.471C204.467 41.4989 204.573 39.5268 205.71 38.8695C206.073 38.706 206.472 38.6413 206.868 38.6816C207.264 38.722 207.642 38.8662 207.965 39.0996C208.902 39.6839 209.673 40.4986 210.206 41.466L210.863 42.5704L211.521 42.2023C211.883 42.0407 212.281 41.977 212.676 42.0173C213.07 42.0577 213.447 42.2008 213.769 42.4323C214.699 43.0261 215.461 43.8474 215.984 44.8186ZM212.099 46.7906L211.573 50.0248C211.573 50.1234 211.475 50.1563 211.376 50.0971C211.322 50.0638 211.275 50.0189 211.24 49.9655C211.205 49.912 211.182 49.8515 211.172 49.7882L210.515 44.6082L210.048 47.9476C210.048 48.0527 209.95 48.0856 209.845 48.0396C209.793 48.0057 209.748 47.9613 209.714 47.9092C209.68 47.8571 209.657 47.7986 209.647 47.7372L209.075 44.6937L208.793 45.6994C208.793 45.7849 208.688 45.8112 208.596 45.7586L205.782 44.1349L206.361 45.1407L210.844 52.904L215.353 50.3272L215.932 49.9985L212.428 47.9739C212.373 47.9389 212.327 47.8926 212.292 47.8382C212.257 47.7838 212.234 47.7224 212.224 47.6583L212.099 46.7906Z" fill="white"/>
<path d="M246.775 70.5606L246.768 72.8613L219.968 57.3872L219.974 55.0864L246.775 70.5606Z" fill="white"/>
<path d="M251.935 69.022L251.928 71.3293L219.981 52.8839L219.987 50.5766L251.935 69.022Z" fill="white"/>
<path d="M230.979 52.4042L230.972 54.7049L219.994 48.368L220.001 46.0673L230.979 52.4042Z" fill="white"/>
<path d="M257.424 88.0065L205.723 58.156C205.527 58.0213 205.302 57.9355 205.066 57.9058C204.831 57.8761 204.591 57.9032 204.369 57.9851H204.329L204.25 58.0311L202.16 59.234H202.114H202.081C201.893 59.3844 201.745 59.5788 201.649 59.8001C201.554 60.0214 201.515 60.2627 201.535 60.5027L201.496 74.4387C201.532 75.1421 201.734 75.827 202.086 76.4372C202.438 77.0474 202.93 77.5655 203.521 77.9489L255.222 107.799C255.429 107.951 255.674 108.043 255.929 108.067C256.185 108.092 256.442 108.047 256.674 107.938L258.804 106.708C259.006 106.558 259.164 106.357 259.265 106.127C259.365 105.896 259.403 105.644 259.376 105.394L259.416 91.451C259.371 90.7623 259.168 90.0931 258.823 89.4957C258.477 88.8982 257.998 88.3886 257.424 88.0065Z" fill="#BA68C8"/>
<path opacity="0.3" d="M257.423 88.0065L205.722 58.156C205.527 58.0213 205.302 57.9355 205.066 57.9058C204.83 57.8761 204.591 57.9032 204.368 57.9851H204.329L204.25 58.0311L202.16 59.234C202.388 59.1354 202.638 59.0975 202.886 59.124C203.134 59.1505 203.37 59.2405 203.573 59.3852L255.274 89.2489C256.114 89.7948 256.746 90.6075 257.068 91.5562L259.225 90.327C258.904 89.3719 258.269 88.5538 257.423 88.0065Z" fill="white"/>
<path opacity="0.2" d="M257.068 91.5565C257.216 91.9405 257.294 92.3479 257.298 92.7594L257.259 106.702C257.287 106.953 257.247 107.207 257.144 107.438C257.041 107.669 256.879 107.869 256.674 108.017L258.804 106.787C259.005 106.637 259.164 106.436 259.264 106.206C259.364 105.975 259.403 105.723 259.376 105.473L259.415 91.5302C259.407 91.1233 259.329 90.7209 259.185 90.3404L257.068 91.5565Z" fill="black"/>
<path d="M249.469 99.2344L249.463 101.535L234.83 93.0881L234.837 90.7808L249.469 99.2344Z" fill="white"/>
<path d="M251.317 95.7764L251.31 98.0837L234.837 88.5717L234.843 86.271L251.317 95.7764Z" fill="white"/>
<path d="M242.18 85.9885L242.173 88.2892L234.85 84.0624L234.857 81.7617L242.18 85.9885Z" fill="white"/>
<path d="M212.277 72.677C212.514 72.8304 212.712 73.0378 212.853 73.2823C212.995 73.5269 213.077 73.8015 213.092 74.0837V75.6417C213.092 76.1544 212.717 76.3647 212.27 76.1084L210.916 75.3261C210.681 75.1709 210.485 74.9628 210.345 74.7186C210.205 74.4743 210.123 74.2007 210.107 73.9194V72.3615C210.107 71.8421 210.475 71.6384 210.922 71.8947L212.277 72.677Z" fill="white"/>
<path opacity="0.4" d="M211.619 66.7216L211.816 66.8465V68.72C211.751 68.6724 211.683 68.6285 211.612 68.5885C209.016 67.0897 206.899 68.2927 206.886 71.2836C206.921 72.616 207.249 73.9244 207.846 75.116L206.452 75.2935C205.708 73.7469 205.303 72.0594 205.262 70.3436C205.269 66.3272 208.122 64.7035 211.619 66.7216Z" fill="white"/>
<path d="M211.817 66.8462C215.222 68.9366 217.95 73.7221 217.937 77.6597C217.923 81.5973 215.07 83.2998 211.58 81.2817C209.314 79.8389 207.529 77.7542 206.453 75.2932L207.846 75.1157C208.651 76.8785 209.947 78.3714 211.58 79.4148C214.209 80.9136 216.3 79.7041 216.306 76.7197C216.219 75.1318 215.769 73.585 214.991 72.1982C214.212 70.8114 213.126 69.6214 211.817 68.7197V66.8462Z" fill="white"/>
<path opacity="0.4" d="M225.713 74.8596L225.917 74.9845V76.858C225.851 76.8104 225.783 76.7665 225.713 76.7265C223.116 75.2278 221 76.4307 220.993 79.4217C221.026 80.7536 221.351 82.062 221.946 83.2541L220.559 83.4316C219.81 81.8864 219.402 80.1983 219.363 78.4817C219.369 74.4652 222.222 72.8153 225.713 74.8596Z" fill="white"/>
<path d="M226.377 80.8152C226.613 80.9701 226.808 81.1781 226.949 81.4224C227.089 81.6667 227.17 81.9406 227.186 82.222V83.7733C227.186 84.2926 226.824 84.503 226.371 84.2466L225.017 83.4644C224.781 83.3099 224.585 83.102 224.444 82.8576C224.304 82.6132 224.223 82.3391 224.208 82.0576V80.4997C224.208 79.9804 224.576 79.7766 225.03 80.033L226.377 80.8152Z" fill="white"/>
<path d="M225.916 74.9844C229.315 77.0748 232.043 81.8604 232.03 85.7979C232.016 89.7355 229.17 91.4381 225.673 89.42C223.408 87.9783 221.625 85.893 220.552 83.4315L221.939 83.254C222.746 85.0172 224.045 86.51 225.68 87.5531C228.276 89.0519 230.393 87.8423 230.406 84.8579C230.318 83.2694 229.867 81.7221 229.088 80.3351C228.308 78.9482 227.221 77.7586 225.91 76.8579L225.916 74.9844Z" fill="white"/>
<path d="M207.885 88.7823C208.218 88.997 208.493 89.288 208.69 89.6311C208.887 89.9741 208.999 90.3593 209.016 90.7544V92.9171C209.016 93.6336 208.51 93.9228 207.879 93.5744L205.999 92.4898C205.669 92.2728 205.396 91.9811 205.201 91.6384C205.005 91.2957 204.894 90.9117 204.875 90.5177V88.355C204.875 87.6385 205.387 87.3493 206.005 87.6977L207.885 88.7823Z" fill="#BA68C8"/>
<path d="M207.872 94.8692C208.203 95.0842 208.478 95.3754 208.674 95.7186C208.869 96.0617 208.98 96.4467 208.996 96.8413V99.004C208.996 99.7205 208.49 100.01 207.865 99.6613L205.985 98.5767C205.654 98.3617 205.379 98.0704 205.183 97.7273C204.988 97.3842 204.877 96.9992 204.861 96.6046V94.4353C204.861 93.7188 205.367 93.4296 205.992 93.778L207.872 94.8692Z" fill="#BA68C8"/>
<path d="M207.853 100.963C208.185 101.178 208.461 101.469 208.657 101.812C208.854 102.155 208.966 102.54 208.984 102.935V105.098C208.984 105.814 208.471 106.103 207.847 105.755L205.966 104.67C205.636 104.455 205.361 104.164 205.165 103.821C204.97 103.478 204.859 103.093 204.842 102.698V100.536C204.842 99.8257 205.349 99.5364 205.973 99.8782L207.853 100.963Z" fill="#BA68C8"/>
<path d="M239.491 120.532L239.485 122.682L210.916 106.182L210.922 104.033L239.491 120.532Z" fill="#BA68C8"/>
<path d="M250.883 121.006L250.876 123.162L210.929 100.102L210.935 97.9456L250.883 121.006Z" fill="#BA68C8"/>
<path d="M245.612 111.868L245.605 114.018L210.949 94.0146L210.956 91.8585L245.612 111.868Z" fill="#BA68C8"/>
<path d="M140.743 16.618C140.743 11.0764 138.771 7.1849 135.609 5.35088L128.516 1.16352L128.418 1.11093C128.134 0.946698 127.84 0.801751 127.537 0.677076C127.481 0.654431 127.424 0.634684 127.366 0.617914L127.063 0.512737C126.912 0.460148 126.768 0.394413 126.61 0.348398C126.452 0.302383 126.268 0.269517 126.104 0.230076L125.788 0.164339C125.734 0.147355 125.679 0.134175 125.624 0.124897C125.271 0.0630793 124.916 0.0213801 124.559 0H124.237C123.961 0 123.685 0 123.395 0L123.106 0.0328673L122.58 0.085457C122.416 0.085457 122.252 0.0854568 122.087 0.131472L121.647 0.230076C121.41 0.269517 121.173 0.322106 120.93 0.381268C120.799 0.381268 120.674 0.427281 120.542 0.466722C120.247 0.545605 119.951 0.637634 119.648 0.736238H119.556C119.195 0.854562 118.84 0.992608 118.472 1.1438L118.038 1.34101L117.624 1.53164C117.091 1.78144 116.559 2.05095 116.013 2.36648L64.161 32.309C63.5957 32.6377 63.0369 32.9927 62.4848 33.374L61.9589 33.7552C61.5842 34.0247 61.2161 34.3008 60.848 34.5901L60.2498 35.0897C59.9145 35.3723 59.5924 35.6616 59.2572 35.9574L58.6655 36.5095L58.2908 36.8579C58.1659 36.9828 58.041 37.1275 57.9161 37.2589C57.5217 37.6599 57.1273 38.0741 56.7461 38.5013C56.6277 38.6394 56.4963 38.7643 56.3714 38.9023L56.0756 39.2639C55.8455 39.5334 55.622 39.816 55.4182 40.0921C55.2144 40.3682 55.1158 40.4537 54.9712 40.6377C54.8266 40.8218 54.7411 40.9533 54.6294 41.111C54.5176 41.2688 54.3007 41.5449 54.1429 41.7684L53.8011 42.222C53.617 42.4849 53.4461 42.7544 53.2686 43.0239L52.9268 43.5301L52.7888 43.7405C52.4732 44.2335 52.1709 44.7265 51.875 45.2327L51.8225 45.3313L51.6515 45.6336C51.4478 45.9886 51.244 46.3502 51.0534 46.7117C50.9613 46.876 50.8824 47.047 50.797 47.2179L50.5275 47.7438C50.4552 47.9015 50.3697 48.0527 50.2974 48.2039C50.0936 48.618 49.9096 49.0322 49.7255 49.4529L49.6269 49.6698L49.594 49.729C49.3705 50.2549 49.1536 50.7807 48.9367 51.3066C48.9038 51.4052 48.8709 51.5038 48.8315 51.6024C48.7921 51.701 48.7 51.9837 48.6277 52.1743C48.5554 52.365 48.4305 52.7002 48.345 52.9697C48.2596 53.2393 48.2201 53.3773 48.1544 53.5877C48.0887 53.798 48.0032 54.0675 47.9375 54.3042C47.8718 54.5408 47.8389 54.6066 47.7994 54.7577C47.7206 55.0273 47.668 55.2968 47.6022 55.5663C47.5365 55.8358 47.4445 56.1645 47.3787 56.4603C47.3787 56.5655 47.3261 56.6707 47.2999 56.7758C47.2538 56.9928 47.2341 57.2031 47.1947 57.4332C47.1026 57.8999 47.0172 58.3666 46.9515 58.8333C46.9515 58.9648 46.8989 59.0963 46.8857 59.2212C46.8463 59.517 46.8266 59.8062 46.8003 60.1021C46.774 60.3979 46.7542 60.5162 46.7411 60.72C46.6885 61.3773 46.6556 62.0347 46.6622 62.6592L46.8857 162.715C46.8857 168.257 48.8578 172.155 52.0197 173.989L59.1191 178.189C58.9197 178.066 58.7266 177.932 58.5406 177.788C61.7748 180.043 66.4289 179.964 71.6154 176.967L123.455 147.018C133.157 141.417 141.006 127.829 140.973 116.668L140.743 16.618Z" fill="#BA68C8"/>
<path opacity="0.6" d="M140.743 16.618C140.743 11.0764 138.771 7.1849 135.609 5.35088L128.516 1.16352L128.418 1.11093C128.134 0.946698 127.84 0.801751 127.537 0.677076C127.481 0.654431 127.424 0.634684 127.366 0.617914L127.063 0.512737C126.912 0.460148 126.768 0.394413 126.61 0.348398C126.452 0.302383 126.268 0.269517 126.104 0.230076L125.788 0.164339C125.734 0.147355 125.679 0.134175 125.624 0.124897C125.271 0.0630793 124.916 0.0213801 124.559 0H124.237C123.961 0 123.685 0 123.395 0L123.106 0.0328673L122.58 0.085457C122.416 0.085457 122.252 0.0854568 122.087 0.131472L121.647 0.230076C121.41 0.269517 121.173 0.322106 120.93 0.381268C120.799 0.381268 120.674 0.427281 120.542 0.466722C120.247 0.545605 119.951 0.637634 119.648 0.736238H119.556C119.195 0.854562 118.84 0.992608 118.472 1.1438L118.038 1.34101L117.624 1.53164C117.091 1.78144 116.559 2.05095 116.013 2.36648L64.161 32.309C63.5957 32.6377 63.0369 32.9927 62.4848 33.374L61.9589 33.7552C61.5842 34.0247 61.2161 34.3008 60.848 34.5901L60.2498 35.0897C59.9145 35.3723 59.5924 35.6616 59.2572 35.9574L58.6655 36.5095L58.2908 36.8579C58.1659 36.9828 58.041 37.1275 57.9161 37.2589C57.5217 37.6599 57.1273 38.0741 56.7461 38.5013C56.6277 38.6394 56.4963 38.7643 56.3714 38.9023L56.0756 39.2639C55.8455 39.5334 55.622 39.816 55.4182 40.0921C55.2144 40.3682 55.1158 40.4537 54.9712 40.6377C54.8266 40.8218 54.7411 40.9533 54.6294 41.111C54.5176 41.2688 54.3007 41.5449 54.1429 41.7684L53.8011 42.222C53.617 42.4849 53.4461 42.7544 53.2686 43.0239L52.9268 43.5301L52.7888 43.7405C52.4732 44.2335 52.1709 44.7265 51.875 45.2327L51.8225 45.3313L51.6515 45.6336C51.4478 45.9886 51.244 46.3502 51.0534 46.7117C50.9613 46.876 50.8824 47.047 50.797 47.2179L50.5275 47.7438C50.4552 47.9015 50.3697 48.0527 50.2974 48.2039C50.0936 48.618 49.9096 49.0322 49.7255 49.4529L49.6269 49.6698L49.594 49.729C49.3705 50.2549 49.1536 50.7807 48.9367 51.3066C48.9038 51.4052 48.8709 51.5038 48.8315 51.6024C48.7921 51.701 48.7 51.9837 48.6277 52.1743C48.5554 52.365 48.4305 52.7002 48.345 52.9697C48.2596 53.2393 48.2201 53.3773 48.1544 53.5877C48.0887 53.798 48.0032 54.0675 47.9375 54.3042C47.8718 54.5408 47.8389 54.6066 47.7994 54.7577C47.7206 55.0273 47.668 55.2968 47.6022 55.5663C47.5365 55.8358 47.4445 56.1645 47.3787 56.4603C47.3787 56.5655 47.3261 56.6707 47.2999 56.7758C47.2538 56.9928 47.2341 57.2031 47.1947 57.4332C47.1026 57.8999 47.0172 58.3666 46.9515 58.8333C46.9515 58.9648 46.8989 59.0963 46.8857 59.2212C46.8463 59.517 46.8266 59.8062 46.8003 60.1021C46.774 60.3979 46.7542 60.5162 46.7411 60.72C46.6885 61.3773 46.6556 62.0347 46.6622 62.6592L46.8857 162.715C46.8857 168.257 48.8578 172.155 52.0197 173.989L59.1191 178.189C58.9197 178.066 58.7266 177.932 58.5406 177.788C61.7748 180.043 66.4289 179.964 71.6154 176.967L123.455 147.018C133.157 141.417 141.006 127.829 140.973 116.668L140.743 16.618Z" fill="white"/>
<path opacity="0.1" d="M53.9717 166.896L53.7745 66.8467L46.6751 62.6462L46.8986 162.702C46.8986 168.244 48.8707 172.142 52.0325 173.976L59.132 178.176C55.9504 176.342 53.9915 172.444 53.9717 166.896Z" fill="black"/>
<path opacity="0.3" d="M125.137 5.54808C125.633 5.32051 126.14 5.11865 126.656 4.94332H126.748C127.182 4.7987 127.609 4.68695 128.063 4.58834L128.779 4.43058C129.095 4.37142 129.404 4.3254 129.713 4.29253L130.238 4.23337C130.615 4.21383 130.992 4.21383 131.369 4.23337H131.625C132.067 4.25973 132.506 4.31463 132.94 4.39771L133.256 4.47002C133.581 4.54637 133.901 4.64074 134.215 4.75268L134.518 4.85129C134.915 5.00592 135.299 5.19051 135.668 5.40347L128.516 1.16352L128.418 1.11093C128.134 0.946698 127.84 0.801751 127.537 0.677076C127.481 0.654431 127.424 0.634684 127.366 0.617914L127.063 0.512737C126.912 0.460148 126.768 0.394413 126.61 0.348398C126.452 0.302383 126.268 0.269517 126.104 0.230076L125.788 0.164339C125.734 0.147355 125.679 0.134175 125.624 0.124897C125.271 0.0630793 124.916 0.0213801 124.559 0H124.237C123.961 0 123.685 0 123.395 0L123.106 0.0328673L122.58 0.085457C122.416 0.085457 122.252 0.0854568 122.087 0.131472L121.647 0.230076C121.41 0.269517 121.174 0.322106 120.93 0.381268C120.799 0.381268 120.674 0.427281 120.542 0.466722C120.247 0.545605 119.951 0.637634 119.648 0.736238H119.556C119.195 0.854562 118.84 0.992608 118.472 1.1438L118.038 1.34101L117.624 1.53164C117.091 1.78144 116.559 2.05095 116.013 2.36648L64.161 32.309C63.5957 32.6377 63.037 32.9927 62.4848 33.374L61.9589 33.7618C61.5842 34.0247 61.2161 34.3008 60.848 34.5901L60.2498 35.0897C59.9145 35.3723 59.5924 35.6616 59.2572 35.9574L58.6655 36.5095L58.2908 36.8579C58.1659 36.9828 58.041 37.1275 57.9162 37.2589C57.5217 37.6599 57.1273 38.0741 56.7461 38.5013C56.6277 38.6394 56.4963 38.7643 56.3714 38.9023L56.0756 39.2639C55.8455 39.5334 55.622 39.816 55.4182 40.0921C55.2144 40.3682 55.1158 40.4537 54.9712 40.6377C54.8266 40.8218 54.7411 40.9533 54.6294 41.111C54.5176 41.2688 54.3007 41.5449 54.1429 41.7684L53.8011 42.222C53.617 42.4849 53.4461 42.7544 53.2686 43.0239L52.9268 43.5301L52.7888 43.7405C52.4732 44.2335 52.1709 44.7265 51.875 45.2327L51.8225 45.3313L51.6515 45.6336C51.4478 45.9952 51.244 46.3502 51.0534 46.7117C50.9613 46.876 50.8824 47.047 50.797 47.2179L50.5275 47.7438C50.4552 47.9015 50.3697 48.0527 50.2974 48.2039C50.0936 48.618 49.9096 49.0322 49.7255 49.4529L49.6269 49.6698L49.594 49.729C49.3705 50.2549 49.1536 50.7807 48.9367 51.3066C48.9038 51.4052 48.8709 51.5038 48.8315 51.6024C48.7921 51.701 48.7 51.9837 48.6277 52.1743C48.5554 52.365 48.4305 52.7002 48.345 52.9697C48.2596 53.2393 48.2201 53.3773 48.1544 53.5877C48.0887 53.798 48.0032 54.0675 47.9375 54.3042C47.8718 54.5408 47.8389 54.6066 47.7994 54.7577C47.7206 55.0273 47.668 55.2968 47.6022 55.5663C47.5365 55.8358 47.4445 56.1645 47.3787 56.4603C47.3787 56.5655 47.3261 56.6707 47.2999 56.7758C47.2538 56.9928 47.2341 57.2031 47.1947 57.4332C47.1026 57.8999 47.0172 58.3666 46.9515 58.8333C46.9515 58.9648 46.8989 59.0963 46.8857 59.2212C46.8463 59.517 46.8266 59.8062 46.8003 60.1021C46.774 60.3979 46.7542 60.5162 46.7411 60.72C46.6885 61.3773 46.6556 62.0347 46.6622 62.6592L53.7617 66.8597C53.7617 66.2023 53.7617 65.545 53.834 64.9205C53.834 64.7101 53.88 64.5063 53.8997 64.296C53.9391 63.8753 53.9917 63.4546 54.0509 63.0338C54.1101 62.6131 54.2021 62.1004 54.2941 61.6337C54.3533 61.3116 54.4059 60.9763 54.4782 60.6739C54.5505 60.3716 54.6228 60.0758 54.7017 59.7734C54.8069 59.3592 54.912 58.9385 55.0304 58.5178C55.1027 58.2812 55.1815 58.0379 55.2539 57.7947C55.405 57.328 55.5628 56.8547 55.7272 56.388C55.7929 56.1973 55.8586 56.0001 55.9309 55.8095C56.1742 55.1522 56.4305 54.4948 56.7132 53.8835L56.8118 53.66C57.0682 53.0881 57.3311 52.5227 57.6138 51.9574C57.6992 51.7799 57.7913 51.6024 57.8833 51.4315C58.1528 50.8991 58.442 50.3732 58.7378 49.8473L58.9088 49.5449C59.2637 48.9336 59.6318 48.3354 60.0131 47.7438L60.3549 47.231C60.6376 46.8103 60.9268 46.3962 61.2226 45.982L61.7157 45.3247C61.972 44.9829 62.2415 44.6673 62.5045 44.3124L63.1618 43.4775L63.8192 42.7216C64.2005 42.2943 64.5949 41.8801 64.9893 41.4792C65.2391 41.2228 65.4823 40.973 65.7387 40.7298C65.9951 40.4865 66.1331 40.3551 66.3303 40.1776C66.659 39.8752 66.9877 39.586 67.3229 39.3099L67.9211 38.8103C68.2892 38.521 68.6573 38.245 69.032 37.9754C69.2095 37.8505 69.3804 37.7125 69.5579 37.5942C70.1101 37.2129 70.6688 36.8579 71.2342 36.5293L123.086 6.59328C123.632 6.27775 124.164 6.00823 124.697 5.75844L125.137 5.54808Z" fill="white"/>
<path d="M62.8138 166.87C62.8138 169.046 63.2937 170.157 63.5369 170.498C63.6113 170.505 63.6861 170.505 63.7604 170.498C64.1614 170.498 65.2921 170.38 67.1853 169.289L119.037 139.353C126.038 135.31 132.185 124.72 132.132 116.681L132.079 90.978L62.7284 131.451L62.8138 166.87Z" fill="#BA68C8"/>
<path d="M131.908 16.6442C131.908 14.4421 131.408 13.3574 131.172 13.0156H130.876H130.672L130.383 13.0616L130.107 13.1208C129.936 13.1602 129.693 13.226 129.515 13.2851H129.43C129.252 13.3509 129.016 13.4429 128.772 13.5678L128.529 13.6795C128.135 13.8636 127.826 14.0214 127.556 14.1791L75.7041 44.1151C75.382 44.3057 75.0467 44.5292 74.6457 44.7725L74.2513 45.0551C73.9949 45.2458 73.7386 45.4364 73.4888 45.6336L73.1338 45.9228L73.0615 45.9886C72.8117 46.1924 72.5751 46.4027 72.3384 46.6131L71.898 47.0272L71.4247 47.5071L71.3392 47.5925C71.0368 47.8949 70.741 48.2104 70.4584 48.5325L70.3598 48.6377L69.9391 49.111L69.4066 49.7684C69.1962 50.0313 68.9859 50.2943 68.7887 50.5638L68.4008 51.0765C68.1708 51.4052 67.9407 51.7339 67.7435 52.0691L67.4674 52.4767C67.1519 52.9697 66.8561 53.4496 66.5997 53.89L66.4551 54.1464C66.2184 54.5605 65.9949 54.9812 65.7977 55.4019L65.5874 55.816C65.3639 56.263 65.1535 56.71 64.93 57.1308C64.8906 57.2162 64.8577 57.3017 64.8117 57.3937C64.6276 57.8275 64.437 58.3008 64.2332 58.8333L64.0754 59.2803C63.944 59.6419 63.8256 60.0034 63.7139 60.3649C63.6547 60.549 63.5956 60.7331 63.543 60.9106C63.451 61.2261 63.3721 61.535 63.2932 61.8637L63.2472 62.0412L63.1289 62.5145L63.05 62.9221L62.9974 63.2113C62.9316 63.5465 62.8725 63.8687 62.8265 64.2105C62.7804 64.5523 62.7476 64.7889 62.7213 65.0782L62.6753 65.4989C62.6358 65.9919 62.6227 66.3995 62.6227 66.761L62.7607 128.454L132.112 87.9805L131.908 16.6442Z" fill="#455A64"/>
<path d="M62.7215 128.519L62.7281 131.464L132.079 90.991L132.066 88.0461L62.7215 128.519Z" fill="white"/>
<path d="M120.858 51.4249L114.252 55.2441C116.631 49.9853 116.303 44.7264 113.266 43.0173C111.57 42.051 109.322 42.36 107.139 43.6747C104.583 45.2633 102.478 47.4815 101.026 50.1168L99.218 53.2458L98.909 49.249C98.909 48.9138 98.6329 48.7823 98.2977 48.9532C98.1391 49.0569 98.0036 49.1921 97.8996 49.3505C97.7955 49.5088 97.7252 49.6868 97.6929 49.8735L97.1276 53.5613L96.089 52.9697C94.393 52.0034 92.1448 52.3123 89.9558 53.5942C87.4009 55.1816 85.2978 57.4002 83.849 60.0362C80.8252 65.2951 80.5293 70.8563 82.9353 73.3609L76.3157 77.1801C76.1357 77.2938 75.9861 77.4495 75.8796 77.6339C75.7731 77.8183 75.7129 78.0257 75.7044 78.2384C75.7044 78.6263 75.9804 78.784 76.3157 78.5934L84.0133 74.13L86.3864 75.4841L98.6724 82.4784L100.073 80.0527L100.132 80.8087C100.132 81.1505 100.421 81.282 100.743 81.1045C100.909 80.9947 101.05 80.8504 101.155 80.6814C101.261 80.5124 101.329 80.3226 101.354 80.125L101.598 77.4102L110.873 61.3444L113.233 57.2622L120.898 52.8382C121.07 52.7188 121.213 52.5612 121.314 52.3776C121.416 52.194 121.473 51.9894 121.483 51.7799C121.483 51.3855 121.2 51.2277 120.858 51.4249Z" fill="#BA68C8"/>
<path d="M98.2912 48.9204C98.6265 48.7495 98.8763 48.881 98.9026 49.2162L99.2115 53.213L100.783 73.1703L102.682 52.3781C102.702 52.1854 102.764 51.9994 102.864 51.8335C102.964 51.6676 103.1 51.5258 103.261 51.4184C103.576 51.2343 103.833 51.3198 103.885 51.6287L106.133 63.7767L106.554 60.2861C106.581 60.0942 106.649 59.9104 106.754 59.7471C106.858 59.5838 106.996 59.4448 107.159 59.3395L114.252 55.2442L120.865 51.4249C121.207 51.2277 121.483 51.3855 121.483 51.7799C121.47 51.9918 121.409 52.1978 121.303 52.3816C121.196 52.5654 121.049 52.7217 120.871 52.8383L113.207 57.2623L107.678 60.4439L106.804 67.6748C106.778 67.8645 106.712 68.0465 106.61 68.2086C106.508 68.3707 106.372 68.5092 106.212 68.6148C105.903 68.7923 105.654 68.7003 105.594 68.3979L103.445 56.7298L101.565 77.4168L101.322 80.1317C101.296 80.3293 101.228 80.519 101.123 80.688C101.017 80.8571 100.877 81.0014 100.71 81.1111C100.388 81.2886 100.125 81.1572 100.099 80.8153L100.04 80.0594L98.0677 54.8695L94.781 76.227C94.7479 76.4117 94.6779 76.5879 94.5751 76.7449C94.4723 76.9019 94.3389 77.0365 94.1828 77.1407C93.8409 77.3182 93.5977 77.1867 93.5714 76.8515L92.2567 61.7323L90.7645 69.706C90.7277 69.885 90.656 70.055 90.5533 70.2061C90.4506 70.3573 90.3191 70.4867 90.1663 70.5869L84.0135 74.13L76.3421 78.5606C76.0069 78.7512 75.7308 78.5606 75.7308 78.2056C75.7394 77.9929 75.7995 77.7854 75.906 77.6011C76.0125 77.4167 76.1622 77.261 76.3421 77.1473L82.9617 73.328L89.7062 69.4299L91.9412 57.5121C91.9761 57.3315 92.0471 57.1599 92.1498 57.0074C92.2526 56.8549 92.3851 56.7247 92.5394 56.6246C92.8812 56.4537 93.1178 56.5918 93.1507 56.9139L94.426 71.3757L97.154 53.5153L97.7193 49.8276C97.7493 49.6459 97.8154 49.472 97.9136 49.3162C98.0118 49.1604 98.1402 49.0258 98.2912 48.9204Z" fill="white"/>
<path d="M90.0348 95.2902L90.0545 103.869L87.5368 105.321L87.5171 98.9253L86.2353 99.6616V97.4857L90.0348 95.2902Z" fill="white"/>
<path d="M93.7353 92.9567C95.5036 91.9378 96.7526 92.2994 96.7592 93.9033C96.7592 94.7447 96.5751 95.6125 95.4839 97.3742L94.4256 99.1096L96.9367 97.6634V99.905L90.9547 103.363V101.588L93.6499 97.1572C93.9862 96.7175 94.1893 96.1905 94.2349 95.6387C94.2349 95.2312 93.9851 95.1129 93.5053 95.389C92.9852 95.723 92.5972 96.2271 92.4075 96.8154H90.5077C91.0952 95.189 92.2383 93.8224 93.7353 92.9567Z" fill="white"/>
<path d="M100.816 88.8679C102.788 87.7372 104.201 88.5589 104.208 91.3987C104.25 92.6707 103.962 93.932 103.373 95.0598C102.783 96.1877 101.911 97.1435 100.842 97.8342C98.8698 98.978 97.4499 98.1497 97.4433 95.3034C97.4028 94.031 97.692 92.7697 98.2829 91.642C98.8738 90.5144 99.7463 89.5587 100.816 88.8679ZM100.816 95.5203C101.302 95.2376 101.664 94.5145 101.657 92.8909C101.65 91.2672 101.289 90.9188 100.802 91.2212C100.316 91.5236 99.9479 92.2269 99.9544 93.8506C99.961 95.4743 100.329 95.8227 100.816 95.5269" fill="white"/>
<path d="M107.461 91.0699C108.072 90.7149 108.598 90.945 108.598 91.8061C108.593 92.2156 108.487 92.6175 108.29 92.9764C108.093 93.3353 107.81 93.64 107.467 93.8636C107.178 94.028 106.968 94.0674 106.81 93.9688V94.1857L105.89 94.7182V91.0567L106.856 90.4979V91.6483C106.999 91.4027 107.209 91.2022 107.461 91.0699ZM107.231 93.134C107.354 93.0515 107.454 92.9385 107.521 92.8061C107.587 92.6736 107.619 92.5262 107.612 92.378C107.612 92.0296 107.441 91.9507 107.231 92.0756C107.108 92.1554 107.009 92.2661 106.943 92.3966C106.877 92.527 106.847 92.6726 106.856 92.8184C106.856 93.1668 107.02 93.2523 107.231 93.134Z" fill="white"/>
<path d="M110.465 89.328C111.077 88.9796 111.596 89.2163 111.596 90.084C111.594 90.4914 111.49 90.8919 111.293 91.2489C111.097 91.6059 110.815 91.9082 110.472 92.1284C110.215 92.273 110.018 92.319 109.874 92.2401V93.3839L108.907 93.9427V90.2944L109.828 89.7619V89.9788C109.975 89.7066 110.196 89.4811 110.465 89.328ZM110.242 91.3987C110.365 91.3177 110.465 91.206 110.532 91.0746C110.599 90.9432 110.63 90.7966 110.623 90.6493C110.623 90.3009 110.452 90.2155 110.235 90.3404C110.111 90.4224 110.011 90.5353 109.944 90.6678C109.877 90.8004 109.846 90.9481 109.854 91.0963C109.854 91.4447 110.025 91.5236 110.242 91.3987Z" fill="white"/>
<path d="M115.007 86.7053C115.539 86.4029 115.94 86.541 115.94 87.3627V88.9009L114.974 89.4596V88.1449C114.974 87.8031 114.869 87.7374 114.718 87.8228C114.613 87.8952 114.53 87.9944 114.477 88.1101C114.423 88.2257 114.402 88.3536 114.415 88.4802V89.7949L113.449 90.3536V89.0389C113.449 88.6971 113.344 88.6314 113.18 88.7234C113.075 88.7958 112.992 88.895 112.938 89.0107C112.885 89.1263 112.864 89.2541 112.877 89.3808V90.6955L111.904 91.2542V88.5591L112.825 88.0332V88.2764C112.984 88.0048 113.21 87.7785 113.482 87.619C113.791 87.4416 114.054 87.4218 114.218 87.619C114.388 87.245 114.662 86.9277 115.007 86.7053Z" fill="white"/>
<path d="M74.8696 131.977C77.1967 130.629 79.0899 131.714 79.103 134.383C79.0274 135.843 78.6066 137.265 77.8753 138.531C77.144 139.797 76.123 140.871 74.8959 141.666C72.5623 143.014 70.6691 141.936 70.6626 139.254C70.7397 137.795 71.1612 136.375 71.8924 135.11C72.6236 133.846 73.6438 132.772 74.8696 131.977Z" fill="white"/>
<path d="M125.651 106.57L125.657 108.391L83.6784 132.628L83.6718 130.814L125.651 106.57Z" fill="white"/>
<path d="M125.696 120.71V122.531L83.7175 146.768L83.7109 144.947L125.696 120.71Z" fill="white"/>
<path d="M106.232 135.356L106.238 137.17L83.7237 150.166V148.352L106.232 135.356Z" fill="white"/>
<path d="M100.23 132.003V133.824L83.7041 143.369V141.548L100.23 132.003Z" fill="white"/>
<path d="M121.081 112.618L121.088 114.433L83.6845 136.027V134.212L121.081 112.618Z" fill="white"/>
<path d="M109.446 112.526L109.453 114.341L83.6649 129.23V127.409L109.446 112.526Z" fill="white"/>
<path d="M74.9088 146.091C77.2358 144.743 79.1356 145.821 79.1422 148.497C79.0649 149.956 78.6436 151.377 77.9124 152.643C77.1812 153.909 76.161 154.984 74.9351 155.78C72.608 157.128 70.7083 156.043 70.7017 153.368C70.7789 151.909 71.2003 150.489 71.9315 149.224C72.6627 147.959 73.683 146.885 74.9088 146.091Z" fill="white"/>
<path d="M179.948 165.246L172.763 161.072L77.0189 208.75L84.2235 212.911L179.948 165.246Z" fill="#455A64"/>
<path d="M226.39 192.237L130.83 239.816L138.561 244.28L234.088 196.707L226.39 192.237Z" fill="#455A64"/>
<path opacity="0.3" d="M179.948 165.246L172.763 161.072L77.0189 208.75L84.2235 212.911L179.948 165.246Z" fill="white"/>
<path d="M130.83 239.817L84.2236 212.911L77.0189 208.75L63.622 206.988L124.953 242.63L138.561 244.28L130.83 239.817Z" fill="#455A64"/>
<path opacity="0.5" d="M130.83 239.817L84.2236 212.911L77.0189 208.75L63.622 206.988L124.953 242.63L138.561 244.28L130.83 239.817Z" fill="white"/>
<path opacity="0.3" d="M226.39 192.237L130.83 239.816L138.561 244.28L234.088 196.707L226.39 192.237Z" fill="white"/>
<path d="M124.953 242.63L63.622 206.988L63.6352 223.159L63.6483 230.285L124.973 265.927L124.953 242.63Z" fill="#455A64"/>
<path d="M69.5516 224.974V219.596C69.5507 219.365 69.6108 219.138 69.7258 218.937C69.8408 218.737 70.0067 218.57 70.2067 218.454C70.4067 218.338 70.6338 218.277 70.865 218.276C71.0962 218.276 71.3234 218.337 71.5237 218.453L117.355 245.089C117.854 245.377 118.269 245.792 118.558 246.292C118.846 246.791 118.998 247.358 118.998 247.935V253.312C118.999 253.543 118.939 253.771 118.824 253.971C118.709 254.172 118.543 254.339 118.343 254.455C118.143 254.571 117.916 254.632 117.685 254.632C117.453 254.632 117.226 254.572 117.026 254.456L71.2147 227.82C70.7114 227.534 70.2926 227.12 70.0005 226.62C69.7085 226.121 69.5536 225.552 69.5516 224.974Z" fill="#37474F"/>
<path d="M124.954 242.63L124.973 265.927L234.114 202.913L234.088 196.707L138.561 244.28L124.954 242.63Z" fill="#455A64"/>
<path opacity="0.1" d="M124.954 242.63L124.973 265.927L234.114 202.913L234.088 196.707L138.561 244.28L124.954 242.63Z" fill="white"/>
<path d="M179.948 165.246L179.941 168.184H174.044L179.948 165.246Z" fill="#455A64"/>
<path d="M174.998 167.711L84.2238 212.911L130.83 239.816L223.662 193.591L179.37 167.849C178.71 167.465 177.964 167.252 177.201 167.227C176.438 167.203 175.681 167.37 174.998 167.711Z" fill="#37474F"/>
<path d="M126.156 171.544C125.633 171.544 125.132 171.751 124.762 172.121C124.392 172.491 124.184 172.993 124.184 173.516V239.047C125.377 239.791 126.728 240.242 128.128 240.362V173.522C128.129 173.263 128.079 173.006 127.98 172.766C127.882 172.526 127.736 172.307 127.553 172.124C127.37 171.94 127.152 171.794 126.913 171.694C126.673 171.595 126.416 171.544 126.156 171.544Z" fill="#E0E0E0"/>
<path opacity="0.2" d="M126.156 171.544C125.633 171.544 125.132 171.751 124.762 172.121C124.392 172.491 124.184 172.993 124.184 173.516V239.047C125.377 239.791 126.728 240.242 128.128 240.362V173.522C128.129 173.263 128.079 173.006 127.98 172.766C127.882 172.526 127.736 172.307 127.553 172.124C127.37 171.94 127.152 171.794 126.913 171.694C126.673 171.595 126.416 171.544 126.156 171.544Z" fill="black"/>
<path opacity="0.3" d="M126.156 171.544C125.633 171.544 125.132 171.751 124.762 172.121C124.392 172.491 124.184 172.993 124.184 173.516V179.189C125.35 179.396 126.531 179.501 127.714 179.504H128.135V173.522C128.136 173.262 128.085 173.005 127.986 172.764C127.887 172.524 127.741 172.305 127.557 172.121C127.374 171.937 127.155 171.792 126.915 171.692C126.674 171.593 126.416 171.543 126.156 171.544Z" fill="black"/>
<path d="M74.2447 143.514C73.7217 143.514 73.2201 143.721 72.8503 144.091C72.4804 144.461 72.2727 144.963 72.2727 145.486V209.723C73.4804 210.408 74.8304 210.804 76.2168 210.88V145.492C76.2177 145.233 76.1673 144.976 76.0686 144.736C75.9699 144.496 75.8247 144.277 75.6415 144.094C75.4583 143.91 75.2406 143.764 75.0009 143.664C74.7613 143.565 74.5043 143.514 74.2447 143.514Z" fill="#E0E0E0"/>
<path opacity="0.2" d="M74.2447 143.514C73.7217 143.514 73.2201 143.721 72.8503 144.091C72.4804 144.461 72.2727 144.963 72.2727 145.486V209.723C73.4804 210.408 74.8304 210.804 76.2168 210.88V145.492C76.2177 145.233 76.1673 144.976 76.0686 144.736C75.9699 144.496 75.8247 144.277 75.6415 144.094C75.4583 143.91 75.2406 143.764 75.0009 143.664C74.7613 143.565 74.5043 143.514 74.2447 143.514Z" fill="black"/>
<path opacity="0.3" d="M74.2447 143.514C73.7217 143.514 73.2201 143.721 72.8503 144.091C72.4804 144.461 72.2727 144.963 72.2727 145.486V150.633L76.2168 152.92V145.492C76.2177 145.233 76.1673 144.976 76.0686 144.736C75.9699 144.496 75.8247 144.277 75.6415 144.094C75.4583 143.91 75.2406 143.764 75.0009 143.664C74.7613 143.565 74.5043 143.514 74.2447 143.514Z" fill="black"/>
<path d="M89.233 130.163C89.1006 129.979 88.9241 129.83 88.7198 129.732C88.5154 129.633 88.2896 129.587 88.0629 129.598L75.3628 132.49C75.5975 132.466 75.8343 132.507 76.0483 132.606C76.2623 132.705 76.4455 132.861 76.5789 133.055C76.9753 133.58 77.2416 134.192 77.3558 134.84C77.4701 135.488 77.4291 136.154 77.2362 136.783C77.1841 137.012 77.0711 137.224 76.9092 137.395C76.7473 137.566 76.5424 137.691 76.3159 137.755L88.9569 134.863C89.1858 134.8 89.3935 134.677 89.5578 134.505C89.7221 134.334 89.8371 134.122 89.8903 133.89C90.0795 133.261 90.1186 132.596 90.0044 131.949C89.8903 131.301 89.6261 130.69 89.233 130.163Z" fill="#455A64"/>
<path d="M77.2627 136.783C77.4556 136.154 77.4966 135.488 77.3823 134.84C77.268 134.192 77.0018 133.581 76.6053 133.056C76.472 132.861 76.2888 132.706 76.0748 132.606C75.8608 132.507 75.624 132.467 75.3892 132.49L75.3104 132.523C75.1028 132.599 74.9167 132.725 74.7679 132.888C74.6191 133.052 74.5121 133.249 74.4558 133.463C74.264 134.092 74.2235 134.758 74.3378 135.405C74.452 136.053 74.7177 136.665 75.1132 137.19C75.2446 137.384 75.4254 137.539 75.6368 137.64C75.8483 137.74 76.0828 137.783 76.3161 137.762H76.349C76.5751 137.696 76.7792 137.57 76.9399 137.398C77.1007 137.225 77.2122 137.013 77.2627 136.783Z" fill="#263238"/>
<path d="M150.912 166.456C150.782 166.27 150.607 166.12 150.404 166.02C150.201 165.92 149.975 165.873 149.749 165.884L137.049 168.789C137.284 168.766 137.521 168.807 137.735 168.908C137.949 169.009 138.132 169.165 138.265 169.361C138.66 169.886 138.925 170.496 139.039 171.143C139.154 171.789 139.113 172.454 138.922 173.082C138.866 173.31 138.751 173.521 138.588 173.691C138.425 173.862 138.221 173.987 137.995 174.055L150.636 171.169C150.863 171.102 151.068 170.977 151.232 170.806C151.396 170.635 151.512 170.425 151.57 170.196C151.764 169.565 151.805 168.897 151.691 168.247C151.577 167.596 151.31 166.983 150.912 166.456Z" fill="#455A64"/>
<path d="M136.957 168.789C136.983 168.787 137.009 168.787 137.036 168.789H136.957Z" fill="#455A64"/>
<path d="M138.948 173.069C139.14 172.441 139.18 171.776 139.066 171.13C138.951 170.483 138.686 169.873 138.291 169.348C138.158 169.152 137.976 168.996 137.762 168.895C137.547 168.795 137.31 168.753 137.075 168.776C137.049 168.774 137.022 168.774 136.996 168.776C136.789 168.854 136.603 168.98 136.455 169.145C136.308 169.31 136.202 169.508 136.148 169.723C135.955 170.351 135.914 171.016 136.028 171.662C136.143 172.309 136.409 172.92 136.805 173.444C136.937 173.637 137.118 173.793 137.329 173.893C137.541 173.994 137.775 174.036 138.008 174.015C138.233 173.952 138.438 173.832 138.603 173.666C138.768 173.5 138.887 173.294 138.948 173.069Z" fill="#263238"/>
<g opacity="0.4">
<path d="M89.232 130.163C89.0996 129.979 88.9232 129.83 88.7188 129.732C88.5144 129.633 88.2886 129.587 88.0619 129.598L75.3618 132.49C75.5966 132.466 75.8334 132.507 76.0473 132.606C76.2613 132.705 76.4446 132.861 76.5779 133.055C76.9743 133.58 77.2406 134.192 77.3548 134.84C77.4691 135.488 77.4281 136.154 77.2352 136.783C77.1831 137.012 77.0701 137.224 76.9082 137.395C76.7464 137.566 76.5414 137.691 76.3149 137.755L88.9559 134.863C89.1848 134.8 89.3925 134.677 89.5568 134.505C89.7212 134.334 89.8361 134.122 89.8893 133.89C90.0785 133.261 90.1176 132.596 90.0034 131.949C89.8893 131.301 89.6251 130.69 89.232 130.163Z" fill="white"/>
</g>
<g opacity="0.4">
<path d="M150.912 166.456C150.782 166.27 150.607 166.12 150.404 166.02C150.201 165.92 149.975 165.873 149.749 165.884L137.049 168.789C137.284 168.766 137.521 168.807 137.735 168.908C137.949 169.009 138.132 169.165 138.265 169.361C138.66 169.886 138.925 170.496 139.039 171.143C139.154 171.789 139.113 172.454 138.922 173.082C138.866 173.31 138.751 173.521 138.588 173.691C138.425 173.862 138.221 173.987 137.995 174.055L150.636 171.169C150.863 171.102 151.068 170.977 151.232 170.806C151.396 170.635 151.512 170.425 151.57 170.196C151.764 169.565 151.805 168.897 151.691 168.247C151.577 167.596 151.31 166.983 150.912 166.456Z" fill="white"/>
<path d="M136.957 168.789C136.983 168.786 137.009 168.786 137.036 168.789H136.957Z" fill="white"/>
</g>
<path d="M136.786 169.788L131.738 171.05C127.594 172.094 123.207 171.479 119.511 169.335L73.2594 142.633C72.8023 142.374 72.4332 141.984 72.1999 141.513C71.9666 141.042 71.8797 140.512 71.9504 139.991C72.0212 139.471 72.2463 138.983 72.5968 138.592C72.9473 138.2 73.4071 137.922 73.9168 137.795L75.9415 137.295C76.6383 136.73 76.5594 133.66 75.0803 133.436L72.9571 133.956C71.6775 134.267 70.5208 134.955 69.637 135.931C68.7532 136.908 68.183 138.127 68.0002 139.431C67.8175 140.735 68.0306 142.064 68.612 143.246C69.1934 144.427 70.1163 145.407 71.2611 146.058L117.539 172.733C120.634 174.53 124.149 175.478 127.728 175.481C129.414 175.467 131.092 175.246 132.724 174.824L137.667 173.594C138.344 173.088 138.265 170.018 136.786 169.788Z" fill="#E0E0E0"/>
<path d="M78.6946 150.633V136.927L108.354 154.058V167.757L78.6946 150.633Z" fill="#455A64"/>
<path d="M108.355 154.058L126.156 162.741V167.757H108.355V154.058Z" fill="#455A64"/>
<path d="M78.6946 136.927L108.354 154.058L126.156 162.742L96.4892 145.618L78.6946 136.927Z" fill="#455A64"/>
<path opacity="0.1" d="M108.355 154.058L126.156 162.741V167.757H108.355V154.058Z" fill="white"/>
<path opacity="0.3" d="M78.6946 136.927L108.354 154.058L126.156 162.742L96.4892 145.618L78.6946 136.927Z" fill="white"/>
<path opacity="0.2" d="M177.719 191.271C189.072 197.844 189.131 208.447 177.857 215.001C166.584 221.555 148.237 221.575 136.884 215.001C125.532 208.428 125.479 197.825 136.753 191.271C148.026 184.717 166.373 184.717 177.719 191.271Z" fill="black"/>
<path d="M156.237 117.206L158.728 106.34C155.331 106.816 152.119 108.176 149.413 110.284L136.371 120.539L145.344 123.307L156.237 117.206Z" fill="#FFA8A7"/>
<path d="M162.33 166.068L164.151 170.176C164.661 171.334 165.529 172.297 166.627 172.926C167.725 173.554 168.995 173.814 170.251 173.667L185.633 171.912C186.926 171.765 188.235 171.861 189.492 172.194L192.858 173.088V165.2L191.937 165.47C190.167 165.996 188.288 166.041 186.495 165.601L180.887 164.221C178.233 163.569 175.454 163.637 172.835 164.418L172.263 159.764L162.33 166.068Z" fill="#F28F8F"/>
<path d="M204.131 176.454C204.073 174.549 203.273 172.742 201.903 171.419C200.89 170.459 199.615 169.815 198.655 168.789C197.544 167.599 197.084 166.291 196.138 164.944C195.971 164.716 195.743 164.541 195.48 164.438C195.384 164.428 195.287 164.428 195.191 164.438C194.856 164.464 194.529 164.558 194.231 164.714C194.614 164.779 194.956 164.992 195.184 165.305C196.138 166.62 196.808 168.198 197.926 169.361C198.879 170.354 200.154 170.985 201.166 171.925C202.531 173.204 203.333 174.972 203.395 176.842C203.447 178.689 202.77 181.877 201.423 181.877C201.848 181.98 202.297 181.912 202.672 181.687C203.842 180.523 204.164 177.828 204.131 176.454Z" fill="#EBEBEB"/>
<path d="M196.138 164.944C197.085 166.291 197.545 167.573 198.656 168.789C199.616 169.815 200.891 170.459 201.903 171.419C203.274 172.742 204.074 174.549 204.132 176.454C204.132 177.828 203.843 180.523 202.718 181.667C204.152 180.806 204.546 177.762 204.5 176.277C204.437 174.409 203.638 172.641 202.278 171.359C201.266 170.419 199.984 169.788 199.031 168.789C197.913 167.626 197.46 166.344 196.506 165.036C196.388 164.873 196.238 164.737 196.065 164.634C195.892 164.531 195.7 164.464 195.501 164.438C195.756 164.544 195.977 164.719 196.138 164.944Z" fill="#455A64"/>
<path d="M191.596 165.266C191.269 165.409 190.91 165.461 190.557 165.417C190.557 165.417 189.518 165.312 189.176 165.246C188.519 165.121 188.453 165.864 188.453 165.864C188.845 165.905 189.239 165.905 189.63 165.864C189.719 166.001 189.836 166.117 189.973 166.205C190.11 166.294 190.264 166.352 190.425 166.377C190.755 166.441 191.077 166.54 191.385 166.672C191.538 166.742 191.667 166.856 191.756 166.998C191.845 167.141 191.89 167.306 191.885 167.474C191.826 167.843 191.464 168.059 191.227 168.368C191.117 168.548 191.055 168.753 191.046 168.963C191.036 169.174 191.081 169.383 191.175 169.571C190.964 169.481 190.728 169.466 190.508 169.529C190.287 169.593 190.096 169.731 189.965 169.92C189.718 170.317 189.57 170.768 189.531 171.235C189.464 171.545 189.442 171.864 189.466 172.181C189.477 172.341 189.52 172.497 189.594 172.639C189.667 172.782 189.769 172.908 189.893 173.009C190.019 173.107 190.174 173.161 190.333 173.161C190.493 173.161 190.648 173.107 190.774 173.009C191.615 174.377 195.461 174.896 197.387 177.479C199.313 180.063 199.734 181.897 201.443 181.897C202.757 181.897 203.415 178.709 203.415 176.861C203.353 174.992 202.551 173.224 201.186 171.944C200.174 171.004 198.899 170.373 197.946 169.381C196.828 168.217 196.158 166.64 195.204 165.325C194.976 165.011 194.634 164.799 194.251 164.733C194.136 164.72 194.019 164.72 193.903 164.733C193.107 164.765 192.325 164.945 191.596 165.266Z" fill="#BA68C8"/>
<path d="M200.944 181.417L201.378 180.227C201.407 180.15 201.457 180.082 201.521 180.031C201.586 179.98 201.664 179.948 201.746 179.938C203.06 179.78 203.475 179.583 204.046 178.978C203.964 179.716 203.727 180.429 203.35 181.068C203.129 181.452 202.767 181.735 202.342 181.858C201.916 181.98 201.46 181.933 201.069 181.726C201.012 181.7 200.968 181.654 200.945 181.596C200.922 181.539 200.921 181.475 200.944 181.417Z" fill="#455A64"/>
<path d="M192.622 170.347C192.621 170.394 192.611 170.441 192.592 170.484C192.573 170.527 192.545 170.565 192.51 170.597C192.074 170.973 191.775 171.483 191.662 172.048C191.549 172.612 191.627 173.198 191.885 173.713C191.917 173.789 191.919 173.875 191.89 173.953C191.862 174.031 191.804 174.095 191.73 174.133C191.656 174.17 191.571 174.178 191.491 174.155C191.411 174.132 191.343 174.08 191.3 174.009C190.979 173.362 190.88 172.627 191.018 171.918C191.157 171.21 191.53 170.569 192.076 170.097C192.143 170.041 192.229 170.013 192.316 170.019C192.403 170.025 192.485 170.065 192.543 170.13C192.594 170.191 192.622 170.268 192.622 170.347Z" fill="#37474F"/>
<path d="M194.64 171.274C194.639 171.363 194.604 171.448 194.541 171.511C194.125 171.923 193.823 172.435 193.663 172.998C193.503 173.561 193.49 174.156 193.627 174.725C193.638 174.768 193.639 174.813 193.632 174.857C193.626 174.901 193.61 174.943 193.587 174.981C193.564 175.019 193.533 175.051 193.497 175.078C193.461 175.104 193.421 175.122 193.378 175.133C193.334 175.143 193.29 175.145 193.246 175.138C193.202 175.131 193.16 175.115 193.122 175.092C193.084 175.069 193.051 175.039 193.025 175.003C192.999 174.967 192.98 174.926 192.97 174.883C192.808 174.202 192.823 173.491 193.015 172.818C193.206 172.145 193.566 171.532 194.061 171.037C194.092 171.007 194.128 170.982 194.168 170.965C194.208 170.949 194.251 170.94 194.295 170.94C194.338 170.94 194.381 170.949 194.421 170.965C194.461 170.982 194.497 171.007 194.528 171.037C194.562 171.067 194.59 171.103 194.609 171.144C194.628 171.185 194.639 171.229 194.64 171.274Z" fill="#37474F"/>
<path d="M196.421 172.733C196.421 172.783 196.41 172.831 196.388 172.876C196.367 172.92 196.335 172.959 196.296 172.99C195.925 173.294 195.639 173.69 195.468 174.138C195.296 174.587 195.244 175.072 195.316 175.547C195.33 175.633 195.309 175.721 195.259 175.792C195.209 175.863 195.133 175.912 195.047 175.928C194.961 175.941 194.873 175.921 194.802 175.87C194.73 175.82 194.682 175.744 194.666 175.658C194.572 175.066 194.636 174.46 194.85 173.901C195.065 173.341 195.423 172.848 195.888 172.47C195.956 172.416 196.043 172.392 196.129 172.402C196.215 172.412 196.294 172.455 196.349 172.523C196.396 172.582 196.422 172.657 196.421 172.733Z" fill="#37474F"/>
<path d="M197.886 174.147C197.885 174.193 197.875 174.238 197.856 174.28C197.837 174.322 197.809 174.359 197.775 174.39C197.458 174.681 197.215 175.043 197.066 175.447C196.916 175.85 196.864 176.283 196.914 176.71C196.925 176.797 196.901 176.884 196.848 176.953C196.795 177.022 196.717 177.067 196.631 177.078C196.588 177.085 196.544 177.083 196.502 177.072C196.46 177.061 196.421 177.042 196.387 177.015C196.352 176.989 196.324 176.956 196.302 176.918C196.281 176.88 196.268 176.839 196.263 176.796C196.199 176.263 196.263 175.723 196.449 175.22C196.635 174.717 196.939 174.266 197.334 173.903C197.365 173.873 197.401 173.848 197.441 173.831C197.481 173.815 197.524 173.806 197.568 173.806C197.611 173.806 197.654 173.815 197.694 173.831C197.734 173.848 197.77 173.873 197.801 173.903C197.858 173.971 197.889 174.058 197.886 174.147Z" fill="#37474F"/>
<path d="M155.664 137.933C155.171 144.914 157.038 153.052 157.636 155.458L156.604 157.93C156.348 164.273 165.696 167.738 169.982 165.266C176.7 154.525 180.105 148.701 178.784 141.943L155.664 137.933Z" fill="#263238"/>
<path opacity="0.3" d="M158.195 154.38L162.33 146.15C158.872 145.118 156.236 140.996 156.236 140.996C156.769 144.5 160.108 146.722 160.108 146.722C158.64 148.992 157.968 151.686 158.195 154.38Z" fill="black"/>
<path d="M170.126 162.926C169.246 158.981 163.257 154.689 158.149 156.063L153.377 166.613C152.574 168.391 152.089 170.295 151.944 172.24L150.044 197.713C149.914 199.495 149.593 201.258 149.084 202.972L149.025 203.169L155.665 204.944C155.691 202.001 156.243 199.087 157.295 196.339L162.37 183.1C163.352 180.522 163.8 177.771 163.684 175.014L163.605 172.931L170.126 162.926Z" fill="#FFA8A7"/>
<path d="M145.292 216.119C147.194 216.059 148.998 215.26 150.321 213.89C151.287 212.878 151.931 211.603 152.95 210.65C154.14 209.532 155.455 209.072 156.796 208.125C157.023 207.959 157.198 207.731 157.302 207.468C157.312 207.372 157.312 207.275 157.302 207.179C157.276 206.844 157.185 206.518 157.032 206.219C156.969 206.603 156.756 206.946 156.441 207.172C155.126 208.125 153.555 208.796 152.391 209.913C151.392 210.867 150.761 212.148 149.821 213.154C148.542 214.519 146.773 215.321 144.904 215.383C143.063 215.435 139.869 214.765 139.869 213.411C139.765 213.836 139.834 214.285 140.059 214.66C141.203 215.803 143.911 216.119 145.292 216.119Z" fill="#EBEBEB"/>
<path d="M156.795 208.099C155.481 209.045 154.166 209.506 152.95 210.623C151.931 211.576 151.287 212.852 150.32 213.864C148.998 215.233 147.194 216.033 145.292 216.092C143.911 216.132 141.223 215.803 140.072 214.679C140.933 216.112 143.984 216.506 145.463 216.46C147.331 216.401 149.1 215.602 150.38 214.239C151.32 213.226 151.951 211.951 152.95 210.991C154.113 209.88 155.395 209.42 156.71 208.467C156.873 208.35 157.01 208.2 157.112 208.026C157.214 207.853 157.278 207.661 157.302 207.461C157.195 207.717 157.02 207.937 156.795 208.099Z" fill="#455A64"/>
<path d="M156.48 203.557C156.335 203.233 156.283 202.876 156.329 202.525C156.329 202.525 156.427 201.479 156.493 201.144C156.618 200.487 156.112 200.454 156.112 200.454C156.112 200.454 156.013 200.973 155.928 201.585C155.786 201.675 155.664 201.792 155.568 201.93C155.473 202.068 155.405 202.223 155.369 202.387C155.304 202.716 155.205 203.038 155.073 203.346C155.004 203.5 154.891 203.629 154.748 203.718C154.605 203.807 154.439 203.852 154.271 203.846C153.91 203.793 153.686 203.425 153.384 203.189C153.203 203.079 152.997 203.016 152.786 203.007C152.574 202.998 152.364 203.042 152.174 203.136C152.267 202.927 152.283 202.691 152.219 202.471C152.156 202.251 152.016 202.06 151.826 201.933C151.429 201.683 150.978 201.532 150.511 201.493C150.198 201.428 149.877 201.406 149.558 201.427C149.399 201.437 149.244 201.481 149.102 201.554C148.961 201.628 148.836 201.73 148.736 201.854C148.637 201.979 148.583 202.135 148.583 202.295C148.583 202.454 148.637 202.61 148.736 202.735C147.362 203.576 146.843 207.422 144.26 209.348C141.676 211.274 139.842 211.701 139.842 213.404C139.842 214.719 143.037 215.376 144.878 215.376C146.747 215.314 148.516 214.512 149.795 213.147C150.735 212.142 151.366 210.86 152.365 209.907C153.528 208.789 155.099 208.119 156.414 207.166C156.616 207.013 156.778 206.814 156.886 206.585C156.993 206.356 157.044 206.104 157.032 205.851C156.987 205.059 156.8 204.282 156.48 203.557Z" fill="#BA68C8"/>
<path d="M140.322 212.904L141.512 213.338C141.592 213.366 141.662 213.417 141.714 213.483C141.767 213.549 141.799 213.629 141.808 213.713C141.959 215.028 142.156 215.442 142.761 216.007C142.025 215.928 141.315 215.693 140.677 215.317C140.293 215.095 140.01 214.732 139.887 214.306C139.765 213.879 139.812 213.422 140.02 213.029C140.047 212.976 140.092 212.933 140.148 212.91C140.203 212.888 140.265 212.885 140.322 212.904Z" fill="#455A64"/>
<path d="M151.398 204.589C151.35 204.589 151.303 204.578 151.26 204.558C151.217 204.538 151.179 204.508 151.148 204.471C150.77 204.037 150.26 203.739 149.696 203.623C149.129 203.51 148.541 203.591 148.026 203.853C147.948 203.892 147.857 203.898 147.773 203.871C147.69 203.843 147.621 203.783 147.582 203.705C147.543 203.626 147.537 203.536 147.564 203.452C147.592 203.369 147.652 203.3 147.73 203.261C148.38 202.93 149.122 202.826 149.838 202.968C150.553 203.11 151.2 203.489 151.674 204.043C151.73 204.109 151.758 204.194 151.752 204.28C151.746 204.366 151.706 204.447 151.641 204.504C151.609 204.533 151.57 204.556 151.529 204.571C151.487 204.586 151.442 204.592 151.398 204.589Z" fill="#37474F"/>
<path d="M150.465 206.6C150.376 206.6 150.291 206.565 150.228 206.502C149.817 206.087 149.306 205.784 148.744 205.624C148.182 205.464 147.588 205.452 147.02 205.588C146.978 205.599 146.934 205.601 146.891 205.595C146.847 205.588 146.806 205.573 146.769 205.55C146.731 205.528 146.699 205.498 146.673 205.463C146.647 205.427 146.629 205.387 146.619 205.345C146.608 205.303 146.606 205.26 146.612 205.218C146.618 205.175 146.633 205.135 146.655 205.098C146.677 205.061 146.706 205.029 146.74 205.004C146.775 204.979 146.814 204.96 146.856 204.95C147.536 204.787 148.248 204.802 148.921 204.993C149.595 205.184 150.208 205.545 150.701 206.042C150.747 206.088 150.777 206.147 150.789 206.21C150.802 206.274 150.794 206.34 150.769 206.4C150.744 206.46 150.701 206.511 150.647 206.546C150.593 206.582 150.529 206.601 150.465 206.6Z" fill="#37474F"/>
<path d="M149.032 208.355C148.982 208.355 148.932 208.343 148.887 208.322C148.842 208.3 148.801 208.269 148.769 208.23C148.466 207.858 148.07 207.571 147.622 207.398C147.173 207.225 146.687 207.172 146.212 207.244C146.125 207.258 146.036 207.237 145.964 207.185C145.893 207.134 145.845 207.055 145.831 206.968C145.817 206.881 145.838 206.792 145.89 206.72C145.942 206.649 146.02 206.601 146.107 206.587C146.698 206.494 147.303 206.558 147.861 206.773C148.42 206.987 148.912 207.345 149.288 207.81C149.329 207.858 149.354 207.917 149.362 207.979C149.37 208.041 149.36 208.105 149.333 208.161C149.306 208.218 149.263 208.266 149.21 208.299C149.157 208.332 149.095 208.349 149.032 208.349V208.355Z" fill="#37474F"/>
<path d="M147.599 209.847C147.553 209.848 147.507 209.838 147.465 209.819C147.423 209.799 147.386 209.771 147.356 209.736C147.062 209.421 146.699 209.179 146.294 209.03C145.89 208.882 145.456 208.831 145.029 208.881C144.942 208.889 144.856 208.863 144.787 208.809C144.719 208.756 144.674 208.678 144.661 208.592C144.655 208.549 144.658 208.505 144.67 208.463C144.681 208.421 144.701 208.382 144.728 208.347C144.755 208.313 144.789 208.285 144.827 208.263C144.865 208.242 144.907 208.229 144.95 208.224C145.482 208.161 146.022 208.225 146.525 208.411C147.028 208.597 147.479 208.9 147.842 209.295C147.883 209.343 147.909 209.402 147.918 209.464C147.928 209.526 147.919 209.59 147.894 209.648C147.868 209.705 147.827 209.755 147.775 209.79C147.723 209.825 147.662 209.845 147.599 209.847Z" fill="#37474F"/>
<path d="M173.085 105.769C169.487 105.486 165.873 105.46 162.271 105.69C160.655 105.714 159.063 106.095 157.611 106.807C156.686 107.397 155.888 108.167 155.265 109.07C154.642 109.973 154.206 110.992 153.982 112.066C153.554 114.214 153.417 116.409 153.575 118.594C153.765 125.732 154.298 131.826 155.067 138.926C162.16 143.021 171.501 144.96 179.389 142.712C179.501 133.509 179.047 123.773 177.193 114.755C176.536 111.494 175.583 107.971 173.085 105.769Z" fill="#455A64"/>
<path opacity="0.3" d="M173.085 105.769C169.487 105.486 165.873 105.46 162.271 105.69C160.655 105.714 159.063 106.095 157.611 106.807C156.686 107.397 155.888 108.167 155.265 109.07C154.642 109.973 154.206 110.992 153.982 112.066C153.554 114.214 153.417 116.409 153.575 118.594C153.765 125.732 154.298 131.826 155.067 138.926C162.16 143.021 171.501 144.96 179.389 142.712C179.501 133.509 179.047 123.773 177.193 114.755C176.536 111.494 175.583 107.971 173.085 105.769Z" fill="white"/>
<path d="M194.521 124.089C194.611 123.116 194.459 122.137 194.078 121.238C193.697 120.338 193.1 119.547 192.339 118.935L179.257 108.371C177.486 106.936 175.347 106.025 173.085 105.742L171.803 105.643C170.633 106.728 170.12 114.452 175.392 117.588L186.764 124.227L186.653 138.84L182.761 143.284C182.691 143.361 182.64 143.454 182.612 143.555C182.585 143.656 182.582 143.761 182.604 143.864C182.626 143.966 182.672 144.061 182.738 144.142C182.804 144.223 182.889 144.287 182.984 144.329C183.208 144.434 183.457 144.473 183.703 144.443C183.948 144.413 184.18 144.314 184.372 144.158L185.634 143.126C184.851 144.598 184.168 146.275 183.385 147.727C183.191 148.013 183.094 148.355 183.109 148.7C183.136 148.846 183.194 148.984 183.281 149.105C183.367 149.225 183.479 149.325 183.609 149.397C183.865 149.543 184.15 149.633 184.444 149.66C185.471 149.781 186.512 149.595 187.435 149.128C188.355 148.661 189.168 148.007 189.821 147.208C191.07 145.704 191.82 143.847 191.964 141.897C193.139 136.011 193.993 130.067 194.521 124.089Z" fill="#FFA8A7"/>
<path d="M159.918 102.975V104.158C159.888 105.025 159.728 105.882 159.445 106.702C159.326 107.047 159.326 107.422 159.445 107.767C159.566 108.057 159.752 108.315 159.988 108.524C160.223 108.732 160.503 108.884 160.805 108.97C161.406 109.131 162.036 109.151 162.646 109.029C164.47 108.718 166.127 107.775 167.326 106.367L167.057 98.2745L159.918 102.975Z" fill="#FFA8A7"/>
<path opacity="0.2" d="M165.624 101.791C166.203 100.779 166.574 99.6619 166.715 98.5045L159.918 102.968V104.151C159.912 104.497 159.879 104.842 159.82 105.183C160.778 105.017 161.712 104.732 162.6 104.335C163.835 103.8 164.886 102.916 165.624 101.791Z" fill="black"/>
<path d="M152.378 89.8473C151.602 89.8725 150.833 89.6841 150.156 89.3028C149.48 88.9215 148.92 88.3618 148.539 87.6846C148.485 87.5852 148.462 87.4723 148.471 87.3596C148.481 87.247 148.523 87.1397 148.593 87.0509C148.663 86.9621 148.758 86.8957 148.865 86.86C148.972 86.8242 149.088 86.8207 149.197 86.8498C149.734 86.945 150.283 86.945 150.82 86.8498C150.201 86.0435 149.748 85.122 149.489 84.139C149.229 83.156 149.168 82.1311 149.308 81.1242C149.326 81.0122 149.369 80.9059 149.435 80.8138C149.501 80.7217 149.588 80.6463 149.688 80.5939C149.789 80.5414 149.9 80.5133 150.013 80.5118C150.127 80.5103 150.239 80.5354 150.341 80.5852C152.569 81.6905 155.049 82.1914 157.532 82.0379C158.847 81.9459 160.161 81.6632 161.476 81.5646C162.799 81.4006 164.141 81.6054 165.355 82.1562C165.964 82.4364 166.486 82.8777 166.864 83.4325C167.242 83.9874 167.461 84.6348 167.498 85.305C167.648 85.0904 167.844 84.9111 168.071 84.7794C168.298 84.6478 168.551 84.5669 168.812 84.5424C169.085 84.5094 169.362 84.5327 169.625 84.6107C169.888 84.6887 170.133 84.8198 170.344 84.996L168.069 86.2581C168.496 86.173 168.939 86.2313 169.329 86.4239C169.719 86.6165 170.034 86.9326 170.226 87.3231C170.56 88.0881 170.704 88.9225 170.646 89.7553C170.689 90.853 170.641 91.9524 170.502 93.0421C170.352 94.1438 169.92 95.188 169.246 96.0725C168.654 96.7955 167.863 97.3301 166.972 97.6107C165.757 97.9499 164.468 97.9086 163.277 97.4923C162.096 97.0801 160.971 96.519 159.931 95.8227C157.236 94.0666 154.708 92.0664 152.378 89.8473Z" fill="#263238"/>
<path d="M152.233 87.6453C151.472 92.2206 151.976 96.9172 153.693 101.226C154.005 102.259 154.656 103.158 155.54 103.777C156.513 104.336 157.722 104.217 158.827 104.053C160.628 103.85 162.384 103.354 164.026 102.587C165.682 101.807 166.973 100.417 167.629 98.7086C168.217 98.8285 168.827 98.7756 169.386 98.5563C169.945 98.337 170.428 97.9607 170.777 97.4727C171.471 96.46 171.83 95.2554 171.803 94.0282C171.803 93.2525 171.658 92.3322 170.962 91.9904C170.619 91.8858 170.254 91.8764 169.907 91.9632C169.56 92.0501 169.242 92.2299 168.989 92.4834C168.054 93.236 167.367 94.2531 167.017 95.4021C166.505 93.5023 165.703 91.6683 165.19 89.7751C165.074 89.0052 164.682 88.3039 164.086 87.803C163.29 87.2903 162.252 87.5861 161.331 87.803C158.335 88.527 155.203 88.4727 152.233 87.6453Z" fill="#FFA8A7"/>
<path d="M157.761 93.4035L155.546 97.1439L158.189 97.6369L157.761 93.4035Z" fill="#F28F8F"/>
<path d="M160.74 98.9254L158.728 99.9049C158.901 100.133 159.143 100.299 159.418 100.378C159.693 100.456 159.986 100.442 160.253 100.339C160.486 100.196 160.661 99.977 160.75 99.7192C160.838 99.4615 160.835 99.1809 160.74 98.9254Z" fill="#F28F8F"/>
<path opacity="0.3" d="M160.74 98.9254L158.728 99.9049C158.901 100.133 159.143 100.299 159.418 100.378C159.693 100.456 159.986 100.442 160.253 100.339C160.486 100.196 160.661 99.977 160.75 99.7192C160.838 99.4615 160.835 99.1809 160.74 98.9254Z" fill="black"/>
<path d="M159.556 100.424C159.79 100.47 160.032 100.447 160.253 100.358C160.437 100.255 160.587 100.099 160.683 99.9106C160.779 99.7223 160.817 99.5098 160.792 99.2999C160.505 99.297 160.226 99.3946 160.003 99.576C159.876 99.6807 159.771 99.8095 159.695 99.9551C159.618 100.101 159.571 100.26 159.556 100.424Z" fill="#F28F8F"/>
<path d="M161.581 93.5547C161.601 93.7054 161.576 93.8587 161.508 93.9949C161.441 94.1312 161.334 94.2442 161.202 94.3193C161.069 94.3944 160.918 94.4283 160.766 94.4166C160.615 94.405 160.47 94.3482 160.351 94.2537C160.232 94.1591 160.144 94.0311 160.098 93.8861C160.052 93.7412 160.05 93.5858 160.094 93.44C160.137 93.2941 160.223 93.1646 160.34 93.0679C160.457 92.9712 160.601 92.9118 160.752 92.8973C160.949 92.8751 161.147 92.9318 161.302 93.055C161.457 93.1782 161.557 93.3578 161.581 93.5547Z" fill="#263238"/>
<path d="M155.224 93.9491C155.243 94.0529 155.241 94.1597 155.217 94.2626C155.193 94.3655 155.148 94.4623 155.085 94.5468C155.021 94.6314 154.941 94.7019 154.849 94.7538C154.757 94.8057 154.655 94.8379 154.55 94.8485C154.445 94.859 154.339 94.8475 154.238 94.8148C154.138 94.7822 154.045 94.729 153.967 94.6586C153.888 94.5883 153.824 94.5023 153.781 94.4062C153.737 94.3101 153.713 94.2059 153.712 94.1003C153.709 93.9094 153.778 93.7244 153.905 93.582C154.033 93.4395 154.209 93.35 154.398 93.331C154.588 93.312 154.779 93.3649 154.931 93.4794C155.084 93.5938 155.189 93.7614 155.224 93.9491Z" fill="#263238"/>
<path d="M154.185 91.0175L152.621 92.3322C152.528 92.1312 152.498 91.9065 152.535 91.6881C152.573 91.4697 152.676 91.2679 152.831 91.1096C153.025 90.9683 153.256 90.8847 153.495 90.8684C153.735 90.8521 153.974 90.9038 154.185 91.0175Z" fill="#263238"/>
<path d="M160.648 90.268L162.442 91.2606C162.494 91.0461 162.48 90.8208 162.4 90.6151C162.32 90.4094 162.179 90.2331 161.995 90.1102C161.777 90.0115 161.537 89.974 161.299 90.0018C161.062 90.0296 160.837 90.1216 160.648 90.268Z" fill="#263238"/>
<path d="M161.147 134.659C161.147 134.475 161.147 134.298 161.101 134.12C160.88 132.604 160.226 131.184 159.218 130.03C158.209 128.877 156.888 128.04 155.415 127.619L145.634 121.703L139.06 118.416L136.352 120.552C135.742 121.026 135.285 121.668 135.037 122.399C134.719 123.375 134.793 124.437 135.245 125.359C135.697 126.28 136.49 126.99 137.456 127.336L153.233 132.897C154.264 133.976 154.919 135.36 155.1 136.841C155.141 137.276 155.227 137.706 155.356 138.123C155.577 138.619 155.953 139.03 156.427 139.294C156.901 139.558 157.448 139.662 157.985 139.589C158.518 139.508 159.024 139.303 159.463 138.992C159.903 138.68 160.263 138.27 160.516 137.795C161.024 136.832 161.243 135.743 161.147 134.659Z" fill="#FFA8A7"/>
<path d="M155.875 127.619V126.666H155.178V127.014L153.693 126.146C153.538 126.056 153.362 126.009 153.183 126.009C153.004 126.009 152.828 126.056 152.674 126.146L150.196 127.579V127.165L149.538 127.224V128.164C149.539 128.223 149.555 128.281 149.585 128.332C149.615 128.383 149.658 128.425 149.709 128.454L151.747 129.637C151.902 129.724 152.078 129.77 152.256 129.77C152.435 129.77 152.61 129.724 152.766 129.637L155.757 127.908C155.806 127.88 155.847 127.84 155.876 127.792C155.905 127.744 155.92 127.688 155.921 127.632L155.875 127.619Z" fill="#BA68C8"/>
<path d="M152.647 125.364L150.116 126.83C150.071 126.854 150.033 126.89 150.006 126.934C149.98 126.978 149.966 127.029 149.966 127.08C149.966 127.131 149.98 127.182 150.006 127.226C150.033 127.27 150.071 127.306 150.116 127.33L151.852 128.329C151.983 128.406 152.133 128.447 152.286 128.447C152.438 128.447 152.588 128.406 152.719 128.329L155.257 126.863C155.301 126.837 155.337 126.801 155.362 126.757C155.387 126.713 155.4 126.664 155.4 126.613C155.4 126.563 155.387 126.513 155.362 126.469C155.337 126.425 155.301 126.389 155.257 126.363L153.515 125.364C153.383 125.287 153.234 125.246 153.081 125.246C152.928 125.246 152.779 125.287 152.647 125.364Z" fill="#BA68C8"/>
<path opacity="0.3" d="M155.875 127.619V126.666H155.178V127.014L153.693 126.146C153.538 126.056 153.362 126.009 153.183 126.009C153.004 126.009 152.828 126.056 152.674 126.146L150.196 127.579V127.165L149.538 127.224V128.164C149.539 128.223 149.555 128.281 149.585 128.332C149.615 128.383 149.658 128.425 149.709 128.454L151.747 129.637C151.902 129.724 152.078 129.77 152.256 129.77C152.435 129.77 152.61 129.724 152.766 129.637L155.757 127.908C155.806 127.88 155.847 127.84 155.876 127.792C155.905 127.744 155.92 127.688 155.921 127.632L155.875 127.619Z" fill="black"/>
<path d="M152.641 125.207L149.663 126.929C149.611 126.958 149.567 127.001 149.537 127.052C149.507 127.103 149.491 127.162 149.491 127.222C149.491 127.281 149.507 127.34 149.537 127.391C149.567 127.442 149.611 127.485 149.663 127.514L151.72 128.691C151.876 128.778 152.051 128.824 152.23 128.824C152.408 128.824 152.584 128.778 152.739 128.691L155.73 126.962C155.78 126.931 155.822 126.888 155.851 126.837C155.88 126.786 155.895 126.728 155.895 126.669C155.895 126.61 155.88 126.553 155.851 126.501C155.822 126.45 155.78 126.407 155.73 126.377L153.692 125.207C153.534 125.11 153.352 125.059 153.166 125.059C152.981 125.059 152.799 125.11 152.641 125.207Z" fill="#BA68C8"/>
<path opacity="0.5" d="M152.647 125.364L150.116 126.83C150.071 126.854 150.033 126.89 150.006 126.934C149.98 126.978 149.966 127.029 149.966 127.08C149.966 127.131 149.98 127.182 150.006 127.226C150.033 127.27 150.071 127.306 150.116 127.33L151.852 128.329C151.983 128.406 152.133 128.447 152.286 128.447C152.438 128.447 152.588 128.406 152.719 128.329L155.257 126.863C155.301 126.837 155.337 126.801 155.362 126.757C155.387 126.713 155.4 126.664 155.4 126.613C155.4 126.563 155.387 126.513 155.362 126.469C155.337 126.425 155.301 126.389 155.257 126.363L153.515 125.364C153.383 125.287 153.234 125.246 153.081 125.246C152.928 125.246 152.779 125.287 152.647 125.364Z" fill="white"/>
<path d="M151.524 132.279C151.123 131.905 150.906 129.86 151.701 129.196L149.663 128.02C149.006 128.855 149.17 130.649 149.538 131.556C149.582 131.66 149.647 131.753 149.73 131.829C149.813 131.905 149.911 131.963 150.018 131.997C150.413 132.128 151.077 132.358 151.333 132.444C151.411 132.472 151.495 132.482 151.578 132.474C151.661 132.467 151.741 132.44 151.813 132.398L151.524 132.279Z" fill="#455A64"/>
</svg>
