<svg width="14" height="14" viewBox="0 0 14 14" fill="none" xmlns="http://www.w3.org/2000/svg">
<path d="M6.57604 11.8493C6.52342 11.905 6.48227 11.9705 6.45496 12.0421C6.42765 12.1137 6.41471 12.1899 6.41688 12.2665C6.41905 12.3431 6.43628 12.4185 6.46759 12.4885C6.4989 12.5584 6.54368 12.6215 6.59938 12.6741C6.65507 12.7267 6.72058 12.7679 6.79217 12.7952C6.86376 12.8225 6.94003 12.8354 7.01662 12.8333C7.09322 12.8311 7.16863 12.8139 7.23857 12.7826C7.3085 12.7512 7.37158 12.7065 7.42421 12.6508L12.3825 7.40077C12.4849 7.29246 12.542 7.14907 12.542 7.00002C12.542 6.85097 12.4849 6.70757 12.3825 6.59927L7.42421 1.34868C7.37193 1.29177 7.30886 1.24582 7.23867 1.21349C7.16848 1.18115 7.09257 1.16309 7.01534 1.16035C6.93811 1.15761 6.8611 1.17023 6.78879 1.1975C6.71648 1.22477 6.65031 1.26613 6.59413 1.31919C6.53794 1.37225 6.49286 1.43594 6.46149 1.50657C6.43013 1.5772 6.41311 1.65335 6.41143 1.73061C6.40975 1.80787 6.42343 1.8847 6.45169 1.95662C6.47995 2.02855 6.52222 2.09415 6.57604 2.1496L11.1564 7.00002L6.57604 11.8493Z" fill="#606873"/>
</svg>
