<svg width="90" height="97" viewBox="0 0 90 97" fill="none" xmlns="http://www.w3.org/2000/svg">
<path d="M53.9511 19.2961C60.9507 18.5139 73.1735 17.3871 83.3282 31.5652C94.8881 47.7187 90.056 71.097 78.4961 82.6039C63.9666 97.0273 38.202 102.131 20.597 90.843C1.12937 78.3618 -5.06155 49.4686 4.27124 34.78C13.604 20.0915 31.9183 20.688 36.8697 21.8613C44.2935 23.5714 48.4959 19.9059 53.9511 19.2961Z" fill="#BA68C8"/>
<path opacity="0.1" d="M29.5457 85.62C49.179 92.381 73.1937 85.1361 86.1125 71.2298C84.2913 75.4435 81.7095 79.2858 78.4965 82.5643C63.967 96.9877 38.2024 102.092 20.5974 90.8034C5.84255 81.3381 -1.27636 62.4471 0.215032 47.4603C0.215032 51.6097 7.90398 78.1763 29.5457 85.62Z" fill="black"/>
<g opacity="0.1">
<path d="M62.1973 24.2342C66.6118 23.0875 73.7837 25.9509 78.2181 31.4658C83.7263 38.3129 86.0794 48.9117 86.0927 56.9056C86.0927 73.0258 72.352 83.8301 70.6618 82.7563C68.9715 81.6825 78.2314 69.5592 69.5151 54.99C60.6728 40.2086 54.9657 26.11 62.1973 24.2342Z" fill="white"/>
</g>
<g opacity="0.1">
<path d="M66.0877 26.1761C70.9066 26.945 77.4223 33.3281 79.6759 38.253C81.9296 43.1779 81.8567 46.797 81.2535 47.5328C80.1797 48.8585 69.3887 41.3617 65.6834 37.8156C60.4403 32.7713 58.3192 24.9432 66.0877 26.1761Z" fill="white"/>
</g>
<path opacity="0.2" d="M48.9998 33.9313C51.0944 31.5783 53.2221 30.2128 54.9322 32.9238C56.6423 35.6348 50.9552 41.3286 43.4054 40.447C35.8557 39.5655 32.5945 35.3167 32.3492 32.9238C32.3492 32.9238 36.4588 37.5041 41.3705 37.2721C44.2254 37.0827 46.9243 35.9009 48.9998 33.9313Z" fill="#8873F4"/>
<path d="M42.6362 37.7693C42.6362 37.7693 40.9791 28.1515 42.5368 19.1634C44.0944 10.1752 48.3764 3.3281 49.7021 2.42664C51.0277 1.52518 53.3609 0.636969 56.7679 0.106697C60.1749 -0.423575 64.6093 1.16724 63.7211 2.66526C62.8329 4.16328 58.1002 5.97946 53.1157 12.535C48.1311 19.0904 44.2668 30.8625 45.3605 37.3053C44.9929 37.6256 44.5442 37.8384 44.0635 37.9203C43.5829 38.0022 43.089 37.9499 42.6362 37.7693Z" fill="#8873F4"/>
<path d="M49.9347 2.2874L50.2396 2.09518H50.2728C52.3086 1.06624 54.5056 0.393668 56.7686 0.10666C59.2807 -0.291044 62.3497 0.477848 63.397 1.51188C63.7151 1.95598 63.0788 2.74476 60.1159 3.69262C57.1888 4.64195 54.0756 4.86936 51.0416 4.35546C49.6629 4.11684 48.9603 3.02315 49.9347 2.2874Z" fill="#455A64"/>
<path opacity="0.1" d="M45.235 26.3223C46.6071 18.2157 53.6332 10.4539 58.7039 6.68894C56.6119 8.41104 54.7298 10.3733 53.0963 12.5352C48.0985 19.0973 44.2606 30.8561 45.3543 37.3055C44.9868 37.6259 44.538 37.8387 44.0574 37.9205C43.5768 38.0024 43.0829 37.9501 42.6301 37.7695C42.6301 37.7695 42.2324 35.4496 42.007 32.0359C42.7162 35.1248 43.9624 33.7925 45.235 26.3223Z" fill="black"/>
<path d="M41.9674 24.6052C37.7982 25.4073 30.9046 23.843 26.9939 18.6397C22.2943 12.3626 25.4428 4.26268 25.4428 4.26268C27.8225 3.86221 30.2636 4.03845 32.5611 4.7766C34.8586 5.51475 36.9455 6.79328 38.6466 8.50486C42.8358 12.7669 43.3528 20.9994 41.9674 24.6052Z" fill="#BA68C8"/>
<path opacity="0.5" d="M41.9674 24.6052C37.7982 25.4073 30.9046 23.843 26.9939 18.6397C22.2943 12.3626 25.4428 4.26268 25.4428 4.26268C27.8225 3.86221 30.2636 4.03845 32.5611 4.7766C34.8586 5.51475 36.9455 6.79328 38.6466 8.50486C42.8358 12.7669 43.3528 20.9994 41.9674 24.6052Z" fill="black"/>
<path d="M25.442 4.24301C27.8217 3.84254 30.2627 4.01878 32.5602 4.75693C34.8577 5.49508 36.9446 6.77361 38.6458 8.48519C42.8349 12.7671 43.3519 20.9996 41.96 24.6055C38.195 12.5617 25.442 4.24301 25.442 4.24301Z" fill="#BA68C8"/>
<path opacity="0.3" d="M25.442 4.24301C27.8217 3.84254 30.2627 4.01878 32.5602 4.75693C34.8577 5.49508 36.9446 6.77361 38.6458 8.48519C42.8349 12.7671 43.3519 20.9996 41.96 24.6055C38.195 12.5617 25.442 4.24301 25.442 4.24301Z" fill="black"/>
</svg>
