<svg width="14" height="18" viewBox="0 0 14 18" fill="none" xmlns="http://www.w3.org/2000/svg">
<path d="M9.05215 17.9024C6.59743 16.4889 7.58815 11.7372 7.84688 11.0557C8.1056 10.3742 7.84689 9.52231 7.12751 8.68935C6.6432 8.03645 5.98813 7.52985 5.2344 7.22535C4.82423 7.17486 3.19615 7.6229 2.28115 7.22535C1.36615 6.82779 1.01908 6.05162 1.47343 5.61621C1.92777 5.18079 4.25629 4.62548 5.29749 4.73276C6.13251 4.89823 6.92756 5.22396 7.63864 5.69193C7.0234 4.87754 6.32787 4.12704 5.56253 3.45176C4.80529 2.928 3.42332 2.82073 2.83015 2.745C2.23697 2.66928 0.552117 2.17707 0.173496 1.26207C-0.205125 0.347069 -0.00950786 0 1.2147 0C2.43891 0 6.45229 9.77927e-07 7.15273 0.567932C8.58151 1.95695 9.92391 3.43212 11.1724 4.98517C12.4345 6.49965 14.0436 12.4188 13.9995 14.2614C13.9553 16.104 9.05215 17.9024 9.05215 17.9024Z" fill="#9E6767"/>
</svg>
