<svg width="24" height="24" viewBox="0 0 24 24" fill="none" xmlns="http://www.w3.org/2000/svg">
<path fill-rule="evenodd" clip-rule="evenodd" d="M14.9998 19.5C15 20.0046 14.8094 20.4906 14.4664 20.8605C14.1233 21.2305 13.653 21.4572 13.1498 21.495L12.9998 21.5H10.9998C10.4953 21.5002 10.0093 21.3096 9.6393 20.9665C9.26932 20.6234 9.04269 20.1532 9.00485 19.65L8.99985 19.5H14.9998ZM11.9998 2.5C13.8148 2.49997 15.5589 3.20489 16.8641 4.46607C18.1693 5.72726 18.9336 7.44609 18.9958 9.26L18.9998 9.5V13.264L20.8218 16.908C20.9014 17.067 20.9412 17.2429 20.9378 17.4206C20.9345 17.5984 20.8881 17.7727 20.8027 17.9286C20.7173 18.0845 20.5953 18.2174 20.4473 18.3158C20.2993 18.4143 20.1297 18.4754 19.9528 18.494L19.8378 18.5H4.16185C3.98401 18.5001 3.80882 18.457 3.65127 18.3745C3.49372 18.292 3.35853 18.1725 3.25727 18.0264C3.156 17.8802 3.0917 17.7116 3.06985 17.5351C3.04801 17.3586 3.06928 17.1795 3.13185 17.013L3.17785 16.908L4.99985 13.264V9.5C4.99985 7.64348 5.73735 5.86301 7.0501 4.55025C8.36286 3.2375 10.1433 2.5 11.9998 2.5ZM11.9998 4.5C10.7114 4.50007 9.47269 4.99754 8.54207 5.88866C7.61146 6.77978 7.06077 7.99575 7.00485 9.283L6.99985 9.5V13.264C6.99986 13.512 6.95374 13.7579 6.86385 13.989L6.78885 14.159L5.61885 16.5H18.3818L17.2118 14.158C17.1009 13.9363 17.032 13.6959 17.0088 13.449L16.9998 13.264V9.5C16.9998 8.17392 16.4731 6.90215 15.5354 5.96447C14.5977 5.02678 13.3259 4.5 11.9998 4.5Z" fill="#39434F"/>
<circle cx="17.3383" cy="6.66519" r="3.1" fill="#8873F4" stroke="#39434F"/>
</svg>
