<svg width="67" height="145" viewBox="0 0 67 145" fill="none" xmlns="http://www.w3.org/2000/svg">
<path d="M4.09898 116.5C4.7299 108.014 3.75196 101.503 4.48383 88.247C4.55323 84.8527 4.67943 81.2122 4.91287 77.9756C5.70783 67.0922 7.43655 63.3761 7.6069 61.2751C7.6069 61.2751 7.90975 44.3475 8.64162 20.5365C8.98863 9.33763 12.3577 5.94328 15.0455 0H48.4843C50.3771 14.3976 51.6074 46.6882 51.5001 61.7925C51.4497 69.496 48.2193 110.733 48.1562 111.679C47.9291 115.042 48.232 116.374 49.6011 117.787C52.4654 120.752 56.6106 123.572 60.2005 126.153C59.6832 127.478 55.3677 127.415 53.2289 126.424C50.4353 125.027 47.7654 123.396 45.2477 121.547C42.3013 119.44 38.5347 117.762 38.4842 114.544C38.4711 114.351 38.4372 114.161 38.3833 113.976C38.3328 112.083 33.8091 84.5246 33.4368 78.1207C33.1088 72.6191 33.8028 63.2814 33.8028 63.2814L30.1245 39.9689C30.1245 39.9689 27.8532 53.7482 25.5629 63.1553C23.6702 70.8147 20.6102 83.881 18.5092 93.307C16.4903 104.165 13.5186 111.894 13.0076 117.326C12.8499 118.626 11.3293 131.358 10.6984 134.279C10.0675 137.2 3.46806 137.257 3.05796 132.273C2.77405 128.904 3.98541 118.121 4.09898 116.5Z" fill="#9E6767"/>
<path d="M30.1244 39.9561L32.8184 23.1231C32.8184 23.1231 43.216 21.9496 47.0015 18.4417C47.0015 18.4417 42.2318 24.9339 35.1718 26.0128L32.2064 39.9561L33.7522 63.0668L30.1244 39.9561Z" fill="#874C4C"/>
<path d="M66.2826 129.547C66.4656 129.547 66.7621 131.484 65.7842 132.317C64.6485 133.282 61.3109 134.879 56.8693 134.368C52.4276 133.857 50.0111 132.563 48.2193 131.15C46.4275 129.737 43.9164 127.737 41.9101 127.333C40.0173 126.954 38.011 126.159 37.4053 125.61C36.7996 125.061 36.8564 122.588 36.8564 122.588L66.2826 129.547Z" fill="#263238"/>
<path d="M38.2943 113.055C38.2943 113.055 37.9599 113.055 37.8526 113.642C37.7201 114.329 37.5939 116.311 37.3163 117.427C36.8778 119.4 36.7522 121.429 36.9441 123.44C37.2028 124.702 40.2501 125.547 42.1997 126.241C44.4773 127.186 46.6032 128.462 48.5089 130.027C50.6162 131.667 55.02 133.282 57.9096 133.295C62.3261 133.295 65.1715 132.128 66.0359 130.588C67.1085 128.696 66.2378 127.598 61.1399 125.383C60.1746 124.96 56.7803 123.068 55.6257 122.386C54.4008 121.668 53.2361 120.851 52.143 119.945C51.5944 119.486 51.0721 118.998 50.5783 118.481C50.0691 118.025 49.631 117.496 49.2786 116.91C49.2155 116.784 49.1777 116.632 49.1272 116.5C48.9773 116.128 48.8612 115.744 48.7802 115.352C48.6919 114.948 48.6351 114.355 48.2313 114.09C47.6541 113.872 47.0303 113.807 46.4205 113.9C45.7627 113.952 45.1093 114.049 44.4647 114.191C43.7202 114.361 42.8558 114.43 42.4205 115.112C42.1321 115.659 41.9949 116.273 42.023 116.891C42.023 117.175 42.023 117.465 42.023 117.749C42.023 117.869 42.0798 118.09 41.9031 118.039C41.7265 117.989 41.5435 117.572 41.4741 117.408C41.329 117.087 41.2344 116.746 41.0766 116.437C40.9079 116.068 40.6962 115.721 40.4457 115.402C40.2045 115.113 39.9315 114.853 39.6318 114.626C39.3298 114.464 39.037 114.285 38.7548 114.09C38.4993 113.8 38.3386 113.439 38.2943 113.055Z" fill="#37474F"/>
<path d="M61.9855 125.724C55.6006 126.216 53.6321 130.045 53.386 132.405C54.8507 132.92 56.3838 133.213 57.935 133.276C62.3514 133.276 65.3735 132.109 66.2442 130.569C67.2537 128.771 66.5597 127.339 61.9855 125.724Z" fill="#FAFAFA"/>
<path d="M52.4085 125.888C52.3381 125.889 52.2692 125.867 52.2129 125.825C52.1806 125.801 52.1535 125.771 52.1332 125.737C52.113 125.702 52.1001 125.664 52.0954 125.624C52.0906 125.584 52.0941 125.544 52.1057 125.506C52.1172 125.468 52.1365 125.432 52.1624 125.402C52.9113 124.645 53.8099 124.054 54.8008 123.665C55.7917 123.276 56.8529 123.098 57.9164 123.143C57.9566 123.145 57.9958 123.156 58.0318 123.174C58.0677 123.192 58.0996 123.217 58.1256 123.248C58.1516 123.278 58.171 123.314 58.1828 123.352C58.1946 123.391 58.1984 123.431 58.194 123.471C58.1845 123.552 58.1434 123.626 58.0796 123.677C58.0158 123.728 57.9344 123.751 57.8534 123.742C56.8986 123.715 55.9481 123.881 55.059 124.23C54.17 124.579 53.3607 125.104 52.6798 125.774C52.6488 125.815 52.6073 125.848 52.5596 125.868C52.5119 125.888 52.4597 125.895 52.4085 125.888Z" fill="#F0F0F0"/>
<path d="M49.6391 124.367C49.5683 124.371 49.4986 124.349 49.4435 124.304C49.4112 124.281 49.3841 124.251 49.3639 124.216C49.3437 124.182 49.3308 124.143 49.326 124.104C49.3213 124.064 49.3248 124.024 49.3363 123.986C49.3479 123.947 49.3672 123.912 49.3931 123.881C50.1424 123.125 51.0411 122.534 52.0319 122.145C53.0227 121.756 54.0836 121.578 55.1471 121.623C55.1894 121.623 55.2312 121.632 55.2698 121.649C55.3083 121.667 55.3428 121.692 55.3711 121.723C55.3993 121.755 55.4206 121.792 55.4336 121.832C55.4466 121.873 55.4511 121.915 55.4466 121.957C55.4422 121.999 55.429 122.04 55.4079 122.077C55.3868 122.113 55.3582 122.145 55.3241 122.17C55.2899 122.195 55.2509 122.213 55.2095 122.221C55.1682 122.23 55.1254 122.231 55.084 122.222C54.1234 122.19 53.1664 122.354 52.2714 122.704C51.3764 123.055 50.5623 123.584 49.8789 124.26C49.8492 124.294 49.8124 124.322 49.771 124.34C49.7295 124.359 49.6845 124.368 49.6391 124.367Z" fill="#F0F0F0"/>
<path d="M47.071 122.633C46.9982 122.631 46.9277 122.606 46.8691 122.563C46.838 122.539 46.8121 122.508 46.793 122.473C46.7739 122.439 46.7619 122.4 46.7578 122.361C46.7537 122.322 46.7575 122.282 46.769 122.244C46.7806 122.206 46.7996 122.171 46.825 122.14C47.5745 121.385 48.4733 120.794 49.464 120.405C50.4547 120.016 51.5156 119.838 52.579 119.882C52.6188 119.885 52.6576 119.896 52.6931 119.914C52.7287 119.932 52.7602 119.957 52.786 119.988C52.8118 120.018 52.8314 120.054 52.8435 120.092C52.8556 120.13 52.86 120.17 52.8566 120.21C52.8536 120.251 52.8422 120.29 52.8231 120.326C52.8039 120.363 52.7776 120.394 52.7456 120.42C52.7136 120.445 52.6766 120.464 52.6371 120.475C52.5976 120.485 52.5563 120.487 52.5159 120.481C51.5553 120.449 50.5982 120.613 49.7033 120.963C48.8083 121.314 47.9942 121.843 47.3108 122.519C47.2482 122.586 47.1625 122.627 47.071 122.633Z" fill="#F0F0F0"/>
<path d="M44.5535 120.916C44.4831 120.917 44.4143 120.895 44.3579 120.853C44.3251 120.83 44.2975 120.8 44.2766 120.766C44.2558 120.732 44.2423 120.694 44.237 120.654C44.2317 120.614 44.2346 120.574 44.2457 120.535C44.2567 120.497 44.2756 120.461 44.3012 120.43C45.5125 118.922 48.2633 117.907 50.6104 118.134C50.6507 118.136 50.6902 118.147 50.7265 118.164C50.7628 118.182 50.7951 118.207 50.8215 118.238C50.848 118.268 50.8681 118.304 50.8806 118.342C50.8931 118.381 50.8977 118.421 50.8943 118.462C50.8848 118.543 50.8436 118.617 50.7798 118.668C50.716 118.718 50.6347 118.742 50.5536 118.733C48.4589 118.537 45.8911 119.465 44.8185 120.796C44.7865 120.835 44.746 120.866 44.7 120.887C44.6541 120.908 44.6039 120.918 44.5535 120.916Z" fill="#F0F0F0"/>
<path d="M12.7676 136.538C12.5973 139.446 12.1367 141.377 11.0578 143.08C9.97894 144.784 7.97261 145.32 5.92842 144.822C3.88424 144.323 1.26591 142.986 0.67915 140.481C0.0923925 137.976 -0.248293 136.254 0.218589 133.541L12.7676 136.538Z" fill="#263238"/>
<path d="M4.18122 115.484C3.34209 115.547 3.08972 119.452 2.60391 123.358C2.08656 127.553 0.786847 129.282 0.326274 132.721C-0.21001 136.645 0.465083 138.399 1.89097 140.771C3.31685 143.143 8.36423 145.472 10.8501 142.071C12.8753 139.301 12.9636 136.229 12.7744 132.31C12.6707 128.998 12.7612 125.682 13.0457 122.38C13.2097 119.44 13.8848 116.474 13.1529 116.146C13.0961 116.582 13.0457 117.131 12.9826 117.553C12.9558 118.084 12.8647 118.609 12.7113 119.118C12.6293 119.339 12.44 119.566 12.3643 119.213C12.3232 118.97 12.3232 118.723 12.3643 118.481C12.4841 117.395 11.9226 117.307 11.6135 117.219C10.3216 116.974 9.01814 116.795 7.70807 116.683C7.07714 116.645 4.84999 116.55 4.55346 116.903C4.36569 117.252 4.26809 117.643 4.26953 118.039C4.20013 118.632 4.05502 119.061 4.0361 118.878C3.99824 118.455 4.08026 117.351 4.09288 117.086C4.1055 116.821 4.14966 116.487 4.14966 116.228C4.14966 115.97 4.16229 115.736 4.18122 115.484Z" fill="#37474F"/>
<path d="M0.0924156 134.992C-0.0602549 137.099 0.492459 139.196 1.66342 140.954C3.08931 143.333 8.54046 145.667 11.0326 142.266C12.2944 140.576 12.5973 138.576 12.7676 136.538C11.2787 133.919 2.43944 132.765 0.0924156 134.992Z" fill="#FAFAFA"/>
<path d="M10.9314 132.273C10.898 132.279 10.8639 132.279 10.8305 132.273C10.7926 132.273 6.89984 130.702 3.108 131.547C3.0294 131.567 2.94639 131.554 2.8768 131.513C2.8072 131.472 2.75656 131.405 2.73576 131.327C2.72556 131.287 2.72359 131.246 2.72996 131.206C2.73634 131.166 2.75094 131.127 2.77284 131.093C2.79475 131.059 2.82349 131.029 2.85727 131.006C2.89106 130.984 2.92915 130.968 2.9692 130.961C5.69735 130.469 8.50825 130.735 11.0955 131.73C11.1327 131.746 11.1663 131.769 11.1943 131.798C11.2223 131.827 11.2441 131.862 11.2582 131.9C11.2724 131.937 11.2787 131.978 11.2768 132.018C11.2748 132.058 11.2646 132.098 11.2469 132.134C11.2129 132.185 11.1652 132.225 11.1093 132.249C11.0535 132.274 10.9918 132.282 10.9314 132.273Z" fill="#F0F0F0"/>
<path d="M3.29762 128.594C3.23878 128.59 3.18255 128.568 3.13559 128.532C3.08863 128.496 3.0529 128.448 3.03262 128.393C3.01986 128.354 3.01481 128.314 3.01776 128.274C3.02071 128.234 3.03159 128.195 3.0498 128.159C3.068 128.123 3.09316 128.091 3.12379 128.065C3.15442 128.039 3.18991 128.02 3.22821 128.008C7.01374 126.777 11.1904 128.639 11.3482 128.708C11.3838 128.725 11.4155 128.75 11.4415 128.78C11.4675 128.809 11.4873 128.844 11.4996 128.882C11.512 128.92 11.5167 128.959 11.5134 128.999C11.5102 129.038 11.499 129.077 11.4807 129.112C11.4395 129.183 11.3729 129.235 11.2943 129.259C11.2158 129.282 11.1312 129.275 11.0579 129.238C11.0201 129.238 6.93803 127.427 3.4301 128.607C3.38557 128.609 3.34097 128.605 3.29762 128.594Z" fill="#F0F0F0"/>
<path d="M3.43019 125.837C3.37159 125.832 3.31571 125.81 3.26888 125.774C3.22205 125.738 3.18613 125.69 3.1652 125.635C3.1514 125.598 3.14539 125.558 3.1475 125.518C3.14962 125.478 3.15985 125.438 3.17754 125.402C3.19523 125.366 3.22002 125.334 3.25044 125.308C3.28085 125.282 3.31625 125.263 3.35449 125.25C7.50595 123.818 11.4808 125.837 11.6322 125.926C11.6662 125.946 11.6957 125.973 11.7192 126.006C11.7427 126.038 11.7596 126.074 11.7689 126.113C11.7783 126.152 11.78 126.192 11.7738 126.231C11.7677 126.27 11.7539 126.308 11.7331 126.342C11.6879 126.41 11.6183 126.459 11.5386 126.477C11.4589 126.496 11.375 126.484 11.3041 126.443C11.2726 126.443 7.43024 124.487 3.569 125.812C3.52481 125.829 3.47766 125.838 3.43019 125.837Z" fill="#F0F0F0"/>
<path d="M3.63855 123.118C3.58134 123.114 3.52645 123.094 3.47976 123.06C3.43306 123.027 3.39635 122.982 3.37357 122.929C3.35955 122.891 3.35316 122.851 3.3548 122.811C3.35643 122.771 3.36605 122.731 3.38308 122.695C3.40011 122.659 3.42421 122.626 3.45399 122.599C3.48377 122.572 3.51864 122.551 3.55654 122.538C7.44933 121.131 11.727 123.206 11.8847 123.295C11.92 123.313 11.9513 123.339 11.9766 123.37C12.0019 123.4 12.0207 123.436 12.0319 123.474C12.043 123.513 12.0464 123.553 12.0417 123.592C12.037 123.632 12.0244 123.67 12.0046 123.705C11.9624 123.777 11.8937 123.829 11.8134 123.85C11.7331 123.871 11.6476 123.86 11.5756 123.819C11.5377 123.819 7.38622 121.793 3.77735 123.099C3.73346 123.117 3.68567 123.124 3.63855 123.118Z" fill="#EBEBEB"/>
<path d="M14.1939 0.119875C10.4084 6.7761 7.60079 12.221 7.21593 32.0193C6.83107 51.8176 6.89415 57.3697 6.81844 59.7798C6.74273 62.19 5.29793 66.4361 4.02978 78.1965C2.76163 89.9568 4.26322 103.97 4.26322 103.97C4.26322 103.97 5.13388 105.862 9.7964 106.266C14.0993 106.638 16.2255 105.08 16.2255 105.08C16.2255 105.08 22.1246 82.1776 23.7524 75.0986C25.3802 68.0197 30.1247 44.7197 30.1247 44.7197L32.9386 63.6095C32.9386 63.6095 31.6263 70.1017 32.9386 80.4173C34.2509 90.7329 36.5601 101.294 36.5601 101.294C38.6887 102.007 40.9213 102.359 43.1659 102.336C45.1939 102.368 47.1943 101.863 48.964 100.872C48.964 100.872 52.6171 70.1837 52.6171 58.4928C52.6171 46.8018 50.7243 17.1358 49.2416 0.258679L14.1939 0.119875Z" fill="#37474F"/>
<path d="M30.1244 44.6947L33.9667 22.215C33.9667 22.215 42.0677 21.6535 46.5851 17.1108C44.7555 21.9374 38.1055 25.3128 35.1844 25.9942L31.7521 44.4424L32.9509 63.5845L30.1244 44.6947Z" fill="#263238"/>
<path d="M7.88411 64.064C9.26583 58.8021 10.8179 52.8462 10.9378 38.1962C11.064 22.4232 12.9883 12.1581 17.5688 2.78888L18.1997 3.06649C15.4056 8.87332 13.5629 15.0915 12.7422 21.4831C14.1429 21.8238 15.6129 21.9752 17.0009 21.1361C18.7423 20.0825 19.9915 17.6029 20.7234 13.7669C22.471 4.56808 24.4584 1.58382 24.5404 1.46394L25.102 1.81726C25.102 1.84881 23.1019 4.852 21.3858 13.8868C20.6098 17.9626 19.2912 20.5115 17.3605 21.685C16.5552 22.1684 15.631 22.4175 14.6918 22.4042C14.0018 22.3929 13.3156 22.2997 12.6476 22.1266C11.9741 27.4588 11.637 32.828 11.6381 38.2025C11.5182 52.9093 9.94722 58.9094 8.5655 64.2028C8.30682 65.187 8.05447 66.1524 7.81472 67.1492C6.33836 73.3512 4.74844 91.1242 5.58125 105.087C5.32947 104.95 5.09266 104.787 4.87462 104.601C4.11121 90.6448 5.68851 73.1682 7.15856 67.0041C7.37307 66.0262 7.63174 65.0483 7.88411 64.064Z" fill="#263238"/>
<path d="M38.6858 23.4642C38.812 24.7261 41.7836 54.3794 41.0896 60.6886C40.9256 62.1902 40.7237 63.5908 40.5281 64.941C39.5795 70.8511 39.3149 76.8507 39.7394 82.8213C40.1811 90.67 40.3703 98.1401 40.4587 102.172L39.7836 102.077C39.7016 98.0266 39.506 90.6258 39.0643 82.8592C38.6324 76.8463 38.9013 70.8035 39.8656 64.8527C40.0549 63.5025 40.2568 62.1082 40.4208 60.6192C41.1022 54.3605 38.0422 23.8491 38.0107 23.5399L38.6858 23.4642Z" fill="#263238"/>
</svg>
