<svg width="52" height="55" viewBox="0 0 52 55" fill="none" xmlns="http://www.w3.org/2000/svg">
<path d="M11.4545 20.4144V0C2.70268 5.49214 -2.53922 17.7803 1.2605 25.7353C1.80829 26.8801 2.50828 27.9456 3.34145 28.9029C5.33653 25.4717 8.11699 22.5626 11.4545 20.4144Z" fill="#BA68C8"/>
<g opacity="0.1">
<path d="M11.4545 20.4144V0C2.70268 5.49214 -2.53922 17.7803 1.2605 25.7353C1.80829 26.8801 2.50828 27.9456 3.34145 28.9029C5.33653 25.4717 8.11699 22.5626 11.4545 20.4144Z" fill="black"/>
</g>
<g opacity="0.5">
<path d="M11.4545 20.4144V0C2.70268 5.49214 -2.53922 17.7803 1.2605 25.7353C1.80829 26.8801 2.50828 27.9456 3.34145 28.9029C5.33653 25.4717 8.11699 22.5626 11.4545 20.4144Z" fill="white"/>
</g>
<path opacity="0.3" d="M7.00205 3.68777V24.0693C8.33027 22.6672 9.8253 21.4331 11.4537 20.3947V0C9.82285 1.04019 8.32751 2.27893 7.00205 3.68777Z" fill="#BA68C8"/>
<path d="M3.341 28.9228C2.50783 27.9656 1.80785 26.9001 1.26005 25.7553C0.39472 23.8757 -0.0352285 21.825 0.00225661 19.7561V37.2071C-0.0173231 39.2291 0.409923 41.2304 1.25346 43.0681C8.17462 57.6084 39.2177 56.5548 51.9998 49.1726L50.9462 32.1233C39.1848 38.9193 12.9885 40.0915 3.341 28.9228Z" fill="#BA68C8"/>
<path opacity="0.7" d="M3.341 28.9228C2.50783 27.9656 1.80785 26.9001 1.26005 25.7553C0.39472 23.8757 -0.0352285 21.825 0.00225661 19.7561V37.2071C-0.0173231 39.2291 0.409923 41.2304 1.25346 43.0681C8.17462 57.6084 39.2177 56.5548 51.9998 49.1726L50.9462 32.1233C39.1848 38.9193 12.9885 40.0915 3.341 28.9228Z" fill="white"/>
<path d="M1.78653 40.9738C1.75225 40.9747 1.71815 40.9687 1.68622 40.9562C1.6543 40.9437 1.6252 40.9249 1.60065 40.9009C1.5761 40.877 1.55659 40.8484 1.54328 40.8168C1.52996 40.7852 1.52311 40.7512 1.52312 40.717V30.1805C1.52311 30.1462 1.52996 30.1123 1.54328 30.0807C1.55659 30.0491 1.5761 30.0204 1.60065 29.9965C1.6252 29.9726 1.6543 29.9538 1.68622 29.9413C1.71815 29.9288 1.75225 29.9228 1.78653 29.9237C1.8205 29.9228 1.85431 29.9288 1.88588 29.9414C1.91744 29.9539 1.94612 29.9728 1.97015 29.9969C1.99418 30.0209 2.01307 30.0496 2.02565 30.0811C2.03824 30.1127 2.04426 30.1465 2.04335 30.1805V40.717C2.04426 40.7509 2.03824 40.7847 2.02565 40.8163C2.01307 40.8479 1.99418 40.8765 1.97015 40.9006C1.94612 40.9246 1.91744 40.9435 1.88588 40.9561C1.85431 40.9687 1.8205 40.9747 1.78653 40.9738Z" fill="#BA68C8"/>
<path d="M4.12479 43.6868C4.0905 43.6868 4.05656 43.6799 4.02496 43.6666C3.99337 43.6533 3.96476 43.6338 3.94082 43.6092C3.91689 43.5847 3.8981 43.5556 3.88559 43.5237C3.87308 43.4917 3.86709 43.4576 3.86797 43.4233V37.6941C3.86709 37.6598 3.87308 37.6257 3.88559 37.5938C3.8981 37.5619 3.91689 37.5328 3.94082 37.5083C3.96476 37.4837 3.99337 37.4642 4.02496 37.4509C4.05656 37.4376 4.0905 37.4307 4.12479 37.4307C4.19353 37.4307 4.25955 37.4576 4.30876 37.5055C4.35798 37.5535 4.38649 37.6188 4.38821 37.6876V43.4233C4.38821 43.4932 4.36045 43.5602 4.31105 43.6096C4.26165 43.659 4.19465 43.6868 4.12479 43.6868Z" fill="#BA68C8"/>
<path d="M6.48902 46.3672C6.42078 46.3656 6.35567 46.3382 6.3068 46.2906C6.25793 46.2429 6.22892 46.1785 6.22561 46.1103L6.17951 40.4141C6.17863 40.3798 6.18462 40.3457 6.19714 40.3137C6.20965 40.2818 6.22843 40.2527 6.25236 40.2282C6.2763 40.2036 6.30491 40.1841 6.33651 40.1708C6.3681 40.1575 6.40205 40.1506 6.43634 40.1506C6.50445 40.1506 6.56978 40.1777 6.61794 40.2259C6.66611 40.274 6.69316 40.3393 6.69316 40.4075L6.75902 46.0972C6.7599 46.1314 6.7539 46.1655 6.74139 46.1975C6.72888 46.2294 6.7101 46.2585 6.68616 46.283C6.66222 46.3076 6.63362 46.3271 6.60202 46.3404C6.57042 46.3537 6.53648 46.3606 6.50219 46.3606L6.48902 46.3672Z" fill="#BA68C8"/>
<path d="M8.95808 48.2768C8.89049 48.2751 8.82613 48.2475 8.77832 48.1997C8.73051 48.1519 8.70292 48.0875 8.70125 48.02L8.62881 42.3895C8.62793 42.3552 8.63393 42.3211 8.64644 42.2892C8.65895 42.2573 8.67773 42.2282 8.70167 42.2036C8.7256 42.1791 8.75422 42.1596 8.78581 42.1463C8.81741 42.1329 8.85135 42.1261 8.88564 42.1261C9.04369 42.1261 9.14905 42.238 9.14905 42.3829L9.22149 48.0134C9.22151 48.0821 9.19467 48.1481 9.14668 48.1973C9.0987 48.2465 9.03338 48.2751 8.96466 48.2768H8.95808Z" fill="#BA68C8"/>
<path d="M11.4942 49.5743C11.4261 49.5743 11.3607 49.5473 11.3126 49.4991C11.2644 49.451 11.2374 49.3856 11.2374 49.3175L11.0595 38.781C11.0587 38.7468 11.0647 38.7126 11.0772 38.6807C11.0897 38.6488 11.1085 38.6197 11.1324 38.5951C11.1563 38.5706 11.185 38.5511 11.2165 38.5378C11.2481 38.5245 11.2821 38.5176 11.3164 38.5176C11.3845 38.5176 11.4498 38.5447 11.498 38.5928C11.5461 38.641 11.5732 38.7063 11.5732 38.7745L11.751 49.3109C11.7519 49.3452 11.7459 49.3793 11.7334 49.4112C11.7209 49.4432 11.7021 49.4723 11.6782 49.4968C11.6542 49.5214 11.6256 49.5409 11.594 49.5542C11.5624 49.5675 11.5285 49.5744 11.4942 49.5743Z" fill="#BA68C8"/>
<path d="M14.0881 50.3052C14.0198 50.3037 13.9547 50.2763 13.9058 50.2286C13.857 50.181 13.828 50.1166 13.8247 50.0484L13.7061 44.418C13.706 44.3486 13.7327 44.2818 13.7805 44.2316C13.8283 44.1813 13.8936 44.1514 13.9629 44.148C14.0311 44.148 14.0964 44.175 14.1445 44.2232C14.1927 44.2714 14.2198 44.3367 14.2198 44.4048L14.3383 50.0418C14.3401 50.0758 14.3349 50.1097 14.3232 50.1416C14.3114 50.1735 14.2933 50.2027 14.2698 50.2273C14.2464 50.252 14.2182 50.2716 14.187 50.285C14.1557 50.2984 14.1221 50.3053 14.0881 50.3052Z" fill="#BA68C8"/>
<path d="M16.7222 51.0294C16.654 51.0278 16.5889 51.0004 16.54 50.9528C16.4911 50.9051 16.4621 50.8407 16.4588 50.7725L16.3205 45.2672C16.3304 45.2053 16.362 45.149 16.4097 45.1083C16.4574 45.0677 16.518 45.0453 16.5806 45.0453C16.6433 45.0453 16.7039 45.0677 16.7516 45.1083C16.7993 45.149 16.8309 45.2053 16.8408 45.2672L16.9791 50.7725C16.9808 50.8068 16.9757 50.8411 16.964 50.8734C16.9523 50.9056 16.9343 50.9352 16.9109 50.9604C16.8876 50.9855 16.8595 51.0058 16.8282 51.0199C16.7969 51.034 16.7631 51.0417 16.7288 51.0425L16.7222 51.0294Z" fill="#BA68C8"/>
<path d="M19.3894 51.5167C19.3556 51.5175 19.3221 51.5117 19.2906 51.4996C19.2591 51.4875 19.2303 51.4693 19.2058 51.4461C19.1813 51.4229 19.1617 51.395 19.148 51.3642C19.1343 51.3334 19.1268 51.3001 19.1259 51.2664L18.9613 45.7018C18.9612 45.6324 18.9879 45.5657 19.0357 45.5154C19.0835 45.4651 19.1488 45.4352 19.2181 45.4318C19.2524 45.4309 19.2865 45.4369 19.3184 45.4494C19.3504 45.462 19.3795 45.4808 19.404 45.5047C19.4286 45.5286 19.4481 45.5572 19.4614 45.5888C19.4747 45.6204 19.4816 45.6544 19.4816 45.6887L19.6462 51.2532C19.648 51.2872 19.6428 51.3211 19.6311 51.353C19.6193 51.3849 19.6011 51.4141 19.5777 51.4388C19.5543 51.4634 19.5261 51.483 19.4949 51.4964C19.4636 51.5098 19.4299 51.5167 19.3959 51.5167H19.3894Z" fill="#BA68C8"/>
<path d="M22.0765 52.0635C22.0089 52.0635 21.9438 52.0376 21.8948 51.991C21.8457 51.9444 21.8165 51.8808 21.8131 51.8132L21.4575 41.2767C21.4674 41.2148 21.499 41.1585 21.5467 41.1178C21.5944 41.0772 21.655 41.0548 21.7176 41.0548C21.7803 41.0548 21.8409 41.0772 21.8886 41.1178C21.9363 41.1585 21.9679 41.2148 21.9778 41.2767L22.3334 51.8132C22.3351 51.8475 22.33 51.8818 22.3183 51.914C22.3066 51.9463 22.2886 51.9759 22.2652 52.001C22.2419 52.0262 22.2138 52.0465 22.1825 52.0606C22.1512 52.0747 22.1174 52.0824 22.0831 52.0832L22.0765 52.0635Z" fill="#BA68C8"/>
<path d="M24.7694 52.2413C24.7122 52.236 24.6585 52.2118 24.6167 52.1724C24.5749 52.133 24.5475 52.0807 24.5389 52.024L24.3084 46.0445C24.3066 45.9757 24.3318 45.909 24.3786 45.8585C24.4253 45.8081 24.49 45.7779 24.5587 45.7745C24.593 45.7727 24.6272 45.7778 24.6595 45.7895C24.6918 45.8012 24.7213 45.8193 24.7465 45.8426C24.7717 45.8659 24.7919 45.8941 24.806 45.9254C24.8202 45.9567 24.8279 45.9904 24.8287 46.0248L25.0526 52.0042C25.0544 52.0385 25.0492 52.0727 25.0375 52.105C25.0258 52.1373 25.0078 52.1669 24.9845 52.192C24.9611 52.2172 24.933 52.2374 24.9017 52.2515C24.8704 52.2657 24.8366 52.2734 24.8023 52.2742L24.7694 52.2413Z" fill="#BA68C8"/>
<path d="M27.4627 52.2411C27.3962 52.2395 27.3328 52.2128 27.2851 52.1664C27.2375 52.12 27.2092 52.0573 27.2059 51.9909L26.9622 46.1892C26.9604 46.1555 26.9653 46.1217 26.9766 46.0899C26.9879 46.058 27.0054 46.0287 27.028 46.0036C27.0506 45.9786 27.078 45.9582 27.1085 45.9437C27.139 45.9292 27.1721 45.9209 27.2059 45.9192C27.24 45.9155 27.2745 45.919 27.3072 45.9296C27.3399 45.9402 27.3699 45.9575 27.3954 45.9805C27.4209 46.0036 27.4413 46.0317 27.4551 46.0631C27.469 46.0945 27.4761 46.1285 27.4759 46.1629L27.7261 51.9711C27.7279 52.0054 27.7228 52.0397 27.7111 52.0719C27.6994 52.1042 27.6813 52.1338 27.658 52.1589C27.6346 52.1841 27.6065 52.2043 27.5752 52.2184C27.544 52.2326 27.5102 52.2403 27.4759 52.2411H27.4627Z" fill="#BA68C8"/>
<path d="M30.1429 52.1491C30.0764 52.1493 30.0122 52.1242 29.9633 52.079C29.9145 52.0338 29.8845 51.9718 29.8795 51.9054L29.6161 46.1038C29.6134 46.0698 29.6177 46.0357 29.6286 46.0035C29.6396 45.9712 29.657 45.9416 29.6798 45.9163C29.7026 45.891 29.7303 45.8707 29.7613 45.8565C29.7922 45.8423 29.8257 45.8346 29.8598 45.8338C29.9281 45.8336 29.9939 45.8593 30.044 45.9057C30.0941 45.9522 30.1248 46.0159 30.1298 46.084L30.3998 51.8791C30.4015 51.9128 30.3966 51.9466 30.3854 51.9784C30.3741 52.0102 30.3566 52.0395 30.334 52.0646C30.3113 52.0897 30.284 52.1101 30.2534 52.1246C30.2229 52.1391 30.1898 52.1474 30.1561 52.1491H30.1429Z" fill="#BA68C8"/>
<path d="M32.7966 52.057C32.7307 52.0571 32.6673 52.0319 32.6195 51.9865C32.5717 51.9412 32.5432 51.8792 32.5398 51.8134L32.0064 41.2769C32.0046 41.2432 32.0095 41.2094 32.0208 41.1776C32.0321 41.1457 32.0495 41.1164 32.0722 41.0913C32.0948 41.0663 32.1222 41.0459 32.1527 41.0314C32.1832 41.0169 32.2163 41.0086 32.25 41.0069C32.2845 41.0032 32.3193 41.0068 32.3523 41.0173C32.3854 41.0278 32.4158 41.0451 32.4418 41.068C32.4678 41.0909 32.4888 41.1189 32.5034 41.1504C32.518 41.1818 32.5259 41.2159 32.5266 41.2506L33.0534 51.7871C33.0561 51.821 33.0519 51.8551 33.0409 51.8874C33.03 51.9196 33.0126 51.9492 32.9898 51.9745C32.9669 51.9998 32.9392 52.0202 32.9083 52.0343C32.8773 52.0485 32.8438 52.0562 32.8098 52.057H32.7966Z" fill="#BA68C8"/>
<path d="M35.4178 51.6354C35.3512 51.6356 35.2871 51.6106 35.2382 51.5654C35.1893 51.5202 35.1594 51.4582 35.1544 51.3918L34.8383 45.5901C34.8482 45.5283 34.8798 45.4719 34.9275 45.4313C34.9751 45.3906 35.0357 45.3682 35.0984 45.3682C35.1611 45.3682 35.2217 45.3906 35.2694 45.4313C35.317 45.4719 35.3486 45.5283 35.3585 45.5901L35.6746 51.3918C35.6764 51.4255 35.6715 51.4593 35.6602 51.4911C35.6489 51.5229 35.6315 51.5523 35.6088 51.5773C35.5862 51.6024 35.5588 51.6228 35.5283 51.6373C35.4978 51.6518 35.4647 51.6601 35.431 51.6618L35.4178 51.6354Z" fill="#BA68C8"/>
<path d="M37.9858 51.3124C37.9193 51.3108 37.8559 51.2841 37.8083 51.2377C37.7606 51.1913 37.7323 51.1286 37.729 51.0622L37.3998 45.4976C37.3971 45.4633 37.4013 45.4289 37.4122 45.3962C37.423 45.3636 37.4404 45.3336 37.4631 45.3078C37.4858 45.282 37.5135 45.261 37.5444 45.2461C37.5754 45.2312 37.6091 45.2227 37.6434 45.221C37.6777 45.2183 37.7121 45.2225 37.7447 45.2334C37.7773 45.2443 37.8074 45.2616 37.8332 45.2843C37.859 45.307 37.88 45.3347 37.8949 45.3657C37.9098 45.3967 37.9183 45.4303 37.92 45.4647L38.2493 51.0358C38.2513 51.1042 38.2272 51.1708 38.182 51.2222C38.1367 51.2735 38.0737 51.3058 38.0056 51.3124H37.9858Z" fill="#BA68C8"/>
<path d="M40.5021 50.97C40.4362 50.9701 40.3728 50.9449 40.325 50.8995C40.2772 50.8542 40.2487 50.7922 40.2453 50.7263L39.8897 45.1815C39.886 45.1127 39.9095 45.0452 39.9551 44.9935C40.0006 44.9418 40.0646 44.91 40.1333 44.9049C40.1676 44.9023 40.2021 44.9065 40.2347 44.9174C40.2673 44.9282 40.2974 44.9455 40.3232 44.9683C40.3489 44.991 40.3699 45.0187 40.3848 45.0496C40.3997 45.0806 40.4083 45.1143 40.4099 45.1486L40.7589 50.6934C40.7616 50.7272 40.7576 50.7611 40.7472 50.7933C40.7367 50.8255 40.72 50.8553 40.6979 50.881C40.6759 50.9067 40.649 50.9278 40.6188 50.9431C40.5886 50.9584 40.5556 50.9675 40.5219 50.97H40.5021Z" fill="#BA68C8"/>
<path d="M42.9782 50.707C42.9123 50.7071 42.8489 50.6819 42.8011 50.6365C42.7533 50.5912 42.7248 50.5292 42.7214 50.4634L42.0102 39.9664C42.0023 39.9294 42.0026 39.8911 42.0109 39.8542C42.0191 39.8174 42.0353 39.7827 42.0581 39.7526C42.081 39.7224 42.1101 39.6976 42.1434 39.6797C42.1767 39.6619 42.2135 39.6514 42.2512 39.649C42.289 39.6466 42.3268 39.6524 42.3621 39.6659C42.3974 39.6794 42.4294 39.7004 42.4559 39.7274C42.4824 39.7544 42.5027 39.7867 42.5156 39.8223C42.5285 39.8579 42.5335 39.8958 42.5304 39.9335L43.235 50.4304C43.2377 50.4642 43.2337 50.4981 43.2233 50.5303C43.2128 50.5625 43.1961 50.5923 43.174 50.618C43.152 50.6437 43.1251 50.6648 43.0949 50.6801C43.0647 50.6954 43.0317 50.7045 42.998 50.707H42.9782Z" fill="#BA68C8"/>
<path d="M45.4935 49.6003C45.4279 49.6006 45.3646 49.5765 45.3159 49.5327C45.2672 49.4888 45.2366 49.4284 45.23 49.3632L44.8283 43.7657C44.8246 43.6962 44.8479 43.6279 44.8933 43.5752C44.9387 43.5224 45.0027 43.4892 45.072 43.4825C45.1408 43.4789 45.2083 43.5024 45.26 43.5479C45.3117 43.5935 45.3435 43.6575 45.3486 43.7262L45.7503 49.3237C45.753 49.358 45.7487 49.3924 45.7379 49.425C45.727 49.4576 45.7097 49.4877 45.687 49.5135C45.6642 49.5393 45.6366 49.5603 45.6056 49.5752C45.5746 49.5901 45.541 49.5986 45.5066 49.6003H45.4935Z" fill="#BA68C8"/>
<path d="M48.0093 48.8826C47.9444 48.8827 47.8819 48.8584 47.8343 48.8144C47.7867 48.7705 47.7574 48.7101 47.7524 48.6455L47.3507 43.3772C47.3427 43.3404 47.3426 43.3023 47.3506 43.2655C47.3585 43.2287 47.3743 43.194 47.3968 43.1637C47.4193 43.1335 47.448 43.1085 47.481 43.0903C47.514 43.0721 47.5506 43.0613 47.5881 43.0584C47.6257 43.0556 47.6634 43.0608 47.6988 43.0738C47.7342 43.0868 47.7664 43.1072 47.7932 43.1336C47.82 43.1601 47.8408 43.192 47.8542 43.2273C47.8676 43.2625 47.8733 43.3001 47.871 43.3377L48.2727 48.606C48.2754 48.6402 48.2711 48.6747 48.2603 48.7073C48.2494 48.7399 48.2321 48.77 48.2093 48.7958C48.1866 48.8216 48.159 48.8426 48.128 48.8575C48.097 48.8724 48.0633 48.8809 48.029 48.8826H48.0093Z" fill="#BA68C8"/>
</svg>
