<svg width="14" height="14" viewBox="0 0 14 14" fill="none" xmlns="http://www.w3.org/2000/svg">
<path d="M7.42396 11.8493C7.47658 11.905 7.51773 11.9705 7.54504 12.0421C7.57235 12.1137 7.58529 12.1899 7.58312 12.2665C7.58095 12.3431 7.56372 12.4185 7.53241 12.4885C7.5011 12.5584 7.45632 12.6215 7.40062 12.6741C7.34493 12.7267 7.27942 12.7679 7.20783 12.7952C7.13624 12.8225 7.05997 12.8354 6.98338 12.8333C6.90678 12.8311 6.83137 12.8139 6.76143 12.7826C6.6915 12.7512 6.62842 12.7065 6.57579 12.6508L1.61746 7.40077C1.51506 7.29246 1.45801 7.14907 1.45801 7.00002C1.45801 6.85097 1.51506 6.70757 1.61746 6.59927L6.57579 1.34868C6.62807 1.29177 6.69114 1.24582 6.76133 1.21349C6.83152 1.18115 6.90743 1.16309 6.98466 1.16035C7.06189 1.15761 7.1389 1.17023 7.21121 1.1975C7.28352 1.22477 7.34969 1.26613 7.40587 1.31919C7.46206 1.37225 7.50714 1.43594 7.53851 1.50657C7.56987 1.5772 7.58689 1.65335 7.58857 1.73061C7.59025 1.80787 7.57657 1.8847 7.54831 1.95662C7.52005 2.02855 7.47778 2.09415 7.42396 2.1496L2.84362 7.00002L7.42396 11.8493Z" fill="#606873"/>
</svg>
