<svg width="25" height="46" viewBox="0 0 25 46" fill="none" xmlns="http://www.w3.org/2000/svg">
<path d="M17.323 11.3774C15.9372 13.8057 12.8821 17.1644 10.7243 20.6748C7.63616 25.736 5.57079 32.8295 6.33623 44.8918L4.71295 43.9548L0.753767 41.6585C-0.361402 35.304 -0.308605 27.7684 1.38065 18.075C2.93792 9.13381 8.47418 0.568782 13.7531 0.0342923C18.6757 -0.500197 20.7806 5.30001 17.323 11.3774Z" fill="#BA68C8"/>
<g opacity="0.65">
<path d="M17.323 11.3774C15.9372 13.8057 12.8821 17.1644 10.7243 20.6748C7.63616 25.736 5.57079 32.8295 6.33623 44.8918L4.71295 43.9548L0.753767 41.6585C-0.361402 35.304 -0.308605 27.7684 1.38065 18.075C2.93792 9.13381 8.47418 0.568782 13.7531 0.0342923C18.6757 -0.500197 20.7806 5.30001 17.323 11.3774Z" fill="white"/>
</g>
<path d="M2.95121 41.3945C3.01583 41.3675 3.06965 41.3198 3.10428 41.2589C3.1389 41.198 3.15237 41.1274 3.14256 41.058C1.07719 24.502 7.89359 9.23937 14.8222 3.71631C14.8599 3.69277 14.8923 3.66152 14.9172 3.62462C14.9421 3.58772 14.959 3.54599 14.9667 3.50215C14.9743 3.4583 14.9727 3.41333 14.9618 3.37016C14.951 3.327 14.9312 3.2866 14.9036 3.25162C14.8761 3.21663 14.8415 3.18784 14.8021 3.16712C14.7627 3.1464 14.7194 3.13423 14.675 3.13137C14.6306 3.12852 14.586 3.13505 14.5443 3.15057C14.5026 3.16608 14.4646 3.19023 14.4328 3.22141C7.38549 8.83685 0.423933 24.337 2.5157 41.1372C2.52059 41.1789 2.53372 41.2192 2.55435 41.2558C2.57497 41.2924 2.60266 41.3246 2.63582 41.3504C2.66898 41.3761 2.70695 41.3951 2.7475 41.4061C2.78805 41.4171 2.83039 41.4198 2.87203 41.4143L2.95121 41.3945Z" fill="white"/>
<path d="M23.9807 22.4299C23.0371 25.5444 17.0192 28.8239 13.1656 34.0171C9.68808 38.7087 8.17039 43.4729 8.29577 46.0002L6.36237 44.885L4.73911 43.948C3.8549 32.209 8.17701 25.3663 11.9184 20.767C13.4429 19.21 15.2651 17.9758 17.2765 17.1378C22.7006 15.4023 25.1223 18.6818 23.9807 22.4299Z" fill="#BA68C8"/>
<path opacity="0.3" d="M23.9807 22.4299C23.0371 25.5444 17.0192 28.8239 13.1656 34.0171C9.68808 38.7087 8.17039 43.4729 8.29577 46.0002L6.36237 44.885L4.73911 43.948C3.8549 32.209 8.17701 25.3663 11.9184 20.767C13.4429 19.21 15.2651 17.9758 17.2765 17.1378C22.7006 15.4023 25.1223 18.6818 23.9807 22.4299Z" fill="white"/>
<path d="M6.57417 43.7108C6.63092 43.6886 6.68023 43.6507 6.71642 43.6017C6.75262 43.5527 6.77422 43.4944 6.77873 43.4336C7.51778 29.9988 15.5153 22.9779 19.6395 21.1566C19.6784 21.1402 19.7136 21.1161 19.743 21.0858C19.7725 21.0555 19.7956 21.0196 19.8109 20.9802C19.8263 20.9409 19.8337 20.8989 19.8325 20.8566C19.8314 20.8144 19.8219 20.7728 19.8044 20.7343C19.788 20.6962 19.7641 20.6618 19.7342 20.6331C19.7042 20.6044 19.6688 20.582 19.63 20.5673C19.5913 20.5525 19.55 20.5457 19.5085 20.5472C19.4671 20.5487 19.4263 20.5585 19.3887 20.576C14.8225 22.6017 6.90411 29.6821 6.14526 43.394C6.14158 43.4777 6.17046 43.5595 6.22583 43.6222C6.28121 43.685 6.35876 43.7238 6.44219 43.7306C6.48699 43.7315 6.53162 43.7248 6.57417 43.7108Z" fill="white"/>
</svg>
