<svg width="272" height="44" viewBox="0 0 272 44" fill="none" xmlns="http://www.w3.org/2000/svg">
<path d="M266.2 10.7219C264.893 13.0144 262.935 16.1786 261.091 19.5953C258.337 24.711 255.849 30.4013 256.227 34.6076V35.0307L255.899 41.4916L255.861 42.3694L254.333 41.4853L250.562 39.3379C249.184 32.3792 249.152 25.2209 250.468 18.2501C251.945 9.81241 257.851 0.534773 262.834 0.029523C267.476 -0.450464 269.465 4.99991 266.2 10.7219Z" fill="#8873F4"/>
<path opacity="0.25" d="M266.2 10.7219C264.893 13.0144 262.935 16.1786 261.091 19.5953C258.337 24.711 255.849 30.4013 256.227 34.6076V35.0307L255.899 41.4916L255.861 42.3694L254.333 41.4853L250.562 39.3379C249.184 32.3792 249.152 25.2209 250.468 18.2501C251.945 9.81241 257.851 0.534773 262.834 0.029523C267.476 -0.450464 269.465 4.99991 266.2 10.7219Z" fill="white"/>
<path d="M252.634 39.0792C252.694 39.0534 252.744 39.0085 252.776 38.9514C252.808 38.8943 252.82 38.8282 252.811 38.7634C250.859 23.1322 257.301 8.72001 263.838 3.5033C263.868 3.47926 263.894 3.4494 263.913 3.41544C263.932 3.38147 263.945 3.34405 263.949 3.30534C263.954 3.26663 263.951 3.22739 263.941 3.18984C263.93 3.15228 263.912 3.11715 263.888 3.08647C263.865 3.05506 263.835 3.02873 263.801 3.00909C263.767 2.98944 263.73 2.97688 263.691 2.97216C263.652 2.96744 263.612 2.97064 263.574 2.9816C263.537 2.99257 263.502 3.01105 263.471 3.03594C256.821 8.33474 250.24 22.9933 252.217 38.8392C252.222 38.8783 252.234 38.9161 252.253 38.9504C252.273 38.9846 252.299 39.0147 252.33 39.0388C252.361 39.0629 252.397 39.0805 252.435 39.0907C252.473 39.1009 252.513 39.1034 252.552 39.0981L252.634 39.0792Z" fill="white"/>
<path d="M271.928 20.6186C271.41 23.6438 265.909 27.2121 262.271 32.113C258.987 36.534 257.56 41.037 257.68 43.4307L255.855 42.3759L254.326 41.4917C253.493 30.4078 256.808 23.1764 261.103 19.6018C262.085 18.7716 263.191 18.1003 264.381 17.6124C269.2 15.6735 272.541 16.9808 271.928 20.6186Z" fill="#8873F4"/>
<path opacity="0.6" d="M271.928 20.6186C271.41 23.6438 265.909 27.2121 262.271 32.113C258.987 36.534 257.56 41.037 257.68 43.4307L255.855 42.3759L254.326 41.4917C253.493 30.4078 256.808 23.1764 261.103 19.6018C262.085 18.7716 263.191 18.1003 264.381 17.6124C269.2 15.6735 272.541 16.9808 271.928 20.6186Z" fill="white"/>
<path d="M255.956 41.4662C256.008 41.444 256.052 41.4071 256.084 41.36C256.115 41.3128 256.132 41.2576 256.132 41.2009C256.322 28.5002 263.598 21.5783 267.425 19.6899C267.496 19.6547 267.55 19.5927 267.576 19.5175C267.601 19.4423 267.596 19.3601 267.561 19.2889C267.525 19.2177 267.463 19.1634 267.388 19.1379C267.313 19.1125 267.231 19.1179 267.16 19.1531C262.928 21.2372 255.728 28.2286 255.533 41.1883C255.532 41.2676 255.564 41.3438 255.619 41.4004C255.675 41.4571 255.75 41.4898 255.829 41.4914C255.873 41.4928 255.916 41.4841 255.956 41.4662Z" fill="white"/>
<path d="M5.80024 10.7219C7.10758 13.0144 9.06542 16.1786 10.9096 19.5953C13.6632 24.711 16.1515 30.4013 15.7726 34.6076V35.0307L16.0947 41.4853L16.1326 42.3631L17.661 41.479L21.4314 39.3379C22.8096 32.3792 22.8417 25.2209 21.5261 18.2501C20.0483 9.81241 14.1432 0.534773 9.16015 0.029523C4.53712 -0.450464 2.52875 4.99991 5.80024 10.7219Z" fill="#8873F4"/>
<path opacity="0.25" d="M5.80024 10.7219C7.10758 13.0144 9.06542 16.1786 10.9096 19.5953C13.6632 24.711 16.1515 30.4013 15.7726 34.6076V35.0307L16.0947 41.4853L16.1326 42.3631L17.661 41.479L21.4314 39.3379C22.8096 32.3792 22.8417 25.2209 21.5261 18.2501C20.0483 9.81241 14.1432 0.534773 9.16015 0.029523C4.53712 -0.450464 2.52875 4.99991 5.80024 10.7219Z" fill="white"/>
<path d="M19.367 39.079C19.3049 39.0552 19.2529 39.0109 19.2196 38.9534C19.1863 38.896 19.1736 38.8288 19.1838 38.7632C21.1353 23.132 14.6997 8.71978 8.15674 3.50308C8.12606 3.47861 8.10049 3.44834 8.0815 3.414C8.06251 3.37965 8.05048 3.34188 8.04608 3.30288C8.04168 3.26388 8.04501 3.2244 8.05587 3.18668C8.06673 3.14897 8.08491 3.11377 8.10938 3.08309C8.13384 3.0524 8.16411 3.02683 8.19846 3.00784C8.23281 2.98885 8.27056 2.97681 8.30956 2.97242C8.34856 2.96802 8.38805 2.97135 8.42576 2.98221C8.46347 2.99307 8.49868 3.01124 8.52937 3.03571C15.1797 8.33452 21.7543 22.9931 19.7775 38.839C19.7728 38.8781 19.7604 38.9159 19.741 38.9501C19.7216 38.9844 19.6955 39.0145 19.6644 39.0386C19.6332 39.0627 19.5976 39.0803 19.5595 39.0905C19.5215 39.1007 19.4818 39.1032 19.4428 39.0979L19.367 39.079Z" fill="white"/>
<path d="M0.0661108 20.6186C0.583992 23.6438 6.0849 27.2121 9.7227 32.113C13.0068 36.534 14.4342 41.037 14.3142 43.4307L16.1394 42.3759L17.6678 41.4917C18.5014 30.4078 15.1857 23.1764 10.8911 19.6018C9.90905 18.7716 8.80305 18.1003 7.61328 17.6124C2.79446 15.6735 -0.514926 16.9808 0.0661108 20.6186Z" fill="#8873F4"/>
<path opacity="0.6" d="M0.0661108 20.6186C0.583992 23.6438 6.0849 27.2121 9.7227 32.113C13.0068 36.534 14.4342 41.037 14.3142 43.4307L16.1394 42.3759L17.6678 41.4917C18.5014 30.4078 15.1857 23.1764 10.8911 19.6018C9.90905 18.7716 8.80305 18.1003 7.61328 17.6124C2.79446 15.6735 -0.514926 16.9808 0.0661108 20.6186Z" fill="white"/>
<path d="M16.0381 41.4662C15.986 41.444 15.9415 41.4071 15.9101 41.36C15.8786 41.3128 15.8617 41.2576 15.8613 41.2009C15.6718 28.5002 8.3962 21.5783 4.56894 19.6899C4.49775 19.6547 4.44345 19.5927 4.41798 19.5175C4.39252 19.4423 4.39797 19.3601 4.43315 19.2889C4.46832 19.2177 4.53034 19.1634 4.60555 19.1379C4.68076 19.1125 4.763 19.1179 4.83419 19.1531C9.06566 21.2372 16.2655 28.2286 16.4613 41.1883C16.4613 41.2676 16.4302 41.3438 16.3747 41.4004C16.3192 41.4571 16.2437 41.4898 16.1644 41.4914C16.1209 41.4928 16.0777 41.4841 16.0381 41.4662Z" fill="white"/>
</svg>
