<svg width="79" height="49" viewBox="0 0 79 49" fill="none" xmlns="http://www.w3.org/2000/svg">
<path d="M0 31.1327V47.8843C30.2985 51.6186 79.7917 34.7942 78.9906 15.9901C78.6065 10.7726 77.8583 2.91331 77.1565 0C77.1565 15.7849 30.2985 34.8869 0 31.1327Z" fill="#BA68C8"/>
<path opacity="0.7" d="M0 31.1327V47.8843C30.2985 51.6186 79.7917 34.7942 78.9906 15.9901C78.6065 10.7726 77.8583 2.91331 77.1565 0C77.1565 15.7849 30.2985 34.8869 0 31.1327Z" fill="white"/>
<path opacity="0.3" d="M10.7726 31.5827C7.17604 31.714 3.57467 31.5701 0 31.1524V47.8841C3.57468 48.304 7.17427 48.4744 10.7726 48.3939V31.5827Z" fill="#BA68C8"/>
<path d="M2.5821 45.3353C2.51186 45.3353 2.4445 45.3074 2.39483 45.2578C2.34516 45.2081 2.31726 45.1407 2.31726 45.0705V34.4766C2.31726 34.4064 2.34516 34.339 2.39483 34.2893C2.4445 34.2397 2.51186 34.2118 2.5821 34.2118C2.61658 34.2117 2.65071 34.2186 2.68248 34.232C2.71425 34.2454 2.74301 34.265 2.76708 34.2897C2.79115 34.3144 2.81003 34.3437 2.82261 34.3757C2.83519 34.4078 2.84121 34.4421 2.84033 34.4766V45.0705C2.84121 45.1049 2.83519 45.1392 2.82261 45.1713C2.81003 45.2034 2.79115 45.2327 2.76708 45.2574C2.74301 45.282 2.71425 45.3017 2.68248 45.315C2.65071 45.3284 2.61658 45.3353 2.5821 45.3353Z" fill="#BA68C8"/>
<path d="M4.89962 45.4743C4.83114 45.4743 4.76545 45.4471 4.71703 45.3987C4.6686 45.3502 4.6414 45.2846 4.6414 45.2161V39.449C4.64137 39.3799 4.66837 39.3135 4.71661 39.2641C4.76486 39.2146 4.83053 39.1859 4.89962 39.1842C4.96871 39.1859 5.03438 39.2146 5.08263 39.2641C5.13087 39.3135 5.15787 39.3799 5.15785 39.449V45.2095C5.15785 45.2797 5.12994 45.3471 5.08028 45.3967C5.03061 45.4464 4.96325 45.4743 4.893 45.4743H4.89962Z" fill="#BA68C8"/>
<path d="M7.31013 45.547C7.24152 45.5455 7.17606 45.5179 7.12692 45.47C7.07778 45.4221 7.04861 45.3574 7.04528 45.2888L6.99893 39.5615C6.99891 39.4924 7.0259 39.426 7.07415 39.3765C7.12239 39.3271 7.18807 39.2984 7.25716 39.2967C7.32564 39.2967 7.39132 39.3239 7.43975 39.3723C7.48818 39.4207 7.51538 39.4864 7.51538 39.5549L7.56173 45.2822C7.56262 45.3167 7.55659 45.351 7.54401 45.3831C7.53143 45.4152 7.51254 45.4444 7.48848 45.4691C7.46441 45.4938 7.43564 45.5134 7.40387 45.5268C7.3721 45.5402 7.33798 45.5471 7.30351 45.547H7.31013Z" fill="#BA68C8"/>
<path d="M9.79263 45.5535C9.72414 45.5535 9.65846 45.5263 9.61004 45.4779C9.56161 45.4295 9.53441 45.3638 9.53441 45.2953L9.46157 39.6342C9.46155 39.5651 9.48854 39.4987 9.53679 39.4492C9.58503 39.3997 9.65071 39.3711 9.7198 39.3694C9.87871 39.4025 9.98464 39.4819 9.98464 39.6276L10.0575 45.2887C10.0584 45.3231 10.0523 45.3574 10.0398 45.3895C10.0272 45.4216 10.0083 45.4509 9.98423 45.4756C9.96016 45.5003 9.93139 45.5199 9.89962 45.5333C9.86785 45.5466 9.83372 45.5535 9.79925 45.5535H9.79263Z" fill="#BA68C8"/>
<path d="M12.3482 45.4937C12.3143 45.4946 12.2805 45.4888 12.2489 45.4766C12.2172 45.4645 12.1882 45.4462 12.1636 45.4228C12.139 45.3994 12.1193 45.3715 12.1055 45.3405C12.0917 45.3094 12.0842 45.276 12.0833 45.2421L11.9046 34.6483C11.9045 34.5785 11.9313 34.5114 11.9793 34.4608C12.0274 34.4103 12.0931 34.3802 12.1628 34.3768C12.2307 34.3785 12.2955 34.4062 12.3435 34.4543C12.3916 34.5023 12.4193 34.5671 12.421 34.635L12.5998 45.2289C12.6007 45.2634 12.5946 45.2976 12.5821 45.3297C12.5695 45.3618 12.5506 45.3911 12.5265 45.4158C12.5025 45.4405 12.4737 45.4601 12.4419 45.4735C12.4102 45.4869 12.376 45.4937 12.3416 45.4937H12.3482Z" fill="#BA68C8"/>
<path d="M14.9503 45.375C14.8829 45.375 14.8182 45.3487 14.77 45.3017C14.7217 45.2547 14.6938 45.1907 14.692 45.1234L14.5729 39.4557C14.5711 39.4212 14.5762 39.3867 14.588 39.3543C14.5997 39.3219 14.6179 39.2921 14.6413 39.2668C14.6648 39.2415 14.6931 39.2212 14.7245 39.207C14.756 39.1928 14.79 39.185 14.8245 39.1842C14.8936 39.1842 14.96 39.2112 15.0094 39.2594C15.0589 39.3076 15.0876 39.3733 15.0893 39.4424L15.2151 45.1101C15.216 45.1446 15.21 45.1789 15.1974 45.211C15.1848 45.2431 15.1659 45.2723 15.1419 45.297C15.1178 45.3217 15.089 45.3413 15.0572 45.3547C15.0255 45.3681 14.9914 45.375 14.9569 45.375H14.9503Z" fill="#BA68C8"/>
<path d="M17.5988 45.1895C17.5314 45.1896 17.4667 45.1632 17.4185 45.1162C17.3703 45.0692 17.3423 45.0053 17.3406 44.9379L17.2015 39.4026C17.1997 39.3682 17.2049 39.3337 17.2166 39.3013C17.2284 39.2688 17.2465 39.2391 17.27 39.2138C17.2935 39.1885 17.3217 39.1681 17.3532 39.1539C17.3846 39.1397 17.4186 39.132 17.4531 39.1311C17.5222 39.1311 17.5886 39.1581 17.6381 39.2064C17.6876 39.2546 17.7162 39.3203 17.718 39.3894L17.8636 44.9247C17.8645 44.9591 17.8585 44.9934 17.8459 45.0255C17.8333 45.0576 17.8144 45.0869 17.7904 45.1116C17.7663 45.1363 17.7375 45.1559 17.7058 45.1692C17.674 45.1826 17.6399 45.1895 17.6054 45.1895H17.5988Z" fill="#8873F4"/>
<path d="M20.2808 44.9446C20.2128 44.9447 20.1474 44.9186 20.0981 44.8718C20.0488 44.8249 20.0194 44.7609 20.016 44.693L19.8504 39.0981C19.8504 39.0283 19.8771 38.9612 19.9252 38.9107C19.9733 38.8601 20.039 38.83 20.1087 38.8266C20.1767 38.8265 20.2421 38.8526 20.2914 38.8995C20.3407 38.9463 20.3701 39.0103 20.3735 39.0782L20.539 44.6797C20.5399 44.7137 20.5341 44.7474 20.522 44.7791C20.5098 44.8107 20.4915 44.8397 20.4681 44.8643C20.4448 44.8889 20.4168 44.9086 20.3858 44.9224C20.3548 44.9362 20.3214 44.9437 20.2874 44.9446H20.2808Z" fill="#BA68C8"/>
<path d="M22.9816 44.6397C22.913 44.6381 22.8476 44.6106 22.7984 44.5627C22.7493 44.5148 22.7201 44.45 22.7168 44.3815L22.3593 33.7876C22.3592 33.7179 22.386 33.6507 22.434 33.6002C22.4821 33.5496 22.5478 33.5195 22.6175 33.5161C22.6522 33.5143 22.6869 33.5197 22.7194 33.5319C22.752 33.5441 22.7816 33.563 22.8065 33.5873C22.8313 33.6115 22.8509 33.6407 22.864 33.6729C22.877 33.7051 22.8833 33.7396 22.8823 33.7744L23.2399 44.3682C23.2417 44.4027 23.2365 44.4372 23.2247 44.4696C23.213 44.502 23.1948 44.5318 23.1714 44.5571C23.1479 44.5824 23.1196 44.6027 23.0882 44.6169C23.0567 44.6311 23.0228 44.6389 22.9883 44.6397H22.9816Z" fill="#BA68C8"/>
<path d="M25.6904 44.2692C25.623 44.2692 25.5583 44.2429 25.5101 44.1959C25.4619 44.1489 25.4339 44.0849 25.4322 44.0176L25.2004 38.0056C25.1986 37.9711 25.2038 37.9367 25.2156 37.9042C25.2273 37.8718 25.2455 37.842 25.2689 37.8167C25.2924 37.7914 25.3207 37.7711 25.3521 37.7569C25.3836 37.7427 25.4175 37.7349 25.452 37.7341C25.4867 37.7314 25.5216 37.7358 25.5544 37.7472C25.5873 37.7587 25.6174 37.7767 25.6429 37.8004C25.6684 37.824 25.6888 37.8527 25.7026 37.8846C25.7165 37.9165 25.7236 37.9509 25.7235 37.9857L25.9486 43.9977C25.9504 44.0317 25.9455 44.0656 25.9341 44.0976C25.9228 44.1296 25.9052 44.1591 25.8824 44.1843C25.8597 44.2095 25.8322 44.23 25.8015 44.2446C25.7708 44.2591 25.7376 44.2675 25.7036 44.2692H25.6904Z" fill="#BA68C8"/>
<path d="M28.3983 43.8388C28.331 43.8388 28.2663 43.8125 28.2181 43.7655C28.1698 43.7185 28.1419 43.6545 28.1401 43.5872L27.9084 37.7539C27.9066 37.6848 27.9319 37.6177 27.9789 37.5669C28.0259 37.5162 28.0909 37.4859 28.16 37.4824C28.1947 37.4763 28.2304 37.4782 28.2643 37.4879C28.2982 37.4976 28.3294 37.515 28.3556 37.5386C28.3818 37.5622 28.4022 37.5915 28.4154 37.6243C28.4285 37.657 28.434 37.6923 28.4315 37.7274L28.6764 43.5673C28.6782 43.6012 28.6733 43.6352 28.662 43.6672C28.6506 43.6992 28.633 43.7286 28.6103 43.7539C28.5875 43.7791 28.56 43.7996 28.5293 43.8141C28.4986 43.8287 28.4654 43.8371 28.4315 43.8388H28.3983Z" fill="#8873F4"/>
<path d="M31.0925 43.3486C31.0595 43.3494 31.0266 43.3438 30.9957 43.332C30.9649 43.3201 30.9366 43.3023 30.9127 43.2796C30.8887 43.2568 30.8694 43.2296 30.856 43.1994C30.8425 43.1692 30.8352 43.1366 30.8343 43.1036L30.5628 37.2703C30.5611 37.2364 30.566 37.2025 30.5773 37.1705C30.5887 37.1384 30.6062 37.109 30.629 37.0837C30.6518 37.0585 30.6793 37.0381 30.7099 37.0235C30.7406 37.0089 30.7739 37.0005 30.8078 36.9988C30.8427 36.9941 30.8781 36.9969 30.9118 37.0071C30.9454 37.0172 30.9765 37.0345 31.0029 37.0578C31.0293 37.081 31.0503 37.1097 31.0647 37.1418C31.079 37.1739 31.0862 37.2087 31.0859 37.2438L31.3508 43.0771C31.3535 43.1112 31.3492 43.1455 31.3382 43.1779C31.3272 43.2104 31.3097 43.2402 31.2867 43.2656C31.2638 43.291 31.2359 43.3115 31.2048 43.3257C31.1737 43.34 31.14 43.3478 31.1058 43.3486H31.0925Z" fill="#8873F4"/>
<path d="M33.7618 42.7993C33.6955 42.7994 33.6318 42.774 33.5837 42.7284C33.5357 42.6828 33.507 42.6205 33.5036 42.5543L32.9673 31.9605C32.9655 31.8913 32.9907 31.8242 33.0378 31.7735C33.0848 31.7228 33.1498 31.6924 33.2189 31.689C33.253 31.6863 33.2873 31.6906 33.3197 31.7016C33.3521 31.7126 33.3819 31.7301 33.4074 31.753C33.4328 31.776 33.4532 31.8038 33.4675 31.835C33.4818 31.8661 33.4895 31.8998 33.4903 31.934L34.0266 42.5279C34.0284 42.5623 34.0233 42.5968 34.0115 42.6292C33.9998 42.6617 33.9816 42.6914 33.9582 42.7167C33.9347 42.742 33.9064 42.7624 33.8749 42.7766C33.8435 42.7907 33.8095 42.7985 33.775 42.7993H33.7618Z" fill="#BA68C8"/>
<path d="M36.3969 42.1964C36.33 42.1966 36.2655 42.1715 36.2163 42.126C36.1672 42.0806 36.1371 42.0182 36.1321 41.9515L35.8143 36.1182C35.8125 36.0843 35.8174 36.0503 35.8287 36.0183C35.8401 35.9863 35.8577 35.9569 35.8804 35.9316C35.9032 35.9064 35.9307 35.8859 35.9614 35.8714C35.9921 35.8568 36.0253 35.8484 36.0592 35.8467C36.0939 35.8431 36.1289 35.8466 36.1621 35.8572C36.1953 35.8678 36.226 35.8851 36.2521 35.9081C36.2782 35.9312 36.2993 35.9594 36.314 35.991C36.3286 36.0226 36.3366 36.0569 36.3373 36.0917L36.6551 41.9184C36.6578 41.9528 36.6536 41.9874 36.6426 42.0202C36.6317 42.053 36.6143 42.0833 36.5915 42.1092C36.5686 42.1351 36.5408 42.1562 36.5097 42.1712C36.4785 42.1862 36.4447 42.1948 36.4102 42.1964H36.3969Z" fill="#8873F4"/>
<path d="M38.9792 41.5348C38.9129 41.5348 38.8492 41.5095 38.8011 41.4639C38.753 41.4183 38.7243 41.3559 38.7209 41.2898L38.3899 35.6883C38.3838 35.6504 38.3861 35.6117 38.3964 35.5749C38.4068 35.538 38.4251 35.5038 38.4499 35.4746C38.4748 35.4455 38.5057 35.4221 38.5405 35.406C38.5752 35.39 38.6131 35.3817 38.6514 35.3817C38.6897 35.3817 38.7276 35.39 38.7624 35.406C38.7971 35.4221 38.828 35.4455 38.8529 35.4746C38.8778 35.5038 38.896 35.538 38.9064 35.5749C38.9167 35.6117 38.919 35.6504 38.9129 35.6883L39.244 41.2831C39.2467 41.3176 39.2424 41.3523 39.2315 41.385C39.2206 41.4178 39.2032 41.4481 39.1803 41.474C39.1575 41.4999 39.1297 41.521 39.0985 41.536C39.0674 41.551 39.0335 41.5596 38.999 41.5612L38.9792 41.5348Z" fill="#BA68C8"/>
<path d="M41.508 40.813C41.4417 40.813 41.378 40.7877 41.3299 40.7421C41.2819 40.6965 41.2532 40.6341 41.2498 40.568L40.8988 34.9929C40.8967 34.959 40.9012 34.925 40.9122 34.8929C40.9231 34.8607 40.9403 34.831 40.9628 34.8055C40.9852 34.78 41.0125 34.7591 41.043 34.7442C41.0735 34.7292 41.1066 34.7203 41.1405 34.7182C41.1744 34.716 41.2084 34.7205 41.2406 34.7315C41.2728 34.7425 41.3024 34.7596 41.328 34.7821C41.3535 34.8045 41.3743 34.8318 41.3893 34.8623C41.4043 34.8928 41.4131 34.9259 41.4153 34.9598L41.7662 40.5349C41.7689 40.5688 41.7649 40.6029 41.7544 40.6353C41.7438 40.6677 41.727 40.6976 41.7049 40.7235C41.6827 40.7493 41.6557 40.7705 41.6253 40.7859C41.5949 40.8013 41.5618 40.8104 41.5279 40.813H41.508Z" fill="#BA68C8"/>
<path d="M43.9649 40.0383C43.8987 40.0384 43.8349 40.013 43.7869 39.9674C43.7388 39.9218 43.7101 39.8595 43.7067 39.7933L42.9916 29.2458C42.9956 29.182 43.0226 29.1219 43.0675 29.0764C43.1124 29.031 43.1722 29.0033 43.2359 28.9984C43.2996 28.9936 43.3629 29.012 43.4141 29.0501C43.4653 29.0883 43.5011 29.1436 43.5147 29.2061L44.2298 39.7403C44.2325 39.7748 44.2282 39.8094 44.2173 39.8422C44.2063 39.875 44.1889 39.9053 44.1661 39.9312C44.1432 39.9571 44.1154 39.9782 44.0843 39.9932C44.0531 40.0082 44.0193 40.0168 43.9848 40.0184L43.9649 40.0383Z" fill="#8873F4"/>
<path d="M46.5265 39.1639C46.4596 39.1641 46.3951 39.1389 46.3459 39.0935C46.2968 39.048 46.2667 38.9856 46.2617 38.9189L45.8578 33.2909C45.8551 33.2564 45.8593 33.2218 45.8703 33.189C45.8812 33.1562 45.8986 33.126 45.9215 33.1C45.9443 33.0741 45.9721 33.053 46.0033 33.038C46.0344 33.0231 46.0683 33.0145 46.1028 33.0128C46.1369 33.0092 46.1714 33.0125 46.2041 33.0227C46.2369 33.0329 46.2672 33.0496 46.2933 33.0719C46.3193 33.0943 46.3405 33.1217 46.3556 33.1525C46.3706 33.1833 46.3792 33.2169 46.3809 33.2512L46.7848 38.8858C46.7885 38.9539 46.7658 39.0209 46.7214 39.0727C46.677 39.1245 46.6143 39.1572 46.5464 39.1639H46.5265Z" fill="#8873F4"/>
<path d="M49.0564 38.2568C48.9917 38.2555 48.9297 38.2305 48.8821 38.1866C48.8345 38.1427 48.8047 38.0828 48.7982 38.0184L48.4009 32.7215C48.3957 32.653 48.4178 32.5852 48.4625 32.5331C48.5072 32.4809 48.5708 32.4487 48.6393 32.4434C48.7078 32.4381 48.7756 32.4603 48.8277 32.505C48.8799 32.5497 48.9121 32.6133 48.9174 32.6817L49.3213 37.9787C49.3233 38.0474 49.2991 38.1144 49.2536 38.166C49.2082 38.2176 49.1448 38.2501 49.0763 38.2568H49.0564Z" fill="#8873F4"/>
<path d="M51.526 37.33C51.4601 37.3303 51.3965 37.3061 51.3475 37.262C51.2985 37.2179 51.2677 37.1572 51.2611 37.0916L50.8374 31.7947C50.8354 31.7259 50.8596 31.659 50.9051 31.6073C50.9505 31.5557 51.0139 31.5233 51.0824 31.5166C51.1167 31.5119 51.1516 31.5146 51.1847 31.5243C51.2179 31.5341 51.2487 31.5508 51.275 31.5733C51.3012 31.5959 51.3224 31.6237 51.3372 31.655C51.3519 31.6863 51.3599 31.7204 51.3605 31.755L51.7842 37.0519C51.7898 37.1211 51.7679 37.1898 51.7233 37.243C51.6787 37.2963 51.615 37.3299 51.5459 37.3366L51.526 37.33Z" fill="#BA68C8"/>
<path d="M53.923 36.3633C53.8567 36.3652 53.7922 36.3415 53.7429 36.2971C53.6936 36.2528 53.6632 36.1911 53.6582 36.125L52.7709 25.584C52.7673 25.5499 52.7706 25.5155 52.7808 25.4827C52.791 25.4499 52.8077 25.4196 52.83 25.3935C52.8524 25.3675 52.8798 25.3463 52.9106 25.3312C52.9414 25.3162 52.975 25.3076 53.0093 25.306C53.0436 25.3013 53.0785 25.3039 53.1116 25.3137C53.1448 25.3235 53.1756 25.3402 53.2019 25.3627C53.2281 25.3852 53.2493 25.413 53.2641 25.4443C53.2788 25.4756 53.2867 25.5097 53.2874 25.5443L54.1812 36.0852C54.1839 36.1192 54.1799 36.1533 54.1694 36.1857C54.1589 36.218 54.142 36.248 54.1199 36.2738C54.0977 36.2997 54.0707 36.3209 54.0403 36.3363C54.0099 36.3516 53.9768 36.3608 53.9429 36.3633H53.923Z" fill="#BA68C8"/>
<path d="M56.2532 35.3507C56.188 35.3508 56.1252 35.3264 56.0773 35.2822C56.0294 35.238 56 35.1773 55.995 35.1123L55.5381 29.9809C55.5299 29.9441 55.5296 29.9059 55.5373 29.869C55.545 29.8321 55.5605 29.7973 55.5828 29.7668C55.605 29.7364 55.6335 29.711 55.6664 29.6925C55.6992 29.6739 55.7356 29.6626 55.7732 29.6593C55.8108 29.656 55.8486 29.6607 55.8842 29.6732C55.9198 29.6857 55.9523 29.7056 55.9796 29.7317C56.0068 29.7577 56.0282 29.7893 56.0423 29.8243C56.0564 29.8593 56.0628 29.8969 56.0612 29.9345L56.5114 35.0726C56.517 35.1401 56.4958 35.207 56.4524 35.259C56.4091 35.311 56.3471 35.3439 56.2797 35.3507H56.2532Z" fill="#8873F4"/>
<path d="M58.5309 34.2779C58.4668 34.2782 58.4048 34.2547 58.3571 34.2118C58.3094 34.169 58.2793 34.1099 58.2727 34.0461L57.8092 29.0604C57.8056 29.0265 57.8087 28.9921 57.8184 28.9594C57.828 28.9267 57.8441 28.8962 57.8657 28.8697C57.8872 28.8432 57.9138 28.8213 57.9439 28.8051C57.974 28.789 58.007 28.779 58.041 28.7757C58.0749 28.772 58.1092 28.7751 58.142 28.7848C58.1747 28.7945 58.2052 28.8106 58.2317 28.8321C58.2581 28.8537 58.2801 28.8803 58.2962 28.9104C58.3123 28.9405 58.3224 28.9735 58.3257 29.0074L58.7892 33.9932C58.7928 34.0271 58.7897 34.0615 58.78 34.0942C58.7703 34.1269 58.7542 34.1574 58.7327 34.1839C58.7111 34.2104 58.6846 34.2323 58.6545 34.2484C58.6244 34.2646 58.5914 34.2746 58.5574 34.2779H58.5309Z" fill="#8873F4"/>
<path d="M60.7489 33.1192C60.6848 33.1195 60.6228 33.096 60.5751 33.0531C60.5274 33.0103 60.4973 32.9512 60.4907 32.8874L60.014 27.9878C60.0154 27.9231 60.0403 27.8612 60.0842 27.8137C60.128 27.7662 60.1878 27.7364 60.2521 27.7299C60.3164 27.7234 60.3809 27.7406 60.4334 27.7783C60.4859 27.8161 60.5228 27.8717 60.5371 27.9348L61.0072 32.8345C61.0118 32.8686 61.0094 32.9032 61 32.9363C60.9907 32.9695 60.9747 33.0003 60.953 33.027C60.9313 33.0537 60.9043 33.0756 60.8737 33.0915C60.8432 33.1073 60.8098 33.1168 60.7754 33.1192H60.7489Z" fill="#BA68C8"/>
<path d="M62.9205 31.9007C62.8556 31.9012 62.7928 31.8779 62.744 31.8352C62.6952 31.7925 62.6637 31.7333 62.6556 31.669L61.5896 21.1347C61.591 21.0701 61.6159 21.0082 61.6598 20.9607C61.7037 20.9132 61.7634 20.8833 61.8277 20.8768C61.892 20.8703 61.9565 20.8876 62.009 20.9253C62.0615 20.963 62.0984 21.0187 62.1127 21.0817L63.1787 31.616C63.1843 31.6842 63.1633 31.752 63.1201 31.805C63.0769 31.8581 63.0149 31.8924 62.947 31.9007H62.9205Z" fill="#BA68C8"/>
<path d="M65.0398 30.5698C64.9757 30.5701 64.9137 30.5466 64.866 30.5037C64.8183 30.4609 64.7882 30.4018 64.7816 30.338L64.2254 25.0742C64.2208 25.0401 64.2233 25.0054 64.2326 24.9723C64.2419 24.9392 64.2579 24.9083 64.2796 24.8816C64.3014 24.8549 64.3283 24.833 64.3589 24.8172C64.3894 24.8013 64.4229 24.7919 64.4572 24.7895C64.4911 24.7858 64.5254 24.7889 64.5582 24.7986C64.5909 24.8083 64.6214 24.8244 64.6479 24.8459C64.6744 24.8675 64.6963 24.8941 64.7124 24.9242C64.7286 24.9543 64.7386 24.9872 64.7419 25.0212L65.2981 30.3182C65.3017 30.3521 65.2986 30.3864 65.2889 30.4192C65.2792 30.4519 65.2631 30.4824 65.2416 30.5089C65.22 30.5353 65.1935 30.5573 65.1634 30.5734C65.1333 30.5896 65.1003 30.5996 65.0663 30.6029L65.0398 30.5698Z" fill="#8873F4"/>
<path d="M67.1123 29.1463C67.0476 29.145 66.9856 29.1201 66.938 29.0762C66.8904 29.0322 66.8606 28.9724 66.8541 28.908L66.3443 24.2732C66.3397 24.2387 66.3421 24.2037 66.3513 24.1702C66.3606 24.1367 66.3765 24.1054 66.3982 24.0782C66.4198 24.051 66.4467 24.0284 66.4773 24.0118C66.5078 23.9953 66.5414 23.9851 66.576 23.9818C66.6101 23.9772 66.6448 23.9796 66.6779 23.989C66.711 23.9983 66.7419 24.0143 66.7686 24.036C66.7953 24.0577 66.8172 24.0847 66.8331 24.1152C66.8489 24.1458 66.8583 24.1792 66.8607 24.2136L67.3772 28.8815C67.3808 28.9154 67.3777 28.9498 67.368 28.9825C67.3584 29.0152 67.3423 29.0457 67.3207 29.0722C67.2992 29.0987 67.2726 29.1206 67.2425 29.1368C67.2124 29.1529 67.1794 29.1629 67.1455 29.1662L67.1123 29.1463Z" fill="#BA68C8"/>
<path d="M69.1513 27.5705C69.0871 27.5708 69.0252 27.5473 68.9774 27.5045C68.9297 27.4616 68.8996 27.4025 68.893 27.3387L68.4229 23.2204C68.4183 23.1864 68.4205 23.1519 68.4293 23.1188C68.4382 23.0857 68.4535 23.0547 68.4745 23.0275C68.4954 23.0004 68.5215 22.9778 68.5514 22.9608C68.5812 22.9439 68.614 22.9331 68.6481 22.929C68.7173 22.9216 68.7868 22.9417 68.8413 22.9851C68.8958 23.0285 68.9311 23.0916 68.9394 23.1608L69.4095 27.2792C69.4132 27.3131 69.41 27.3474 69.4004 27.3802C69.3907 27.4129 69.3746 27.4434 69.353 27.4699C69.3315 27.4963 69.3049 27.5183 69.2748 27.5344C69.2447 27.5506 69.2117 27.5606 69.1777 27.5639L69.1513 27.5705Z" fill="#8873F4"/>
<path d="M71.1443 25.8687C71.081 25.8663 71.0205 25.8418 70.9734 25.7995C70.9262 25.7572 70.8954 25.6997 70.8861 25.637L69.6215 15.1226C69.614 15.0533 69.6342 14.9839 69.6775 14.9293C69.7209 14.8748 69.784 14.8396 69.8532 14.8312C69.887 14.8256 69.9215 14.8271 69.9546 14.8356C69.9877 14.8442 70.0186 14.8595 70.0455 14.8807C70.0723 14.9019 70.0944 14.9285 70.1103 14.9587C70.1262 14.989 70.1356 15.0223 70.1379 15.0564L71.3893 25.5774C71.3951 25.6463 71.3743 25.7149 71.3313 25.769C71.2882 25.8232 71.2261 25.8588 71.1576 25.8687H71.1443Z" fill="#BA68C8"/>
<path d="M73.1111 24.0216C73.0469 24.022 72.985 23.9984 72.9372 23.9556C72.8895 23.9127 72.8594 23.8537 72.8529 23.7899L72.2702 19.016C72.2644 18.9471 72.2852 18.8785 72.3283 18.8244C72.3713 18.7702 72.4335 18.7346 72.5019 18.7247C72.5709 18.7189 72.6394 18.7397 72.6936 18.7828C72.7477 18.8258 72.7834 18.8879 72.7933 18.9564L73.3759 23.7303C73.3806 23.7642 73.3784 23.7988 73.3695 23.8319C73.3607 23.865 73.3454 23.896 73.3244 23.9231C73.3035 23.9502 73.2773 23.9729 73.2475 23.9898C73.2177 24.0067 73.1848 24.0175 73.1508 24.0216H73.1111Z" fill="#8873F4"/>
<path d="M75.0115 21.7373C74.9474 21.7376 74.8854 21.7141 74.8377 21.6712C74.7899 21.6284 74.7598 21.5693 74.7532 21.5055L74.1309 16.6125C74.1221 16.544 74.1409 16.4748 74.1831 16.4202C74.2253 16.3656 74.2875 16.3299 74.356 16.3212C74.4245 16.3124 74.4936 16.3312 74.5483 16.3734C74.6029 16.4156 74.6385 16.4778 74.6473 16.5463L75.2697 21.4393C75.2743 21.4733 75.2722 21.5078 75.2633 21.5409C75.2545 21.574 75.2391 21.6051 75.2182 21.6322C75.1972 21.6593 75.1711 21.682 75.1413 21.6989C75.1115 21.7158 75.0786 21.7266 75.0446 21.7307L75.0115 21.7373Z" fill="#BA68C8"/>
<path d="M76.8655 19.168C76.8032 19.1659 76.7435 19.1424 76.6964 19.1014C76.6494 19.0604 76.6179 19.0044 76.6073 18.9429L75.9452 13.6857C75.9408 13.6518 75.9432 13.6174 75.9522 13.5844C75.9611 13.5514 75.9765 13.5205 75.9974 13.4934C76.0183 13.4664 76.0443 13.4437 76.074 13.4267C76.1037 13.4097 76.1364 13.3987 76.1703 13.3944C76.2042 13.39 76.2387 13.3924 76.2716 13.4014C76.3046 13.4103 76.3355 13.4257 76.3626 13.4466C76.3896 13.4675 76.4123 13.4936 76.4293 13.5232C76.4463 13.5529 76.4573 13.5856 76.4616 13.6195L77.1237 18.8701C77.1332 18.9394 77.1148 19.0097 77.0726 19.0655C77.0305 19.1213 76.9679 19.1582 76.8986 19.168H76.8655Z" fill="#BA68C8"/>
</svg>
