<svg width="20" height="20" viewBox="0 0 20 20" fill="none" xmlns="http://www.w3.org/2000/svg">
<path d="M10.9875 2.6499C10.9875 2.90949 10.9105 3.16325 10.7663 3.37909C10.6221 3.59493 10.4171 3.76315 10.1773 3.86249C9.93744 3.96183 9.67354 3.98783 9.41894 3.93718C9.16434 3.88654 8.93048 3.76154 8.74692 3.57798C8.56337 3.39442 8.43836 3.16056 8.38772 2.90596C8.33708 2.65136 8.36307 2.38746 8.46241 2.14763C8.56175 1.9078 8.72997 1.70282 8.94581 1.5586C9.16165 1.41438 9.41541 1.3374 9.675 1.3374C10.0231 1.3374 10.3569 1.47568 10.6031 1.72182C10.8492 1.96797 10.9875 2.30181 10.9875 2.6499ZM9.675 4.9999C9.40402 4.99991 9.13914 5.08034 8.91392 5.23102C8.68869 5.3817 8.51326 5.59584 8.40985 5.84631C8.30644 6.09678 8.2797 6.37231 8.33303 6.63799C8.38635 6.90367 8.51733 7.14755 8.70938 7.33872C8.90143 7.52989 9.1459 7.65976 9.41182 7.71186C9.67774 7.76397 9.95315 7.73597 10.2031 7.63141C10.4531 7.52685 10.6665 7.35045 10.8161 7.12454C10.9658 6.89862 11.045 6.63338 11.0438 6.3624C11.0421 6.00047 10.8972 5.65393 10.6406 5.39859C10.3841 5.14325 10.0369 4.9999 9.675 4.9999ZM9.675 8.6624C9.3944 8.6624 9.1201 8.74561 8.88679 8.90151C8.65347 9.0574 8.47163 9.27898 8.36425 9.53822C8.25686 9.79746 8.22877 10.0827 8.28351 10.3579C8.33825 10.6331 8.47338 10.8859 8.67179 11.0844C8.87021 11.2828 9.12301 11.4179 9.39822 11.4726C9.67343 11.5274 9.95869 11.4993 10.2179 11.3919C10.4772 11.2845 10.6988 11.1027 10.8546 10.8694C11.0105 10.6361 11.0938 10.3618 11.0938 10.0812C11.0946 9.89461 11.0584 9.70975 10.9874 9.53724C10.9164 9.36474 10.812 9.20801 10.6801 9.0761C10.5481 8.94419 10.3914 8.83972 10.2189 8.76871C10.0464 8.69771 9.86154 8.66158 9.675 8.6624ZM9.675 12.4124C9.40579 12.4136 9.14298 12.4946 8.91975 12.6451C8.69651 12.7955 8.52285 13.0087 8.42068 13.2578C8.31851 13.5069 8.29242 13.7806 8.3457 14.0445C8.39897 14.3084 8.52923 14.5506 8.72002 14.7405C8.91082 14.9305 9.1536 15.0596 9.41773 15.1117C9.68186 15.1637 9.95549 15.1364 10.2041 15.0331C10.4527 14.9298 10.6651 14.7551 10.8146 14.5312C10.964 14.3073 11.0437 14.0441 11.0438 13.7749C11.0438 13.5955 11.0083 13.4178 10.9394 13.2521C10.8706 13.0863 10.7697 12.9359 10.6425 12.8093C10.5153 12.6827 10.3644 12.5824 10.1983 12.5143C10.0323 12.4462 9.85445 12.4116 9.675 12.4124ZM9.675 16.1624C9.41541 16.1624 9.16165 16.2394 8.94581 16.3836C8.72997 16.5278 8.56175 16.7328 8.46241 16.9726C8.36307 17.2125 8.33708 17.4764 8.38772 17.731C8.43836 17.9856 8.56337 18.2194 8.74692 18.403C8.93048 18.5865 9.16434 18.7115 9.41894 18.7622C9.67354 18.8128 9.93744 18.7868 10.1773 18.6875C10.4171 18.5882 10.6221 18.4199 10.7663 18.2041C10.9105 17.9883 10.9875 17.7345 10.9875 17.4749C10.9875 17.1268 10.8492 16.793 10.6031 16.5468C10.3569 16.3007 10.0231 16.1624 9.675 16.1624ZM13.2938 4.8249C12.9879 4.82367 12.6886 4.91331 12.4337 5.08247C12.1789 5.25162 11.9801 5.49266 11.8625 5.77499C11.7449 6.05733 11.7138 6.36824 11.7731 6.66828C11.8325 6.96832 11.9796 7.24396 12.1959 7.46024C12.4122 7.67651 12.6878 7.82366 12.9879 7.88303C13.2879 7.9424 13.5988 7.9113 13.8812 7.79368C14.1635 7.67607 14.4045 7.47723 14.5737 7.22241C14.7428 6.96758 14.8325 6.66826 14.8313 6.3624C14.8296 5.95514 14.6671 5.56503 14.3791 5.27704C14.0911 4.98906 13.701 4.82655 13.2938 4.8249ZM13.2938 8.4874C12.9785 8.4874 12.6704 8.58088 12.4083 8.756C12.1462 8.93112 11.9419 9.18003 11.8213 9.47125C11.7007 9.76247 11.6691 10.0829 11.7306 10.3921C11.7921 10.7012 11.9439 10.9852 12.1668 11.2081C12.3897 11.431 12.6737 11.5828 12.9828 11.6443C13.292 11.7058 13.6124 11.6742 13.9037 11.5536C14.1949 11.433 14.4438 11.2287 14.6189 10.9666C14.794 10.7045 14.8875 10.3964 14.8875 10.0812C14.8875 9.65846 14.7196 9.25309 14.4207 8.9542C14.1218 8.65532 13.7164 8.4874 13.2938 8.4874ZM13.2938 12.2374C12.9897 12.2374 12.6924 12.3276 12.4396 12.4965C12.1867 12.6655 11.9897 12.9056 11.8733 13.1865C11.7569 13.4675 11.7265 13.7766 11.7858 14.0749C11.8451 14.3731 11.9916 14.6471 12.2066 14.8621C12.4216 15.0771 12.6956 15.2235 12.9938 15.2829C13.292 15.3422 13.6012 15.3117 13.8821 15.1954C14.1631 15.079 14.4032 14.8819 14.5721 14.6291C14.7411 14.3763 14.8313 14.079 14.8313 13.7749C14.8296 13.3676 14.6671 12.9775 14.3791 12.6895C14.0911 12.4016 13.701 12.239 13.2938 12.2374ZM17 8.3124C16.6494 8.30869 16.3056 8.40925 16.0123 8.60133C15.719 8.79341 15.4893 9.06834 15.3526 9.39119C15.2158 9.71404 15.1781 10.0703 15.2442 10.4146C15.3103 10.7589 15.4773 11.0758 15.7239 11.3251C15.9705 11.5743 16.2856 11.7446 16.6292 11.8144C16.9728 11.8842 17.3294 11.8503 17.6537 11.717C17.978 11.5837 18.2554 11.357 18.4506 11.0657C18.6458 10.7745 18.75 10.4318 18.75 10.0812C18.7517 9.61479 18.5684 9.16677 18.2404 8.83524C17.9124 8.50372 17.4664 8.31571 17 8.3124ZM6.01875 5.1874C5.78212 5.18617 5.55046 5.25529 5.3532 5.38598C5.15593 5.51667 5.00196 5.70305 4.91083 5.92143C4.81971 6.13981 4.79554 6.38035 4.8414 6.6125C4.88726 6.84464 5.00108 7.05792 5.16841 7.22525C5.33573 7.39257 5.54901 7.50639 5.78116 7.55225C6.0133 7.59811 6.25384 7.57395 6.47222 7.48282C6.69061 7.3917 6.87698 7.23772 7.00767 7.04046C7.13837 6.84319 7.20749 6.61153 7.20625 6.3749C7.20625 6.05996 7.08114 5.75791 6.85844 5.53521C6.63574 5.31251 6.33369 5.1874 6.01875 5.1874ZM6.01875 8.8499C5.77152 8.8499 5.52985 8.92321 5.32429 9.06057C5.11873 9.19792 4.95851 9.39314 4.8639 9.62155C4.76929 9.84996 4.74454 10.1013 4.79277 10.3438C4.841 10.5862 4.96005 10.809 5.13487 10.9838C5.30968 11.1586 5.53241 11.2777 5.77489 11.3259C6.01736 11.3741 6.2687 11.3494 6.4971 11.2548C6.72551 11.1601 6.92074 10.9999 7.05809 10.7944C7.19544 10.5888 7.26875 10.3471 7.26875 10.0999C7.26875 9.76838 7.13705 9.45044 6.90263 9.21602C6.66821 8.9816 6.35027 8.8499 6.01875 8.8499ZM6.01875 12.5999C5.78389 12.5999 5.55429 12.6695 5.35901 12.8C5.16373 12.9305 5.01152 13.116 4.92164 13.333C4.83176 13.55 4.80825 13.7887 4.85407 14.0191C4.89989 14.2494 5.01299 14.461 5.17906 14.6271C5.34514 14.7932 5.55673 14.9063 5.78708 14.9521C6.01743 14.9979 6.2562 14.9744 6.47319 14.8845C6.69017 14.7946 6.87564 14.6424 7.00612 14.4471C7.1366 14.2519 7.20625 14.0223 7.20625 13.7874C7.20625 13.4725 7.08114 13.1704 6.85844 12.9477C6.63574 12.725 6.33369 12.5999 6.01875 12.5999ZM2.35625 9.0124C2.14461 9.01117 1.93737 9.07279 1.76079 9.18947C1.58422 9.30616 1.44626 9.47264 1.36441 9.66781C1.28256 9.86299 1.2605 10.0781 1.30103 10.2858C1.34156 10.4935 1.44285 10.6845 1.59207 10.8346C1.74128 10.9847 1.9317 11.0871 2.13919 11.1289C2.34667 11.1706 2.56188 11.1498 2.75754 11.0691C2.95319 10.9884 3.12048 10.8515 3.23819 10.6756C3.35591 10.4997 3.41875 10.2928 3.41875 10.0812C3.41957 9.9411 3.3927 9.80226 3.33967 9.67263C3.28665 9.543 3.20851 9.42513 3.10977 9.32581C3.01103 9.22648 2.89362 9.14766 2.7643 9.09388C2.63498 9.04009 2.49631 9.0124 2.35625 9.0124Z" fill="#00A9B9"/>
</svg>
