<svg width="24" height="24" viewBox="0 0 24 24" fill="none" xmlns="http://www.w3.org/2000/svg">
<path fill-rule="evenodd" clip-rule="evenodd" d="M15.0003 19.5C15.0005 20.0046 14.8099 20.4906 14.4668 20.8605C14.1237 21.2305 13.6535 21.4572 13.1503 21.495L13.0003 21.5H11.0003C10.4958 21.5002 10.0098 21.3096 9.63979 20.9665C9.26981 20.6234 9.04318 20.1532 9.00534 19.65L9.00034 19.5H15.0003ZM12.0003 2.5C13.8153 2.49997 15.5594 3.20489 16.8646 4.46607C18.1698 5.72726 18.9341 7.44609 18.9963 9.26L19.0003 9.5V13.264L20.8223 16.908C20.9019 17.067 20.9416 17.2429 20.9383 17.4206C20.935 17.5984 20.8886 17.7727 20.8032 17.9286C20.7178 18.0845 20.5958 18.2174 20.4478 18.3158C20.2998 18.4143 20.1301 18.4754 19.9533 18.494L19.8383 18.5H4.16234C3.9845 18.5001 3.8093 18.457 3.65176 18.3745C3.49421 18.292 3.35902 18.1725 3.25775 18.0264C3.15649 17.8802 3.09218 17.7116 3.07034 17.5351C3.0485 17.3586 3.06977 17.1795 3.13234 17.013L3.17834 16.908L5.00034 13.264V9.5C5.00034 7.64348 5.73783 5.86301 7.05059 4.55025C8.36334 3.2375 10.1438 2.5 12.0003 2.5ZM12.0003 4.5C10.7119 4.50007 9.47318 4.99754 8.54256 5.88866C7.61194 6.77978 7.06126 7.99575 7.00534 9.283L7.00034 9.5V13.264C7.00035 13.512 6.95423 13.7579 6.86434 13.989L6.78934 14.159L5.61934 16.5H18.3823L17.2123 14.158C17.1013 13.9363 17.0325 13.6959 17.0093 13.449L17.0003 13.264V9.5C17.0003 8.17392 16.4736 6.90215 15.5359 5.96447C14.5982 5.02678 13.3264 4.5 12.0003 4.5Z" fill="#202326"/>
<circle cx="17.3383" cy="6.66519" r="4.1" fill="#8873F4" stroke="#39434F"/>
</svg>
