<svg width="44" height="61" viewBox="0 0 44 61" fill="none" xmlns="http://www.w3.org/2000/svg">
<path d="M0.475474 27.2223C1.19119 28.394 3.14833 27.2222 6.56858 25.8732C9.98883 24.5241 8.6144 9.27862 8.6144 9.27862C8.6144 9.27862 3.14834 9.27862 2.1666 14.4153C1.18487 19.552 0.475474 27.2223 0.475474 27.2223Z" fill="#263238"/>
<path d="M28.895 0.49351C32.1443 0.411171 39.2508 4.15444 40.3782 6.66896C41.5626 9.30381 45.8443 44.9567 43.0954 48.2883C39.6498 52.4749 22.6816 60.6709 15.2267 60.4365C9.08928 60.2465 3.25585 54.6221 2.31845 52.9816C0.785676 50.2898 2.69847 13.5918 4.64294 10.5009C7.82251 5.47821 24.7844 0.563182 28.895 0.49351Z" fill="#8873F4"/>
<path opacity="0.5" d="M28.895 0.49351C32.1443 0.411171 39.2508 4.15444 40.3782 6.66896C41.5626 9.30381 45.8443 44.9567 43.0954 48.2883C39.6498 52.4749 22.6816 60.6709 15.2267 60.4365C9.08928 60.2465 3.25585 54.6221 2.31845 52.9816C0.785676 50.2898 2.69847 13.5918 4.64294 10.5009C7.82251 5.47821 24.7844 0.563182 28.895 0.49351Z" fill="black"/>
<path d="M2.37616 29.116C2.47116 27.5769 2.5725 26.0631 2.68651 24.5937C2.73084 24.0047 2.77518 23.4283 2.82585 22.8582C2.92086 21.7182 3.0222 20.6224 3.12354 19.5837C3.17421 19.0643 3.22488 18.5576 3.28188 18.0636C3.36422 17.3288 3.44657 16.6321 3.52891 15.9797C3.61125 15.3274 3.69992 14.713 3.78226 14.1556C3.81393 13.9719 3.84559 13.7883 3.87092 13.6109C3.98757 12.5402 4.26074 11.4924 4.68166 10.501C4.77458 10.3537 4.87609 10.212 4.98567 10.0767C5.02018 10.0275 5.05828 9.98087 5.09968 9.93731C5.17671 9.83581 5.25917 9.73855 5.34671 9.64595L5.50505 9.47494C5.58739 9.38627 5.68239 9.29759 5.7774 9.20259L5.94842 9.03158L6.39178 8.64521L6.69581 8.3982L6.90481 8.22718L7.26584 7.96116L7.44319 7.82815L7.86122 7.53047C10.7558 8.73389 13.492 9.8803 13.5616 9.93731C13.6313 9.99431 16.6842 11.8374 16.5448 16.3218V34.5568V36.2859C16.5068 38.7054 18.597 60.9877 11.7628 59.7209L11.4905 59.6702C6.88582 58.0488 3.08554 54.2485 2.37616 52.9818C2.2097 52.5937 2.10909 52.1805 2.07847 51.7593C2.0468 51.5187 2.01514 51.259 1.9898 50.9676C1.9898 50.8219 1.9898 50.6699 1.9898 50.5116C1.9518 50.0365 1.92646 49.5045 1.90746 48.9218C1.90746 48.7318 1.90746 48.5291 1.90746 48.3264C1.81879 45.2672 1.90745 41.0299 2.07213 36.4949C2.1038 35.5892 2.14813 34.6708 2.19247 33.746C2.19247 33.1127 2.24948 32.5109 2.28115 31.8902L2.33815 30.9655C2.28748 30.3448 2.32549 29.7304 2.37616 29.116Z" fill="#8873F4"/>
<path opacity="0.4" d="M2.37616 29.116C2.47116 27.5769 2.5725 26.0631 2.68651 24.5937C2.73084 24.0047 2.77518 23.4283 2.82585 22.8582C2.92086 21.7182 3.0222 20.6224 3.12354 19.5837C3.17421 19.0643 3.22488 18.5576 3.28188 18.0636C3.36422 17.3288 3.44657 16.6321 3.52891 15.9797C3.61125 15.3274 3.69992 14.713 3.78226 14.1556C3.81393 13.9719 3.84559 13.7883 3.87092 13.6109C3.98757 12.5402 4.26074 11.4924 4.68166 10.501C4.77458 10.3537 4.87609 10.212 4.98567 10.0767C5.02018 10.0275 5.05828 9.98087 5.09968 9.93731C5.17671 9.83581 5.25917 9.73855 5.34671 9.64595L5.50505 9.47494C5.58739 9.38627 5.68239 9.29759 5.7774 9.20259L5.94842 9.03158L6.39178 8.64521L6.69581 8.3982L6.90481 8.22718L7.26584 7.96116L7.44319 7.82815L7.86122 7.53047C10.7558 8.73389 13.492 9.8803 13.5616 9.93731C13.6313 9.99431 16.6842 11.8374 16.5448 16.3218V34.5568V36.2859C16.5068 38.7054 18.597 60.9877 11.7628 59.7209L11.4905 59.6702C6.88582 58.0488 3.08554 54.2485 2.37616 52.9818C2.2097 52.5937 2.10909 52.1805 2.07847 51.7593C2.0468 51.5187 2.01514 51.259 1.9898 50.9676C1.9898 50.8219 1.9898 50.6699 1.9898 50.5116C1.9518 50.0365 1.92646 49.5045 1.90746 48.9218C1.90746 48.7318 1.90746 48.5291 1.90746 48.3264C1.81879 45.2672 1.90745 41.0299 2.07213 36.4949C2.1038 35.5892 2.14813 34.6708 2.19247 33.746C2.19247 33.1127 2.24948 32.5109 2.28115 31.8902L2.33815 30.9655C2.28748 30.3448 2.32549 29.7304 2.37616 29.116Z" fill="black"/>
<path opacity="0.5" d="M4.06064 12.5277C4.17082 11.8246 4.38425 11.1416 4.69402 10.5009C7.86091 5.49087 24.8101 0.563182 28.9208 0.49351C32.1447 0.411171 39.2512 4.15444 40.3786 6.66896C40.7144 7.7377 40.958 8.83323 41.107 9.94353C34.6592 13.3638 18.014 20.9643 16.3038 20.3436C14.201 19.5772 4.23798 12.8317 4.0543 12.5404L4.06064 12.5277Z" fill="black"/>
<path d="M1.01458 36.349C1.21092 36.254 4.04212 34.1448 4.37148 33.9801C4.95419 33.6888 13.3021 39.3955 14.0748 40.3646C14.6132 41.036 13.7202 51.3854 13.3908 52.1201C13.2705 52.3861 10.1542 54.2229 10.0339 54.489C9.70453 55.2237 0.881562 49.4219 0.336856 48.0222C-0.20785 46.6224 0.165848 36.7733 1.01458 36.349Z" fill="#8873F4"/>
<path opacity="0.18" d="M1.01458 36.349C1.21092 36.254 4.04212 34.1448 4.37148 33.9801C4.95419 33.6888 13.3021 39.3955 14.0748 40.3646C14.6132 41.036 13.7202 51.3854 13.3908 52.1201C13.2705 52.3861 10.1542 54.2229 10.0339 54.489C9.70453 55.2237 0.881562 49.4219 0.336856 48.0222C-0.20785 46.6224 0.165848 36.7733 1.01458 36.349Z" fill="black"/>
<path d="M10.7179 42.7273C11.2563 43.405 10.3696 53.7481 10.0339 54.4891C9.6982 55.2302 0.881562 49.4221 0.336856 48.0223C-0.20785 46.6226 0.165848 36.7735 1.01458 36.3492C1.59728 36.0578 9.97689 41.7645 10.7179 42.7273Z" fill="#8873F4"/>
<path opacity="0.4" d="M4.37128 33.9801C4.04192 34.1448 1.20438 36.254 1.0207 36.349C1.59707 36.0576 9.95136 41.7644 10.7177 42.7271L14.0747 40.3646C13.3019 39.3955 4.95399 33.6888 4.37128 33.9801Z" fill="black"/>
<path opacity="0.3" d="M10.7179 42.7273C11.2563 43.405 10.3696 53.7481 10.0339 54.4891C9.6982 55.2302 0.881562 49.4221 0.336856 48.0223C-0.20785 46.6226 0.165848 36.7735 1.01458 36.3492C1.59728 36.0578 9.97689 41.7645 10.7179 42.7273Z" fill="black"/>
<path d="M14.0748 40.365C13.4415 39.9533 11.5793 40.9351 10.7749 41.6318C9.97056 42.3285 9.07116 45.5587 6.97467 46.0654C4.87819 46.5721 1.97097 43.8043 1.36926 42.0435C0.767555 40.2827 0.0518293 36.5711 1.06524 35.26C2.07864 33.9489 3.83944 33.2332 5.30888 34.0376C6.77832 34.842 13.9038 38.7436 14.0748 40.365Z" fill="#8873F4"/>
<path opacity="0.1" d="M14.0748 40.365C13.4415 39.9533 11.5793 40.9351 10.7749 41.6318C9.97056 42.3285 9.07116 45.5587 6.97467 46.0654C4.87819 46.5721 1.97097 43.8043 1.36926 42.0435C0.767555 40.2827 0.0518293 36.5711 1.06524 35.26C2.07864 33.9489 3.83944 33.2332 5.30888 34.0376C6.77832 34.842 13.9038 38.7436 14.0748 40.365Z" fill="black"/>
<path d="M4.70643 41.7458C4.94503 41.8979 5.13772 42.1121 5.26381 42.3654C5.3899 42.6187 5.44464 42.9015 5.42215 43.1836C5.42102 43.2948 5.39061 43.4038 5.33397 43.4996C5.27733 43.5954 5.19647 43.6745 5.09951 43.7291C5.00255 43.7837 4.89292 43.8117 4.78166 43.8105C4.67041 43.8092 4.56145 43.7787 4.46574 43.7219C4.22358 43.5736 4.02807 43.36 3.90151 43.1058C3.77494 42.8516 3.72246 42.5668 3.75004 42.2842C3.81971 41.7331 4.27573 41.4861 4.70643 41.7458Z" fill="#37474F"/>
<path d="M16.5382 20.3817C16.5382 20.3817 15.4172 16.0874 10.2488 13.0535C5.08041 10.0196 4.92208 10.9697 3.24996 13.8579C1.74251 16.4611 1.08379 26.1834 1.00779 27.1145C0.931783 28.0456 -0.182957 27.8619 0.0260581 21.9145C0.235073 15.967 1.1028 10.273 6.67654 6.78304C14.1821 2.07703 25.7729 -0.950521 31.2136 0.271901C36.6544 1.49432 41.5377 4.25586 41.1134 9.9436C41.1134 9.9436 33.9878 19.3429 16.5382 20.3817Z" fill="#37474F"/>
</svg>
