<svg width="24" height="24" viewBox="0 0 24 24" fill="none" xmlns="http://www.w3.org/2000/svg">
<path d="M3.63605 11.2931C3.44858 11.4807 3.34326 11.735 3.34326 12.0001C3.34326 12.2653 3.44858 12.5196 3.63605 12.7071L9.29305 18.3641C9.3853 18.4597 9.49564 18.5358 9.61764 18.5882C9.73965 18.6407 9.87087 18.6682 10.0036 18.6694C10.1364 18.6705 10.2681 18.6452 10.391 18.595C10.5139 18.5447 10.6256 18.4704 10.7194 18.3765C10.8133 18.2826 10.8876 18.171 10.9379 18.0481C10.9882 17.9252 11.0135 17.7935 11.0123 17.6607C11.0111 17.528 10.9836 17.3967 10.9311 17.2747C10.8787 17.1527 10.8026 17.0424 10.707 16.9501L6.75705 13.0001H20C20.2653 13.0001 20.5196 12.8948 20.7072 12.7073C20.8947 12.5197 21 12.2654 21 12.0001C21 11.7349 20.8947 11.4806 20.7072 11.293C20.5196 11.1055 20.2653 11.0001 20 11.0001H6.75705L10.707 7.05014C10.8892 6.86154 10.99 6.60894 10.9877 6.34674C10.9854 6.08455 10.8803 5.83373 10.6949 5.64833C10.5095 5.46292 10.2586 5.35775 9.99645 5.35547C9.73425 5.35319 9.48165 5.45399 9.29305 5.63614L3.63605 11.2931Z" fill="#606873"/>
</svg>
