<svg width="25" height="25" viewBox="0 0 25 25" fill="none" xmlns="http://www.w3.org/2000/svg">
<path fill-rule="evenodd" clip-rule="evenodd" d="M11.2869 3.54168C11.7375 3.26879 12.2542 3.12451 12.7809 3.12451C13.3077 3.12451 13.8244 3.26879 14.2749 3.54168L15.3359 4.19064C16.8244 5.10053 18.5197 5.30314 20.2228 5.5073C20.7734 5.57345 21.3244 5.63907 21.8697 5.72918C21.8697 5.72918 21.8817 6.68439 21.8692 7.11772L21.7603 10.8422C21.6666 14.0365 20.2463 17.0651 17.8098 19.2662C16.6603 20.3042 15.4713 21.2422 14.1051 22.0214C13.7025 22.2491 13.2511 22.3769 12.7889 22.3938C12.3266 22.4108 11.8671 22.3164 11.4489 22.1188C9.87128 21.3688 8.47441 20.4177 7.19889 19.2662C4.76243 17.0651 3.34211 14.0365 3.24889 10.8422L3.14055 7.1297C3.12753 6.68959 3.14055 5.72918 3.14055 5.72918C3.58326 5.67709 4.0343 5.63387 4.48899 5.59064C6.49576 5.40001 8.5692 5.20314 10.2702 4.16355L11.2874 3.54168H11.2869ZM11.4583 11.4583V7.81251H13.5416V11.4583H17.1874V13.5417H13.5416V17.1875H11.4583V13.5417H7.81243V11.4583H11.4583Z" fill="#B3BECD"/>
</svg>
