<svg width="17" height="17" viewBox="0 0 17 17" fill="none" xmlns="http://www.w3.org/2000/svg">
<path d="M0.0312913 3.01503C0.995893 3.26721 1.19133 5.00097 0.731091 5.53686C1.94157 6.25559 1.95418 7.79391 0.970669 8.1974C1.15981 8.82786 1.76506 10.9273 0.0565151 11.873C0.0565151 11.873 1.77766 13.1339 3.3412 12.39C4.90474 11.646 5.66128 6.15472 4.55167 4.35791C3.44206 2.5611 0.699578 2.35935 0.0312913 3.01503Z" fill="#8873F4"/>
<path opacity="0.6" d="M0.0312913 3.01503C0.995893 3.26721 1.19133 5.00097 0.731091 5.53686C1.94157 6.25559 1.95418 7.79391 0.970669 8.1974C1.15981 8.82786 1.76506 10.9273 0.0565151 11.873C0.0565151 11.873 1.77766 13.1339 3.3412 12.39C4.90474 11.646 5.66128 6.15472 4.55167 4.35791C3.44206 2.5611 0.699578 2.35935 0.0312913 3.01503Z" fill="white"/>
<path d="M14.4879 13.8842C14.237 14.1387 13.9718 14.3787 13.6935 14.6029C13.5233 14.7416 13.3531 14.8614 13.1766 14.9812H13.1261C13.0316 15.0443 12.937 15.1073 12.8361 15.164C12.7353 15.2208 12.6407 15.2775 12.5398 15.3217C12.4389 15.3658 12.3444 15.4225 12.2435 15.473C8.46075 17.1815 3.23425 16.343 0.687198 12.9511C0.425134 12.605 0.195121 12.2357 0 11.8478H0.0693412C0.573424 11.8989 1.07859 11.7619 1.48787 11.4633C1.52646 11.4351 1.56235 11.4035 1.59506 11.3687C1.767 11.2125 1.89437 11.0135 1.96416 10.7919C2.03395 10.5704 2.04363 10.3343 1.99223 10.1078C2.30843 10.1491 2.62985 10.0977 2.91737 9.95979C3.2049 9.82187 3.44615 9.60337 3.61178 9.33087C3.77742 9.05836 3.8603 8.7436 3.85036 8.42486C3.84042 8.10613 3.73808 7.79714 3.55578 7.53549C3.51765 7.49757 3.49137 7.44939 3.48013 7.3968C3.48417 7.33404 3.5085 7.27429 3.54947 7.22657C3.82156 6.9001 3.98471 6.49667 4.01602 6.07283C3.99439 5.85746 3.92196 5.65029 3.80469 5.46836C3.68741 5.28642 3.52864 5.13491 3.34142 5.02627C2.96547 4.80985 2.54926 4.67255 2.11833 4.62278C2.14966 4.35822 2.11342 4.09005 2.01299 3.8433C1.91257 3.59655 1.75123 3.37929 1.54407 3.2118C1.33691 3.0443 1.09069 2.93205 0.828381 2.88553C0.566075 2.839 0.296244 2.85972 0.0441175 2.94575C0.413272 2.24501 0.924282 1.6288 1.54461 1.13634C4.35015 -0.988305 7.77985 0.41131 8.63727 0.985027C9.89819 1.83615 10.9826 1.43266 12.0607 1.69745C13.4414 2.0442 15.8434 2.69357 16.7639 6.11066C17.5268 9.01077 16.3541 11.9739 14.4879 13.8842Z" fill="#8873F4"/>
<path opacity="0.1" d="M14.4879 13.8841C14.237 14.1386 13.9718 14.3785 13.6935 14.6028C13.5233 14.7415 13.3531 14.8613 13.1766 14.9811H13.1261C13.0316 15.0441 12.937 15.1072 12.8361 15.1639C12.7353 15.2206 12.6407 15.2774 12.5398 15.3215C12.4389 15.3656 12.3444 15.4224 12.2435 15.4728C8.46075 17.1814 3.23425 16.3429 0.687198 12.951C0.425134 12.6048 0.195121 12.2355 0 11.8477H0.0693412C0.573424 11.8987 1.07859 11.7618 1.48787 11.4631C1.52646 11.435 1.56235 11.4033 1.59506 11.3685C1.93209 11.8226 2.32381 12.2334 2.76139 12.5916C6.00195 15.2963 11.0645 15.6115 14.4879 13.8841Z" fill="black"/>
<g opacity="0.1">
<path d="M13.2585 3.28643C14.1789 3.38099 15.339 4.42756 15.7803 5.80826C16.2456 7.58994 16.142 9.47252 15.484 11.1924C14.3491 14.2501 10.9825 15.3282 10.7366 15.0067C10.4907 14.6851 13.1008 13.0333 12.4704 9.66036C11.8399 6.28741 11.758 3.13512 13.2585 3.28643Z" fill="white"/>
</g>
<g opacity="0.1">
<path d="M13.864 3.92929C14.7215 4.41474 15.5095 6.08545 15.5915 7.17615C15.6735 8.26684 15.4024 8.94774 15.2384 9.06753C14.9421 9.23775 13.4227 7.06267 12.9688 6.12959C12.3257 4.78671 12.477 3.14752 13.864 3.92929Z" fill="white"/>
</g>
<path opacity="0.2" d="M10.081 4.2005C10.6421 3.90419 11.1401 3.7907 11.2788 4.42747C11.4175 5.06423 9.92967 5.73882 8.56157 5.05792C7.19348 4.37703 6.87194 3.31156 7.00434 2.83871C7.2651 3.48895 7.76962 4.01156 8.41027 4.29507C8.96091 4.46148 9.55263 4.42799 10.081 4.2005Z" fill="black"/>
</svg>
