<svg width="32" height="32" viewBox="0 0 32 32" fill="none" xmlns="http://www.w3.org/2000/svg">
<path d="M27.8493 3.5L27.8477 27.522C28.2778 28.2297 28.7227 28.5018 29.0958 28.5C29.4661 28.4982 29.9063 28.2229 30.328 27.5364L29.1763 15.2669L29.1629 15.1174L29.2551 14.9983C30.5785 13.3002 31.0409 10.3666 30.6634 7.88519C30.4747 6.64444 30.0795 5.52144 29.5262 4.72756C29.0622 4.06181 28.5087 3.63712 27.8495 3.5H27.8493ZM4.57591 3.50025L4.57491 7.69569L3.78991 7.69469V3.5005H2.89584L2.89597 7.69487H2.10984V3.5005H1.19922V9.95225C1.19916 10.6658 1.58859 11.0615 2.20172 11.3061L2.45547 11.4075L2.44984 11.6806C2.32484 16.9662 2.20128 22.2518 2.07722 27.5374C2.50472 28.2369 2.94384 28.5017 3.30947 28.5C3.67509 28.4982 4.11384 28.2264 4.53591 27.5355C4.39122 22.2513 4.24653 16.967 4.10209 11.6827L4.09459 11.4077L4.34916 11.3074C4.99441 11.0507 5.41409 10.6152 5.41409 9.95262V3.50025H4.57591ZM16.0001 5.9375C13.3314 5.9375 10.7719 6.99765 8.88483 8.88474C6.99775 10.7718 5.93759 13.3313 5.93759 16C5.93759 18.6687 6.99775 21.2282 8.88483 23.1153C10.7719 25.0023 13.3314 26.0625 16.0001 26.0625C18.6688 26.0625 21.2283 25.0023 23.1154 23.1153C25.0024 21.2282 26.0626 18.6687 26.0626 16C26.0626 13.3313 25.0024 10.7718 23.1154 8.88474C21.2283 6.99765 18.6688 5.9375 16.0001 5.9375Z" fill="#4CD1BC"/>
</svg>
