<svg width="246" height="32" viewBox="0 0 246 32" fill="none" xmlns="http://www.w3.org/2000/svg">
<path d="M1.50238 30.2334L33.3665 10.2511C35.8538 8.69131 38.4908 7.38395 41.2381 6.34856L44.3575 5.17294C53.1945 1.84251 62.9872 2.12416 71.6182 5.957L72.4041 6.306C81.901 10.5234 92.8013 10.1878 102.021 5.3942L103.523 4.61291C107.103 2.75161 111.058 1.72389 115.091 1.60665L118.416 1.51C122.923 1.37897 127.317 2.93068 130.743 5.86277V5.86277C136.651 10.9199 145.125 11.6499 151.811 7.67787L154.637 5.9988C158.997 3.40859 164.098 2.35077 169.129 2.99362L188.11 5.41917C192.338 5.95945 196.503 6.91027 200.547 8.25814V8.25814C205.78 10.0027 211.213 11.0805 216.716 11.4661L217.069 11.4908C222.614 11.8793 228.186 11.5907 233.661 10.6315L244.498 8.73304" stroke="#8873F4" stroke-width="3" stroke-linecap="round"/>
</svg>
