<svg width="32" height="32" viewBox="0 0 32 32" fill="none" xmlns="http://www.w3.org/2000/svg">
<path d="M10 12.25C10 10.6587 10.6321 9.13258 11.7574 8.00736C12.8826 6.88214 14.4087 6.25 16 6.25C17.5913 6.25 19.1174 6.88214 20.2426 8.00736C21.3679 9.13258 22 10.6587 22 12.25C22 13.8413 21.3679 15.3674 20.2426 16.4926C19.1174 17.6179 17.5913 18.25 16 18.25C14.4087 18.25 12.8826 17.6179 11.7574 16.4926C10.6321 15.3674 10 13.8413 10 12.25ZM22.3656 7C20.8516 5.16719 18.5641 4 16 4C13.4359 4 11.1484 5.16719 9.63437 7H7C5.34531 7 4 8.34531 4 10V25C4 26.6547 5.34531 28 7 28H25C26.6547 28 28 26.6547 28 25V10C28 8.34531 26.6547 7 25 7H22.3656ZM17.875 14.5C17.875 14.0031 17.6828 13.5531 17.3641 13.2156L18.9391 9.54531C19.1031 9.16563 18.925 8.725 18.5453 8.56094C18.1656 8.39688 17.725 8.575 17.5609 8.95469L15.9859 12.625C14.9547 12.6297 14.125 13.4688 14.125 14.5C14.125 15.5359 14.9641 16.375 16 16.375C17.0359 16.375 17.875 15.5359 17.875 14.5Z" fill="#31AA7A"/>
</svg>
